<svg width="86" height="86" viewBox="0 0 86 86" fill="none" xmlns="http://www.w3.org/2000/svg">
<path d="M14.1094 86H72.0586C72.3787 85.7985 72.6272 85.5014 72.7689 85.1508C72.9106 84.8001 72.9383 84.4138 72.8481 84.0465C72.5407 82.4928 72.2887 80.9105 71.7848 79.4173C71.0474 77.2337 69.6902 75.3861 68.1684 73.6123C72.0754 69.6684 74.6772 65.4507 71.2859 59.8926C73.6457 57.2725 75.202 54.0288 75.769 50.5485C75.8043 50.3436 76.1302 50.1068 76.367 50.0278C79.9531 48.8369 82.2073 45.5598 81.952 41.888C81.7 38.2818 78.9991 35.3944 75.292 34.7124C75.03 34.6637 74.7579 34.3378 74.6201 34.0741C74.4824 33.8104 74.5076 33.4863 74.4606 33.1738C74.5983 33.1016 74.7175 33.0344 74.8402 32.9773C76.8104 32.0669 77.8888 30.5098 77.8636 28.3582C77.8418 26.1746 76.7147 24.599 74.6722 23.781C74.1683 23.5795 74.1683 23.2872 74.1683 22.8874C74.1683 20.369 74.1683 17.8495 74.1683 15.3288C74.1683 14.2471 73.9449 13.9716 72.9136 13.6491C71.8587 13.9683 71.6572 14.2169 71.6521 15.307C71.6437 17.7073 71.6521 20.1059 71.6521 22.5061C71.6521 22.8001 71.6269 23.094 71.6135 23.3762H67.8426C67.594 23.3947 67.3387 23.4316 67.0951 23.4316H14.4453C14.4453 17.0774 14.4453 10.834 14.4453 4.60234C14.4453 3.85488 14.8703 3.65332 15.48 4.08332C16.3484 4.69641 17.1882 5.34813 18.0466 5.97465C19.8237 7.27641 21.4597 7.28648 23.2133 6.00152C24.6343 4.96012 26.0604 3.92543 27.4545 2.85043C27.9433 2.47418 28.3044 2.49434 28.7831 2.86387C30.179 3.93719 31.6 4.97859 33.0243 6.01328C34.7645 7.27809 36.4039 7.27137 38.1222 6.01328C39.5415 4.97188 40.9676 3.93719 42.3651 2.86555C42.8438 2.49937 43.2049 2.47922 43.6937 2.85547C45.1349 3.96406 46.6013 5.03906 48.0743 6.10063C49.6801 7.26297 51.3565 7.24617 52.9639 6.07207C54.3631 5.04914 55.7774 4.04469 57.1413 2.97641C57.7191 2.52289 58.1374 2.46074 58.7404 2.94281C59.985 3.93887 61.3237 4.81398 62.5684 5.80836C64.2581 7.15211 65.9882 7.31168 67.8325 6.18293C68.6942 5.52617 69.5441 4.85094 70.4276 4.22441C70.6712 4.05644 71.0995 3.86496 71.2893 3.96574C71.4791 4.06652 71.6135 4.515 71.6252 4.80559C71.6572 6.3677 71.6353 7.93149 71.642 9.49359C71.642 10.6509 71.81 10.8625 72.9203 11.2338C73.7064 11.0775 74.1481 10.6072 74.1532 9.79762C74.1649 7.97852 74.175 6.15941 74.1431 4.34031C74.1196 3.11582 73.5082 2.21383 72.4147 1.67297C71.2809 1.11027 70.1942 1.24969 69.1796 1.99043C68.3398 2.60184 67.5151 3.22164 66.6819 3.83809C65.6136 4.62418 65.2609 4.60234 64.1506 3.82297C62.3164 2.54137 60.4688 1.27656 58.6211 0H57.2774C56.4963 0.503906 55.6951 0.980937 54.9359 1.51172C53.8189 2.29949 52.7338 3.13094 51.6319 3.93887C50.74 4.59227 50.2882 4.57715 49.3795 3.92879C47.534 2.61527 45.6875 1.30568 43.8399 0H42.3281C41.6563 0.423281 40.9726 0.819688 40.3293 1.27656C39.1267 2.13488 37.9492 3.03016 36.76 3.90695C35.8109 4.60402 35.391 4.59562 34.4403 3.92039C32.5904 2.61023 30.7405 1.30344 28.8906 0H27.3789C26.8246 0.347695 26.2535 0.671874 25.7211 1.04644C24.6729 1.79055 23.65 2.56992 22.6136 3.33082C20.6518 4.77535 20.6518 4.77367 18.6714 3.29723L16.9917 2.04586C15.9621 1.27824 14.8535 1.10523 13.6895 1.68809C12.4986 2.28438 11.9409 3.28547 11.9409 4.60738V23.5677C9.77243 24.3202 8.43036 25.7681 8.27079 28.0289C8.09274 30.5283 9.39786 32.1963 11.6671 33.1789C11.5747 33.6828 11.4991 34.1413 11.4051 34.6116C11.2371 34.6503 11.1061 34.6889 10.9717 34.7124C7.22939 35.3457 4.45958 38.1877 4.19755 41.6646C3.9036 45.5699 6.0452 48.7496 9.77411 50.0429C9.92171 50.1103 10.0527 50.2094 10.1578 50.333C10.2628 50.4567 10.3394 50.6019 10.3822 50.7585C10.7697 53.0233 11.594 55.1912 12.8093 57.1413C13.4157 58.1038 14.1262 59.0041 14.8149 59.9665C12.1744 64.1473 13.11 67.9736 16.0813 71.5564C16.6675 72.2669 17.3008 72.9354 17.929 73.6341C17.6384 73.9902 17.3478 74.3262 17.0774 74.6772C14.9106 77.5058 13.409 80.5965 13.2662 84.2397C13.2208 85.014 13.4375 85.5935 14.1094 86ZM68.3381 35.1055L68.3515 35.1273C68.0979 34.5915 67.8476 34.0557 67.5486 33.4359H71.9158C72.0233 34.0221 72.151 34.5646 72.2199 35.1155C72.5659 37.8837 72.8917 40.6585 73.2277 43.4233C73.6425 46.7003 73.6677 49.9489 72.4936 53.0983C71.0928 56.8591 68.4254 59.5936 65.2357 61.878C60.8551 65.0123 55.9403 67.0699 50.9046 68.8605C49.6499 69.3073 48.333 69.5794 47.0413 69.9321L47.0514 69.9204L46.5274 70.043C43.9793 70.6796 41.4295 70.5469 38.9083 69.9472C35.0719 69.0352 31.4438 67.5285 27.8744 65.8841C27.0732 65.5162 26.3795 65.4625 25.7966 66.2334C25.5783 67.3034 25.7244 67.6528 26.66 68.1332C27.305 68.4691 27.955 68.7916 28.6269 69.062C30.4292 69.7877 32.2467 70.4814 34.0557 71.1868V83.4486H29.9656C29.3761 81.0432 27.8459 79.2493 26.1024 77.6133C24.3588 75.9773 22.5078 74.4992 20.8281 72.8195C19.3769 71.3649 17.9592 69.8297 16.7969 68.1449C15.4212 66.1562 15.4279 63.9575 16.6373 61.8864C18.2884 63.0521 19.9362 64.196 21.5638 65.3684C22.3147 65.9093 22.9949 65.9042 23.6618 65.2559C23.9977 64.201 23.8566 63.8735 22.9143 63.2402C21.7604 62.4525 20.5829 61.6899 19.4877 60.8265C14.3613 56.7953 12.0148 51.5429 12.7371 45.0106C12.9454 43.1226 13.2544 41.2464 13.4896 39.3601C13.7147 37.5578 13.886 35.7505 14.1262 33.9498C14.1659 33.8248 14.2364 33.7117 14.3312 33.621C14.426 33.5303 14.542 33.4649 14.6687 33.4308C15.9218 33.3838 17.1765 33.4073 18.5656 33.4073C18.4094 33.755 18.2918 33.9969 18.1893 34.2472C16.807 37.6065 16.2342 41.0734 16.9783 44.6612C17.7224 48.249 19.6238 50.8761 23.3158 51.8419C25.3549 52.3777 27.4276 52.1778 29.4802 51.8184C31.7797 51.4085 33.7063 50.263 35.4649 48.7798C36.7549 47.6897 38.1071 46.6819 39.812 46.3527C43.7374 45.5918 47.4461 45.8488 50.5888 48.716C53.2646 51.1633 56.4677 52.1207 60.0539 52.1577C64.3522 52.203 67.552 49.9892 68.8286 45.8874C69.1007 45.0123 69.2183 44.0884 69.4081 43.1864C69.5588 40.6349 69.2615 38.0768 68.5296 35.6278L68.3381 35.1055ZM70.8828 26.0352C71.5228 26.015 72.1644 25.9663 72.8044 25.9814C74.2708 26.0133 75.3038 26.9892 75.3542 28.333C75.4045 29.6767 74.3346 30.7988 72.8766 30.871C72.1527 30.9079 71.4254 30.8542 70.693 30.8407C70.4411 30.8525 70.1891 30.876 69.9388 30.876C51.2103 30.876 32.4807 30.876 13.7499 30.876C13.3032 30.8932 12.8565 30.8399 12.4263 30.7181C11.432 30.3906 10.8777 29.6465 10.7467 28.6152C10.6341 27.6964 11.1834 26.6365 12.0534 26.272C12.5725 26.0729 13.1253 25.9765 13.6811 25.9881C32.4376 25.9724 51.1941 25.9691 69.9506 25.978C70.2748 25.9696 70.5822 26.0083 70.8828 26.0352ZM42.9832 33.4023C49.927 33.4023 56.8692 33.4107 63.8113 33.3871C64.4295 33.3871 64.7637 33.582 65.0493 34.1161C66.7626 37.3176 67.3588 40.7039 66.6383 44.2581C66.094 46.9456 64.6713 48.9982 61.7772 49.4651C60.5275 49.6684 59.2073 49.5676 57.9324 49.4651C55.5103 49.2686 53.5804 47.9971 51.7848 46.4635C50.441 45.3096 48.9293 44.3689 47.1791 43.9793C42.3601 42.9093 37.8148 43.2805 33.9549 46.7491C31.4169 49.0284 28.4304 49.8061 25.1097 49.5793C22.6388 49.4114 20.8584 48.197 19.9816 45.884C18.4262 41.794 19.1283 37.8736 21.0583 34.0758C21.3404 33.5215 21.7184 33.3771 22.3197 33.3787C29.2148 33.4039 36.1015 33.3972 42.9883 33.3972L42.9832 33.4023ZM52.03 83.4569C52.03 79.5735 52.0468 75.7707 52.0149 71.9696C52.0149 71.338 52.1829 71.0609 52.7943 70.8459C56.6105 69.4904 60.3428 67.9215 63.8063 65.8068C65.7547 64.6193 67.594 63.2537 69.4971 61.9586C70.4562 63.6602 70.7149 65.5632 69.6936 67.3555C68.802 68.9321 67.7274 70.398 66.4921 71.7227C65.0207 73.2814 63.2923 74.5966 61.6899 76.0344C59.3383 78.1458 56.933 80.2202 56.1066 83.4569H52.03ZM49.4685 83.4334H36.6508V72.025C40.8318 73.2756 45.2874 73.2756 49.4685 72.025V83.4334ZM58.737 83.4334C60.3646 79.8456 63.6266 77.9207 66.2956 75.3709C68.3465 77.7678 69.8078 80.3042 70.2294 83.4334H58.737ZM19.8338 75.2903C22.4507 77.9627 25.6942 79.8759 27.3504 83.4385H15.8227C16.2611 80.2891 17.7241 77.7107 19.8388 75.2853L19.8338 75.2903ZM9.9236 47.3034C7.87774 46.744 6.38282 44.1758 6.71876 41.6764C7.01942 39.4508 9.08712 37.3764 11.1145 37.3579C10.7203 40.6826 10.3245 43.9961 9.92696 47.2983L9.9236 47.3034ZM76.1705 47.3386C75.7724 43.9793 75.3793 40.6636 74.9829 37.3143C77.2488 37.5612 79.0881 39.4979 79.4056 41.8494C79.5426 42.9914 79.3006 44.1468 78.7166 45.1377C78.1327 46.1287 77.2393 46.9002 76.1738 47.3336L76.1705 47.3386Z" fill="#040303"/>
<path d="M25.7899 66.2284C26.3727 65.4574 27.0665 65.5112 27.8677 65.879C31.437 67.5234 35.0651 69.0352 38.9015 69.9422C41.4211 70.5418 43.9725 70.6745 46.5206 70.0379L47.0598 69.917L47.0497 69.9271C47.4005 69.7233 47.7622 69.5388 48.1331 69.3745C53.0983 67.4697 57.9257 65.3096 62.1383 61.9838C64.416 60.1882 66.3577 58.1105 67.7384 55.5254C68.8523 53.4878 69.5049 51.2302 69.6499 48.9125C69.7557 47.0128 69.497 45.0929 69.3996 43.1831C69.2098 44.0851 69.0922 45.0089 68.8201 45.884C67.5436 49.9858 64.3438 52.1996 60.0454 52.1543C56.466 52.1173 53.2561 51.1599 50.5804 48.7126C47.4377 45.8387 43.729 45.5884 39.8035 46.3493C38.0986 46.6852 36.7465 47.6931 35.4565 48.7764C33.6979 50.2596 31.7713 51.4052 29.4718 51.815C27.4192 52.1795 25.3465 52.3743 23.3073 51.8385C19.612 50.871 17.7089 48.2373 16.9699 44.6579C16.2308 41.0784 16.8019 37.6032 18.1809 34.2438C18.2834 33.9952 18.401 33.7533 18.5572 33.4039C17.1681 33.4039 15.9133 33.3804 14.6603 33.4275C14.5336 33.4616 14.4175 33.527 14.3227 33.6177C14.2279 33.7084 14.1574 33.8214 14.1177 33.9465C13.8775 35.7471 13.7062 37.5545 13.4811 39.3568C13.246 41.243 12.9369 43.1193 12.7286 45.0072C12.0064 51.5395 14.3529 56.7885 19.4793 60.8232C20.5745 61.6865 21.7519 62.4491 22.9059 63.2369C23.8482 63.8785 23.9842 64.206 23.6533 65.2525L25.7899 66.2284ZM43.2519 52.4062C41.7755 52.4062 40.4133 51.8116 39.6624 50.955C39.1501 50.3671 39.1283 49.6432 39.612 49.1477C40.1159 48.6236 40.7626 48.6219 41.4093 49.1477C42.6489 50.142 43.4636 50.1555 44.678 49.1611C45.3499 48.6169 46.0385 48.6286 46.5374 49.193C47.0043 49.7238 46.9624 50.4024 46.403 50.9903C45.9967 51.4219 45.5093 51.7692 44.9685 52.0122C44.4278 52.2552 43.8445 52.3891 43.2519 52.4062Z" fill="#FF29C3"/>
<path d="M67.8476 6.18797C66 7.31672 64.2732 7.16387 62.5835 5.8134C61.3388 4.81903 60.0001 3.94391 58.7555 2.94786C58.1525 2.46579 57.7342 2.52793 57.1564 2.98145C55.7925 4.04973 54.3782 5.05418 52.979 6.07711C51.3716 7.2529 49.6952 7.26801 48.0895 6.10567C46.6164 5.04075 45.15 3.96911 43.7088 2.86051C43.22 2.48426 42.8589 2.50442 42.3802 2.87059C40.9827 3.94223 39.5566 4.97692 38.1373 6.01833C36.419 7.28145 34.7779 7.28817 33.0395 6.01833C31.6151 4.98364 30.1941 3.94223 28.7982 2.86891C28.3195 2.49938 27.9584 2.47922 27.4696 2.85547C26.0755 3.93047 24.6494 4.96516 23.2284 6.00657C21.4748 7.29153 19.8388 7.28145 18.0617 5.97969C17.2034 5.35317 16.3635 4.70145 15.4951 4.08836C14.8854 3.65836 14.4621 3.85993 14.4604 4.60739C14.447 10.8441 14.4604 17.0824 14.4604 23.4367H67.0951C67.3437 23.4367 67.599 23.3997 67.8426 23.3813L67.8476 6.18797ZM38.4648 14.3009C38.5085 13.3569 38.48 12.3995 38.611 11.4639C38.9368 9.13247 40.9793 7.5418 43.3679 7.6829C44.4672 7.74455 45.5043 8.21315 46.2771 8.99746C47.0499 9.78177 47.5032 10.8256 47.5486 11.9258C47.6007 13.5165 47.6023 15.1172 47.5486 16.7028C47.4696 19.0225 45.5498 20.8701 43.1982 20.9692C42.0982 21.0073 41.0226 20.6391 40.1766 19.935C39.3306 19.2308 38.7733 18.24 38.611 17.1513C38.4816 16.2107 38.5085 15.2549 38.4648 14.3009ZM59.0393 14.3647C59.0393 13.7499 58.9973 13.1318 59.0393 12.517C59.2073 10.4729 60.7442 9.02161 62.7195 9.01489C63.6678 8.99848 64.5852 9.35163 65.2777 9.99961C65.9702 10.6476 66.3834 11.5396 66.43 12.4868C66.5123 13.6864 66.5123 14.8902 66.43 16.0897C66.3828 17.037 65.9748 17.9302 65.2898 18.5861C64.6049 19.2421 63.6948 19.611 62.7464 19.6171C60.7728 19.6288 59.1838 18.1054 59.0293 16.0377C59.0057 15.485 59.0393 14.924 59.0393 14.3647ZM27.0581 14.3025C27.0581 14.8602 27.0715 15.4212 27.0581 15.9822C27.0703 16.9623 26.6928 17.9071 26.0084 18.6087C25.3241 19.3104 24.389 19.7115 23.409 19.7237C22.4289 19.736 21.4841 19.3584 20.7825 18.6741C20.0808 17.9897 19.6797 17.0547 19.6675 16.0746C19.6221 14.8988 19.6238 13.7231 19.6675 12.5473C19.6775 11.5672 20.0764 10.6313 20.7765 9.94536C21.4766 9.25944 22.4205 8.87973 23.4006 8.88975C24.3806 8.89978 25.3166 9.29872 26.0025 9.99881C26.6884 10.6989 27.0681 11.6428 27.0581 12.6229C27.0715 13.1839 27.0564 13.7432 27.0581 14.3025Z" fill="#FF29C3"/>
<path d="M42.9882 33.3972C36.1015 33.3972 29.2148 33.3972 22.3281 33.3821C21.7267 33.3821 21.3488 33.5249 21.0666 34.0792C19.1367 37.877 18.4345 41.7973 19.9899 45.8874C20.8667 48.1986 22.6472 49.4147 25.118 49.5827C28.4388 49.8095 31.4253 49.0318 33.9633 46.7524C37.8265 43.2839 42.3617 42.9127 47.1874 43.9826C48.9461 44.3723 50.441 45.3129 51.7931 46.4669C53.5887 48.0004 55.5187 49.272 57.9408 49.4685C59.2157 49.5709 60.5359 49.6717 61.7856 49.4685C64.6797 48.9948 66.1024 46.949 66.6466 44.2615C67.3672 40.7072 66.7709 37.321 65.0576 34.1195C64.7721 33.5854 64.4378 33.3872 63.8197 33.3905C56.8742 33.4056 49.932 33.3972 42.9882 33.3972ZM56.0495 41.3203C56.0495 40.8164 56.0142 40.3125 56.0579 39.8086C56.12 39.083 56.592 38.6882 57.2807 38.6798C57.9341 38.6798 58.4565 39.0443 58.4934 39.7196C58.5606 40.7773 58.5606 41.8382 58.4934 42.8959C58.4531 43.5677 57.9374 43.9473 57.2857 43.9423C56.597 43.9423 56.1217 43.5459 56.0562 42.822C56.0142 42.3281 56.0495 41.8242 56.0495 41.3203ZM27.0312 47.3286C26.5273 47.3286 26.0234 47.3605 25.5295 47.3286C24.7871 47.2681 24.2076 46.6567 24.2479 46.0386C24.2933 45.3381 24.8039 44.8897 25.6202 44.8762C26.539 44.8611 27.4578 44.8645 28.3749 44.8762C29.1694 44.8863 29.7002 45.3667 29.7052 46.052C29.7052 46.7709 29.2215 47.2882 28.4505 47.337C27.9802 47.3554 27.5049 47.3319 27.0312 47.3302V47.3286ZM59.0645 44.8661C59.5684 44.8661 60.0723 44.8661 60.5762 44.8661C61.3002 44.8661 61.7319 45.2155 61.794 45.9579C61.8511 46.6449 61.4194 47.2614 60.719 47.3017C59.66 47.363 58.5983 47.363 57.5393 47.3017C56.8305 47.263 56.4022 46.6684 56.4476 45.9747C56.4946 45.2289 56.9179 44.8762 57.6452 44.8628C58.1172 44.8594 58.5908 44.8661 59.0645 44.8661ZM27.5468 41.3203C27.5468 40.9004 27.5468 40.4805 27.5468 40.0606C27.5434 40.0046 27.5434 39.9485 27.5468 39.8926C27.6292 39.1754 28.1515 38.6664 28.8049 38.663C29.4936 38.663 30.0328 39.1955 30.0546 39.9648C30.0781 40.8606 30.0781 41.7565 30.0546 42.6523C30.0345 43.4266 29.5054 43.9625 28.815 43.9658C28.1247 43.9692 27.5939 43.43 27.5468 42.6624C27.5317 42.2206 27.5468 41.7705 27.5468 41.3203Z" fill="#FF29C3"/>
<path d="M70.8828 26.0352C70.5771 26.0133 70.2697 25.9747 69.964 25.9747C51.2064 25.9747 32.4499 25.978 13.6945 25.9848C13.1387 25.9732 12.5859 26.0696 12.0669 26.2686C11.1968 26.6331 10.6475 27.693 10.7601 28.6118C10.8877 29.6431 11.442 30.3872 12.4398 30.7148C12.8699 30.8366 13.3166 30.8898 13.7634 30.8727C32.493 30.8794 51.2226 30.8794 69.9523 30.8727C70.2042 30.8727 70.4562 30.8491 70.7048 30.8374C71.2708 29.9656 71.7479 29.0435 71.5446 27.9819C71.4136 27.3084 71.1112 26.6768 70.8828 26.0352Z" fill="#FF29C3"/>
<path d="M25.7899 66.2284L23.6534 65.2559C22.9815 65.9042 22.3096 65.9093 21.5554 65.3684C19.9278 64.1926 18.28 63.0521 16.6289 61.8864C15.4195 63.9575 15.4128 66.1562 16.7885 68.1449C17.9542 69.8246 19.3718 71.3649 20.8197 72.8195C22.4994 74.4992 24.3622 75.9891 26.0973 77.6133C27.8324 79.2376 29.3727 81.0433 29.9606 83.4486H34.0489V71.1868C32.2399 70.4814 30.4225 69.7877 28.6202 69.062C27.9483 68.7916 27.2983 68.4658 26.6533 68.1332C25.7177 67.6477 25.5716 67.2984 25.7899 66.2284Z" fill="#FF29C3"/>
<path d="M52.035 83.4486H56.1015C56.9279 80.2118 59.3333 78.1374 61.6848 76.026C63.2872 74.5882 65.0156 73.273 66.487 71.7143C67.7236 70.3925 68.7999 68.9295 69.6936 67.3555C70.7215 65.5599 70.4561 63.6602 69.5021 61.9502C67.599 63.2453 65.7597 64.6109 63.8113 65.7984C60.3478 67.9098 56.6155 69.4786 52.7993 70.8375C52.1912 71.0525 52.0149 71.3296 52.0199 71.9612C52.0518 75.7623 52.035 79.5651 52.035 83.4486Z" fill="#FF29C3"/>
<path d="M49.4735 83.425V72.02C45.2924 73.2705 40.8369 73.2705 36.6558 72.02V83.42L49.4735 83.425Z" fill="#FF29C3"/>
<path d="M69.3996 43.1831C69.4971 45.0929 69.7557 47.0128 69.6499 48.9125C69.5049 51.2302 68.8524 53.4878 67.7384 55.5254C66.3577 58.1172 64.416 60.1882 62.1384 61.9805C57.9257 65.3062 53.0983 67.4663 48.1331 69.3711C47.7622 69.5354 47.4005 69.7199 47.0497 69.9237C48.338 69.5727 49.6549 69.3005 50.913 68.8537C55.9521 67.0632 60.8635 65.0056 65.2441 61.8713C68.4355 59.5869 71.1012 56.8524 72.502 53.0916C73.6778 49.9421 73.6509 46.6936 73.236 43.4166C72.885 40.6484 72.5642 37.8736 72.2282 35.1088C72.1594 34.5596 72.0317 34.017 71.9242 33.4291H68.1953C68.2479 33.989 68.3039 34.5529 68.3633 35.1206L68.3498 35.1004C68.4103 35.2684 68.4725 35.4481 68.5329 35.6228C69.2611 38.073 69.5544 40.6317 69.3996 43.1831Z" fill="#FF29C3"/>
<path d="M67.8476 6.18797V23.3846H71.6101C71.6236 23.1024 71.6471 22.8085 71.6488 22.5145C71.6488 20.1143 71.6488 17.7157 71.6488 15.3154C71.6488 14.2253 71.8554 13.9716 72.9102 13.6575L72.9287 11.2539C71.8184 10.8827 71.6572 10.6711 71.6521 9.51375C71.6521 7.95164 71.6672 6.38785 71.6353 4.82574C71.6353 4.52844 71.511 4.08836 71.2994 3.9859C71.0877 3.88344 70.6813 4.07157 70.4377 4.24457C69.5592 4.85598 68.7093 5.53121 67.8476 6.18797Z" fill="#FF29C3"/>
<path d="M58.742 83.4284H70.2378C69.8162 80.2991 68.3549 77.7628 66.304 75.3659C63.6316 77.9157 60.3696 79.8406 58.742 83.4284Z" fill="#FF29C3"/>
<path d="M19.8388 75.2853C17.7241 77.7107 16.2611 80.2874 15.8227 83.4334H27.3554C25.6992 79.8708 22.4557 77.9577 19.8388 75.2853Z" fill="#FF29C3"/>
<path d="M9.92695 47.2983C10.3256 43.9961 10.7242 40.6826 11.1229 37.3579C9.0955 37.3764 7.0278 39.4508 6.72713 41.6764C6.38279 44.1758 7.87773 46.744 9.92695 47.2983Z" fill="#FF29C3"/>
<path d="M76.1738 47.3336C77.2408 46.9005 78.1356 46.1285 78.7203 45.1364C79.3049 44.1444 79.5469 42.9876 79.4089 41.8444C79.0915 39.4928 77.2522 37.5561 74.9863 37.3092C75.3827 40.6585 75.7758 43.9776 76.1738 47.3336Z" fill="#FF29C3"/>
<path d="M70.8828 26.0352C71.1062 26.6818 71.4086 27.3134 71.5362 27.9802C71.7411 29.0485 71.2641 29.9707 70.6964 30.8357C71.4237 30.8491 72.151 30.9029 72.88 30.8659C74.3379 30.7937 75.3995 29.6717 75.3575 28.3279C75.3155 26.9842 74.2741 26.0066 72.8077 25.9764C72.1695 25.9612 71.5278 26.01 70.8828 26.0352Z" fill="#FF29C3"/>
<path d="M68.3515 35.1256C68.2978 34.5657 68.2418 34.0019 68.1836 33.4342H67.5402C67.8443 34.054 68.0979 34.5898 68.3515 35.1256Z" fill="#FF29C3"/>
<path d="M68.5212 35.6278C68.4607 35.4599 68.3986 35.2785 68.3381 35.1055C68.3986 35.2734 68.4607 35.4532 68.5212 35.6278Z" fill="#FF29C3"/>
<path d="M47.0598 69.917L46.5273 70.043L47.0598 69.917Z" fill="#FF29C3"/>
<path d="M43.252 52.4063C43.845 52.3882 44.4286 52.2532 44.9694 52.0091C45.5101 51.765 45.9973 51.4164 46.4031 50.9836C46.9624 50.3957 47.0044 49.7171 46.5374 49.1863C46.0335 48.6219 45.3516 48.6102 44.678 49.1544C43.4636 50.1404 42.649 50.1353 41.4094 49.1409C40.7627 48.6219 40.121 48.6236 39.6121 49.1409C39.1283 49.6364 39.1502 50.3604 39.6625 50.9483C40.4133 51.8049 41.7755 52.3928 43.252 52.4063Z" fill="#040303"/>
<path d="M38.4648 14.3009C38.5085 15.2549 38.4816 16.2107 38.611 17.1463C38.7733 18.2349 39.3305 19.2258 40.1766 19.9299C41.0226 20.6341 42.0981 21.0022 43.1982 20.9642C45.5497 20.8651 47.4696 19.0174 47.5486 16.6978C47.6023 15.1071 47.6006 13.5064 47.5486 11.9207C47.5019 10.8215 47.0481 9.77885 46.2754 8.99559C45.5027 8.21234 44.4664 7.74444 43.3678 7.68289C40.9793 7.5418 38.9368 9.13246 38.611 11.4639C38.4799 12.3995 38.5085 13.3569 38.4648 14.3009ZM45.0408 14.3009C45.0408 15.0282 45.066 15.7571 45.0408 16.4845C45.0327 16.979 44.8407 17.4527 44.5022 17.8133C44.1637 18.1739 43.703 18.3954 43.2099 18.4346C42.2223 18.5253 41.1943 17.8232 41.1305 16.7801C41.0247 15.1368 41.0247 13.4884 41.1305 11.8452C41.1994 10.7802 42.1383 10.147 43.2066 10.2075C44.2749 10.2679 45.0005 11.0339 45.0542 12.1223C45.066 12.8479 45.0408 13.5769 45.0408 14.3025V14.3009Z" fill="#040303"/>
<path d="M59.0394 14.3647C59.0394 14.924 59.0058 15.485 59.0394 16.0444C59.1939 18.1171 60.7829 19.6355 62.7565 19.6238C63.7049 19.6177 64.615 19.2488 65.2999 18.5928C65.9849 17.9369 66.3929 17.0437 66.4401 16.0964C66.5224 14.8969 66.5224 13.6931 66.4401 12.4935C66.3935 11.5463 65.9803 10.6543 65.2878 10.0063C64.5953 9.35834 63.6779 9.00519 62.7296 9.0216C60.7543 9.0216 59.2124 10.4796 59.0494 12.5238C59.0007 13.1352 59.0494 13.7533 59.0494 14.3714L59.0394 14.3647ZM63.9474 14.2522C63.9474 14.8081 63.986 15.3691 63.9373 15.9218C63.8769 16.6222 63.4569 17.0824 62.7481 17.0757C62.0393 17.069 61.5975 16.6188 61.5723 15.91C61.5303 14.8535 61.532 13.7936 61.5723 12.7371C61.5992 12.0417 61.9755 11.5882 62.7196 11.5613C63.4032 11.5311 63.8953 11.9947 63.9491 12.7555C63.976 13.2477 63.9474 13.7516 63.9474 14.2522Z" fill="#040303"/>
<path d="M27.0564 14.3025C27.0564 13.7432 27.0715 13.1839 27.0564 12.6228C27.0614 12.1376 26.9707 11.6561 26.7896 11.2058C26.6085 10.7556 26.3404 10.3454 26.0008 9.9988C25.6612 9.65215 25.2566 9.37579 24.8101 9.18549C24.3637 8.9952 23.8842 8.89471 23.3989 8.88974C22.4188 8.87972 21.4749 9.25943 20.7748 9.94535C20.4282 10.285 20.1518 10.6896 19.9615 11.136C19.7712 11.5824 19.6708 12.062 19.6658 12.5473C19.6221 13.723 19.6204 14.8988 19.6658 16.0746C19.6719 16.5599 19.7734 17.0392 19.9648 17.4852C20.1561 17.9312 20.4334 18.3352 20.7808 18.6741C21.1282 19.0129 21.539 19.28 21.9896 19.4601C22.4403 19.6402 22.922 19.7298 23.4073 19.7237C23.8926 19.7177 24.3719 19.6161 24.8179 19.4248C25.2639 19.2334 25.6679 18.9562 26.0067 18.6087C26.3456 18.2613 26.6127 17.8505 26.7928 17.3999C26.9729 16.9492 27.0625 16.4675 27.0564 15.9822C27.0715 15.4212 27.0581 14.8602 27.0564 14.3025ZM24.5369 14.3025C24.5369 14.8316 24.5503 15.3607 24.5369 15.8898C24.5134 16.6255 24.0766 17.0421 23.3829 17.0656C22.7211 17.0858 22.2374 16.681 22.2072 16.0108C22.145 14.8706 22.145 13.7278 22.2072 12.5876C22.2441 11.9275 22.701 11.5361 23.393 11.5512C24.085 11.5663 24.4865 11.951 24.5335 12.6329C24.5621 13.1939 24.5234 13.7533 24.5234 14.3109L24.5369 14.3025Z" fill="#040303"/>
<path d="M56.0495 41.3203C56.0495 41.8242 56.0142 42.3281 56.0579 42.832C56.1234 43.556 56.5987 43.949 57.2874 43.9524C57.9391 43.9524 58.4548 43.5829 58.4951 42.9059C58.5623 41.8482 58.5623 40.7873 58.4951 39.7297C58.4531 39.0578 57.9358 38.6832 57.2824 38.6899C56.5937 38.6983 56.1217 39.093 56.0596 39.8187C56.0142 40.3125 56.0495 40.8164 56.0495 41.3203Z" fill="#040303"/>
<path d="M27.0312 47.3302C27.5049 47.3302 27.9802 47.3554 28.4505 47.3302C29.2215 47.2815 29.7086 46.7642 29.7053 46.0453C29.7053 45.3616 29.1695 44.8812 28.375 44.8695C27.4578 44.8594 26.5391 44.8561 25.6203 44.8695C24.8039 44.8829 24.2933 45.3314 24.248 46.0318C24.2076 46.65 24.7871 47.2614 25.5296 47.3218C26.0268 47.3672 26.5307 47.3302 27.0312 47.3302Z" fill="#FF29C3"/>
<path d="M59.0646 44.8661C58.5909 44.8661 58.1155 44.8661 57.6419 44.8661C56.9146 44.8796 56.4913 45.2323 56.4442 45.9781C56.3989 46.6718 56.8272 47.2664 57.536 47.305C58.595 47.3664 59.6567 47.3664 60.7157 47.305C61.4161 47.2631 61.8478 46.6466 61.7907 45.9613C61.7285 45.2189 61.2969 44.8762 60.5729 44.8695C60.069 44.8628 59.5668 44.8661 59.0646 44.8661Z" fill="#FF29C3"/>
<path d="M27.5469 41.3203C27.5469 41.7671 27.525 42.2173 27.5469 42.664C27.5939 43.4317 28.1331 43.9692 28.815 43.9675C29.497 43.9658 30.0345 43.4283 30.0546 42.654C30.0782 41.7581 30.0782 40.8623 30.0546 39.9665C30.0328 39.1972 29.4936 38.6614 28.805 38.6647C28.1516 38.6647 27.6292 39.177 27.5469 39.8943C27.5435 39.9502 27.5435 40.0063 27.5469 40.0622C27.5469 40.4833 27.5469 40.9026 27.5469 41.3203Z" fill="#040303"/>
<path d="M45.0408 14.3025C45.0408 13.5769 45.066 12.8479 45.0408 12.1189C44.9938 11.0305 44.2379 10.2713 43.1932 10.2041C42.1484 10.1369 41.1859 10.7769 41.1171 11.8418C41.0113 13.4851 41.0113 15.1334 41.1171 16.7767C41.1843 17.8198 42.2089 18.5219 43.1965 18.4312C43.6896 18.392 44.1503 18.1705 44.4888 17.8099C44.8273 17.4494 45.0193 16.9756 45.0274 16.4811C45.066 15.7588 45.0408 15.0298 45.0408 14.3025Z" fill="#FF29C3"/>
<path d="M63.9474 14.2522C63.9474 13.7482 63.976 13.2443 63.9474 12.7488C63.8903 11.9879 63.4015 11.5243 62.7179 11.5546C61.9738 11.5882 61.5975 12.0417 61.5706 12.7304C61.532 13.7869 61.5303 14.8468 61.5706 15.9033C61.5975 16.6121 62.0426 17.0623 62.7464 17.069C63.4502 17.0757 63.8752 16.6155 63.9356 15.915C63.9843 15.3624 63.9457 14.8014 63.9457 14.2454L63.9474 14.2522Z" fill="#FF29C3"/>
<path d="M24.5234 14.3109C24.5234 13.7533 24.5554 13.1939 24.515 12.6397C24.468 11.9577 24.0632 11.5731 23.3745 11.5579C22.6859 11.5428 22.2256 11.9342 22.1887 12.5943C22.1265 13.7345 22.1265 14.8773 22.1887 16.0175C22.2239 16.6894 22.7077 17.0925 23.3645 17.0723C24.0582 17.0505 24.4949 16.6339 24.5184 15.8966C24.5352 15.3675 24.5184 14.8384 24.5184 14.3093L24.5234 14.3109Z" fill="#FF29C3"/>
</svg>
