<svg width="75" height="75" viewBox="0 0 78 78" fill="none" xmlns="http://www.w3.org/2000/svg">
<path d="M65.2031 78H12.6445C12.3542 77.8173 12.1288 77.5478 12.0003 77.2298C11.8718 76.9118 11.8467 76.5613 11.9285 76.2282C12.2073 74.8191 12.4358 73.384 12.8928 72.0296C13.5616 70.0492 14.7926 68.3734 16.1728 66.7646C12.6293 63.1876 10.2695 59.3623 13.3453 54.3212C11.205 51.9448 9.79355 49.0028 9.27924 45.8463C9.24725 45.6605 8.9517 45.4457 8.7369 45.3741C5.48436 44.2939 3.43991 41.3217 3.67147 37.9915C3.89998 34.7207 6.34967 32.1019 9.7119 31.4834C9.94955 31.4392 10.1964 31.1436 10.3213 30.9045C10.4462 30.6653 10.4233 30.3713 10.466 30.0879C10.3411 30.0224 10.2329 29.9614 10.1217 29.9096C8.33471 29.0839 7.35666 27.6717 7.37952 25.7202C7.39932 23.7397 8.42155 22.3107 10.274 21.5688C10.7311 21.386 10.7311 21.1209 10.7311 20.7584C10.7311 18.4742 10.7311 16.1891 10.7311 13.9029C10.7311 12.9218 10.9337 12.672 11.8691 12.3795C12.8258 12.6689 13.0086 12.8944 13.0132 13.8831C13.0208 16.0601 13.0132 18.2355 13.0132 20.4125C13.0132 20.6791 13.036 20.9457 13.0482 21.2017H16.4683C16.6938 21.2184 16.9254 21.252 17.1463 21.252H64.8984C64.8984 15.4888 64.8984 9.82617 64.8984 4.17422C64.8984 3.49629 64.513 3.31348 63.96 3.70348C63.1724 4.25953 62.4106 4.85063 61.6322 5.41887C60.0204 6.59953 58.5365 6.60867 56.9461 5.44324C55.6572 4.49871 54.3639 3.56027 53.0994 2.58527C52.6561 2.24402 52.3285 2.26231 51.8944 2.59746C50.6284 3.57094 49.3396 4.51547 48.0477 5.45391C46.4694 6.60106 44.9825 6.59496 43.424 5.45391C42.1367 4.50938 40.8433 3.57094 39.5758 2.59898C39.1417 2.26687 38.8141 2.24859 38.3708 2.58984C37.0637 3.59531 35.7337 4.57031 34.3977 5.53313C32.9413 6.58734 31.4209 6.57211 29.963 5.50723C28.6939 4.57945 27.4112 3.66844 26.1742 2.69953C25.6501 2.2882 25.2708 2.23184 24.7239 2.66906C23.595 3.57246 22.3808 4.36617 21.2519 5.26805C19.7194 6.4868 18.1502 6.63152 16.4775 5.60777C15.696 5.01211 14.9251 4.39969 14.1238 3.83144C13.9029 3.6791 13.5144 3.50543 13.3423 3.59684C13.1701 3.68824 13.0482 4.095 13.0376 4.35855C13.0086 5.77535 13.0284 7.19367 13.0223 8.61047C13.0223 9.66012 12.87 9.85207 11.863 10.1888C11.15 10.0471 10.7494 9.62051 10.7448 8.88621C10.7341 7.23633 10.725 5.58644 10.7539 3.93656C10.7753 2.82598 11.3298 2.00789 12.3215 1.51734C13.3499 1.00699 14.3355 1.13344 15.2557 1.80527C16.0174 2.35981 16.7654 2.92195 17.521 3.48106C18.4899 4.19402 18.8099 4.17422 19.8169 3.46734C21.4805 2.30496 23.1562 1.15781 24.832 0H26.0508C26.7592 0.457031 27.4858 0.889687 28.1744 1.37109C29.1875 2.08559 30.1717 2.83969 31.171 3.57246C31.98 4.16508 32.3898 4.15137 33.214 3.56332C34.8877 2.37199 36.5625 1.18422 38.2383 0H39.6094C40.2187 0.383906 40.8388 0.743438 41.4222 1.15781C42.513 1.93629 43.581 2.74828 44.6596 3.54351C45.5203 4.17574 45.9012 4.16812 46.7634 3.5557C48.4412 2.36742 50.119 1.18219 51.7969 0H53.168C53.6707 0.315352 54.1887 0.609374 54.6716 0.949101C55.6222 1.62398 56.55 2.33086 57.4899 3.02098C59.2693 4.33113 59.2693 4.32961 61.0655 2.99051L62.5889 1.85555C63.5228 1.15933 64.5282 1.00242 65.584 1.53106C66.6641 2.07188 67.1699 2.97984 67.1699 4.17879V21.3754C69.1366 22.0579 70.3539 23.3711 70.4986 25.4216C70.6601 27.6885 69.4764 29.2013 67.4182 30.0925C67.502 30.5495 67.5705 30.9654 67.6558 31.392C67.8082 31.427 67.927 31.462 68.0489 31.4834C71.4431 32.0577 73.9553 34.6353 74.1929 37.7889C74.4595 41.3309 72.5171 44.2147 69.1351 45.3878C69.0012 45.4489 68.8824 45.5387 68.7871 45.6509C68.6918 45.763 68.6224 45.8948 68.5836 46.0368C68.2322 48.0909 67.4845 50.0571 66.3823 51.8258C65.8323 52.6987 65.1879 53.5153 64.5633 54.3882C66.9581 58.1801 66.1096 61.6505 63.4146 64.9C62.8829 65.5444 62.3086 66.1507 61.7388 66.7845C62.0024 67.1074 62.2659 67.4121 62.5112 67.7305C64.4764 70.296 65.8384 73.0991 65.9679 76.4034C66.009 77.1057 65.8125 77.6313 65.2031 78ZM16.0189 31.8398L16.0067 31.8596C16.2368 31.3737 16.4638 30.8877 16.7349 30.3255H12.774C12.6765 30.8572 12.5607 31.3493 12.4983 31.849C12.1844 34.3596 11.8889 36.8763 11.5842 39.3839C11.2079 42.3561 11.1851 45.3025 12.2499 48.1589C13.5205 51.5699 15.9397 54.05 18.8327 56.1219C22.8058 58.9646 27.2634 60.8309 31.8307 62.4548C32.9687 62.8601 34.1631 63.1069 35.3346 63.4268L35.3255 63.4161L35.8008 63.5273C38.1118 64.1047 40.4244 63.9844 42.7111 63.4405C46.1906 62.6133 49.4812 61.2468 52.7185 59.7553C53.4452 59.4217 54.0744 59.3729 54.603 60.0722C54.8011 61.0426 54.6685 61.3595 53.82 61.7952C53.235 62.0999 52.6454 62.3924 52.036 62.6377C50.4014 63.2958 48.753 63.925 47.1123 64.5648V75.6859H50.8219C51.3566 73.5043 52.7444 71.8773 54.3258 70.3935C55.9071 68.9097 57.5859 67.569 59.1094 66.0456C60.4256 64.7263 61.7114 63.3339 62.7656 61.8059C64.0133 60.0021 64.0072 58.0079 62.9103 56.1295C61.4128 57.1868 59.9183 58.2243 58.4421 59.2876C57.7611 59.7782 57.1441 59.7736 56.5393 59.1855C56.2346 58.2288 56.3626 57.9318 57.2173 57.3574C58.2639 56.6429 59.3318 55.9513 60.3251 55.1682C64.9746 51.512 67.1028 46.7482 66.4478 40.8236C66.2589 39.1112 65.9785 37.4095 65.7653 35.6987C65.5611 34.0641 65.4057 32.4248 65.1879 30.7917C65.1519 30.6783 65.088 30.5758 65.002 30.4935C64.916 30.4112 64.8107 30.3519 64.6958 30.321C63.5593 30.2783 62.4213 30.2997 61.1614 30.2997C61.3031 30.615 61.4098 30.8344 61.5027 31.0614C62.7565 34.1082 63.276 37.2526 62.6011 40.5067C61.9262 43.7607 60.2017 46.1434 56.8531 47.0194C55.0037 47.5054 53.1238 47.3241 51.2621 46.998C49.1765 46.6263 47.4292 45.5873 45.8341 44.2421C44.6641 43.2534 43.4378 42.3394 41.8915 42.0408C38.3312 41.3507 34.9674 41.5838 32.1171 44.1843C29.6903 46.4039 26.7851 47.2723 23.5325 47.3058C19.634 47.3469 16.7319 45.339 15.5741 41.6188C15.3273 40.8251 15.2206 39.9872 15.0485 39.1691C14.9118 36.8549 15.1814 34.5347 15.8453 32.3136L16.0189 31.8398ZM13.7109 23.6133C13.1305 23.595 12.5485 23.5508 11.9681 23.5645C10.6381 23.5935 9.70123 24.4786 9.65553 25.6973C9.60983 26.9161 10.5803 27.9338 11.9026 27.9993C12.5592 28.0328 13.2189 27.984 13.8831 27.9718C14.1116 27.9825 14.3401 28.0038 14.5671 28.0038C31.5534 28.0038 48.5408 28.0038 65.5291 28.0038C65.9343 28.0194 66.3394 27.9711 66.7296 27.8606C67.6315 27.5636 68.1342 26.8887 68.253 25.9533C68.3551 25.12 67.8569 24.1587 67.0678 23.8281C66.597 23.6475 66.0957 23.5601 65.5916 23.5706C48.5799 23.5564 31.5681 23.5534 14.5564 23.5615C14.2624 23.5539 13.9836 23.5889 13.7109 23.6133ZM39.0152 30.2951C32.7173 30.2951 26.421 30.3027 20.1246 30.2814C19.564 30.2814 19.2608 30.4581 19.0018 30.9425C17.4479 33.8462 16.9071 36.9175 17.5606 40.1411C18.0542 42.5786 19.3446 44.4402 21.9695 44.8637C23.1029 45.048 24.3003 44.9566 25.4566 44.8637C27.6534 44.6855 29.4039 43.5322 31.0324 42.1413C32.2512 41.0947 33.6222 40.2416 35.2097 39.8882C39.5804 38.9177 43.7028 39.2544 47.2037 42.4003C49.5056 44.4676 52.2143 45.173 55.2261 44.9673C57.4671 44.815 59.0819 43.7135 59.8772 41.6157C61.2879 37.9062 60.6511 34.3505 58.9007 30.906C58.6447 30.4032 58.3019 30.2722 57.7565 30.2738C51.5028 30.2966 45.2567 30.2905 39.0107 30.2905L39.0152 30.2951ZM30.81 75.6935C30.81 72.1713 30.7948 68.7223 30.8237 65.2747C30.8237 64.7019 30.6714 64.4506 30.1168 64.2556C26.6556 63.0261 23.2705 61.6032 20.1292 59.6852C18.362 58.6082 16.6938 57.3696 14.9678 56.195C14.0979 57.7383 13.8633 59.4643 14.7895 61.0898C15.5981 62.5198 16.5728 63.8493 17.6932 65.0508C19.0277 66.4645 20.5953 67.6574 22.0487 68.9614C24.1815 70.8764 26.3631 72.7579 27.1126 75.6935H30.81ZM33.1332 75.6722H44.7586V65.325C40.9665 66.4592 36.9253 66.4592 33.1332 65.325V75.6722ZM24.7269 75.6722C23.2507 72.4181 20.2922 70.6723 17.8714 68.3597C16.0113 70.5336 14.6859 72.834 14.3035 75.6722H24.7269ZM60.0112 68.2866C57.6377 70.7104 54.696 72.4455 53.1939 75.6768H63.6492C63.2516 72.8203 61.9247 70.4818 60.0067 68.282L60.0112 68.2866ZM68.9995 42.903C70.8551 42.3957 72.2109 40.0664 71.9062 37.7995C71.6335 35.781 69.7582 33.8995 67.9194 33.8828C68.2769 36.8982 68.6359 39.9034 68.9965 42.8985L68.9995 42.903ZM8.91514 42.935C9.2762 39.8882 9.63268 36.8809 9.99221 33.8432C7.93709 34.0671 6.26893 35.8236 5.981 37.9564C5.85668 38.9922 6.07622 40.0401 6.60584 40.9389C7.13546 41.8376 7.94579 42.5374 8.91209 42.9305L8.91514 42.935Z" fill="#040303"/>
<path d="M54.6091 60.0676C54.0805 59.3683 53.4513 59.4171 52.7247 59.7507C49.4873 61.2422 46.1967 62.6133 42.7172 63.4359C40.432 63.9798 38.1179 64.1001 35.8069 63.5227L35.3179 63.4131L35.327 63.4222C35.0088 63.2374 34.6808 63.0701 34.3444 62.921C29.8411 61.1934 25.4627 59.2343 21.642 56.2179C19.5762 54.5893 17.8151 52.7048 16.5628 50.3603C15.5525 48.5121 14.9607 46.4646 14.8291 44.3625C14.7332 42.6395 14.9678 40.8982 15.0561 39.166C15.2283 39.9841 15.3349 40.822 15.5817 41.6157C16.7395 45.336 19.6417 47.3438 23.5402 47.3027C26.7866 47.2692 29.6979 46.4008 32.1247 44.1812C34.9751 41.5746 38.3388 41.3476 41.8991 42.0377C43.4454 42.3424 44.6718 43.2565 45.8418 44.2391C47.4368 45.5843 49.1842 46.6233 51.2698 46.995C53.1314 47.3256 55.0113 47.5023 56.8608 47.0163C60.2123 46.1388 61.9384 43.7501 62.6087 40.5036C63.279 37.2572 62.7611 34.1052 61.5103 31.0583C61.4174 30.8328 61.3107 30.6135 61.1691 30.2966C62.4289 30.2966 63.567 30.2753 64.7034 30.3179C64.8183 30.3489 64.9236 30.4082 65.0096 30.4904C65.0956 30.5727 65.1595 30.6752 65.1955 30.7887C65.4134 32.4218 65.5688 34.061 65.7729 35.6957C65.9862 37.4065 66.2665 39.1082 66.4554 40.8205C67.1105 46.7451 64.9822 51.5059 60.3327 55.1652C59.3394 55.9482 58.2715 56.6399 57.2249 57.3543C56.3702 57.9363 56.2468 58.2334 56.547 59.1825L54.6091 60.0676ZM38.7715 47.5312C40.1106 47.5312 41.3461 46.9919 42.0271 46.215C42.4917 45.6818 42.5115 45.0252 42.0728 44.5758C41.6157 44.1005 41.0292 44.0989 40.4427 44.5758C39.3184 45.4776 38.5795 45.4898 37.4781 44.588C36.8687 44.0944 36.2441 44.105 35.7916 44.6169C35.3681 45.0983 35.4062 45.7138 35.9135 46.247C36.282 46.6385 36.7241 46.9535 37.2146 47.1738C37.705 47.3942 38.2341 47.5157 38.7715 47.5312Z" fill="#E5876D"/>
<path d="M16.4638 5.61235C18.1396 6.6361 19.7057 6.49747 21.2382 5.27262C22.3671 4.37075 23.5813 3.57704 24.7102 2.67364C25.2571 2.23641 25.6364 2.29278 26.1605 2.70411C27.3975 3.67301 28.6802 4.58403 29.9493 5.5118C31.4072 6.57821 32.9276 6.59192 34.384 5.5377C35.72 4.57184 37.05 3.59989 38.3571 2.59442C38.8004 2.25317 39.128 2.27145 39.5621 2.60356C40.8296 3.57551 42.123 4.51395 43.4104 5.45848C44.9688 6.60411 46.4572 6.6102 48.034 5.45848C49.3259 4.52005 50.6147 3.57551 51.8807 2.60204C52.3148 2.26688 52.6424 2.2486 53.0857 2.58985C54.3502 3.56485 55.6436 4.50329 56.9324 5.44782C58.5229 6.61325 60.0067 6.60411 61.6185 5.42345C62.397 4.8552 63.1587 4.26411 63.9463 3.70805C64.4993 3.31805 64.8832 3.50086 64.8847 4.17879C64.8969 9.83532 64.8847 15.4934 64.8847 21.2565H17.1463C16.9208 21.2565 16.6893 21.223 16.4684 21.2063L16.4638 5.61235ZM43.1133 12.9706C43.0737 12.1144 43.0996 11.246 42.9807 10.3975C42.6852 8.28294 40.8327 6.84024 38.6664 6.96821C37.6693 7.02413 36.7287 7.44914 36.0278 8.16049C35.3268 8.87184 34.9157 9.8186 34.8745 10.8164C34.8273 12.2591 34.8258 13.7109 34.8745 15.1491C34.9461 17.2529 36.6874 18.9287 38.8202 19.0186C39.818 19.0531 40.7935 18.7192 41.5608 18.0806C42.3281 17.4419 42.8335 16.5432 42.9807 15.5558C43.098 14.7027 43.0737 13.8359 43.1133 12.9706ZM24.4527 13.0284C24.4527 12.4709 24.4908 11.9102 24.4527 11.3527C24.3004 9.49864 22.9064 8.18239 21.1148 8.1763C20.2548 8.16141 19.4227 8.48171 18.7946 9.06941C18.1666 9.65712 17.7918 10.4661 17.7496 11.3252C17.6749 12.4132 17.6749 13.505 17.7496 14.593C17.7924 15.4521 18.1624 16.2623 18.7836 16.8572C19.4049 17.4521 20.2303 17.7867 21.0905 17.7922C22.8805 17.8029 24.3217 16.4211 24.4618 14.5458C24.4832 14.0446 24.4527 13.5358 24.4527 13.0284ZM53.4589 12.9721C53.4589 13.4779 53.4468 13.9867 53.4589 14.4955C53.4478 15.3844 53.7903 16.2413 54.411 16.8777C55.0317 17.5141 55.8797 17.8779 56.7686 17.889C57.6575 17.9001 58.5144 17.5576 59.1508 16.9369C59.7872 16.3163 60.151 15.4682 60.1621 14.5793C60.2032 13.5129 60.2017 12.4465 60.1621 11.3801C60.153 10.4912 59.7912 9.64232 59.1562 9.02021C58.5212 8.3981 57.6651 8.05371 56.7762 8.0628C55.8873 8.07189 55.0385 8.43372 54.4164 9.06869C53.7942 9.70366 53.4499 10.5598 53.4589 11.4486C53.4468 11.9575 53.4605 12.4648 53.4589 12.9721Z" fill="#F7EB7F"/>
<path d="M39.0107 30.2905C45.2568 30.2905 51.5028 30.2905 57.7489 30.2768C58.2943 30.2768 58.6371 30.4063 58.893 30.909C60.6435 34.3535 61.2803 37.9092 59.8696 41.6188C59.0743 43.715 57.4595 44.818 55.2185 44.9704C52.2067 45.176 49.498 44.4707 47.1961 42.4034C43.6922 39.2575 39.5789 38.9208 35.2021 39.8912C33.607 40.2446 32.2512 41.0978 31.0248 42.1444C29.3962 43.5353 27.6458 44.6885 25.449 44.8668C24.2927 44.9597 23.0953 45.0511 21.9619 44.8668C19.337 44.4372 18.0466 42.5816 17.553 40.1441C16.8995 36.9205 17.4403 33.8493 18.9942 30.9456C19.2532 30.4611 19.5564 30.2814 20.117 30.2844C26.4164 30.2981 32.7128 30.2905 39.0107 30.2905ZM27.1644 37.4766C27.1644 37.0195 27.1964 36.5625 27.1568 36.1055C27.1004 35.4473 26.6723 35.0893 26.0477 35.0817C25.4551 35.0817 24.9813 35.4123 24.9478 36.0247C24.8869 36.984 24.8869 37.9462 24.9478 38.9055C24.9844 39.5149 25.4521 39.8592 26.0432 39.8546C26.6678 39.8546 27.0989 39.4951 27.1583 38.8385C27.1964 38.3906 27.1644 37.9336 27.1644 37.4766ZM53.4833 42.9259C53.9403 42.9259 54.3974 42.9548 54.8453 42.9259C55.5186 42.8711 56.0442 42.3165 56.0077 41.7559C55.9665 41.1206 55.5034 40.7139 54.763 40.7017C53.9297 40.688 53.0964 40.691 52.2646 40.7017C51.544 40.7108 51.0626 41.1465 51.058 41.7681C51.058 42.4201 51.4968 42.8893 52.196 42.9335C52.6226 42.9503 53.0537 42.9289 53.4833 42.9274V42.9259ZM24.4298 40.6925C23.9728 40.6925 23.5158 40.6925 23.0588 40.6925C22.4021 40.6925 22.0106 41.0094 21.9543 41.6828C21.9025 42.3059 22.294 42.865 22.9293 42.9015C23.8897 42.9571 24.8526 42.9571 25.8131 42.9015C26.456 42.8665 26.8445 42.3272 26.8034 41.698C26.7607 41.0216 26.3768 40.7017 25.7171 40.6895C25.2891 40.6864 24.8595 40.6925 24.4298 40.6925ZM53.0156 37.4766C53.0156 37.0957 53.0156 36.7148 53.0156 36.334C53.0187 36.2833 53.0187 36.2324 53.0156 36.1816C52.941 35.5311 52.4672 35.0695 51.8746 35.0665C51.25 35.0665 50.7609 35.5494 50.7411 36.2471C50.7198 37.0596 50.7198 37.8721 50.7411 38.6846C50.7594 39.387 51.2393 39.8729 51.8654 39.876C52.4916 39.879 52.973 39.39 53.0156 38.6938C53.0293 38.2931 53.0156 37.8848 53.0156 37.4766Z" fill="#FDD1BB"/>
<path d="M13.7109 23.6133C13.9882 23.5935 14.267 23.5584 14.5443 23.5584C31.557 23.5584 48.5687 23.5615 65.5794 23.5676C66.0835 23.5571 66.5849 23.6445 67.0556 23.825C67.8448 24.1556 68.3429 25.1169 68.2409 25.9502C68.1251 26.8856 67.6223 27.5605 66.7174 27.8576C66.3273 27.968 65.9221 28.0164 65.517 28.0008C48.5296 28.0069 31.5423 28.0069 14.5549 28.0008C14.3264 28.0008 14.0979 27.9795 13.8724 27.9688C13.359 27.1781 12.9264 26.3418 13.1107 25.3789C13.2295 24.768 13.5038 24.1952 13.7109 23.6133Z" fill="#F9B559"/>
<path d="M54.6091 60.0676L56.547 59.1856C57.1563 59.7736 57.7657 59.7782 58.4497 59.2876C59.9259 58.2212 61.4204 57.1868 62.918 56.1295C64.0148 58.0079 64.0209 60.0021 62.7732 61.8059C61.716 63.3293 60.4302 64.7263 59.117 66.0456C57.5936 67.569 55.9041 68.9203 54.3304 70.3935C52.7566 71.8667 51.3596 73.5044 50.8264 75.6859H47.1184V64.5648C48.7591 63.925 50.4075 63.2958 52.0421 62.6377C52.6515 62.3924 53.2411 62.0969 53.8261 61.7952C54.6746 61.3549 54.8072 61.0381 54.6091 60.0676Z" fill="#E6E6E6"/>
<path d="M30.8054 75.6859H27.1172C26.3677 72.7502 24.1861 70.8688 22.0533 68.9538C20.5999 67.6498 19.0323 66.4569 17.6978 65.0432C16.5763 63.8444 15.6001 62.5174 14.7895 61.0899C13.8572 59.4613 14.0979 57.7383 14.9632 56.1874C16.6893 57.362 18.3574 58.6006 20.1246 59.6776C23.2659 61.5926 26.651 63.0155 30.1123 64.2479C30.6638 64.4429 30.8237 64.6943 30.8191 65.2671C30.7902 68.7147 30.8054 72.1637 30.8054 75.6859Z" fill="#E6E6E6"/>
<path d="M33.1287 75.6646V65.3204C36.9208 66.4547 40.9619 66.4547 44.754 65.3204V75.66L33.1287 75.6646Z" fill="#FA5E7D"/>
<path d="M15.0561 39.1661C14.9678 40.8982 14.7332 42.6395 14.8292 44.3625C14.9607 46.4646 15.5525 48.5122 16.5628 50.3603C17.8151 52.7109 19.5762 54.5893 21.642 56.2148C25.4627 59.2313 29.8411 61.1904 34.3444 62.918C34.6808 63.067 35.0088 63.2344 35.327 63.4192C34.1585 63.1008 32.9642 62.854 31.8231 62.4488C27.2528 60.8248 22.7983 58.9586 18.8251 56.1158C15.9306 54.044 13.5129 51.5638 12.2424 48.1528C11.1759 45.2964 11.2003 42.35 11.5766 39.3778C11.895 36.8672 12.186 34.3505 12.4907 31.8429C12.5531 31.3447 12.6689 30.8527 12.7664 30.3195H16.1484C16.1007 30.8273 16.0499 31.3386 15.9961 31.8536L16.0083 31.8353C15.9534 31.9876 15.8971 32.1506 15.8422 32.3091C15.1818 34.5313 14.9158 36.852 15.0561 39.1661Z" fill="#D96641"/>
<path d="M16.4638 5.61234V21.2093H13.0513C13.0391 20.9534 13.0178 20.6868 13.0162 20.4202C13.0162 18.2432 13.0162 16.0677 13.0162 13.8907C13.0162 12.902 12.8289 12.672 11.8721 12.3871L11.8554 10.207C12.8624 9.87035 13.0086 9.6784 13.0132 8.62875C13.0132 7.21195 12.9995 5.79363 13.0284 4.37684C13.0284 4.10719 13.1412 3.70805 13.3331 3.61512C13.5251 3.52219 13.8937 3.69281 14.1146 3.84973C14.9114 4.40426 15.6823 5.01668 16.4638 5.61234Z" fill="#F9B559"/>
<path d="M24.7223 75.6676H14.2959C14.6783 72.8294 16.0037 70.529 17.8638 68.3551C20.2876 70.6677 23.2461 72.4135 24.7223 75.6676Z" fill="#68A0DB"/>
<path d="M60.0067 68.282C61.9247 70.4818 63.2516 72.8188 63.6492 75.6722H53.1893C54.6914 72.441 57.6332 70.7058 60.0067 68.282Z" fill="#68A0DB"/>
<path d="M68.9965 42.8985C68.6349 39.9034 68.2734 36.8982 67.9118 33.8828C69.7506 33.8995 71.626 35.781 71.8987 37.7995C72.211 40.0664 70.8551 42.3957 68.9965 42.8985Z" fill="#FDD1BB"/>
<path d="M8.9121 42.9305C7.94439 42.5377 7.13281 41.8374 6.60254 40.9377C6.07227 40.038 5.85279 38.9887 5.97795 37.9519C6.26588 35.8191 7.93405 34.0625 9.98917 33.8386C9.62964 36.8763 9.27315 39.8866 8.9121 42.9305Z" fill="#FDD1BB"/>
<path d="M13.7109 23.6133C13.5083 24.1998 13.2341 24.7726 13.1183 25.3774C12.9325 26.3463 13.3651 27.1827 13.88 27.9673C13.2204 27.9795 12.5607 28.0282 11.8996 27.9947C10.5772 27.9292 9.6144 26.9115 9.65249 25.6928C9.69058 24.474 10.6351 23.5874 11.9651 23.56C12.544 23.5462 13.1259 23.5904 13.7109 23.6133Z" fill="#D96641"/>
<path d="M16.0068 31.8581C16.0555 31.3503 16.1063 30.8389 16.1591 30.324H16.7426C16.4668 30.8862 16.2368 31.3721 16.0068 31.8581Z" fill="#E5876D"/>
<path d="M15.8529 32.3136C15.9077 32.1613 15.9641 31.9968 16.0189 31.8398C15.9641 31.9922 15.9077 32.1552 15.8529 32.3136Z" fill="#E5876D"/>
<path d="M35.3179 63.4131L35.8008 63.5273L35.3179 63.4131Z" fill="#D96641"/>
<path d="M38.7715 47.5312C38.2336 47.5149 37.7043 47.3925 37.2138 47.171C36.7234 46.9496 36.2815 46.6335 35.9135 46.2409C35.4062 45.7077 35.3681 45.0922 35.7916 44.6108C36.2487 44.0989 36.8672 44.0883 37.4781 44.5819C38.5795 45.4761 39.3184 45.4716 40.4427 44.5697C41.0292 44.0989 41.6112 44.1005 42.0728 44.5697C42.5115 45.0191 42.4917 45.6757 42.0271 46.2089C41.3461 46.9859 40.1106 47.5191 38.7715 47.5312Z" fill="#040303"/>
<path d="M43.1133 12.9706C43.0737 13.8359 43.098 14.7027 42.9807 15.5513C42.8335 16.5387 42.3281 17.4373 41.5608 18.076C40.7935 18.7146 39.8179 19.0485 38.8202 19.014C36.6874 18.9241 34.9461 17.2484 34.8745 15.1445C34.8258 13.7018 34.8273 12.25 34.8745 10.8118C34.9168 9.81483 35.3284 8.86919 36.0292 8.1588C36.7301 7.4484 37.67 7.02403 38.6664 6.96821C40.8327 6.84024 42.6852 8.28293 42.9807 10.3975C43.0996 11.246 43.0737 12.1144 43.1133 12.9706ZM37.149 12.9706C37.149 13.6302 37.1262 14.2914 37.149 14.951C37.1563 15.3995 37.3305 15.8292 37.6375 16.1563C37.9445 16.4833 38.3624 16.6842 38.8096 16.7197C39.7053 16.802 40.6377 16.1652 40.6956 15.2191C40.7916 13.7287 40.7916 12.2337 40.6956 10.7433C40.6331 9.77743 39.7815 9.20309 38.8126 9.25794C37.8437 9.31278 37.1856 10.0075 37.1368 10.9947C37.1262 11.6528 37.149 12.314 37.149 12.9721V12.9706Z" fill="#040303"/>
<path d="M24.4527 13.0284C24.4527 13.5357 24.4832 14.0446 24.4527 14.5519C24.3125 16.4318 22.8714 17.809 21.0813 17.7983C20.2212 17.7928 19.3958 17.4582 18.7745 16.8633C18.1532 16.2684 17.7832 15.4582 17.7404 14.5991C17.6658 13.5111 17.6658 12.4193 17.7404 11.3313C17.7826 10.4722 18.1574 9.6632 18.7855 9.07549C19.4136 8.48779 20.2457 8.1675 21.1057 8.18238C22.8973 8.18238 24.2958 9.50472 24.4436 11.3587C24.4877 11.9133 24.4436 12.4739 24.4436 13.0345L24.4527 13.0284ZM20.0012 12.9264C20.0012 13.4306 19.9662 13.9395 20.0104 14.4407C20.0652 15.0759 20.4461 15.4934 21.0889 15.4873C21.7318 15.4812 22.1325 15.0729 22.1553 14.43C22.1934 13.4718 22.1919 12.5105 22.1553 11.5522C22.131 10.9215 21.7897 10.5102 21.1148 10.4858C20.4948 10.4584 20.0484 10.8789 19.9997 11.569C19.9753 12.0154 20.0012 12.4724 20.0012 12.9264Z" fill="#040303"/>
<path d="M53.4605 12.9721C53.4605 12.4648 53.4468 11.9575 53.4605 11.4486C53.456 11.0085 53.5382 10.5718 53.7025 10.1634C53.8667 9.75509 54.1098 9.38309 54.4179 9.06869C54.7259 8.75428 55.0929 8.50363 55.4978 8.33104C55.9027 8.15845 56.3376 8.0673 56.7778 8.0628C57.6666 8.05371 58.5227 8.3981 59.1577 9.02021C59.4721 9.32825 59.7228 9.6952 59.8954 10.1001C60.0679 10.505 60.1591 10.9399 60.1636 11.3801C60.2032 12.4465 60.2047 13.5129 60.1636 14.5793C60.1581 15.0194 60.0659 15.4542 59.8924 15.8587C59.7189 16.2632 59.4674 16.6296 59.1523 16.9369C58.8372 17.2443 58.4646 17.4865 58.0559 17.6499C57.6472 17.8132 57.2103 17.8945 56.7701 17.889C56.33 17.8835 55.8953 17.7913 55.4907 17.6178C55.0862 17.4443 54.7198 17.1928 54.4125 16.8777C54.1052 16.5626 53.8629 16.19 53.6996 15.7813C53.5362 15.3726 53.455 14.9356 53.4605 14.4955C53.4468 13.9867 53.4589 13.4779 53.4605 12.9721ZM55.7456 12.9721C55.7456 13.452 55.7334 13.9318 55.7456 14.4117C55.767 15.079 56.163 15.4568 56.7922 15.4781C57.3925 15.4964 57.8312 15.1293 57.8586 14.5214C57.915 13.4873 57.915 12.4508 57.8586 11.4166C57.8251 10.8179 57.4107 10.463 56.7831 10.4767C56.1554 10.4904 55.7913 10.8393 55.7487 11.4578C55.7228 11.9666 55.7578 12.4739 55.7578 12.9797L55.7456 12.9721Z" fill="#040303"/>
<path d="M27.1644 37.4766C27.1644 37.9336 27.1964 38.3906 27.1568 38.8477C27.0974 39.5043 26.6663 39.8608 26.0416 39.8638C25.4505 39.8638 24.9829 39.5287 24.9463 38.9147C24.8854 37.9554 24.8854 36.9932 24.9463 36.0339C24.9844 35.4245 25.4536 35.0848 26.0462 35.0909C26.6708 35.0985 27.0989 35.4565 27.1553 36.1146C27.1964 36.5625 27.1644 37.0195 27.1644 37.4766Z" fill="#040303"/>
<path d="M53.4833 42.9274C53.0537 42.9274 52.6226 42.9503 52.196 42.9274C51.4968 42.8832 51.055 42.414 51.058 41.762C51.058 41.142 51.544 40.7062 52.2646 40.6956C53.0964 40.6864 53.9297 40.6834 54.763 40.6956C55.5034 40.7078 55.9665 41.1145 56.0077 41.7498C56.0442 42.3104 55.5186 42.865 54.8453 42.9198C54.3943 42.9609 53.9373 42.9274 53.4833 42.9274Z" fill="#FA5E7D"/>
<path d="M24.4298 40.6925C24.8595 40.6925 25.2906 40.6925 25.7202 40.6925C26.3798 40.7047 26.7638 41.0246 26.8064 41.7011C26.8475 42.3302 26.4591 42.8695 25.8162 42.9046C24.8557 42.9602 23.8928 42.9602 22.9323 42.9046C22.297 42.8665 21.9055 42.3074 21.9573 41.6858C22.0137 41.0125 22.4052 40.7017 23.0618 40.6956C23.5188 40.6895 23.9743 40.6925 24.4298 40.6925Z" fill="#FA5E7D"/>
<path d="M53.0156 37.4766C53.0156 37.8818 53.0354 38.2901 53.0156 38.6953C52.973 39.3915 52.4839 39.879 51.8654 39.8775C51.2469 39.876 50.7594 39.3885 50.7411 38.6862C50.7198 37.8737 50.7198 37.0612 50.7411 36.2487C50.7609 35.5509 51.25 35.065 51.8746 35.068C52.4672 35.068 52.941 35.5327 53.0156 36.1832C53.0187 36.2339 53.0187 36.2848 53.0156 36.3355C53.0156 36.7174 53.0156 37.0977 53.0156 37.4766Z" fill="#040303"/>
<path d="M37.149 12.9721C37.149 12.314 37.1262 11.6528 37.149 10.9916C37.1917 10.0044 37.8772 9.31583 38.8248 9.25489C39.7724 9.19395 40.6453 9.77438 40.7078 10.7402C40.8037 12.2306 40.8037 13.7257 40.7078 15.2161C40.6468 16.1622 39.7175 16.7989 38.8218 16.7167C38.3746 16.6811 37.9567 16.4802 37.6497 16.1532C37.3427 15.8262 37.1685 15.3965 37.1612 14.948C37.1262 14.2929 37.149 13.6317 37.149 12.9721Z" fill="#68A0DB"/>
<path d="M20.0012 12.9264C20.0012 12.4693 19.9753 12.0123 20.0012 11.5629C20.053 10.8728 20.4963 10.4523 21.1164 10.4797C21.7913 10.5102 22.1325 10.9215 22.1569 11.5461C22.1919 12.5044 22.1934 13.4657 22.1569 14.4239C22.1325 15.0668 21.7288 15.4751 21.0905 15.4812C20.4522 15.4873 20.0667 15.0698 20.0119 14.4346C19.9677 13.9334 20.0027 13.4245 20.0027 12.9203L20.0012 12.9264Z" fill="#FA5E7D"/>
<path d="M55.7578 12.9797C55.7578 12.4739 55.7289 11.9666 55.7654 11.4639C55.8081 10.8454 56.1752 10.4965 56.7998 10.4828C57.4245 10.4691 57.8419 10.824 57.8754 11.4227C57.9318 12.4569 57.9318 13.4933 57.8754 14.5275C57.8434 15.1369 57.4047 15.5025 56.809 15.4842C56.1798 15.4644 55.7837 15.0866 55.7624 14.4178C55.7471 13.9379 55.7624 13.4581 55.7624 12.9782L55.7578 12.9797Z" fill="#FA5E7D"/>
</svg>
