<svg width="86" height="86" viewBox="0 0 86 86" fill="none" xmlns="http://www.w3.org/2000/svg">
<g clip-path="url(#clip0_27_227)">
<path d="M41.6562 0C42.7564 0.215 43.8701 0.379609 44.9568 0.653398C55.3491 3.26195 62.0628 9.74219 65.1551 19.9782C65.323 20.5342 65.5212 20.7693 66.1343 20.8281C69.1712 21.1204 71.5564 23.8516 71.5513 26.9707C71.5463 30.0899 69.1443 32.7925 66.1074 33.1033C65.6774 33.1486 65.3449 33.1604 65.1971 33.718C63.383 40.5896 59.4307 45.9126 53.4762 49.7675C53.4073 49.8128 53.3485 49.8733 53.2646 49.9354C58.8294 52.5742 61.8209 57.3563 64.1724 62.6523C65.0123 62.4844 65.9092 62.219 66.8264 62.1484C68.076 62.0443 69.1779 62.5163 70.1353 63.3242C71.4186 64.4211 71.4791 65.8202 70.3033 67.033C70.1148 67.1979 69.915 67.3495 69.7053 67.4865C71.7361 69.0318 73.5384 70.5922 75.5238 71.8688C78.0248 73.4762 79.4358 75.5826 79.6004 78.5707C79.6676 79.7919 79.9699 80.9996 80.158 82.2157C80.494 84.3774 78.9722 85.8606 76.8121 85.4675C75.3004 85.1921 73.8021 84.8225 72.2769 84.6378C70.0295 84.364 68.4288 83.2655 67.1824 81.3859C65.7026 79.1502 64.0465 77.0322 62.4222 74.8015C62.1803 75.0216 61.9687 75.2214 61.7503 75.4129C60.6602 76.3821 59.2762 76.3569 58.3557 75.2181C57.8518 74.5848 57.2824 73.7954 57.2185 73.0345C57.1178 71.7915 56.414 71.5614 55.5489 71.4539C55.5489 73.3016 55.5338 75.1761 55.5674 77.0439C55.5674 77.2774 55.8328 77.5058 55.9672 77.7393C56.7382 79.083 57.6603 80.3714 58.2415 81.7957C58.9587 83.551 57.9374 85.2828 56.1083 85.8623C56.0428 85.8824 55.9941 85.958 55.9403 86.0067H46.1914C44.2665 85.1282 43.7659 83.5594 43.8566 81.5656C43.9608 79.2779 43.8566 76.9801 43.8936 74.689C43.9053 73.9802 43.7256 73.6963 42.958 73.7097C40.4138 73.7523 37.8691 73.7523 35.3238 73.7097C34.573 73.698 34.3647 73.955 34.3748 74.6772C34.4117 77.1094 34.3278 79.5483 34.4084 81.9738C34.4739 83.9273 33.7869 85.3063 31.9141 86.005H22.1719C22.0677 85.9266 21.9582 85.8553 21.8443 85.7917C20.1058 84.962 19.3483 83.3494 20.1109 81.5656C20.682 80.2219 21.5554 79.0142 22.2945 77.7494C22.4188 77.5377 22.6858 77.3463 22.6892 77.1413C22.7228 75.5607 22.7077 73.9802 22.7077 72.4819C22.0879 72.366 21.4446 72.3139 20.8382 72.1207C18.7273 71.4673 16.7549 70.4304 15.0198 69.062C14.0388 68.2961 13.9632 68.0055 14.4436 66.8566C15.2062 66.3527 15.873 66.482 16.5735 67.0531C18.0767 68.2727 19.8089 69.1791 21.668 69.7188C22.0355 69.8294 22.4262 69.8381 22.7984 69.744C25.3077 69.0237 27.5949 67.6823 29.4483 65.8438C33.0764 62.2912 34.8854 57.7813 35.9151 52.927C36.2191 51.4925 35.6312 50.5468 34.0792 50.3537C30.2495 49.8817 26.6197 48.7613 23.2569 46.7978C22.7934 46.5273 22.0324 46.655 21.4362 46.7575C21.023 46.828 20.6601 47.1791 20.2604 47.389C17.1647 49.0368 13.8339 49.9086 10.3821 50.3889C9.12741 50.5569 8.36651 51.4236 8.59831 52.5457C9.36425 56.204 10.5232 59.7213 12.6732 62.8287C13.2191 63.6165 13.466 64.3404 12.9252 65.192C11.531 65.528 11.3782 65.4725 10.535 64.2061C8.28757 60.8332 6.93878 57.1043 6.1678 53.1487C5.6555 50.5418 7.28983 48.2406 9.91015 47.8711C10.6576 47.767 11.4051 47.6628 12.1441 47.5167C14.578 47.0346 16.9312 46.3123 19.1199 45.1097C19.0944 45.0409 19.0617 44.9751 19.0225 44.9132C16.1339 41.7005 14.0737 37.8309 13.0209 33.6408C12.8966 33.1369 12.601 33.1503 12.2382 33.11C10.8068 32.9568 9.4735 32.3096 8.46767 31.2797C7.46184 30.2498 6.84634 28.9016 6.72704 27.4669C6.60773 26.0323 6.99208 24.6009 7.81398 23.419C8.63588 22.2371 9.84394 21.3786 11.2304 20.9911C11.7628 20.8449 12.3188 20.7828 12.8748 20.6803C12.9285 20.5258 12.989 20.3696 13.0428 20.21C16.2308 9.42417 23.3169 2.83587 34.3009 0.445116C35.0148 0.288905 35.7337 0.147812 36.4492 0H41.6562ZM34.442 68.4036C33.2393 68.3918 32.0367 68.3633 30.8357 68.3834C30.5674 68.4169 30.3116 68.5168 30.0916 68.674C28.6919 69.5396 27.2999 70.4153 25.9159 71.3011C25.721 71.4253 25.4254 71.6068 25.412 71.7764C25.3616 72.6163 25.3885 73.4762 25.3885 74.3766C25.7244 74.3766 25.9696 74.3766 26.2182 74.3766C26.3862 74.3766 26.5542 74.3531 26.7221 74.3413C28.2339 74.3413 29.7456 74.3413 31.2489 74.3782C31.7242 74.39 31.8452 74.1935 31.9124 73.7534C32.1408 72.2266 33.2578 71.2188 34.7695 71.2188C37.681 71.1919 40.5885 71.1919 43.4921 71.2188C45.0291 71.2322 46.1796 72.3038 46.3829 73.8307C46.4047 73.9986 46.4366 74.1481 46.4652 74.3111H52.9874C52.8799 72.2954 52.7774 70.3587 52.6733 68.3801H50.96L34.442 68.4036ZM58.0097 11.8888L58.2465 12.035L58.1558 11.7225C58.1085 11.6225 58.0523 11.527 57.9878 11.437C53.3754 5.99312 47.515 2.92602 40.3898 2.5716C32.9756 2.20207 26.6466 4.81398 21.4496 10.1302C20.9289 10.6627 20.4687 11.2556 19.9816 11.82L20.1327 11.9678C20.3393 11.8452 20.5476 11.7242 20.7508 11.5966C28.1499 7.02613 36.1721 5.53457 44.7267 6.82625C49.4702 7.52635 54.0035 9.25414 58.0097 11.8888ZM36.6172 65.8202H52.3962C51.7545 61.0718 51.0155 56.4308 48.8335 52.4079L41.2968 53.8642H38.3305C37.3226 58.2314 35.7219 62.2475 32.9034 65.8202H36.6172ZM19.5163 41.4883C19.8925 41.9704 20.2906 42.439 20.6417 42.9395C21.1725 43.6954 21.8074 44.0918 22.7984 44.0364C23.3392 44.0061 23.9607 44.2581 24.4462 44.5504C27.4696 46.3711 30.7567 47.3806 34.2219 47.8123C36.4643 48.0911 37.9391 49.1712 38.5774 51.4639L41.4883 51.2305C41.7385 51.2305 41.9922 51.2305 42.2408 51.207C52.2517 49.9606 60.6854 42.3449 62.9278 32.5204C62.995 32.2265 62.9614 31.9107 62.9832 31.432C62.6943 31.6772 62.565 31.7679 62.4508 31.8855C58.7454 35.5657 54.353 38.0701 49.3492 39.5382C48.2574 39.859 47.8996 39.7263 47.3336 38.7974C47.2412 37.8534 47.7031 37.3344 48.5933 37.1312C48.81 37.0825 49.0217 37.0136 49.2333 36.9447C53.7248 35.48 57.6989 33.1755 60.9626 29.7221L63.037 27.4427C52.1341 20.9927 27.3571 20.556 15.2213 27.4427L17.3008 29.7305C17.5477 29.9925 17.7795 30.273 18.0432 30.5166C25.1583 37.0942 33.6811 39.1216 43.0924 38.2095C43.996 38.1222 44.6276 38.3053 44.9568 39.1905C44.8443 40.2823 44.6024 40.5577 43.5442 40.6921C40.5698 41.0594 37.5611 41.0538 34.5881 40.6753C27.2748 39.7817 20.8936 36.9279 15.6396 31.6923C15.5001 31.5546 15.3423 31.4354 15.1357 31.259C15.4246 34.2875 17.4251 38.915 19.5163 41.4883ZM63.336 24.6242C63.3431 24.4855 63.3431 24.3464 63.336 24.2077C63.3057 23.9859 63.2705 23.7659 63.2251 23.5475C62.266 19.0208 59.602 15.6984 55.6867 13.4425C45.926 7.81055 35.8277 7.41078 25.5312 11.8519C22.2794 13.2544 19.4289 15.2516 17.3545 18.1994C15.9963 20.0993 15.149 22.3162 14.8938 24.6377C22.6556 21.0146 30.8021 19.9345 39.1434 19.9245C47.4848 19.9144 55.6245 21.0079 63.336 24.6175V24.6242ZM66.9154 70.3319C67.2043 70.5771 67.4562 70.7602 67.6712 70.9786C69.6869 73.0345 71.7025 75.0938 73.7181 77.1564C73.7769 77.2169 73.8357 77.2757 73.8861 77.3379C74.5143 78.0097 74.558 78.7236 74.0221 79.2594C73.4863 79.7952 72.7456 79.7532 72.1039 79.1032C69.9791 76.9515 67.8694 74.7864 65.753 72.6297C65.5649 72.4399 65.3617 72.2652 65.2239 72.1392L64.1876 72.9707C66.1847 75.7052 68.0811 78.3709 70.0665 80.9643C70.4343 81.443 71.1448 81.7386 71.7562 81.9301C72.5961 82.1972 73.5048 82.2912 74.3833 82.4508C75.4717 82.649 76.5669 82.8388 77.7242 83.0454C77.3731 80.9005 77.106 78.8798 76.6794 76.8944C76.5013 76.2279 76.1203 75.6333 75.5893 75.1929C74.0423 73.9046 72.3979 72.7288 70.8005 71.5093L67.9736 69.3375L66.9154 70.3319ZM46.4014 76.9297C46.4014 78.8983 46.4014 80.7644 46.4014 82.6406C46.4014 83.2252 46.7121 83.4905 47.3 83.4805C49.8985 83.4805 52.4953 83.4805 55.0921 83.4805C55.8009 83.4805 56.1133 83.079 55.8177 82.4525C55.3683 81.4374 54.8179 80.4701 54.1749 79.5651C53.5719 78.7656 52.7523 78.1323 53.0462 76.9398L46.4014 76.9297ZM31.8653 76.9448H25.1751C25.5363 78.1021 24.7468 78.695 24.1774 79.4559C23.4871 80.3831 22.9479 81.4346 22.4356 82.4794C22.1484 83.0639 22.4742 83.4687 23.131 83.4721C25.7832 83.4838 28.4371 83.4956 31.0893 83.4452C31.353 83.4452 31.8233 83.0068 31.8301 82.7616C31.8922 80.845 31.8653 78.9218 31.8653 76.9482V76.9448ZM51.6218 52.2702C53.2444 55.7555 53.9297 59.4475 54.5982 63.2268L60.1412 60.1362C57.756 56.1771 54.7057 52.7623 51.6218 52.2736V52.2702ZM57.5091 69.3711L57.2773 68.9915C58.6782 67.7552 60.0824 66.524 61.4765 65.276C61.6697 65.108 61.9435 64.8158 61.9116 64.6277C61.7806 63.8852 61.5437 63.1613 61.3287 62.3718C59.2325 63.5359 57.284 64.6125 55.3407 65.701C55.1735 65.7807 55.0406 65.9178 54.9661 66.0873C54.8269 66.666 54.8942 67.275 55.1565 67.8093C55.4187 68.3436 55.8593 68.7694 56.4022 69.0133C56.7645 69.1525 57.134 69.2719 57.5091 69.3711V69.3711ZM60.2605 73.5317L68.1768 65.0761C67.3907 64.4345 66.0671 64.416 65.1618 65.2676C63.5146 66.8163 61.8909 68.3918 60.2907 69.9943C59.3685 70.9181 59.3316 72.277 60.2605 73.53V73.5317ZM12.297 30.5518V23.3628C11.4435 23.5013 10.6671 23.939 10.1068 24.5976C9.54647 25.2562 9.23879 26.0926 9.23879 26.9573C9.23879 27.822 9.54647 28.6584 10.1068 29.317C10.6671 29.9756 11.4435 30.4133 12.297 30.5518V30.5518ZM65.9714 30.525C67.6259 30.3906 69.0099 28.8285 69.0335 27.0094C69.057 25.1617 67.7048 23.5744 65.9714 23.3762V30.525Z" fill="#030303"/>
<path d="M44.9535 39.1888C44.6176 38.3036 43.9927 38.1205 43.089 38.2079C33.6828 39.1199 25.155 37.0925 18.0399 30.5149C17.7761 30.2713 17.5359 29.9908 17.2974 29.7288C17.5662 29.5407 17.8114 29.2988 18.1054 29.1762C20.855 28.0323 23.6651 27.085 26.6046 26.5592C26.5811 27.5049 26.5139 28.4539 26.5508 29.3979C26.576 30.1067 27.0547 30.5182 27.7535 30.5451C28.4254 30.572 28.9578 30.1823 28.9914 29.5373C29.0468 28.4925 28.9225 27.4394 28.8738 26.3879C29.0771 26.2703 29.2702 26.0687 29.4836 26.0519C31.7478 25.8084 34.0103 25.4708 36.2813 25.3969C40.294 25.2642 44.3102 25.3482 48.2843 26.0301C48.6641 26.1228 49.0364 26.2441 49.3979 26.3929C49.3475 27.4427 49.23 28.4976 49.2753 29.5423C49.3089 30.184 49.8464 30.5737 50.5133 30.5502C51.2137 30.5233 51.689 30.1101 51.7193 29.4029C51.7562 28.4589 51.6823 27.5116 51.6571 26.5643C53.9247 27.2042 56.2057 27.7971 58.4515 28.5026C59.3316 28.7798 60.1311 29.3055 60.971 29.7187C57.7074 33.1738 53.7332 35.4784 49.2417 36.9414C49.0301 37.0102 48.8184 37.0791 48.6018 37.1278C47.7115 37.3311 47.258 37.8501 47.342 38.7941L44.9535 39.1888ZM39.3803 33.671C40.1613 33.6794 41.1608 33.32 41.9687 32.4952C42.523 31.9309 42.5667 31.2136 42.1047 30.6912C41.6428 30.1689 40.9575 30.1151 40.3108 30.6022C39.3517 31.3262 38.9217 31.3312 37.9442 30.5871C37.3411 30.1269 36.7583 30.1269 36.2124 30.6476C35.7085 31.1347 35.7202 31.8805 36.2561 32.4465C37.0018 33.236 37.9324 33.6324 39.3803 33.671ZM50.4326 33.7668C50.9365 33.7668 51.4404 33.7768 51.9443 33.7668C52.6465 33.75 53.2092 33.2628 53.2377 32.6128C53.2663 31.9628 52.9438 31.4051 52.2685 31.3614C51.0783 31.285 49.8844 31.285 48.6942 31.3614C48.0223 31.4051 47.6964 31.9409 47.7233 32.6111C47.7502 33.2813 48.3112 33.75 49.0133 33.7684C49.4836 33.7768 49.959 33.7617 50.4326 33.7617V33.7668ZM27.7568 33.7668H29.1762C29.9203 33.7668 30.4393 33.4073 30.5367 32.6817C30.6342 31.9561 30.1756 31.3749 29.4802 31.3262C28.2927 31.2565 27.1017 31.2784 25.9176 31.3917C25.2726 31.4471 24.9736 32.0081 25.0542 32.6178C25.1382 33.2696 25.4993 33.7584 26.2535 33.7651C26.7524 33.7701 27.2529 33.7617 27.7535 33.7617L27.7568 33.7668Z" fill="#29FF65"/>
<path d="M63.336 24.6175C55.6245 21.0079 47.478 19.9144 39.1384 19.9245C30.7987 19.9345 22.6506 21.0146 14.8887 24.6377C15.144 22.3162 15.9913 20.0993 17.3495 18.1994C19.4239 15.2516 22.2743 13.2544 25.5262 11.8519C35.8277 7.41078 45.926 7.81055 55.685 13.4375C59.6003 15.6933 62.2643 19.0157 63.2234 23.5425C63.2688 23.7609 63.304 23.9809 63.3343 24.2026C63.3419 24.3408 63.3425 24.4793 63.336 24.6175V24.6175ZM40.3982 14.6234C40.3982 13.676 40.4183 12.727 40.3982 11.7797C40.373 10.8877 39.9245 10.3989 39.1787 10.3788C38.3943 10.3586 37.8937 10.8625 37.882 11.7847C37.8607 13.6805 37.8607 15.5769 37.882 17.4738C37.8921 18.354 38.3641 18.8612 39.0998 18.8831C39.8674 18.9049 40.3713 18.3791 40.3965 17.4671C40.4183 16.5197 40.3982 15.5724 40.3982 14.6234ZM46.0234 15.7084C46.0234 16.6575 46.0133 17.6065 46.0234 18.5555C46.0369 19.4441 46.5525 20.0034 47.3084 19.9849C48.0307 19.9681 48.5278 19.4256 48.5346 18.579C48.548 16.6821 48.548 14.7846 48.5346 12.8866C48.5346 12.003 47.992 11.4269 47.2479 11.4471C46.5324 11.4672 46.0369 12.0232 46.0234 12.8614C46.0117 13.8104 46.0234 14.7594 46.0234 15.7084ZM32.25 15.7706C32.25 14.793 32.2651 13.8171 32.25 12.8395C32.2332 11.9997 31.7175 11.4504 31.0003 11.4454C30.2831 11.4404 29.7473 11.9963 29.7405 12.8244C29.7249 14.7493 29.7249 16.6748 29.7405 18.6009C29.7405 19.4407 30.2612 19.9816 30.9852 19.9866C31.7091 19.9916 32.2315 19.4474 32.25 18.6177C32.2651 17.6686 32.25 16.7196 32.25 15.7706V15.7706ZM54.1766 17.6468C54.1766 18.1776 54.143 18.71 54.1766 19.2375C54.2321 19.9648 54.7612 20.4636 55.4112 20.4704C55.7372 20.474 56.0515 20.3488 56.2858 20.1221C56.5201 19.8953 56.6555 19.5853 56.6626 19.2593C56.7079 18.1742 56.7079 17.0757 56.6626 15.9957C56.6578 15.8343 56.6212 15.6754 56.555 15.5281C56.4887 15.3809 56.394 15.2481 56.2764 15.1375C56.1587 15.0269 56.0204 14.9405 55.8694 14.8834C55.7183 14.8264 55.5575 14.7996 55.3961 14.8048C54.741 14.8232 54.2321 15.3204 54.1783 16.0561C54.143 16.5836 54.1733 17.116 54.1749 17.6468H54.1766ZM24.0867 17.7039C24.0867 17.1177 24.127 16.5281 24.0766 15.947C24.0145 15.2331 23.5475 14.8232 22.8521 14.8216C22.1567 14.8199 21.6596 15.228 21.6226 15.9402C21.5655 17.0539 21.5655 18.1725 21.6142 19.2862C21.6166 19.4481 21.6519 19.6078 21.7179 19.7557C21.7838 19.9036 21.8792 20.0365 21.9981 20.1465C22.117 20.2564 22.2569 20.3411 22.4095 20.3953C22.5621 20.4495 22.7241 20.4722 22.8857 20.462C23.5811 20.4015 24.0262 20.0068 24.0833 19.2862C24.1186 18.7672 24.085 18.2347 24.085 17.7039H24.0867Z" fill="#29FF65"/>
<path d="M44.9535 39.1888L47.3403 38.8008C47.9064 39.7297 48.2641 39.8624 49.3559 39.5415C54.3547 38.0735 58.7471 35.5691 62.4575 31.8889C62.5717 31.7763 62.7011 31.6806 62.99 31.4354C62.9681 31.9141 63.0017 32.2299 62.9345 32.5238C60.6922 42.3483 52.2584 49.964 42.2475 51.2103C41.9989 51.2406 41.7436 51.2271 41.495 51.2338C41.1591 50.3218 40.9558 49.3442 40.4872 48.5127C39.1552 46.1612 36.9599 45.1752 34.358 44.851C31.4741 44.5101 28.6892 43.5884 26.1712 42.1417C24.4915 41.1708 22.7363 40.7291 20.8113 41.1675C20.3797 41.2666 19.9513 41.3825 19.5213 41.49C17.4301 38.9234 15.4296 34.2959 15.1357 31.2657C15.344 31.4421 15.5018 31.5613 15.6396 31.6991C20.8936 36.9347 27.2748 39.7884 34.5881 40.682C37.5612 41.0605 40.5698 41.0662 43.5442 40.6988C44.5991 40.5561 44.8477 40.2806 44.9535 39.1888Z" fill="#29FF65"/>
<path d="M14.4453 66.8516L12.9336 65.1836C13.4745 64.327 13.2275 63.6081 12.6816 62.8203C10.5316 59.7129 9.37266 56.1956 8.60673 52.5373C8.37157 51.4152 9.13583 50.5535 10.3906 50.3805C13.8423 49.9069 17.1731 49.0284 20.2688 47.3806C20.6635 47.1707 21.0263 46.8196 21.4446 46.7491C22.0409 46.6466 22.8018 46.5189 23.2654 46.7894C26.6247 48.7529 30.2579 49.8733 34.0876 50.3453C35.6396 50.5384 36.2275 51.4841 35.9235 52.9185C34.8938 57.7762 33.0848 62.2828 29.4567 65.8353C27.6042 67.6769 25.317 69.0213 22.8068 69.744C22.4347 69.8381 22.044 69.8294 21.6764 69.7188C19.8193 69.1768 18.0894 68.2687 16.5886 67.0481C15.8798 66.477 15.2129 66.3476 14.4453 66.8516ZM31.9141 54.9812C31.9426 53.6811 31.3514 53.3603 30.6173 53.1991C28.0496 52.6424 25.5573 51.782 23.1931 50.6358C22.7329 50.4091 21.9838 50.3721 21.5319 50.5905C19.0691 51.7804 16.4729 52.6719 13.7986 53.2461C12.7908 53.4644 12.3944 54.138 12.7757 55.1206C13.3619 56.6323 13.9515 58.1441 14.6973 59.5768C16.0605 62.2029 18.1954 64.3484 20.8147 65.7245C21.7973 66.2502 22.6624 66.3191 23.7189 65.7749C27.0329 64.0532 29.2064 61.3405 30.7248 58.0298C31.2422 56.928 31.6201 55.7656 31.9241 54.9812H31.9141Z" fill="#29FF65"/>
<path d="M41.2968 53.8642L48.8336 52.4062C51.0171 56.4291 51.7545 61.0701 52.3962 65.8185H36.6172C36.6395 65.7108 36.6756 65.6063 36.7247 65.5078C39.083 61.9536 40.4183 57.9979 41.2968 53.8642Z" fill="#29FF65"/>
<path d="M60.9727 29.7154C60.1328 29.3022 59.335 28.7764 58.4531 28.4993C56.2074 27.7938 53.9264 27.2009 51.6588 26.5609C50.866 25.6203 50.3302 25.58 49.3996 26.3929C49.0381 26.2441 48.6658 26.1228 48.286 26.0301C44.3118 25.3482 40.2957 25.2642 36.2829 25.3969C34.012 25.4708 31.7478 25.8084 29.4852 26.052C29.2719 26.0755 29.0788 26.277 28.8755 26.3879C27.9433 25.5783 27.4175 25.6169 26.6063 26.5559C23.6668 27.0816 20.8567 28.0289 18.107 29.1728C17.8131 29.2954 17.5679 29.5373 17.2991 29.7254L15.2297 27.4394C27.3655 20.5409 52.1425 20.9827 63.0454 27.4394L60.9727 29.7154Z" fill="#29FF65"/>
<path d="M58.0097 11.8888C54.0041 9.25177 49.4707 7.52167 44.7267 6.81953C36.1721 5.52785 28.1499 7.01941 20.7508 11.5898C20.5476 11.7175 20.3393 11.8384 20.1327 11.9611L19.9816 11.8132C20.4687 11.2489 20.9289 10.6559 21.4496 10.1235C26.6465 4.81398 32.9756 2.20207 40.3898 2.56488C47.515 2.9193 53.3754 5.98641 57.9878 11.4303C58.0523 11.5202 58.1085 11.6158 58.1558 11.7158L58.0097 11.8888Z" fill="#29FF65"/>
<path d="M34.442 68.4036L50.96 68.37H52.67C52.7741 70.3487 52.8766 72.2887 52.9841 74.301H46.4618C46.4333 74.133 46.4014 73.9801 46.3795 73.8206C46.1712 72.2937 45.0257 71.2221 43.4888 71.2087C40.5773 71.1829 37.6698 71.1829 34.7662 71.2087C33.2645 71.2204 32.1408 72.2316 31.9107 73.75C31.8435 74.1901 31.7226 74.3866 31.2472 74.3749C29.7355 74.343 28.2238 74.3463 26.7205 74.3379C26.9758 74.1464 27.2076 73.9046 27.4898 73.7735C29.9606 72.6263 32.0854 71.0105 33.9717 69.0704C34.1447 68.86 34.3019 68.6372 34.442 68.4036V68.4036Z" fill="#29FF65"/>
<path d="M66.9154 70.3252L67.9736 69.3375L70.819 71.5026C72.4214 72.7221 74.0608 73.8978 75.6078 75.1862C76.1388 75.6265 76.5198 76.2212 76.6979 76.8877C77.1245 78.8731 77.3916 80.8938 77.7427 83.0387C76.5786 82.8321 75.4902 82.6423 74.4018 82.4441C73.5233 82.2761 72.6213 82.1905 71.7747 81.9234C71.1633 81.7319 70.4528 81.4363 70.085 80.9576C68.0945 78.3641 66.1982 75.6985 64.2061 72.9639L65.2424 72.1325C65.3802 72.2585 65.5784 72.4332 65.7715 72.623C67.8879 74.7797 69.9976 76.9448 72.1224 79.0965C72.7641 79.7465 73.4998 79.7885 74.0406 79.2527C74.5815 78.7169 74.5328 78.0097 73.9046 77.3311C73.8475 77.269 73.7887 77.2102 73.7366 77.1497C71.721 75.0904 69.7053 73.0311 67.6897 70.9718C67.4562 70.7535 67.2043 70.5704 66.9154 70.3252Z" fill="#29FF65"/>
<path d="M19.5163 41.4883C19.9463 41.3808 20.3746 41.2649 20.8063 41.1658C22.7312 40.7274 24.4882 41.1658 26.1662 42.14C28.6843 43.5861 31.4692 44.5072 34.353 44.8477C36.9498 45.1718 39.1502 46.1528 40.4822 48.5094C40.9508 49.3492 41.154 50.3184 41.49 51.2305L38.5774 51.4623C37.9391 49.1695 36.4643 48.0895 34.222 47.8106C30.7568 47.3789 27.4646 46.3695 24.4462 44.5487C23.9607 44.2564 23.3393 44.0045 22.7984 44.0347C21.8074 44.0901 21.1725 43.6988 20.6417 42.9379C20.2906 42.4323 19.8925 41.9636 19.5163 41.4883Z" fill="#29FF65"/>
<path d="M46.4014 76.9297H53.0479C52.754 78.1223 53.5736 78.7555 54.1766 79.555C54.8196 80.46 55.37 81.4273 55.8194 82.4424C56.115 83.0689 55.8026 83.4653 55.0938 83.4704C52.497 83.4855 49.9002 83.4704 47.3017 83.4704C46.7138 83.4704 46.4047 83.2084 46.403 82.6305C46.3963 80.7678 46.4014 78.9016 46.4014 76.9297Z" fill="#29FF65"/>
<path d="M31.8653 76.9482C31.8653 78.9218 31.8922 80.845 31.8301 82.7632C31.8301 83.0085 31.353 83.4351 31.0893 83.4469C28.4371 83.4973 25.7832 83.4855 23.131 83.4737C22.4742 83.4737 22.1483 83.0656 22.4356 82.481C22.9479 81.438 23.4871 80.3865 24.1774 79.4576C24.7468 78.6967 25.5363 78.1038 25.1751 76.9465L31.8653 76.9482Z" fill="#29FF65"/>
<path d="M51.6219 52.2736C54.7058 52.7623 57.7561 56.1772 60.1412 60.1395L54.5983 63.2302C53.9297 59.4509 53.2461 55.7656 51.6219 52.2736Z" fill="#29FF65"/>
<path d="M41.2968 53.8642C40.4183 57.9979 39.083 61.9536 36.7247 65.5095C36.6756 65.608 36.6395 65.7125 36.6172 65.8202H32.9034C35.7219 62.2475 37.3193 58.2264 38.3305 53.8642H41.2968Z" fill="#29FF65"/>
<path d="M34.442 68.4036C34.3017 68.6354 34.1445 68.8566 33.9717 69.0654C32.0854 71.0121 29.9606 72.628 27.4898 73.7685C27.2076 73.8995 26.9758 74.1414 26.7205 74.3329C26.5525 74.3446 26.3845 74.3648 26.2166 74.3682C25.968 74.3682 25.7127 74.3682 25.3868 74.3682C25.3868 73.4678 25.3599 72.6146 25.4103 71.768C25.4204 71.6 25.716 71.4169 25.9142 71.2926C27.3005 70.408 28.6924 69.5323 30.0899 68.6656C30.3099 68.5084 30.5657 68.4085 30.834 68.375C32.0367 68.3633 33.2393 68.3918 34.442 68.4036Z" fill="#29FF65"/>
<path d="M57.5091 69.3711C57.134 69.2724 56.7645 69.1536 56.4022 69.015C55.8593 68.7711 55.4187 68.3453 55.1565 67.811C54.8943 67.2767 54.8269 66.6676 54.9661 66.089C55.0406 65.9195 55.1736 65.7824 55.3407 65.7027C57.2841 64.6142 59.2325 63.5375 61.3287 62.3735C61.5437 63.163 61.7806 63.8852 61.9116 64.6293C61.9435 64.8175 61.6697 65.1047 61.4766 65.2777C60.0858 66.5257 58.6816 67.7569 57.2773 68.9932L57.5091 69.3711Z" fill="#29FF65"/>
<path d="M60.2605 73.53C59.3316 72.277 59.3686 70.9181 60.2924 69.9926C61.8914 68.3913 63.5151 66.8157 65.1635 65.266C66.0688 64.4144 67.3924 64.4261 68.1785 65.0745L60.2605 73.53Z" fill="#29FF65"/>
<path d="M12.297 30.5518C11.4435 30.4133 10.6671 29.9756 10.1068 29.317C9.54648 28.6585 9.23879 27.822 9.23879 26.9573C9.23879 26.0926 9.54648 25.2562 10.1068 24.5976C10.6671 23.939 11.4435 23.5013 12.297 23.3628V30.5518Z" fill="#29FF65"/>
<path d="M65.9714 30.525V23.3762C67.7048 23.5744 69.057 25.155 69.0335 27.0094C69.01 28.8285 67.6259 30.3906 65.9714 30.525Z" fill="#29FF65"/>
<path d="M58.1558 11.7225L58.2465 12.035L58.0097 11.8888L58.1558 11.7225Z" fill="#29FF65"/>
<path d="M39.3803 33.671C37.9324 33.6324 37.0018 33.236 36.2561 32.4482C35.7202 31.8822 35.7018 31.1364 36.2124 30.6493C36.7583 30.1286 37.3411 30.1286 37.9441 30.5888C38.9217 31.3329 39.3517 31.3279 40.3108 30.6039C40.9575 30.1168 41.626 30.1487 42.1047 30.6929C42.5834 31.2372 42.523 31.9325 41.9687 32.4969C41.1607 33.32 40.1613 33.6794 39.3803 33.671Z" fill="#060504"/>
<path d="M50.4326 33.7617C49.959 33.7617 49.4836 33.7718 49.0099 33.7617C48.3078 33.7432 47.7451 33.2578 47.7199 32.6044C47.6948 31.951 48.0156 31.3984 48.6908 31.3547C49.881 31.2783 51.075 31.2783 52.2652 31.3547C52.9371 31.3984 53.2629 31.9359 53.2344 32.6061C53.2058 33.2763 52.6431 33.7432 51.941 33.76C51.4388 33.7768 50.9365 33.7617 50.4326 33.7617Z" fill="#29FF65"/>
<path d="M27.7535 33.7617C27.2496 33.7617 26.7457 33.7617 26.2502 33.7617C25.496 33.7617 25.1348 33.2662 25.0509 32.6145C24.9702 32.0048 25.2692 31.4387 25.9142 31.3883C27.0983 31.275 28.2894 31.2531 29.4768 31.3228C30.1722 31.3715 30.6308 31.9409 30.5334 32.6783C30.4359 33.4157 29.9169 33.7651 29.1728 33.7634L27.7535 33.7617Z" fill="#29FF65"/>
<path d="M49.3979 26.3896C50.3284 25.58 50.8643 25.6203 51.6571 26.5575C51.6823 27.5049 51.7562 28.4522 51.7192 29.3962C51.6924 30.1034 51.2153 30.5166 50.5132 30.5434C49.8413 30.567 49.3089 30.1773 49.2753 29.5356C49.2148 28.4942 49.3475 27.4394 49.3979 26.3896Z" fill="#050404"/>
<path d="M26.6046 26.5592C27.4159 25.6203 27.9483 25.5816 28.8738 26.3912C28.9225 27.4427 29.0418 28.4959 28.9914 29.5407C28.9578 30.1823 28.4203 30.572 27.7535 30.5485C27.0547 30.5216 26.5777 30.1101 26.5508 29.4012C26.5139 28.4539 26.5811 27.5049 26.6046 26.5592Z" fill="#050404"/>
<path d="M40.3982 14.6234C40.3982 15.5724 40.4183 16.5197 40.3982 17.4671C40.373 18.3808 39.8691 18.9049 39.1014 18.883C38.3657 18.8612 37.8938 18.3539 37.8837 17.4738C37.8624 15.578 37.8624 13.6816 37.8837 11.7847C37.8954 10.8625 38.396 10.3586 39.1804 10.3788C39.9262 10.3989 40.3746 10.8827 40.3998 11.7796C40.4183 12.727 40.3982 13.676 40.3982 14.6234Z" fill="#040303"/>
<path d="M46.0235 15.7084C46.0235 14.7594 46.0117 13.8104 46.0235 12.853C46.0369 12.0131 46.5274 11.4588 47.2479 11.4387C47.992 11.4185 48.5279 11.9947 48.5346 12.8782C48.548 14.7818 48.548 16.6793 48.5346 18.5706C48.5346 19.4105 48.0307 19.9597 47.3084 19.9765C46.5526 19.995 46.0369 19.4357 46.0235 18.5471C46.0134 17.6065 46.0235 16.6575 46.0235 15.7084Z" fill="#040303"/>
<path d="M32.25 15.7706C32.25 16.7196 32.2668 17.6686 32.25 18.626C32.2315 19.4558 31.7091 20 30.9852 19.995C30.2612 19.99 29.7473 19.4457 29.7405 18.6093C29.7249 16.6843 29.7249 14.7588 29.7405 12.8328C29.7405 12.0047 30.2831 11.4487 31.0003 11.4538C31.7175 11.4588 32.2332 12.0148 32.25 12.8479C32.2634 13.8171 32.25 14.793 32.25 15.7706Z" fill="#040303"/>
<path d="M54.1733 17.6468C54.1733 17.116 54.143 16.5836 54.1733 16.0561C54.227 15.3204 54.736 14.8232 55.391 14.8048C55.5524 14.7996 55.7133 14.8264 55.8643 14.8834C56.0154 14.9405 56.1537 15.0269 56.2713 15.1375C56.389 15.2481 56.4836 15.3809 56.5499 15.5281C56.6162 15.6754 56.6528 15.8343 56.6575 15.9957C56.7062 17.0824 56.7062 18.1793 56.6575 19.2593C56.6505 19.5853 56.5151 19.8953 56.2808 20.1221C56.0465 20.3488 55.7322 20.474 55.4062 20.4704C54.7561 20.4704 54.2304 19.9665 54.1716 19.2375C54.1414 18.71 54.175 18.1776 54.1733 17.6468Z" fill="#040303"/>
<path d="M24.085 17.7039C24.085 18.2347 24.1186 18.7671 24.085 19.2929C24.0279 20.0068 23.5811 20.4015 22.8874 20.4687C22.7258 20.4789 22.5638 20.4563 22.4112 20.402C22.2586 20.3478 22.1186 20.2631 21.9997 20.1532C21.8809 20.0433 21.7855 19.9103 21.7195 19.7624C21.6536 19.6146 21.6183 19.4548 21.6159 19.2929C21.5672 18.1793 21.5672 17.0606 21.6243 15.9469C21.6612 15.2348 22.1567 14.8266 22.8538 14.8283C23.5509 14.83 24.0162 15.2398 24.0783 15.9537C24.1287 16.5348 24.0884 17.1295 24.0884 17.7106L24.085 17.7039Z" fill="#040303"/>
<path d="M31.9241 54.9812C31.6201 55.7623 31.2338 56.928 30.7248 58.0366C29.2131 61.3472 27.0295 64.0599 23.7189 65.7816C22.6674 66.3258 21.7973 66.2569 20.8147 65.7312C18.1954 64.3551 16.0604 62.2096 14.6973 59.5835C13.9481 58.1541 13.3619 56.634 12.7757 55.1273C12.3944 54.1447 12.7875 53.4712 13.7986 53.2528C16.4767 52.6772 19.0762 51.7834 21.542 50.5905C21.9938 50.3721 22.743 50.4091 23.2032 50.6359C25.5674 51.782 28.0597 52.6424 30.6274 53.1991C31.3614 53.3603 31.9527 53.6811 31.9241 54.9812ZM15.606 55.606C16.8036 58.7487 18.5538 61.5286 21.6176 63.3057C21.82 63.444 22.0594 63.518 22.3046 63.518C22.5497 63.518 22.7892 63.444 22.9916 63.3057C26.0839 61.5253 27.824 58.7235 29.0116 55.5976C26.828 54.7578 24.6998 53.9297 22.5683 53.1252C22.386 53.0717 22.1911 53.0799 22.014 53.1487C19.9093 53.9482 17.8047 54.7578 15.606 55.606Z" fill="#030303"/>
<path d="M15.606 55.6061C17.8097 54.7662 19.9093 53.9482 22.014 53.152C22.1911 53.0833 22.386 53.075 22.5683 53.1285C24.6998 53.9331 26.8229 54.7578 29.0116 55.601C27.824 58.7269 26.0839 61.5286 22.9916 63.3091C22.7892 63.4474 22.5497 63.5214 22.3046 63.5214C22.0594 63.5214 21.82 63.4474 21.6176 63.3091C18.5538 61.5286 16.7969 58.7488 15.606 55.6061Z" fill="#29FF65"/>
</g>
<defs>
<clipPath id="clip0_27_227">
<rect width="86" height="86" fill="white"/>
</clipPath>
</defs>
</svg>
