<svg width="85" height="85" viewBox="0 0 85 85" fill="none" xmlns="http://www.w3.org/2000/svg">
<g clip-path="url(#clip0_27_190)">
<path d="M41.1719 0C42.2593 0.2125 43.36 0.375195 44.4341 0.645801C54.7055 3.22402 61.3411 9.62891 64.3974 19.7459C64.5635 20.2954 64.7594 20.5278 65.3653 20.5859C68.3669 20.8748 70.7243 23.5742 70.7193 26.6571C70.7143 29.74 68.3403 32.4112 65.3388 32.7184C64.9138 32.7632 64.585 32.7748 64.439 33.326C62.646 40.1177 58.7396 45.3787 52.8544 49.1888C52.7863 49.2336 52.7282 49.2934 52.6452 49.3548C58.1453 51.9629 61.102 56.6894 63.4263 61.9238C64.2563 61.7578 65.1429 61.4955 66.0493 61.4258C67.2845 61.3229 68.3735 61.7894 69.3198 62.5879C70.5882 63.672 70.6479 65.0549 69.4858 66.2535C69.2995 66.4166 69.1021 66.5664 68.8948 66.7018C70.9019 68.2291 72.6833 69.7714 74.6456 71.0331C77.1176 72.6219 78.5121 74.7037 78.6748 77.6571C78.7412 78.8641 79.04 80.0577 79.226 81.2597C79.558 83.3963 78.0539 84.8622 75.9189 84.4737C74.4248 84.2015 72.9439 83.8362 71.4365 83.6536C69.2152 83.383 67.6331 82.2973 66.4013 80.4396C64.9387 78.2299 63.3017 76.1364 61.6964 73.9317C61.4573 74.1492 61.2481 74.3468 61.0323 74.536C59.9549 75.4939 58.5869 75.469 57.6771 74.3435C57.1791 73.7176 56.6163 72.9373 56.5532 72.1853C56.4536 70.9567 55.758 70.7293 54.903 70.6231C54.903 72.4492 54.8881 74.3019 54.9213 76.148C54.9213 76.3788 55.1836 76.6046 55.3164 76.8354C56.0784 78.1635 56.9898 79.4368 57.5642 80.8446C58.2731 82.5795 57.2638 84.2911 55.4558 84.8639C55.3911 84.8838 55.343 84.9585 55.2898 85.0066H45.6543C43.7517 84.1384 43.257 82.5878 43.3467 80.6172C43.4496 78.356 43.3467 76.085 43.3832 73.8205C43.3948 73.1199 43.2172 72.8394 42.4585 72.8526C39.9439 72.8947 37.4288 72.8947 34.9131 72.8526C34.171 72.841 33.9651 73.095 33.9751 73.8089C34.0116 76.2128 33.9286 78.6233 34.0083 81.0206C34.073 82.9514 33.394 84.3144 31.543 85.005H21.9141C21.8111 84.9274 21.7029 84.857 21.5903 84.7941C19.8721 83.974 19.1233 82.3803 19.877 80.6172C20.4415 79.2891 21.3048 78.0954 22.0352 76.8453C22.1581 76.6361 22.4221 76.4469 22.4254 76.2443C22.4586 74.6821 22.4436 73.1199 22.4436 71.6391C21.831 71.5245 21.1952 71.473 20.5959 71.2821C18.5095 70.6362 16.56 69.6114 14.8451 68.259C13.8756 67.5019 13.8009 67.2148 14.2757 66.0792C15.0294 65.5812 15.6885 65.709 16.3808 66.2734C17.8665 67.4789 19.5786 68.3747 21.416 68.9081C21.7793 69.0174 22.1655 69.026 22.5333 68.933C25.0134 68.2211 27.274 66.8953 29.1059 65.0781C32.6918 61.5669 34.4798 57.1094 35.4975 52.3115C35.7979 50.8937 35.2169 49.9591 33.6829 49.7682C29.8977 49.3017 26.3101 48.1943 22.9865 46.2536C22.5283 45.9863 21.7763 46.1125 21.1869 46.2138C20.7785 46.2835 20.4199 46.6305 20.0248 46.838C16.9651 48.4666 13.673 49.3282 10.2614 49.803C9.02128 49.969 8.26923 50.8257 8.49833 51.9347C9.25536 55.5505 10.4009 59.0269 12.5259 62.0981C13.0654 62.8768 13.3095 63.5923 12.7749 64.434C11.397 64.766 11.2459 64.7112 10.4125 63.4595C8.1912 60.1259 6.8581 56.4403 6.09608 52.5307C5.58974 49.9541 7.20507 47.6797 9.79491 47.3145C10.5337 47.2115 11.2725 47.1086 12.0029 46.9642C14.4085 46.4877 16.7344 45.7738 18.8975 44.5852C18.8724 44.5172 18.8401 44.4521 18.8013 44.3909C15.9463 41.2156 13.91 37.391 12.8695 33.2496C12.7467 32.7516 12.4545 32.7648 12.0959 32.725C10.6811 32.5736 9.36334 31.9339 8.36921 30.916C7.37508 29.898 6.76673 28.5655 6.64882 27.1475C6.5309 25.7296 6.91078 24.3149 7.72312 23.1467C8.53546 21.9786 9.72948 21.13 11.0998 20.747C11.6261 20.6025 12.1756 20.5411 12.7251 20.4398C12.7782 20.2871 12.838 20.1327 12.8911 19.975C16.0421 9.31458 23.0457 2.8029 33.902 0.43994C34.6076 0.285546 35.3182 0.146094 36.0254 0H41.1719ZM34.0415 67.6082C32.8528 67.5966 31.6642 67.5684 30.4771 67.5883C30.2119 67.6214 29.9591 67.7201 29.7417 67.8755C28.3582 68.731 26.9825 69.5965 25.6145 70.472C25.422 70.5948 25.1298 70.7741 25.1165 70.9418C25.0667 71.7719 25.0933 72.6219 25.0933 73.5117C25.4253 73.5117 25.6677 73.5117 25.9134 73.5117C26.0794 73.5117 26.2454 73.4885 26.4114 73.4769C27.9056 73.4769 29.3997 73.4769 30.8855 73.5134C31.3554 73.525 31.4749 73.3308 31.5413 72.8958C31.7671 71.3867 32.8711 70.3906 34.3652 70.3906C37.2428 70.3641 40.1166 70.3641 42.9864 70.3906C44.5055 70.4039 45.6427 71.4631 45.8435 72.9722C45.8651 73.1382 45.8967 73.2859 45.9249 73.447H52.3713C52.265 71.4548 52.1638 69.5406 52.0608 67.585H50.3675L34.0415 67.6082ZM57.3351 11.7506L57.5692 11.895L57.4796 11.5862C57.4328 11.4874 57.3772 11.3929 57.3136 11.304C52.7548 5.92344 46.9625 2.89199 39.9201 2.5417C32.5922 2.17646 26.3367 4.75801 21.2002 10.0124C20.6855 10.5387 20.2307 11.1247 19.7492 11.6825L19.8986 11.8286C20.1028 11.7074 20.3087 11.5879 20.5096 11.4617C27.8225 6.94443 35.7515 5.47021 44.2066 6.74687C48.895 7.43883 53.3756 9.14654 57.3351 11.7506ZM36.1914 65.0549H51.7869C51.1527 60.3616 50.4223 55.7746 48.2657 51.7985L40.8166 53.2379H37.8848C36.8887 57.5543 35.3065 61.5237 32.5208 65.0549H36.1914ZM19.2893 41.0059C19.6612 41.4823 20.0547 41.9455 20.4017 42.4402C20.9263 43.1873 21.5538 43.5791 22.5333 43.5243C23.0679 43.4944 23.6821 43.7435 24.1619 44.0323C27.1502 45.8319 30.3991 46.8297 33.824 47.2563C36.0403 47.5319 37.4979 48.5994 38.1288 50.8655L41.0059 50.6348C41.2532 50.6348 41.5039 50.6348 41.7496 50.6115C51.6441 49.3797 59.9798 41.8525 62.1961 32.1423C62.2625 31.8518 62.2293 31.5396 62.2509 31.0665C61.9653 31.3089 61.8375 31.3985 61.7246 31.5147C58.0623 35.1521 53.721 37.6274 48.7754 39.0784C47.6963 39.3955 47.3427 39.2644 46.7832 38.3463C46.6919 37.4133 47.1484 36.9003 48.0283 36.6994C48.2425 36.6513 48.4516 36.5832 48.6608 36.5151C53.1001 35.0675 57.028 32.7897 60.2537 29.3765L62.304 27.1236C51.5279 20.7486 27.039 20.317 15.0443 27.1236L17.0996 29.3848C17.3436 29.6437 17.5727 29.921 17.8334 30.1617C24.8658 36.6629 33.2894 38.6667 42.5913 37.7652C43.4845 37.6789 44.1087 37.8599 44.4341 38.7348C44.3228 39.8139 44.0838 40.0861 43.0379 40.2189C40.098 40.582 37.1244 40.5764 34.1859 40.2023C26.9576 39.3191 20.6507 36.4985 15.4577 31.3238C15.3199 31.1877 15.1639 31.0698 14.9597 30.8955C15.2452 33.8888 17.2225 38.4625 19.2893 41.0059ZM62.5995 24.3379C62.6065 24.2007 62.6065 24.0633 62.5995 23.9262C62.5696 23.707 62.5348 23.4896 62.4899 23.2737C61.542 18.7996 58.909 15.5158 55.0391 13.2862C45.392 7.71973 35.4111 7.32461 25.2344 11.7141C22.0203 13.1003 19.203 15.0742 17.1527 17.9878C15.8103 19.8656 14.9729 22.0567 14.7206 24.3512C22.3922 20.7702 30.4439 19.7027 38.6883 19.6928C46.9326 19.6828 54.9777 20.7636 62.5995 24.3312V24.3379ZM66.1373 69.5141C66.4228 69.7564 66.6719 69.9374 66.8844 70.1532C68.8766 72.1853 70.8687 74.2206 72.8609 76.2593C72.919 76.319 72.9771 76.3771 73.0269 76.4386C73.6478 77.1026 73.691 77.8082 73.1614 78.3378C72.6318 78.8674 71.8997 78.8259 71.2655 78.1834C69.1654 76.0567 67.0803 73.9168 64.9885 71.7852C64.8025 71.5976 64.6016 71.4249 64.4655 71.3004L63.4412 72.1222C65.4151 74.8249 67.2894 77.4596 69.2517 80.0229C69.6153 80.496 70.3176 80.7882 70.9219 80.9774C71.7519 81.2414 72.6501 81.3344 73.5183 81.4921C74.5941 81.688 75.6765 81.8756 76.8204 82.0798C76.4734 79.9598 76.2095 77.9626 75.7878 76.0003C75.6118 75.3415 75.2352 74.7538 74.7103 74.3186C73.1813 73.0452 71.556 71.8831 69.9772 70.6778L67.1832 68.5312L66.1373 69.5141ZM45.8618 76.0352C45.8618 77.9809 45.8618 79.8253 45.8618 81.6797C45.8618 82.2574 46.1689 82.5197 46.75 82.5098C49.3183 82.5098 51.8848 82.5098 54.4514 82.5098C55.152 82.5098 55.4608 82.113 55.1686 81.4938C54.7245 80.4905 54.1805 79.5344 53.545 78.6399C52.949 77.8497 52.1389 77.2238 52.4294 76.0451L45.8618 76.0352ZM31.4948 76.0501H24.8824C25.2393 77.1939 24.4591 77.78 23.8963 78.532C23.214 79.4484 22.681 80.4877 22.1747 81.5203C21.8908 82.098 22.2129 82.4981 22.862 82.5015C25.4834 82.5131 28.1064 82.5247 30.7278 82.4749C30.9885 82.4749 31.4533 82.0416 31.46 81.7992C31.5214 79.905 31.4948 78.0041 31.4948 76.0534V76.0501ZM51.0216 51.6624C52.6253 55.1072 53.3026 58.7562 53.9634 62.4916L59.4419 59.4369C57.0845 55.5239 54.0696 52.1488 51.0216 51.6657V51.6624ZM56.8404 68.5645L56.6113 68.1893C57.9959 66.9674 59.3838 65.7505 60.7617 64.517C60.9526 64.351 61.2232 64.0621 61.1917 63.8762C61.0622 63.1424 60.8281 62.4269 60.6156 61.6466C58.5437 62.7971 56.618 63.8612 54.6972 64.937C54.532 65.0158 54.4006 65.1513 54.3269 65.3188C54.1894 65.8908 54.2559 66.4928 54.5151 67.0208C54.7743 67.5489 55.2098 67.9698 55.7464 68.2108C56.1044 68.3484 56.4696 68.4664 56.8404 68.5645ZM59.5598 72.6767L67.3841 64.3194C66.6071 63.6853 65.2989 63.667 64.4041 64.5087C62.776 66.0394 61.1712 67.5966 59.5896 69.1804C58.6782 70.0935 58.6417 71.4365 59.5598 72.675V72.6767ZM12.154 30.1966V23.0911C11.3104 23.228 10.5431 23.6606 9.98926 24.3116C9.43547 24.9625 9.13136 25.7892 9.13136 26.6438C9.13136 27.4985 9.43547 28.3252 9.98926 28.9761C10.5431 29.6271 11.3104 30.0597 12.154 30.1966ZM65.2043 30.17C66.8395 30.0372 68.2075 28.4933 68.2307 26.6953C68.254 24.8691 66.9176 23.3003 65.2043 23.1044V30.17Z" fill="#030303"/>
<path d="M44.4308 38.7331C44.0987 37.8582 43.4812 37.6772 42.588 37.7636C33.2911 38.665 24.8625 36.6612 17.8301 30.1601C17.5694 29.9193 17.332 29.6421 17.0963 29.3831C17.3619 29.1972 17.6043 28.9581 17.8948 28.8369C20.6125 27.7063 23.39 26.77 26.2952 26.2504C26.272 27.1851 26.2056 28.123 26.2421 29.0561C26.267 29.7566 26.7401 30.1634 27.4308 30.1899C28.0948 30.2165 28.6211 29.8313 28.6543 29.1938C28.7091 28.1612 28.5862 27.1203 28.5381 26.0811C28.739 25.9648 28.9299 25.7656 29.1407 25.749C31.3786 25.5083 33.6149 25.1746 35.8594 25.1016C39.8255 24.9704 43.7949 25.0534 47.7229 25.7274C48.0983 25.8191 48.4662 25.9389 48.8235 26.086C48.7737 27.1236 48.6575 28.1662 48.7024 29.1988C48.7356 29.833 49.2668 30.2182 49.9259 30.1949C50.6182 30.1684 51.088 29.76 51.1179 29.061C51.1544 28.128 51.0814 27.1917 51.0565 26.2554C53.2977 26.8879 55.5522 27.4739 57.7718 28.1712C58.6417 28.4451 59.4319 28.9647 60.262 29.3731C57.0363 32.7881 53.1084 35.0658 48.6692 36.5118C48.46 36.5799 48.2508 36.648 48.0366 36.6961C47.1567 36.897 46.7085 37.41 46.7915 38.343L44.4308 38.7331ZM38.9224 33.2795C39.6943 33.2878 40.6821 32.9325 41.4807 32.1174C42.0285 31.5596 42.0717 30.8507 41.6151 30.3344C41.1586 29.8181 40.4813 29.7649 39.8421 30.2464C38.8941 30.9619 38.4691 30.9669 37.5029 30.2314C36.9069 29.7766 36.3309 29.7766 35.7913 30.2912C35.2933 30.7727 35.3049 31.5098 35.8345 32.0692C36.5716 32.8495 37.4913 33.2413 38.9224 33.2795ZM49.8462 33.3741C50.3442 33.3741 50.8423 33.3841 51.3403 33.3741C52.0343 33.3575 52.5904 32.8761 52.6187 32.2336C52.6469 31.5911 52.3281 31.0399 51.6608 30.9968C50.4844 30.9212 49.3043 30.9212 48.1279 30.9968C47.4639 31.0399 47.1418 31.5695 47.1684 32.2319C47.1949 32.8943 47.7494 33.3575 48.4434 33.3758C48.9082 33.3841 49.378 33.3691 49.8462 33.3691V33.3741ZM27.4341 33.3741H28.8369C29.5724 33.3741 30.0854 33.0188 30.1817 32.3017C30.2779 31.5845 29.8247 31.0101 29.1374 30.9619C27.9638 30.893 26.7865 30.9147 25.6162 31.0267C24.9787 31.0814 24.6832 31.6359 24.7629 32.2386C24.8459 32.8827 25.2028 33.3658 25.9483 33.3725C26.4413 33.3774 26.936 33.3691 27.4308 33.3691L27.4341 33.3741Z" fill="#FDD1BA"/>
<path d="M62.5995 24.3313C54.9777 20.7636 46.926 19.6828 38.6833 19.6928C30.4406 19.7027 22.3872 20.7702 14.7156 24.3512C14.9679 22.0567 15.8053 19.8656 17.1477 17.9878C19.198 15.0742 22.0153 13.1003 25.2294 11.7141C35.4111 7.32461 45.392 7.71973 55.0375 13.2813C58.9073 15.5108 61.5403 18.7946 62.4883 23.2688C62.5331 23.4846 62.568 23.7021 62.5978 23.9212C62.6054 24.0578 62.6059 24.1946 62.5995 24.3313V24.3313ZM39.9284 14.4533C39.9284 13.517 39.9483 12.579 39.9284 11.6427C39.9035 10.7611 39.4602 10.278 38.7231 10.2581C37.9478 10.2382 37.4531 10.7362 37.4415 11.6477C37.4205 13.5214 37.4205 15.3957 37.4415 17.2706C37.4515 18.1405 37.918 18.6419 38.6451 18.6635C39.4038 18.6851 39.9018 18.1654 39.9267 17.264C39.9483 16.3276 39.9284 15.3913 39.9284 14.4533ZM45.4883 15.5258C45.4883 16.4638 45.4783 17.4018 45.4883 18.3398C45.5015 19.218 46.0112 19.7708 46.7583 19.7525C47.4722 19.7359 47.9636 19.1997 47.9702 18.363C47.9835 16.4881 47.9835 14.6127 47.9702 12.7367C47.9702 11.8635 47.434 11.294 46.6985 11.314C45.9913 11.3339 45.5015 11.8834 45.4883 12.7118C45.4766 13.6498 45.4883 14.5878 45.4883 15.5258ZM31.875 15.5872C31.875 14.621 31.8899 13.6565 31.875 12.6902C31.8584 11.8602 31.3487 11.3173 30.6398 11.3123C29.9309 11.3073 29.4014 11.8568 29.3947 12.6753C29.3792 14.5778 29.3792 16.4809 29.3947 18.3846C29.3947 19.2147 29.9094 19.7492 30.6249 19.7542C31.3404 19.7592 31.8567 19.2213 31.875 18.4012C31.8899 17.4632 31.875 16.5252 31.875 15.5872V15.5872ZM53.5467 17.4416C53.5467 17.9662 53.5135 18.4925 53.5467 19.0138C53.6015 19.7326 54.1244 20.2257 54.7669 20.2323C55.0891 20.2359 55.3998 20.1122 55.6313 19.8881C55.8629 19.664 55.9967 19.3575 56.0037 19.0354C56.0485 17.9629 56.0485 16.8772 56.0037 15.8097C55.999 15.6501 55.9628 15.4931 55.8973 15.3476C55.8318 15.202 55.7383 15.0708 55.622 14.9615C55.5057 14.8521 55.369 14.7668 55.2197 14.7104C55.0704 14.654 54.9115 14.6275 54.7519 14.6326C54.1045 14.6509 53.6014 15.1423 53.5483 15.8694C53.5135 16.3907 53.5433 16.917 53.545 17.4416H53.5467ZM23.8066 17.4981C23.8066 16.9187 23.8465 16.3359 23.7967 15.7615C23.7352 15.056 23.2737 14.6509 22.5864 14.6492C21.8991 14.6476 21.4077 15.051 21.3712 15.7549C21.3147 16.8556 21.3147 17.9612 21.3629 19.0619C21.3653 19.222 21.4001 19.3798 21.4653 19.526C21.5305 19.6722 21.6248 19.8036 21.7423 19.9122C21.8598 20.0209 21.9981 20.1046 22.1489 20.1582C22.2998 20.2118 22.4599 20.2342 22.6196 20.224C23.3069 20.1643 23.7469 19.7741 23.8033 19.0619C23.8382 18.5489 23.805 18.0227 23.805 17.4981H23.8066Z" fill="#D2D1D6"/>
<path d="M44.4308 38.7331L46.7899 38.3496C47.3493 39.2677 47.7029 39.3988 48.782 39.0817C53.7227 37.6308 58.064 35.1555 61.7313 31.5181C61.8441 31.4068 61.972 31.3122 62.2575 31.0698C62.2359 31.543 62.2691 31.8551 62.2027 32.1456C59.9864 41.8559 51.6508 49.383 41.7563 50.6148C41.5106 50.6447 41.2582 50.6314 41.0125 50.6381C40.6805 49.7366 40.4796 48.7704 40.0164 47.9486C38.6999 45.6244 36.5301 44.6499 33.9585 44.3295C31.1081 43.9925 28.3556 43.0816 25.8669 41.6517C24.2067 40.6921 22.4719 40.2555 20.5693 40.6888C20.1427 40.7867 19.7193 40.9013 19.2943 41.0075C17.2275 38.4708 15.2502 33.8971 14.9597 30.9022C15.1655 31.0765 15.3216 31.1943 15.4577 31.3305C20.6507 36.5052 26.9576 39.3258 34.1859 40.209C37.1244 40.5831 40.0981 40.5886 43.0379 40.2256C44.0805 40.0845 44.3262 39.8122 44.4308 38.7331Z" fill="#A3AEBA"/>
<path d="M14.2773 66.0742L12.7832 64.4257C13.3178 63.579 13.0737 62.8684 12.5342 62.0898C10.4092 59.0185 9.26368 55.5422 8.50665 51.9264C8.27422 50.8174 9.0296 49.9657 10.2697 49.7947C13.6814 49.3266 16.9734 48.4583 20.0331 46.8297C20.4232 46.6222 20.7818 46.2752 21.1952 46.2055C21.7846 46.1042 22.5366 45.978 22.9948 46.2453C26.3151 48.186 29.9061 49.2934 33.6912 49.7599C35.2252 49.9508 35.8063 50.8854 35.5058 52.3032C34.4881 57.1044 32.7001 61.5586 29.1142 65.0698C27.2832 66.89 25.0226 68.2187 22.5416 68.933C22.1738 69.026 21.7876 69.0174 21.4243 68.9081C19.5889 68.3724 17.8791 67.4749 16.3957 66.2684C15.6951 65.704 15.036 65.5762 14.2773 66.0742ZM31.543 54.3419C31.5712 53.0569 30.9868 52.7398 30.2613 52.5805C27.7235 52.0303 25.2602 51.1799 22.9234 50.0471C22.4686 49.8229 21.7281 49.7864 21.2815 50.0022C18.8473 51.1783 16.2814 52.0594 13.6382 52.6269C12.6421 52.8428 12.2503 53.5085 12.6272 54.4797C13.2065 55.9738 13.7893 57.468 14.5264 58.8841C15.8737 61.4796 17.9838 63.6001 20.5727 64.9602C21.5439 65.4799 22.3988 65.5479 23.4431 65.0101C26.7186 63.3084 28.8668 60.6272 30.3676 57.3551C30.8789 56.266 31.2524 55.1172 31.5529 54.3419H31.543Z" fill="#3C4750"/>
<path d="M40.8166 53.2379L48.2657 51.7969C50.4239 55.7729 51.1527 60.36 51.7869 65.0532H36.1914C36.2135 64.9467 36.2492 64.8435 36.2977 64.7461C38.6285 61.2332 39.9483 57.3235 40.8166 53.2379Z" fill="#83A2E1"/>
<path d="M60.2637 29.3698C59.4336 28.9614 58.645 28.4418 57.7734 28.1679C55.5538 27.4706 53.2993 26.8846 51.0581 26.252C50.2745 25.3224 49.7449 25.2825 48.8252 26.086C48.4679 25.9389 48.0999 25.8191 47.7245 25.7274C43.7966 25.0534 39.8272 24.9704 35.861 25.1016C33.6165 25.1746 31.3786 25.5083 29.1424 25.749C28.9316 25.7723 28.7406 25.9715 28.5398 26.0811C27.6184 25.2809 27.0987 25.319 26.2969 26.2471C23.3916 26.7667 20.6142 27.703 17.8965 28.8336C17.606 28.9548 17.3636 29.1938 17.098 29.3798L15.0526 27.1203C27.0473 20.302 51.5362 20.7387 62.3123 27.1203L60.2637 29.3698Z" fill="#FCBC9A"/>
<path d="M57.3351 11.7506C53.3761 9.1442 48.8955 7.43421 44.2066 6.74024C35.7515 5.46358 27.8225 6.9378 20.5096 11.4551C20.3087 11.5813 20.1028 11.7008 19.8986 11.822L19.7492 11.6759C20.2307 11.1181 20.6855 10.532 21.2002 10.0058C26.3367 4.75801 32.5922 2.17647 39.9201 2.53506C46.9625 2.88535 52.7548 5.9168 57.3136 11.2974C57.3772 11.3863 57.4328 11.4807 57.4796 11.5796L57.3351 11.7506Z" fill="#A2ADB8"/>
<path d="M34.0415 67.6082L50.3675 67.575H52.0575C52.1605 69.5307 52.2617 71.4482 52.368 73.437H45.9216C45.8934 73.271 45.8618 73.1199 45.8402 72.9622C45.6344 71.4531 44.5021 70.394 42.9831 70.3807C40.1055 70.3552 37.2318 70.3552 34.3619 70.3807C32.8777 70.3923 31.7671 71.3917 31.5396 72.8925C31.4732 73.3275 31.3537 73.5217 30.8839 73.5101C29.3897 73.4785 27.8956 73.4818 26.4098 73.4735C26.6621 73.2843 26.8912 73.0452 27.1701 72.9157C29.6122 71.7819 31.7123 70.1848 33.5767 68.2673C33.7476 68.0594 33.903 67.8391 34.0415 67.6082Z" fill="#A2ADB9"/>
<path d="M66.1373 69.5074L67.1832 68.5312L69.9955 70.6712C71.5793 71.8765 73.1996 73.0386 74.7286 74.3119C75.2535 74.7472 75.63 75.3349 75.8061 75.9937C76.2277 77.956 76.4917 79.9531 76.8387 82.0732C75.6882 81.869 74.6124 81.6814 73.5366 81.4855C72.6684 81.3194 71.7769 81.2348 70.9401 80.9708C70.3358 80.7815 69.6336 80.4894 69.27 80.0162C67.3027 77.4529 65.4284 74.8183 63.4595 72.1155L64.4838 71.2938C64.6199 71.4183 64.8158 71.5909 65.0067 71.7785C67.0985 73.9102 69.1837 76.0501 71.2838 78.1768C71.918 78.8192 72.6451 78.8608 73.1797 78.3312C73.7143 77.8016 73.6661 77.1026 73.0452 76.4319C72.9888 76.3705 72.9307 76.3124 72.8792 76.2526C70.887 74.2173 68.8948 72.1819 66.9026 70.1466C66.6719 69.9308 66.4229 69.7498 66.1373 69.5074Z" fill="#D0CFD5"/>
<path d="M19.2894 41.0059C19.7144 40.8996 20.1377 40.785 20.5644 40.6871C22.4669 40.2538 24.2034 40.6871 25.8619 41.65C28.3507 43.0793 31.1033 43.9897 33.9535 44.3262C36.5201 44.6466 38.6949 45.6161 40.0114 47.9453C40.4746 48.7754 40.6755 49.7333 41.0075 50.6348L38.1288 50.8639C37.4979 48.5977 36.0403 47.5303 33.824 47.2547C30.3991 46.828 27.1452 45.8303 24.1619 44.0307C23.6821 43.7418 23.0679 43.4928 22.5333 43.5227C21.5538 43.5774 20.9263 43.1906 20.4017 42.4386C20.0547 41.9389 19.6612 41.4757 19.2894 41.0059Z" fill="#8495A3"/>
<path d="M45.8618 76.0352H52.4311C52.1405 77.2139 52.9507 77.8397 53.5467 78.63C54.1822 79.5244 54.7261 80.4805 55.1703 81.4838C55.4625 82.103 55.1537 82.4948 54.4531 82.4998C51.8865 82.5147 49.3199 82.4998 46.7517 82.4998C46.1706 82.4998 45.8651 82.2408 45.8635 81.6697C45.8568 79.8286 45.8618 77.9842 45.8618 76.0352Z" fill="#8395A3"/>
<path d="M31.4948 76.0534C31.4948 78.0041 31.5214 79.905 31.4599 81.8009C31.4599 82.0433 30.9885 82.4649 30.7278 82.4766C28.1064 82.5264 25.4834 82.5148 22.862 82.5031C22.2129 82.5031 21.8908 82.0997 22.1747 81.522C22.681 80.491 23.214 79.4518 23.8963 78.5337C24.4591 77.7816 25.2393 77.1956 24.8824 76.0518L31.4948 76.0534Z" fill="#8395A3"/>
<path d="M51.0216 51.6657C54.0696 52.1488 57.0845 55.5239 59.4419 59.4402L53.9634 62.4949C53.3027 58.7596 52.627 55.1172 51.0216 51.6657Z" fill="#A2ACB8"/>
<path d="M40.8166 53.2379C39.9483 57.3235 38.6285 61.2332 36.2976 64.7478C36.2492 64.8451 36.2135 64.9484 36.1914 65.0549H32.5208C35.3065 61.5237 36.8853 57.5493 37.8848 53.2379H40.8166Z" fill="#5B83D6"/>
<path d="M34.0415 67.6082C33.9028 67.8373 33.7474 68.0559 33.5767 68.2623C31.7123 70.1864 29.6122 71.7835 27.1701 72.9107C26.8912 73.0402 26.6621 73.2793 26.4098 73.4685C26.2438 73.4802 26.0777 73.5001 25.9117 73.5034C25.666 73.5034 25.4137 73.5034 25.0916 73.5034C25.0916 72.6136 25.065 71.7702 25.1148 70.9335C25.1248 70.7675 25.417 70.5865 25.6129 70.4637C26.9831 69.5893 28.3588 68.7238 29.74 67.8672C29.9575 67.7118 30.2103 67.613 30.4755 67.58C31.6642 67.5683 32.8528 67.5966 34.0415 67.6082Z" fill="#8394A1"/>
<path d="M56.8404 68.5645C56.4697 68.467 56.1045 68.3495 55.7464 68.2125C55.2098 67.9715 54.7743 67.5506 54.5151 67.0225C54.2559 66.4944 54.1894 65.8924 54.327 65.3205C54.4006 65.153 54.532 65.0175 54.6972 64.9387C56.618 63.8629 58.5437 62.7987 60.6156 61.6483C60.8281 62.4285 61.0622 63.1424 61.1917 63.8778C61.2232 64.0638 60.9526 64.3477 60.7617 64.5187C59.3871 65.7522 57.9992 66.9691 56.6113 68.1909L56.8404 68.5645Z" fill="#FACFB8"/>
<path d="M59.5598 72.675C58.6417 71.4365 58.6782 70.0935 59.5913 69.1787C61.1718 67.596 62.7766 66.0388 64.4058 64.507C65.3006 63.6653 66.6088 63.677 67.3857 64.3178L59.5598 72.675Z" fill="#3B464F"/>
<path d="M12.154 30.1966C11.3104 30.0597 10.5431 29.627 9.98927 28.9761C9.43547 28.3252 9.13136 27.4985 9.13136 26.6438C9.13136 25.7892 9.43547 24.9625 9.98927 24.3116C10.5431 23.6606 11.3104 23.228 12.154 23.0911V30.1966Z" fill="#CECDD2"/>
<path d="M65.2043 30.17V23.1044C66.9176 23.3003 68.254 24.8625 68.2308 26.6953C68.2075 28.4933 66.8396 30.0372 65.2043 30.17Z" fill="#CECDD3"/>
<path d="M57.4796 11.5862L57.5692 11.895L57.3352 11.7506L57.4796 11.5862Z" fill="#A2ADB8"/>
<path d="M38.9224 33.2795C37.4913 33.2413 36.5716 32.8495 35.8345 32.0709C35.3049 31.5114 35.2866 30.7743 35.7913 30.2929C36.3309 29.7782 36.9069 29.7782 37.5029 30.2331C38.4691 30.9686 38.8941 30.9636 39.8421 30.248C40.4812 29.7666 41.142 29.7981 41.6151 30.336C42.0883 30.8739 42.0285 31.5612 41.4807 32.119C40.6821 32.9325 39.6943 33.2878 38.9224 33.2795Z" fill="#060504"/>
<path d="M49.8462 33.3691C49.3781 33.3691 48.9082 33.3791 48.4401 33.3691C47.7461 33.3509 47.19 32.8711 47.1651 32.2253C47.1402 31.5795 47.4573 31.0333 48.1246 30.9901C49.301 30.9146 50.4811 30.9146 51.6575 30.9901C52.3215 31.0333 52.6436 31.5646 52.6154 32.227C52.5871 32.8894 52.031 33.3509 51.337 33.3675C50.8407 33.3841 50.3443 33.3691 49.8462 33.3691Z" fill="#FE899E"/>
<path d="M27.4308 33.3691C26.9327 33.3691 26.4347 33.3691 25.9449 33.3691C25.1995 33.3691 24.8426 32.8794 24.7596 32.2353C24.6799 31.6326 24.9754 31.0731 25.6129 31.0233C26.7832 30.9113 27.9604 30.8897 29.1341 30.9586C29.8214 31.0067 30.2746 31.5695 30.1783 32.2983C30.082 33.0271 29.569 33.3725 28.8336 33.3708L27.4308 33.3691Z" fill="#FE899E"/>
<path d="M48.8235 26.0827C49.7432 25.2825 50.2728 25.3224 51.0564 26.2487C51.0813 27.1851 51.1544 28.1214 51.1178 29.0544C51.0913 29.7533 50.6198 30.1617 49.9259 30.1883C49.2618 30.2115 48.7355 29.8264 48.7023 29.1922C48.6426 28.1629 48.7737 27.1203 48.8235 26.0827Z" fill="#050404"/>
<path d="M26.2952 26.2504C27.0971 25.3224 27.6233 25.2842 28.5381 26.0844C28.5862 27.1236 28.7041 28.1645 28.6543 29.1972C28.6211 29.8313 28.0898 30.2165 27.4308 30.1933C26.7401 30.1667 26.2687 29.76 26.2421 29.0594C26.2056 28.123 26.272 27.1851 26.2952 26.2504Z" fill="#050404"/>
<path d="M39.9284 14.4533C39.9284 15.3913 39.9483 16.3276 39.9284 17.264C39.9035 18.1671 39.4055 18.6851 38.6468 18.6635C37.9196 18.6419 37.4531 18.1405 37.4432 17.2706C37.4221 15.3968 37.4221 13.5225 37.4432 11.6477C37.4548 10.7362 37.9495 10.2382 38.7248 10.2581C39.4619 10.278 39.9052 10.7561 39.9301 11.6427C39.9483 12.579 39.9284 13.517 39.9284 14.4533Z" fill="#070707"/>
<path d="M45.4883 15.5258C45.4883 14.5878 45.4767 13.6498 45.4883 12.7035C45.5016 11.8734 45.9863 11.3256 46.6986 11.3057C47.434 11.2857 47.9636 11.8552 47.9702 12.7284C47.9835 14.6099 47.9835 16.4854 47.9702 18.3547C47.9702 19.1848 47.4722 19.7276 46.7583 19.7442C46.0112 19.7625 45.5016 19.2097 45.4883 18.3314C45.4783 17.4018 45.4883 16.4638 45.4883 15.5258Z" fill="#020202"/>
<path d="M31.875 15.5872C31.875 16.5252 31.8916 17.4632 31.875 18.4095C31.8567 19.2296 31.3404 19.7675 30.6249 19.7625C29.9094 19.7575 29.4014 19.2196 29.3947 18.3929C29.3792 16.4903 29.3792 14.5872 29.3947 12.6836C29.3947 11.8651 29.931 11.3156 30.6398 11.3206C31.3487 11.3256 31.8584 11.8751 31.875 12.6985C31.8883 13.6564 31.875 14.621 31.875 15.5872Z" fill="#020202"/>
<path d="M53.5434 17.4416C53.5434 16.917 53.5135 16.3907 53.5434 15.8694C53.5965 15.1423 54.0995 14.6509 54.747 14.6326C54.9065 14.6275 55.0655 14.654 55.2148 14.7104C55.364 14.7668 55.5007 14.8521 55.617 14.9615C55.7333 15.0708 55.8269 15.202 55.8924 15.3476C55.9579 15.4931 55.994 15.6501 55.9987 15.8097C56.0469 16.8838 56.0469 17.9679 55.9987 19.0354C55.9917 19.3575 55.8579 19.664 55.6264 19.8881C55.3948 20.1122 55.0842 20.2359 54.7619 20.2323C54.1194 20.2323 53.5998 19.7343 53.5417 19.0138C53.5118 18.4925 53.545 17.9662 53.5434 17.4416Z" fill="#080808"/>
<path d="M23.805 17.498C23.805 18.0227 23.8382 18.5489 23.805 19.0686C23.7485 19.7741 23.3069 20.1643 22.6213 20.2307C22.4615 20.2408 22.3014 20.2184 22.1506 20.1648C21.9998 20.1112 21.8614 20.0275 21.7439 19.9189C21.6264 19.8102 21.5322 19.6788 21.467 19.5326C21.4018 19.3865 21.3669 19.2286 21.3645 19.0686C21.3164 17.9679 21.3164 16.8622 21.3728 15.7615C21.4094 15.0576 21.8991 14.6542 22.5881 14.6559C23.277 14.6575 23.7369 15.0626 23.7983 15.7682C23.8481 16.3426 23.8083 16.9303 23.8083 17.5047L23.805 17.498Z" fill="#070707"/>
<path d="M31.5529 54.3419C31.2524 55.1139 30.8706 56.266 30.3676 57.3617C28.8734 60.6339 26.7152 63.315 23.4431 65.0167C22.4038 65.5546 21.5439 65.4865 20.5727 64.9669C17.9838 63.6068 15.8737 61.4863 14.5264 58.8907C13.7859 57.4779 13.2065 55.9755 12.6272 54.4863C12.2503 53.5151 12.6388 52.8494 13.6382 52.6336C16.2851 52.0647 18.8544 51.1813 21.2915 50.0022C21.7381 49.7864 22.4785 49.8229 22.9334 50.0471C25.2701 51.1799 27.7334 52.0303 30.2713 52.5805C30.9968 52.7398 31.5812 53.0569 31.5529 54.3419ZM15.4245 54.9595C16.6082 58.0656 18.3381 60.8132 21.3662 62.5696C21.5663 62.7063 21.8029 62.7794 22.0452 62.7794C22.2875 62.7794 22.5242 62.7063 22.7242 62.5696C25.7806 60.8099 27.5005 58.0407 28.6742 54.9512C26.516 54.1211 24.4126 53.3026 22.3059 52.5074C22.1257 52.4546 21.9331 52.4627 21.758 52.5307C19.6778 53.3209 17.5977 54.1211 15.4245 54.9595Z" fill="#010202"/>
<path d="M15.4245 54.9595C17.6026 54.1294 19.6778 53.3209 21.758 52.534C21.9331 52.4661 22.1257 52.4579 22.3059 52.5108C24.4126 53.306 26.511 54.1211 28.6742 54.9545C27.5005 58.0441 25.7806 60.8132 22.7242 62.573C22.5242 62.7097 22.2875 62.7828 22.0452 62.7828C21.8029 62.7828 21.5663 62.7097 21.3662 62.573C18.3381 60.8132 16.6016 58.0656 15.4245 54.9595Z" fill="#82A1E0"/>
</g>
<defs>
<clipPath id="clip0_27_190">
<rect width="85" height="85" fill="white"/>
</clipPath>
</defs>
</svg>
