<svg width="84" height="84" viewBox="0 0 84 84" fill="none" xmlns="http://www.w3.org/2000/svg">
<path d="M64.8735 55.1376C64.4757 55.8082 64.0784 56.4783 63.6817 57.1479C62.7711 56.64 62.3848 56.6778 61.6862 57.4388C57.2235 62.2977 51.74 65.2071 45.193 66.0783C42.3015 66.4904 39.358 66.3498 36.519 65.6641L36.1409 65.6049L36.0998 65.5967C35.9601 65.4619 35.8434 65.2679 35.6757 65.2006C31.1176 63.2051 27.3304 60.2036 24.4325 56.183C20.4876 50.7209 18.4954 44.6226 19.1857 37.8323C19.3978 35.7464 19.9468 33.6917 20.3857 31.6321C20.5352 30.9319 20.8196 30.2579 21.0431 29.5725L21.0547 29.6136V29.5709L21.2634 29.3983C23.0466 27.7891 25.1574 26.5856 27.4504 25.8708C31.7012 24.4999 35.9979 24.8731 40.3275 25.4599C44.1854 25.9842 48.0432 26.5743 51.9224 26.8718C55.5765 27.1529 59.0809 26.3787 62.2188 24.3421C63.1952 23.7076 63.2231 23.6846 63.8428 24.6709C69.7208 33.8988 70.1071 43.3438 64.9063 52.9843C64.5036 53.7338 64.2406 54.4078 64.8735 55.1376ZM41.9153 45.7995C43.1629 45.7502 44.2626 45.3508 45.1272 44.4188C45.6532 43.855 45.668 43.1597 45.193 42.6616C44.7179 42.1636 44.0703 42.1405 43.4391 42.6386C42.2885 43.5542 41.5488 43.5558 40.3998 42.6386C39.7703 42.1372 39.1358 42.1455 38.6443 42.6534C38.1528 43.1613 38.1791 43.8385 38.7068 44.4073C39.5763 45.3409 40.6727 45.7518 41.9153 45.7995ZM55.1902 46.0033C55.7885 46.0033 56.3901 46.0428 56.9851 45.9935C57.83 45.9228 58.3462 45.336 58.2837 44.6144C58.2295 43.9799 57.6854 43.5574 56.8915 43.5525C55.8296 43.5459 54.7683 43.5459 53.7075 43.5525C52.8314 43.5525 52.2824 44.0111 52.2594 44.7409C52.2413 45.3491 52.9547 45.977 53.7207 46.005C54.2155 46.0247 54.7069 46.0033 55.1968 46.0033H55.1902ZM28.5616 46.0033H30.1117C30.1664 46.0067 30.2213 46.0067 30.276 46.0033C30.9335 45.9211 31.591 45.2817 31.5598 44.7327C31.5318 44.0243 30.9993 43.5591 30.1906 43.5525C29.1298 43.5459 28.0696 43.5459 27.0099 43.5525C26.1371 43.5525 25.5782 43.9996 25.5306 44.7146C25.4928 45.3919 26.0812 45.954 26.9261 46C27.4866 46.0247 28.0307 46.0017 28.5748 46.0033H28.5616ZM56.5052 39.5549C56.5052 39.1193 56.52 38.6838 56.5052 38.2498C56.4756 37.5397 56.0548 37.1288 55.3874 37.0712C54.7201 37.0137 54.1711 37.4 54.1086 38.0674C54.019 39.0691 54.019 40.0769 54.1086 41.0787C54.1661 41.7362 54.6609 42.1356 55.3677 42.0896C56.0745 42.0436 56.4592 41.6359 56.5052 40.939C56.5348 40.4804 56.5101 40.0168 56.5101 39.5549H56.5052ZM29.7747 39.5812C29.7747 39.1193 29.8109 38.6542 29.7747 38.1956C29.7492 37.8799 29.6042 37.586 29.3693 37.3736C29.1344 37.1613 28.8272 37.0467 28.5107 37.0532C28.1935 37.0626 27.893 37.197 27.6744 37.4269C27.4559 37.6569 27.337 37.9639 27.3436 38.281C27.3151 39.1511 27.3151 40.0212 27.3436 40.8913C27.3666 41.6113 27.8482 42.0781 28.5156 42.0962C28.6723 42.1048 28.8292 42.0825 28.9773 42.0305C29.1254 41.9785 29.2618 41.8979 29.3787 41.7932C29.4956 41.6885 29.5908 41.5617 29.6587 41.4203C29.7267 41.2788 29.7661 41.1253 29.7747 40.9686C29.8158 40.5099 29.7796 40.0448 29.7796 39.5812H29.7747Z" fill="#76E6FF"/>
<path d="M36.5189 65.6592C39.3577 66.3465 42.3011 66.4888 45.193 66.0783C51.74 65.2121 57.2235 62.2977 61.6862 57.4438C62.3848 56.6827 62.7711 56.6449 63.6817 57.1528C64.2061 57.8662 64.1075 58.5122 63.4828 59.1138C62.2089 60.3433 60.9416 61.5794 59.6414 62.8352C60.0113 63.1032 60.4469 63.404 60.8677 63.7245C63.9168 66.0553 64.903 69.0124 63.9217 72.8127C63.8859 73.0462 63.925 73.2851 64.0335 73.4949C65.3485 76.3172 65.8548 79.3006 65.8597 82.3875C65.8597 83.3885 65.4257 83.8356 64.4231 83.8389C61.8572 83.8488 59.2929 83.8389 56.7271 83.8389H19.9714C18.3556 83.8389 18.0187 83.4773 18.0828 81.8418C18.1962 78.9028 18.6877 76.0509 19.978 73.3749C20.0625 73.1874 20.0736 72.9751 20.0092 72.7799C18.8586 69.7948 19.9928 66.1605 22.8545 63.9037C23.3197 63.5355 23.8096 63.1985 24.1695 62.9339C22.5899 61.3213 20.9445 59.8009 19.4865 58.1161C17.1294 55.3907 15.4528 52.2479 14.34 48.8158C14.2085 48.4131 14.0786 48.2175 13.5756 48.1961C7.88994 47.9479 4.9197 42.2112 7.90473 37.3819C8.22197 36.8674 8.23348 36.1475 8.3206 35.513C9.07179 29.4838 11.3204 24.0726 14.9547 19.2153C15.5465 18.4247 16.2204 18.3934 17.0291 18.6844C17.6505 19.6082 17.2313 20.3281 16.6544 21.1007C13.9241 24.7465 12.1472 28.8263 11.1692 33.2726C11.0591 33.7657 11.0377 34.2917 10.9802 34.7634C11.9566 34.627 12.8146 34.5218 13.6644 34.3772C13.8624 34.3352 14.038 34.2217 14.1575 34.0583C14.6967 33.2134 15.2062 32.3455 15.7256 31.4858C16.9321 30.2317 18.0696 28.9002 19.36 27.7381C22.9581 24.495 27.2499 22.8776 32.0611 22.6063C36.3858 22.3614 40.6464 22.9729 44.8938 23.6814C48.0169 24.2024 51.1515 24.615 54.3239 24.3882C56.8076 24.2106 59.1401 23.5038 61.203 22.0541C62.7251 20.9873 64.3968 21.1549 65.4372 22.6787C66.4777 24.2024 67.4952 25.7837 68.2316 27.4669C69.1981 29.6695 69.8753 31.997 70.7169 34.3509L72.8324 34.8276C72.8492 34.6197 72.8492 34.4108 72.8324 34.2029C72.1322 30.327 70.7975 26.6762 68.6869 23.3542C68.0294 22.3105 68.0376 21.5034 68.5225 20.4267C69.9016 17.4138 70.6019 14.2512 70.2748 10.9046C69.9937 7.88995 67.8864 6.0654 64.8291 6.41058C62.3174 6.68838 59.8239 7.13383 57.3254 7.52175C57.227 7.53608 57.1325 7.57028 57.0477 7.62228C56.963 7.67427 56.8897 7.74298 56.8323 7.8242C56.2274 8.97482 55.7408 10.2027 55.0488 11.3007C54.3305 12.4415 53.5695 13.625 52.5701 14.4994C50.8737 15.9903 48.7714 16.0182 46.6115 15.678C43.508 15.1833 40.3457 15.1833 37.2422 15.678C33.6687 16.2517 31.2639 15.3246 29.4377 12.4645C29.3604 12.3541 29.2943 12.2363 29.2405 12.1127C28.9594 11.2744 28.5057 11.258 27.7611 11.6492C25.2002 13.0036 22.8085 14.6079 20.7045 16.5903C19.9484 17.3069 19.2432 17.7622 18.2028 17.371C17.7096 16.3125 18.0384 15.5268 18.9326 14.8446C20.3002 13.8074 21.5741 12.6436 22.9828 11.6689C24.3914 10.6942 25.9086 9.89367 27.4209 8.98632C26.9639 8.04446 26.7814 6.9974 27.12 5.90102C27.8203 3.63759 30.0903 2.49191 32.3143 3.29734C32.9537 3.52746 33.5865 3.7806 34.2046 4.06168C34.9557 4.40358 35.5606 4.25728 36.1113 3.65239C36.7688 2.92586 37.4986 2.2585 38.1413 1.51553C39.7522 -0.343542 44.0391 -0.341899 45.6532 1.51553C46.3107 2.27658 47.0537 2.97024 47.7391 3.70992C48.2487 4.25893 48.8141 4.39536 49.5078 4.09949C50.2014 3.80361 50.8622 3.53075 51.5559 3.29077C53.2621 2.69902 55.0192 3.20036 56.0729 4.64849C56.3753 5.06272 56.6564 5.12189 57.0887 5.0545C59.459 4.69288 61.8325 4.35591 64.2012 3.98442C68.5439 3.28748 72.3245 6.16238 72.7502 10.5199C73.1069 14.1214 72.4445 17.5782 71.0408 20.8919C70.7712 21.5281 70.758 21.9883 71.1279 22.6096C73.6647 26.8877 75.213 31.6788 75.6597 36.6324C75.6978 36.9224 75.8 37.2004 75.9588 37.446C77.3839 39.7374 77.5845 42.1142 76.3221 44.5141C75.0761 46.8729 73.0527 48.1221 70.3783 48.1895C69.7849 48.206 69.6337 48.4476 69.4315 48.9193C68.6393 50.7636 67.824 52.603 66.9363 54.4045C66.4218 55.4483 65.9501 55.5551 64.8718 55.1491C64.2406 54.4144 64.5036 53.7453 64.9129 52.9876C70.1137 43.3471 69.7274 33.9021 63.8494 24.6742C63.2297 23.7011 63.2018 23.7192 62.2254 24.3454C59.0875 26.3869 55.583 27.1562 51.929 26.8751C48.0498 26.5776 44.1919 25.9875 40.3341 25.4632C36.0127 24.8764 31.7077 24.5032 27.457 25.8741C25.1609 26.5862 23.0466 27.788 21.2601 29.3966L21.0514 29.5692V29.612L21.0399 29.5709C19.9681 30.6903 18.8471 31.7653 17.8395 32.9373C16.2056 34.8407 15.4018 37.0828 15.3262 39.5977C15.2535 41.9432 15.5576 44.2851 16.227 46.5343C19.2317 56.6455 25.8549 63.0012 36.0965 65.6016L36.1376 65.6099L36.5189 65.6592ZM23.4249 76.258C22.9088 75.9293 22.391 75.6005 21.6661 75.1271C21.2355 77.264 20.8327 79.2677 20.4136 81.3536H25.524C25.6653 79.9466 25.8034 78.579 25.9415 77.2081L23.4249 76.258ZM24.1843 73.7299L24.3914 73.8582L26.4888 74.8296C27.24 71.7868 28.5754 68.919 30.4207 66.3857L28.3874 65.4636C27.9238 65.1841 27.4735 64.8784 26.9918 64.6417C26.8888 64.5896 26.7764 64.5588 26.6612 64.5508C26.546 64.5429 26.4304 64.5582 26.3212 64.5957C24.5607 65.4948 23.0617 66.6767 22.3499 68.6097C21.528 70.8238 22.2184 72.7092 24.1827 73.7447L24.1843 73.7299ZM32.4359 6.00787C32.0973 5.84265 31.7505 5.69453 31.3971 5.56406C31.1127 5.46637 30.8055 5.45682 30.5156 5.53668C30.2258 5.61655 29.9668 5.78209 29.7726 6.01162C29.5784 6.24116 29.4581 6.52399 29.4274 6.82308C29.3967 7.12216 29.457 7.42355 29.6004 7.68777C30.3368 9.0192 31.0469 10.3753 31.9017 11.6327C32.7893 12.9346 34.0928 13.5313 35.7069 13.288C36.9266 13.1713 38.1479 12.9395 39.3659 12.9592C42.249 13.0102 45.1321 13.1631 48.0136 13.3077C49.7149 13.3915 51.1597 12.9428 52.0967 11.4388C52.8314 10.2602 53.5021 9.04385 54.1826 7.83242C54.5343 7.20944 54.5393 6.57003 54.0626 6.00294C53.5859 5.43585 52.9465 5.36352 52.2758 5.61337C51.689 5.83199 51.1153 6.08348 50.5335 6.31196C48.6695 7.04178 47.2624 6.72289 45.8669 5.25668C45.2834 4.64521 44.7163 4.02059 44.1163 3.42062C42.8013 2.09248 41.0211 2.10563 39.7029 3.44363C39.0339 4.12578 38.4076 4.84903 37.7304 5.51475C36.5469 6.66536 35.1629 6.99411 33.5931 6.41387C33.2035 6.2758 32.8189 6.14759 32.4359 6.0128V6.00787ZM55.9315 81.3421C55.8395 80.3558 55.7869 79.4238 55.6652 78.5083C55.1474 74.611 53.8933 70.9964 51.4983 67.824C51.2058 67.4361 50.9592 67.2799 50.425 67.4459C44.9528 69.1656 39.0881 69.1879 33.603 67.51C33.0359 67.3457 32.7137 67.4673 32.3784 67.9226C29.4476 71.9037 28.2772 76.4438 28.0405 81.3388L55.9315 81.3421ZM53.5497 66.4465C55.4269 68.9121 56.6317 71.7164 57.4947 74.8592C58.4464 74.3907 59.3324 74.0373 60.1247 73.5442C61.3279 72.7864 61.9788 71.6851 61.9147 70.1959C61.8177 67.944 59.7548 65.2219 57.5588 64.5447C57.3809 64.4938 57.1908 64.5066 57.0213 64.5809C55.8707 65.1841 54.7365 65.8088 53.5497 66.4465ZM13.2387 45.6861C13.1137 42.7438 12.9905 39.8525 12.8688 36.9743C10.8142 37.1732 9.08823 39.19 9.1737 41.5044C9.25589 43.7777 11.1396 45.6631 13.2387 45.6861ZM70.5591 45.6861C72.8604 45.6483 74.7457 43.5953 74.6685 41.1099C74.6044 39.0076 72.7272 36.9661 71.0523 37.0302C70.8879 39.9116 70.7252 42.775 70.5591 45.696V45.6861ZM58.024 77.3034C58.1522 78.6184 58.2853 79.9811 58.4185 81.3372H63.5469C63.1196 79.2611 62.7103 77.2673 62.3043 75.2931L58.024 77.3034Z" fill="#030302"/>
<path d="M15.7306 31.4858C15.2111 32.3455 14.7016 33.2134 14.1624 34.0583C14.0429 34.2217 13.8674 34.3352 13.6693 34.3772C12.8195 34.5218 11.9615 34.627 10.9851 34.7634C11.0426 34.2917 11.064 33.7772 11.1741 33.2726C12.1604 28.8345 13.929 24.7465 16.6593 21.1007C17.2362 20.3298 17.6554 19.6082 17.0341 18.6844L18.2258 17.3579C19.2662 17.7491 19.9714 17.2938 20.7275 16.5771C22.8315 14.5882 25.2232 12.9905 27.7841 11.636C28.5221 11.2448 28.9758 11.2613 29.2635 12.0996C29.3173 12.2231 29.3834 12.341 29.4607 12.4513C28.9577 12.7571 28.4367 13.0365 27.9551 13.3735C25.7556 14.9166 23.7774 16.7533 22.0754 18.8323C19.9796 21.3719 18.229 24.1515 17.0373 27.2368C16.4949 28.6142 16.1563 30.0673 15.7306 31.4858Z" fill="#76E6FF"/>
<path d="M36.0998 65.5852C25.8593 63.0034 19.2361 56.6476 16.2303 46.5178C15.5609 44.2687 15.2568 41.9267 15.3295 39.5812C15.4051 37.0663 16.2089 34.8243 17.8428 32.9208C18.8504 31.7488 19.9714 30.6738 21.0432 29.5544C20.8196 30.2399 20.5353 30.9138 20.3857 31.614C19.9468 33.6736 19.3994 35.7234 19.1857 37.8142C18.4954 44.6045 20.5007 50.7028 24.4326 56.1649C27.3305 60.1855 31.1177 63.187 35.6757 65.1825C35.8434 65.268 35.9601 65.457 36.0998 65.5852Z" fill="#76E6FF"/>
<path d="M41.9153 45.7995C40.6661 45.7518 39.5697 45.3409 38.7068 44.4105C38.1791 43.8418 38.166 43.1547 38.6443 42.6567C39.1226 42.1586 39.7703 42.1405 40.3998 42.6419C41.5504 43.5558 42.2835 43.5541 43.4391 42.6419C44.0703 42.1488 44.7048 42.1488 45.193 42.6649C45.6811 43.181 45.6532 43.8582 45.1272 44.422C44.2692 45.3507 43.1695 45.7502 41.9153 45.7995Z" fill="#060505"/>
<path d="M55.1968 46.0033C54.7036 46.0033 54.2105 46.0165 53.7273 46.0033C52.9613 45.9754 52.2479 45.3458 52.266 44.7393C52.289 44.0095 52.838 43.5542 53.7141 43.5509C54.7749 43.5509 55.8362 43.5509 56.898 43.5509C57.692 43.5509 58.2361 43.9782 58.2903 44.6127C58.3528 45.3392 57.8366 45.9277 56.9917 45.9918C56.3967 46.0411 55.7951 46.0017 55.1968 46.0017V46.0033Z" fill="#76E6FF"/>
<path d="M28.5748 46.0017C28.0307 46.0017 27.4866 46.0263 26.9442 46.0017C26.0993 45.9557 25.5108 45.3935 25.5487 44.7163C25.5897 44.0013 26.1486 43.5574 27.028 43.5542C28.0888 43.5542 29.149 43.5542 30.2086 43.5542C31.0174 43.5542 31.5499 44.0259 31.5779 44.7344C31.6009 45.2834 30.9549 45.9228 30.2941 46.005C30.2394 46.0083 30.1845 46.0083 30.1297 46.005L28.5748 46.0017Z" fill="#76E6FF"/>
<path d="M56.5101 39.5549C56.5101 40.0168 56.5348 40.4804 56.5101 40.9406C56.4641 41.6359 56.0696 42.0436 55.3726 42.0912C54.6757 42.1389 54.1711 41.7444 54.1135 41.0803C54.024 40.0785 54.024 39.0708 54.1135 38.069C54.176 37.4 54.7102 37.0137 55.3924 37.0729C56.0745 37.1321 56.4805 37.5414 56.5101 38.2515C56.5249 38.6838 56.5101 39.121 56.5101 39.5549Z" fill="#060504"/>
<path d="M29.7796 39.5812C29.7796 40.0448 29.8158 40.51 29.7796 40.9686C29.771 41.1253 29.7316 41.2788 29.6637 41.4203C29.5957 41.5617 29.5006 41.6885 29.3836 41.7932C29.2667 41.8979 29.1303 41.9785 28.9822 42.0305C28.8341 42.0825 28.6772 42.1048 28.5205 42.0962C27.8532 42.0781 27.3699 41.603 27.3485 40.8913C27.32 40.0223 27.32 39.1522 27.3485 38.281C27.3419 37.9638 27.4608 37.6569 27.6794 37.4269C27.8979 37.197 28.1985 37.0626 28.5156 37.0532C28.8322 37.0467 29.1393 37.1613 29.3742 37.3736C29.6091 37.586 29.7541 37.8799 29.7796 38.1956C29.8158 38.6542 29.7796 39.121 29.7796 39.5812Z" fill="#050404"/>
<path d="M36.519 65.6592L36.1409 65.6L36.519 65.6592Z" fill="#76E6FF"/>
<path d="M21.0514 29.5659L21.2601 29.3933L21.0514 29.5659Z" fill="#76E6FF"/>
<path d="M15.7306 31.4858C16.1563 30.0673 16.4949 28.6142 17.0258 27.2368C18.2175 24.1515 19.9681 21.3719 22.0639 18.8323C23.7659 16.7533 25.7441 14.9166 27.9435 13.3735C28.4252 13.0365 28.9462 12.7571 29.4492 12.4513C31.2754 15.3114 33.6802 16.2319 37.2537 15.6648C40.3572 15.1702 43.5195 15.1702 46.623 15.6648C48.7829 16.0051 50.8852 15.9771 52.5816 14.4863C53.5793 13.6118 54.342 12.4283 55.0603 11.2876C55.7523 10.1895 56.2389 8.96495 56.8438 7.81105C56.9012 7.72983 56.9745 7.66112 57.0592 7.60913C57.144 7.55713 57.2385 7.52293 57.3369 7.5086C59.8354 7.12068 62.3289 6.67523 64.8406 6.39743C67.8963 6.05882 70.0052 7.8768 70.2978 10.8996C70.6265 14.2463 69.9246 17.4088 68.5455 20.4218C68.0524 21.4985 68.0393 22.3055 68.7099 23.3493C70.8205 26.6697 72.1618 30.3204 72.8554 34.198C72.8722 34.4059 72.8722 34.6147 72.8554 34.8226L70.7251 34.3541C69.8901 32.0003 69.2063 29.6728 68.2398 27.4702C67.5001 25.787 66.4827 24.2073 65.4455 22.682C64.4083 21.1566 62.7333 20.9905 61.2112 22.0573C59.1483 23.5071 56.8158 24.2139 54.3321 24.3914C51.1597 24.6183 48.0251 24.2057 44.902 23.6846C40.6546 22.9762 36.394 22.3696 32.0693 22.6096C27.2598 22.8808 22.9663 24.4983 19.3682 27.7414C18.0811 28.9002 16.9305 30.2316 15.7306 31.4858Z" fill="#76E6FF"/>
<path d="M55.9315 81.3421H28.0405C28.2772 76.447 29.4476 71.907 32.3784 67.9259C32.7071 67.4705 33.0359 67.3456 33.603 67.5133C39.0881 69.1912 44.9528 69.1688 50.425 67.4492C50.9592 67.2848 51.2058 67.4393 51.4983 67.8272C53.8933 70.9964 55.1474 74.611 55.6652 78.5115C55.7869 79.4238 55.8395 80.3492 55.9315 81.3421Z" fill="#76E6FF"/>
<path d="M32.4359 6.0128C32.8189 6.14759 33.2068 6.2758 33.5865 6.41716C35.1563 6.99411 36.5453 6.66865 37.7238 5.51804C38.4076 4.86054 39.0388 4.12907 39.6963 3.44692C41.0113 2.10563 42.7948 2.09577 44.1097 3.42391C44.7064 4.02388 45.2768 4.6485 45.8603 5.25997C47.2559 6.72618 48.6629 7.04507 50.5269 6.31525C51.1088 6.08677 51.6775 5.83528 52.2693 5.61666C52.9399 5.36681 53.5727 5.4342 54.056 6.00622C54.5393 6.57824 54.5278 7.21273 54.176 7.83571C53.4955 9.04714 52.8248 10.2635 52.0901 11.4421C51.1532 12.9461 49.7083 13.3948 48.007 13.311C45.1256 13.1664 42.2425 13.0135 39.3593 12.9625C38.1413 12.9412 36.92 13.1729 35.7004 13.2913C34.6961 11.6673 33.6835 10.0498 32.6923 8.41923C32.242 7.6664 32.1088 6.86097 32.4359 6.0128Z" fill="#76E6FF"/>
<path d="M53.5497 66.4465C54.7332 65.8087 55.8707 65.1841 57.0197 64.5841C57.1891 64.5098 57.3793 64.497 57.5572 64.548C59.7532 65.2252 61.8161 67.9472 61.9131 70.1991C61.9772 71.6884 61.3263 72.7897 60.123 73.5474C59.3341 74.0405 58.4481 74.3907 57.4931 74.8624C56.6317 71.7163 55.4269 68.9154 53.5497 66.4465Z" fill="#76E6FF"/>
<path d="M28.3874 65.4636L30.4207 66.3857C28.5754 68.919 27.24 71.7868 26.4889 74.8296L24.3914 73.8581L24.1843 73.7299V73.7398C24.2165 73.5775 24.2253 73.4114 24.2106 73.2467C23.8671 71.7673 24.1367 70.3915 24.8172 69.065C25.6259 67.4903 26.9113 66.3857 28.3874 65.4636Z" fill="#76E6FF"/>
<path d="M13.2387 45.6861C11.1396 45.6631 9.2559 43.7777 9.17371 41.5011C9.09152 39.1867 10.8174 37.1699 12.8688 36.971C12.9855 39.8525 13.1138 42.7372 13.2387 45.6861Z" fill="#76E6FF"/>
<path d="M70.5591 45.6959C70.7235 42.78 70.8879 39.9166 71.0523 37.04C72.7305 36.9759 74.6077 39.0125 74.6685 41.1198C74.7458 43.6002 72.867 45.6532 70.5591 45.6959Z" fill="#76E6FF"/>
<path d="M58.024 77.3034L62.2977 75.2931C62.7037 77.2656 63.1196 79.2611 63.5404 81.3371H58.4119C58.2886 79.981 58.1555 78.6118 58.024 77.3034Z" fill="#76E6FF"/>
<path d="M28.3874 65.4636C26.908 66.3857 25.6259 67.4903 24.8155 69.0798C24.135 70.4063 23.8654 71.7854 24.209 73.2614C24.2237 73.4262 24.2148 73.5923 24.1827 73.7546C22.2102 72.719 21.533 70.8337 22.3499 68.6195C23.0617 66.6865 24.5608 65.4964 26.3212 64.6055C26.4304 64.568 26.546 64.5528 26.6612 64.5607C26.7764 64.5686 26.8888 64.5995 26.9918 64.6516C27.4735 64.8784 27.9238 65.1841 28.3874 65.4636Z" fill="#76E6FF"/>
<path d="M32.4359 6.0128C32.1071 6.86097 32.2419 7.6664 32.7005 8.41759C33.6868 10.0482 34.7042 11.6656 35.7086 13.2896C34.0944 13.5329 32.7909 12.9362 31.9033 11.6344C31.0469 10.3802 30.3368 9.02413 29.6021 7.68941C29.4602 7.42556 29.401 7.12512 29.4322 6.82718C29.4634 6.52923 29.5836 6.24757 29.777 6.01883C29.9705 5.7901 30.2283 5.62487 30.5169 5.54464C30.8056 5.46441 31.1117 5.4729 31.3954 5.56899C31.7494 5.69941 32.0967 5.84754 32.4359 6.0128V6.0128Z" fill="#76E6FF"/>
<path d="M23.4249 76.258L25.9415 77.2081C25.8034 78.579 25.6653 79.9466 25.524 81.3536H22.6014L23.4249 76.258Z" fill="#76E6FF"/>
<path d="M23.4249 76.258L22.6031 81.3536H20.4136C20.8328 79.2677 21.2355 77.2689 21.6661 75.1271C22.391 75.5923 22.9088 75.9243 23.4249 76.258Z" fill="#76E6FF"/>
<path d="M24.1843 73.7299L24.3914 73.8581L24.1843 73.7299Z" fill="#76E6FF"/>
</svg>
