<svg width="81" height="81" viewBox="0 0 81 81" fill="none" xmlns="http://www.w3.org/2000/svg">
<path d="M62.5565 53.1684C62.173 53.8151 61.7899 54.4612 61.4074 55.1069C60.5293 54.6171 60.1568 54.6536 59.4832 55.3874C55.1798 60.0728 49.8921 62.8783 43.5789 63.7184C40.7907 64.1157 37.9524 63.9802 35.2147 63.3189L34.8501 63.2619L34.8105 63.254C34.6758 63.124 34.5633 62.9369 34.4016 62.872C30.0063 60.9477 26.3544 58.0535 23.5599 54.1765C19.7559 48.9094 17.8348 43.0289 18.5005 36.4811C18.705 34.4697 19.2344 32.4884 19.6576 30.5024C19.8018 29.8272 20.076 29.1773 20.2916 28.5163L20.3027 28.556V28.5148L20.504 28.3483C22.2235 26.7966 24.2589 25.6362 26.4701 24.9468C30.569 23.6249 34.7122 23.9847 38.8872 24.5506C42.6073 25.0562 46.3274 25.6252 50.0681 25.9121C53.5916 26.1832 56.9709 25.4366 59.9967 23.4728C60.9382 22.8609 60.9652 22.8388 61.5627 23.7898C67.2308 32.6882 67.6033 41.7958 62.5882 51.092C62.1999 51.8148 61.9463 52.4646 62.5565 53.1684ZM40.4184 44.1638C41.6214 44.1163 42.6818 43.7311 43.5155 42.8324C44.0227 42.2887 44.037 41.6182 43.5789 41.138C43.1209 40.6577 42.4963 40.6355 41.8877 41.1158C40.7782 41.9986 40.0649 42.0002 38.957 41.1158C38.3499 40.6323 37.7381 40.6403 37.2642 41.13C36.7902 41.6198 36.8156 42.2729 37.3244 42.8213C38.1629 43.7216 39.2201 44.1178 40.4184 44.1638ZM53.2191 44.3603C53.7961 44.3603 54.3762 44.3984 54.95 44.3508C55.7647 44.2827 56.2624 43.7168 56.2021 43.021C56.1498 42.4092 55.6252 42.0018 54.8596 41.9971C53.8357 41.9907 52.8123 41.9907 51.7894 41.9971C50.9446 41.9971 50.4152 42.4393 50.393 43.143C50.3756 43.7295 51.0635 44.335 51.8021 44.3619C52.2792 44.381 52.7531 44.3603 53.2254 44.3603H53.2191ZM27.5415 44.3603H29.0362C29.089 44.3636 29.142 44.3636 29.1947 44.3603C29.8288 44.2811 30.4628 43.6645 30.4327 43.1351C30.4057 42.452 29.8922 42.0034 29.1123 41.9971C28.0894 41.9907 27.0671 41.9907 26.0453 41.9971C25.2036 41.9971 24.6647 42.4282 24.6187 43.1177C24.5823 43.7707 25.1497 44.3128 25.9644 44.3572C26.5049 44.381 27.0296 44.3588 27.5542 44.3603H27.5415ZM54.4871 38.1423C54.4871 37.7222 54.5014 37.3022 54.4871 36.8837C54.4586 36.199 54.0528 35.8027 53.4093 35.7473C52.7658 35.6918 52.2364 36.0643 52.1761 36.7078C52.0898 37.6738 52.0898 38.6456 52.1761 39.6116C52.2316 40.2456 52.7087 40.6308 53.3903 40.5864C54.0719 40.542 54.4428 40.1489 54.4871 39.4769C54.5157 39.0346 54.4919 38.5877 54.4919 38.1423H54.4871ZM28.7113 38.1676C28.7113 37.7222 28.7462 37.2737 28.7113 36.8314C28.6867 36.5271 28.5469 36.2436 28.3204 36.0389C28.0938 35.8341 27.7977 35.7236 27.4924 35.7298C27.1866 35.739 26.8968 35.8685 26.6861 36.0902C26.4753 36.312 26.3606 36.608 26.367 36.9139C26.3396 37.7529 26.3396 38.5919 26.367 39.4309C26.3892 40.1251 26.8536 40.5753 27.4972 40.5927C27.6483 40.6011 27.7996 40.5796 27.9424 40.5294C28.0852 40.4793 28.2167 40.4015 28.3295 40.3006C28.4422 40.1996 28.534 40.0774 28.5995 39.941C28.665 39.8045 28.703 39.6565 28.7113 39.5054C28.7509 39.0632 28.7161 38.6146 28.7161 38.1676H28.7113Z" fill="#FED2BB"/>
<path d="M35.2147 63.3142C37.9521 63.977 40.7904 64.1142 43.5789 63.7184C49.8921 62.8831 55.1798 60.0728 59.4832 55.3922C60.1568 54.6583 60.5293 54.6219 61.4074 55.1117C61.913 55.7996 61.8179 56.4225 61.2156 57.0026C59.9872 58.1882 58.7652 59.3802 57.5114 60.5911C57.868 60.8495 58.2881 61.1395 58.6938 61.4486C61.6341 63.6962 62.5851 66.5477 61.6388 70.2123C61.6042 70.4374 61.642 70.6677 61.7466 70.8701C63.0146 73.5916 63.5028 76.4684 63.5076 79.4451C63.5076 80.4104 63.0891 80.8415 62.1223 80.8447C59.648 80.8542 57.1754 80.8447 54.7011 80.8447H19.2582C17.7001 80.8447 17.3751 80.496 17.437 78.9189C17.5463 76.0848 18.0203 73.3348 19.2645 70.7544C19.346 70.5736 19.3567 70.3689 19.2946 70.1806C18.1851 67.3022 19.2788 63.7976 22.0383 61.6214C22.4869 61.2663 22.9592 60.9414 23.3063 60.6862C21.7831 59.1313 20.1965 57.6651 18.7906 56.0405C16.5176 53.4125 14.9009 50.3819 13.8278 47.0724C13.701 46.684 13.5758 46.4954 13.0908 46.4748C7.60816 46.2355 4.74401 40.7037 7.62243 36.0469C7.92834 35.5507 7.93944 34.8565 8.02344 34.2447C8.74781 28.4308 10.9161 23.2128 14.4206 18.5291C14.9913 17.7667 15.6411 17.7365 16.421 18.0171C17.0201 18.9079 16.6159 19.6021 16.0596 20.3471C13.4268 23.8627 11.7134 27.7968 10.7703 32.0843C10.6641 32.5598 10.6435 33.067 10.588 33.5219C11.5295 33.3903 12.3569 33.2889 13.1764 33.1494C13.3674 33.109 13.5367 32.9995 13.6519 32.8419C14.1718 32.0272 14.6632 31.1903 15.164 30.3613C16.3274 29.152 17.4243 27.8681 18.6685 26.7475C22.1382 23.6202 26.2767 22.0605 30.9161 21.799C35.0863 21.5628 39.1947 22.1524 43.2905 22.8356C46.302 23.338 49.3247 23.7359 52.3838 23.5172C54.7788 23.346 57.028 22.6644 59.0172 21.2664C60.4849 20.2377 62.0969 20.3994 63.1002 21.8687C64.1036 23.338 65.0847 24.8629 65.7948 26.4859C66.7268 28.6099 67.3798 30.8543 68.1914 33.1241L70.2313 33.5837C70.2475 33.3833 70.2475 33.1818 70.2313 32.9814C69.5561 29.2439 68.269 25.7235 66.2338 22.5202C65.5998 21.5137 65.6077 20.7354 66.0753 19.6972C67.4052 16.7919 68.0804 13.7423 67.765 10.5151C67.4939 7.60817 65.4619 5.84878 62.5138 6.18164C60.0918 6.44951 57.6873 6.87905 55.2781 7.25312C55.1832 7.26694 55.0921 7.29992 55.0103 7.35006C54.9286 7.4002 54.8579 7.46644 54.8026 7.54477C54.2193 8.65429 53.7501 9.83831 53.0828 10.8971C52.3901 11.9971 51.6563 13.1384 50.6926 13.9816C49.0568 15.4192 47.0296 15.4462 44.9468 15.1181C41.9541 14.6411 38.9048 14.6411 35.9121 15.1181C32.4663 15.6712 30.1474 14.7773 28.3864 12.0193C28.3118 11.9129 28.2481 11.7993 28.1962 11.6801C27.9251 10.8718 27.4877 10.8559 26.7696 11.2331C24.3002 12.5392 21.9939 14.0862 19.9651 15.9978C19.236 16.6888 18.556 17.1279 17.5527 16.7506C17.0772 15.7299 17.3942 14.9722 18.2564 14.3144C19.5752 13.3143 20.8036 12.1921 22.162 11.2522C23.5203 10.3122 24.9833 9.54032 26.4415 8.66539C26.0009 7.75716 25.825 6.74749 26.1515 5.69027C26.8267 3.50768 29.0156 2.40291 31.1602 3.17958C31.7768 3.40149 32.387 3.64558 32.983 3.91662C33.7073 4.24631 34.2906 4.10524 34.8216 3.52195C35.4556 2.82136 36.1594 2.17784 36.7791 1.4614C38.3325 -0.33127 42.4662 -0.329685 44.0227 1.4614C44.6568 2.19527 45.3732 2.86416 46.0342 3.57743C46.5255 4.10683 47.0708 4.23838 47.7397 3.95308C48.4085 3.66777 49.0457 3.40466 49.7146 3.17324C51.3599 2.60263 53.0543 3.08606 54.0703 4.48248C54.3619 4.88191 54.633 4.93897 55.0498 4.87398C57.3355 4.52528 59.6242 4.20034 61.9083 3.84213C66.0959 3.17007 69.7415 5.9423 70.152 10.1442C70.496 13.617 69.8572 16.9504 68.5036 20.1458C68.2437 20.7592 68.231 21.203 68.5876 21.8021C71.0338 25.9274 72.5269 30.5474 72.9576 35.3241C72.9943 35.6038 73.0929 35.8718 73.246 36.1087C74.6203 38.3182 74.8136 40.6102 73.5963 42.9243C72.3949 45.1988 70.4437 46.4035 67.8648 46.4685C67.2926 46.4843 67.1468 46.7173 66.9519 47.1722C66.1879 48.9506 65.4017 50.7243 64.5458 52.4615C64.0497 53.468 63.5948 53.571 62.555 53.1795C61.9463 52.471 62.1999 51.8259 62.5946 51.0952C67.6096 41.7989 67.2372 32.6913 61.5691 23.793C60.9715 22.8546 60.9446 22.872 60.0031 23.4759C56.9772 25.4446 53.5979 26.1864 50.0744 25.9153C46.3337 25.6284 42.6137 25.0594 38.8936 24.5538C34.7265 23.9879 30.5753 23.6281 26.4764 24.95C24.2623 25.6367 22.2235 26.7956 20.5008 28.3468L20.2995 28.5132V28.5544L20.2884 28.5148C19.255 29.5942 18.174 30.6308 17.2024 31.7609C15.6269 33.5964 14.8518 35.7584 14.7789 38.1835C14.7087 40.4452 15.002 42.7035 15.6475 44.8723C18.5449 54.6224 24.9315 60.7512 34.8074 63.2587L34.847 63.2667L35.2147 63.3142ZM22.5883 73.5345C22.0906 73.2175 21.5913 72.9005 20.8923 72.444C20.4771 74.5045 20.0887 76.4367 19.6845 78.4481H24.6124C24.7487 77.0913 24.8819 75.7726 25.015 74.4507L22.5883 73.5345ZM23.3206 71.0967L23.5203 71.2204L25.5428 72.1571C26.2672 69.223 27.5548 66.4576 29.3342 64.0148L27.3735 63.1256C26.9266 62.8561 26.4923 62.5613 26.0279 62.3331C25.9285 62.2829 25.8201 62.2531 25.709 62.2455C25.5979 62.2378 25.4865 62.2525 25.3812 62.2887C23.6836 63.1557 22.238 64.2953 21.5517 66.1593C20.7592 68.2944 21.4249 70.1124 23.319 71.111L23.3206 71.0967ZM31.2775 5.7933C30.9509 5.63399 30.6166 5.49116 30.2757 5.36534C30.0016 5.27114 29.7053 5.26194 29.4258 5.33895C29.1463 5.41596 28.8966 5.57559 28.7093 5.79693C28.5221 6.01827 28.406 6.291 28.3764 6.5794C28.3468 6.8678 28.405 7.15843 28.5433 7.41321C29.2534 8.69709 29.9381 10.0047 30.7623 11.2173C31.6183 12.4726 32.8752 13.048 34.4317 12.8134C35.6078 12.7009 36.7855 12.4774 37.96 12.4964C40.7401 12.5455 43.5203 12.693 46.2989 12.8324C47.9394 12.9133 49.3326 12.4806 50.2361 11.0303C50.9446 9.89379 51.5913 8.72086 52.2475 7.55269C52.5867 6.95196 52.5914 6.33539 52.1318 5.78855C51.6721 5.24171 51.0555 5.17197 50.4089 5.41289C49.843 5.6237 49.2898 5.86621 48.7287 6.08653C46.9313 6.79029 45.5745 6.48279 44.2288 5.06894C43.6661 4.47931 43.1193 3.877 42.5407 3.29846C41.2727 2.01775 39.5561 2.03043 38.2849 3.32065C37.6398 3.97844 37.0359 4.67585 36.3829 5.31779C35.2417 6.42732 33.9071 6.74432 32.3933 6.18481C32.0177 6.05166 31.6468 5.92803 31.2775 5.79806V5.7933ZM53.934 78.437C53.8452 77.486 53.7945 76.5873 53.6772 75.7044C53.1779 71.9463 51.9685 68.4608 49.6591 65.4017C49.377 65.0276 49.1392 64.877 48.6241 65.0371C43.3473 66.6954 37.6921 66.7169 32.4029 65.099C31.856 64.9405 31.5454 65.0577 31.222 65.4968C28.3959 69.3357 27.2673 73.7136 27.0391 78.4339L53.934 78.437ZM51.6373 64.0734C53.4474 66.451 54.6092 69.1551 55.4413 72.1856C56.3591 71.7339 57.2134 71.3931 57.9774 70.9176C59.1376 70.1869 59.7653 69.1249 59.7035 67.6889C59.61 65.5174 57.6208 62.8926 55.5032 62.2395C55.3316 62.1904 55.1483 62.2027 54.9848 62.2744C53.8753 62.8561 52.7816 63.4584 51.6373 64.0734ZM12.7659 44.0545C12.6454 41.2172 12.5265 38.4292 12.4092 35.6538C10.4279 35.8456 8.76365 37.7904 8.84608 40.0221C8.92533 42.2142 10.7418 44.0323 12.7659 44.0545ZM68.0392 44.0545C70.2582 44.018 72.0763 42.0383 72.0018 39.6417C71.94 37.6145 70.1299 35.6458 68.5147 35.7077C68.3562 38.4862 68.1993 41.2474 68.0392 44.064V44.0545ZM55.9517 74.5426C56.0754 75.8106 56.2037 77.1246 56.3321 78.4323H61.2774C60.8653 76.4304 60.4707 74.5077 60.0792 72.6041L55.9517 74.5426Z" fill="#030302"/>
<path d="M15.1688 30.3613C14.6679 31.1903 14.1765 32.0272 13.6567 32.8419C13.5414 32.9995 13.3721 33.109 13.1811 33.1494C12.3617 33.2889 11.5343 33.3903 10.5928 33.5219C10.6483 33.067 10.6689 32.5709 10.7751 32.0843C11.7261 27.8047 13.4316 23.8627 16.0643 20.3471C16.6207 19.6037 17.0248 18.9079 16.4257 18.0171L17.5749 16.738C18.5782 17.1152 19.2582 16.6761 19.9873 15.9851C22.0161 14.0672 24.3223 12.5265 26.7918 11.2205C27.5035 10.8432 27.941 10.8591 28.2184 11.6674C28.2703 11.7866 28.334 11.9002 28.4086 12.0066C27.9235 12.3014 27.4211 12.5709 26.9567 12.8958C24.8357 14.3839 22.9282 16.1549 21.287 18.1597C19.2661 20.6086 17.578 23.2889 16.4289 26.264C15.9058 27.5923 15.5793 28.9934 15.1688 30.3613Z" fill="#413D4E"/>
<path d="M34.8105 63.2429C24.9358 60.7533 18.5491 54.6245 15.6506 44.8565C15.0052 42.6877 14.7119 40.4293 14.782 38.1676C14.8549 35.7425 15.63 33.5805 17.2055 31.7451C18.1772 30.6149 19.2582 29.5783 20.2916 28.4989C20.076 29.1599 19.8018 29.8097 19.6576 30.485C19.2344 32.471 18.7066 34.4475 18.5005 36.4637C17.8348 43.0115 19.7685 48.892 23.56 54.159C26.3544 58.036 30.0063 60.9303 34.4016 62.8545C34.5633 62.937 34.6758 63.1192 34.8105 63.2429Z" fill="#FCBC9A"/>
<path d="M40.4184 44.1638C39.2137 44.1178 38.1565 43.7216 37.3244 42.8244C36.8156 42.276 36.8029 41.6135 37.2642 41.1332C37.7254 40.653 38.3499 40.6355 38.957 41.119C40.0665 42.0002 40.7734 41.9986 41.8877 41.119C42.4963 40.6434 43.1082 40.6434 43.5789 41.1411C44.0497 41.6388 44.0227 42.2919 43.5155 42.8355C42.6881 43.7311 41.6278 44.1162 40.4184 44.1638Z" fill="#060505"/>
<path d="M53.2254 44.3603C52.7499 44.3603 52.2744 44.373 51.8084 44.3603C51.0698 44.3334 50.3819 43.7263 50.3993 43.1415C50.4215 42.4377 50.9509 41.9987 51.7957 41.9955C52.8186 41.9955 53.842 41.9955 54.866 41.9955C55.6315 41.9955 56.1562 42.4076 56.2085 43.0194C56.2687 43.72 55.771 44.2874 54.9563 44.3492C54.3825 44.3968 53.8024 44.3587 53.2254 44.3587V44.3603Z" fill="#FE8A9E"/>
<path d="M27.5542 44.3588C27.0296 44.3588 26.5049 44.3826 25.9819 44.3588C25.1672 44.3144 24.5997 43.7723 24.6362 43.1193C24.6758 42.4298 25.2147 42.0018 26.0627 41.9987C27.0856 41.9987 28.1079 41.9987 29.1297 41.9987C29.9096 41.9987 30.4231 42.4536 30.4501 43.1367C30.4723 43.6661 29.8494 44.2827 29.2122 44.362C29.1594 44.3652 29.1065 44.3652 29.0537 44.362L27.5542 44.3588Z" fill="#FE8A9E"/>
<path d="M54.4919 38.1423C54.4919 38.5877 54.5157 39.0346 54.4919 39.4784C54.4475 40.1489 54.0671 40.542 53.395 40.588C52.723 40.6339 52.2364 40.2535 52.1809 39.6132C52.0945 38.6472 52.0945 37.6754 52.1809 36.7094C52.2411 36.0643 52.7563 35.6918 53.4141 35.7489C54.0718 35.8059 54.4634 36.2006 54.4919 36.8853C54.5061 37.3022 54.4919 37.7238 54.4919 38.1423Z" fill="#060504"/>
<path d="M28.7161 38.1676C28.7161 38.6146 28.7509 39.0632 28.7161 39.5054C28.7078 39.6565 28.6698 39.8045 28.6042 39.941C28.5387 40.0774 28.447 40.1996 28.3342 40.3006C28.2215 40.4015 28.09 40.4793 27.9471 40.5294C27.8043 40.5796 27.653 40.6011 27.5019 40.5927C26.8584 40.5753 26.3924 40.1172 26.3718 39.4309C26.3443 38.5929 26.3443 37.7539 26.3718 36.9139C26.3654 36.608 26.48 36.312 26.6908 36.0902C26.9016 35.8685 27.1914 35.739 27.4972 35.7298C27.8024 35.7236 28.0986 35.8341 28.3251 36.0389C28.5517 36.2436 28.6915 36.5271 28.7161 36.8314C28.7509 37.2737 28.7161 37.7238 28.7161 38.1676Z" fill="#050404"/>
<path d="M35.2147 63.3142L34.8501 63.2571L35.2147 63.3142Z" fill="#FCBC9A"/>
<path d="M20.2995 28.51L20.5008 28.3436L20.2995 28.51Z" fill="#FCBC9A"/>
<path d="M15.1688 30.3613C15.5793 28.9934 15.9058 27.5923 16.4178 26.264C17.5669 23.2889 19.255 20.6086 21.2759 18.1597C22.9171 16.1549 24.8246 14.3839 26.9456 12.8958C27.41 12.5709 27.9125 12.3015 28.3975 12.0066C30.1585 14.7646 32.4774 15.6522 35.9232 15.1054C38.9159 14.6284 41.9652 14.6284 44.9579 15.1054C47.0407 15.4335 49.0679 15.4065 50.7037 13.9689C51.6658 13.1257 52.4012 11.9844 53.0939 10.8844C53.7612 9.82563 54.2304 8.64478 54.8137 7.53209C54.869 7.45376 54.9397 7.38752 55.0214 7.33738C55.1032 7.28724 55.1943 7.25426 55.2892 7.24044C57.6984 6.86637 60.1029 6.43683 62.5249 6.16896C65.4714 5.84244 67.505 7.59549 67.7872 10.5104C68.1042 13.7375 67.4274 16.7871 66.0975 19.6925C65.622 20.7307 65.6093 21.5089 66.256 22.5154C68.2912 25.7172 69.5846 29.2375 70.2535 32.9766C70.2696 33.1771 70.2696 33.3785 70.2535 33.579L68.1993 33.1272C67.3941 30.8575 66.7347 28.613 65.8027 26.4891C65.0894 24.866 64.1083 23.3428 63.1082 21.8719C62.108 20.401 60.4928 20.2409 59.0251 21.2696C57.0359 22.6676 54.7867 23.3491 52.3917 23.5203C49.3326 23.7391 46.31 23.3412 43.2984 22.8388C39.2027 22.1556 35.0942 21.5707 30.924 21.8021C26.2862 22.0637 22.1461 23.6234 18.6765 26.7506C17.4354 27.8681 16.3259 29.152 15.1688 30.3613Z" fill="#4E4B5E"/>
<path d="M53.934 78.437H27.0391C27.2673 73.7168 28.3959 69.3389 31.222 65.5C31.539 65.0609 31.856 64.9404 32.4028 65.1021C37.6921 66.7201 43.3473 66.6985 48.6241 65.0403C49.1392 64.8818 49.377 65.0308 49.6591 65.4049C51.9685 68.4608 53.1779 71.9463 53.6772 75.7076C53.7945 76.5873 53.8452 77.4796 53.934 78.437Z" fill="#68A1DD"/>
<path d="M31.2775 5.79805C31.6468 5.92803 32.0209 6.05166 32.387 6.18797C33.9007 6.74432 35.2401 6.43048 36.3765 5.32096C37.0359 4.68694 37.6446 3.9816 38.2786 3.32381C39.5466 2.03043 41.2664 2.02092 42.5344 3.30162C43.1098 3.88016 43.6598 4.48247 44.2225 5.07211C45.5681 6.48596 46.9249 6.79345 48.7224 6.0897C49.2835 5.86938 49.8319 5.62687 50.4025 5.41606C51.0492 5.17513 51.6594 5.24012 52.1254 5.79171C52.5914 6.3433 52.5803 6.95513 52.2411 7.55585C51.5849 8.72402 50.9382 9.89695 50.2297 11.0334C49.3263 12.4837 47.933 12.9164 46.2925 12.8356C43.5139 12.6961 40.7338 12.5487 37.9536 12.4996C36.7791 12.479 35.6015 12.7025 34.4254 12.8166C33.4569 11.2506 32.4805 9.6909 31.5247 8.11854C31.0904 7.3926 30.9621 6.61593 31.2775 5.79805Z" fill="#F6EA7F"/>
<path d="M51.6372 64.0734C52.7785 63.4584 53.8753 62.8561 54.9832 62.2776C55.1467 62.2059 55.33 62.1936 55.5016 62.2427C57.6192 62.8957 59.6084 65.5205 59.7019 67.692C59.7637 69.1281 59.136 70.19 57.9758 70.9207C57.215 71.3963 56.3606 71.7339 55.4397 72.1888C54.6092 69.155 53.4473 66.4541 51.6372 64.0734Z" fill="#F95E7C"/>
<path d="M27.3735 63.1256L29.3342 64.0148C27.5548 66.4576 26.2672 69.223 25.5428 72.1571L23.5203 71.2204L23.3206 71.0967V71.1062C23.3516 70.9497 23.3601 70.7896 23.346 70.6307C23.0147 69.2042 23.2746 67.8775 23.9308 66.5984C24.7107 65.0799 25.9502 64.0148 27.3735 63.1256Z" fill="#FA5E7C"/>
<path d="M12.7659 44.0544C10.7418 44.0322 8.92532 42.2142 8.84607 40.0189C8.76682 37.7872 10.4311 35.8424 12.4092 35.6506C12.5218 38.4292 12.6454 41.2109 12.7659 44.0544Z" fill="#FABA99"/>
<path d="M68.0392 44.0639C68.1977 41.2521 68.3562 38.491 68.5147 35.7172C70.133 35.6553 71.9431 37.6192 72.0018 39.6512C72.0763 42.043 70.2646 44.0227 68.0392 44.0639Z" fill="#F9BA99"/>
<path d="M55.9517 74.5426L60.0728 72.6041C60.4643 74.5061 60.8653 76.4303 61.2711 78.4322H56.3258C56.2069 77.1246 56.0785 75.8042 55.9517 74.5426Z" fill="#E4E4E4"/>
<path d="M27.3735 63.1256C25.947 64.0148 24.7107 65.0799 23.9293 66.6126C23.2731 67.8918 23.0131 69.2216 23.3444 70.645C23.3586 70.8039 23.35 70.964 23.319 71.1205C21.417 70.1219 20.7639 68.3039 21.5517 66.1688C22.238 64.3048 23.6836 63.1573 25.3812 62.2982C25.4865 62.262 25.5979 62.2473 25.709 62.2549C25.8201 62.2626 25.9285 62.2924 26.0279 62.3426C26.4923 62.5613 26.9266 62.8561 27.3735 63.1256Z" fill="#F1375C"/>
<path d="M31.2775 5.79805C30.9605 6.61593 31.0904 7.3926 31.5327 8.11696C32.4837 9.68931 33.4648 11.249 34.4333 12.815C32.8768 13.0496 31.6198 12.4742 30.7639 11.2189C29.9381 10.0095 29.2534 8.70183 28.5449 7.41478C28.4081 7.16035 28.351 6.87064 28.3811 6.58334C28.4112 6.29604 28.527 6.02444 28.7136 5.80387C28.9001 5.5833 29.1487 5.42397 29.4271 5.34661C29.7054 5.26924 30.0005 5.27743 30.2742 5.37009C30.6155 5.49586 30.9504 5.63869 31.2775 5.79805V5.79805Z" fill="#F6B358"/>
<path d="M22.5883 73.5345L25.015 74.4506C24.8819 75.7726 24.7487 77.0913 24.6124 78.4481H21.7942L22.5883 73.5345Z" fill="#E4E4E4"/>
<path d="M22.5883 73.5345L21.7958 78.4481H19.6845C20.0887 76.4367 20.4771 74.5093 20.8923 72.444C21.5913 72.8925 22.0906 73.2127 22.5883 73.5345Z" fill="#C4C2C8"/>
<path d="M23.3206 71.0967L23.5203 71.2203L23.3206 71.0967Z" fill="#F1375C"/>
</svg>
