<svg width="81" height="81" viewBox="0 0 81 81" fill="none" xmlns="http://www.w3.org/2000/svg">
<g clip-path="url(#clip0_28_89)">
<path d="M35.1211 81C35.0531 80.9336 34.9945 80.8418 34.9123 80.8054C32.873 79.9907 31.957 78.4688 32.0504 76.295C32.1706 73.536 32.294 70.7769 32.419 67.9356C30.5949 68.0353 28.8151 67.635 27.3992 66.2175C26.0086 64.8269 25.4928 63.112 25.6463 61.0965C23.9978 61.1771 22.4633 61.0458 21.0584 59.9732C20.3433 61.4477 19.16 62.5662 19.5033 64.4931C20.1029 67.9119 20.4114 71.3844 20.8227 74.8364C20.8589 75.1452 20.831 75.4582 20.7409 75.7558C20.6508 76.0534 20.5003 76.3293 20.2989 76.5662C20.0975 76.8031 19.8494 76.9959 19.5702 77.1327C19.2909 77.2695 18.9865 77.3474 18.6759 77.3613C17.6491 77.4025 16.6192 77.3961 15.5909 77.3613C15.0571 77.3584 14.5431 77.1585 14.1475 76.8C13.7519 76.4415 13.5026 75.9496 13.4473 75.4186C12.9204 71.318 12.3968 67.2142 11.9396 63.1056C11.7909 61.7704 12.2022 60.5 12.8698 59.3293C13.6118 58.0257 14.3364 56.7142 15.1021 55.4265C15.3093 55.0784 15.2919 54.8506 15.072 54.52C14.3411 53.4268 13.6371 52.3146 12.9458 51.1977C11.3637 48.6332 11.3004 45.9991 13.0755 43.5802C14.0389 42.2655 14.1133 41.1803 13.5501 39.7327C12.71 37.5843 12.0946 35.3473 11.3574 33.1578C11.2574 32.9307 11.0764 32.749 10.8496 32.6484C5.94527 30.5285 3.50894 26.7949 3.48996 21.4682C3.47414 17.0654 3.48996 12.6626 3.48996 8.25979C3.48996 5.51496 5.17798 3.8301 7.91964 3.8301C12.5866 3.8301 17.2536 3.8301 21.9206 3.8301C24.6259 3.8301 26.3044 5.50389 26.3108 8.21707C26.3203 12.4348 26.1921 16.6572 26.3424 20.8733C26.5481 26.6256 23.5422 30.7705 18.9812 32.699C19.6472 34.6797 20.2358 36.6968 20.9999 38.6443C22.1421 41.5536 21.851 44.213 19.8845 46.6462C19.4099 47.2379 19.3957 47.6935 19.8608 48.2899C20.3576 48.9227 20.7499 49.6426 21.2103 50.3608C22.4902 49.5002 23.8681 49.3151 25.3236 49.3436C27.3802 49.3815 29.4369 49.353 31.6058 49.353C26.1905 44.7035 27.2695 39.1379 29.1537 33.4172C28.0953 33.2891 27.1856 32.8825 26.556 31.976C25.5087 30.4683 25.765 28.5541 27.2157 27.3881C29.8244 25.2951 32.8066 23.8539 35.8298 22.4838C36.2655 22.2834 36.6274 21.9514 36.8645 21.5346C39.728 15.9152 42.612 10.3022 45.3584 4.62902C46.4342 2.37305 47.7995 0.616992 50.3086 0H52.207C52.2308 0.0427148 52.2513 0.117071 52.2814 0.121817C54.3475 0.468282 55.7144 1.69119 56.6304 3.5216C59.6362 9.51117 62.65 15.4912 65.648 21.484C65.8612 21.9586 66.2537 22.3295 66.7396 22.5155C67.7703 22.9093 68.7721 23.375 69.7375 23.9092C71.6201 25.0056 73.4869 26.1352 75.2904 27.3565C76.4833 28.1649 76.9199 29.4131 76.5656 30.837C76.2112 32.2608 75.2525 33.0676 73.8286 33.3492L73.6087 33.3951C74.0486 35.6337 74.6292 37.7995 74.8744 40.0017C75.4297 44.9155 72.7655 49.0588 68.1349 50.7595C67.5353 50.9794 66.9152 51.1439 66.2112 51.3638C66.5845 51.6217 66.8804 51.8305 67.1794 52.033C71.1028 54.6861 74.5358 57.8296 77.0892 61.8669C77.7458 62.9047 77.8043 63.9236 77.1446 64.974C77.0317 65.1681 76.983 65.3929 77.0054 65.6163C77.4974 69.921 75.4233 73.267 71.3243 74.6719C70.6915 74.8886 70.4526 75.1639 70.5064 75.8347C70.6029 77.0592 70.47 78.2473 69.7154 79.2961C69.0525 80.2121 68.1017 80.6551 67.0829 81.0079L35.1211 81ZM35.477 46.6209H35.5055C34.8537 44.8912 34.2009 43.162 33.547 41.4334C33.4394 40.307 33.2306 39.1806 33.2464 38.0573C33.2685 36.5164 33.46 34.9771 33.5834 33.3761C33.1088 33.3534 32.6333 33.3597 32.1595 33.3951C32.0439 33.4175 31.9346 33.4652 31.8394 33.5346C31.7443 33.6041 31.6656 33.6936 31.609 33.7969C30.5981 36.2807 29.9036 38.8294 30.027 41.5489C30.2263 45.8204 33.0423 48.0257 36.4943 48.8816C36.6648 48.8975 36.8364 48.8975 37.0069 48.8816L35.6353 46.8281L35.477 46.6209ZM9.33398 14.7129H5.91363V17.8358H23.8966V14.6718C22.4728 14.6718 21.0821 14.6718 19.6931 14.6718C16.2411 14.6865 12.7881 14.7002 9.33398 14.7129ZM42.8889 21.9238C43.0202 21.9317 43.1515 21.9491 43.2828 21.9491H62.6611C62.8066 21.9491 62.9522 21.9317 63.2069 21.9143C62.718 20.9334 62.2577 20.057 61.8463 19.1537C61.6502 18.7202 61.3796 18.5984 60.9288 18.6094C59.8498 18.6379 58.7677 18.6221 57.6872 18.6173C56.8962 18.6173 56.3678 18.3009 56.2634 17.453C56.3203 16.7205 56.6699 16.287 57.4436 16.2538C58.3516 16.2158 59.2581 16.162 60.2042 16.113C60.1826 16.0003 60.1513 15.8897 60.1109 15.7823C58.1713 11.9095 56.2634 8.01932 54.2494 4.18606C53.9188 3.55324 53.1135 3.17988 52.5266 2.68629C50.8433 1.98228 49.0778 2.63883 48.2266 4.31104C46.3282 8.03725 44.4403 11.7666 42.563 15.4992C42.4522 15.7191 42.362 15.9516 42.2355 16.2395H45.7365C47.9862 16.2506 50.2358 16.2838 52.4855 16.2633C53.3065 16.2554 53.7685 16.5923 53.9346 17.3707C53.6182 18.4291 53.3635 18.6079 52.1944 18.6142L44.2969 18.6553C43.3287 18.6411 42.362 18.6142 41.3954 18.6221C41.2167 18.6221 40.9509 18.7249 40.8781 18.861C40.3529 19.8418 39.8672 20.8433 39.3293 21.919L42.8889 21.9238ZM9.84498 6.23637C9.08244 6.22371 8.31832 6.17783 7.55578 6.20631C6.67142 6.23795 5.93578 6.80115 5.89781 7.61115C5.82503 9.15205 5.87724 10.6993 5.87724 12.2655H9.49218C14.2383 12.2739 18.9844 12.2797 23.7305 12.2829C23.7748 12.2829 23.8206 12.2354 23.933 12.1721C23.933 10.791 23.9519 9.37195 23.933 7.95445C23.914 6.89291 23.2653 6.21422 22.1927 6.21422C18.07 6.1984 13.9583 6.22371 9.84498 6.23637ZM17.7662 36.681C17.4498 35.6859 17.1334 34.6845 16.7869 33.6973C16.7528 33.6097 16.6987 33.5314 16.6289 33.4685C16.5592 33.4056 16.4757 33.3599 16.3851 33.335C15.583 33.3002 14.7778 33.3176 13.8538 33.3176L15.0847 36.874C15.5514 38.2978 16.007 39.7216 16.4911 41.1455C16.6118 41.4525 16.6535 41.7848 16.6123 42.1121C16.5711 42.4394 16.4484 42.7511 16.2554 43.0186C15.8504 43.6039 15.4501 44.1919 15.0546 44.7826C13.9108 46.4896 13.8712 48.2219 14.966 49.9653C15.7222 51.1692 16.4531 52.3921 17.2742 53.5518C17.9466 54.501 17.9292 55.3474 17.3296 56.3172C16.4974 57.6603 15.7586 59.0572 14.9723 60.4304C14.4156 61.3645 14.1956 62.461 14.349 63.5375C14.6654 65.9106 14.9249 68.2947 15.2144 70.6725C15.39 72.0963 15.5814 73.5328 15.7634 74.9345H18.437C17.9624 71.0221 17.4719 67.1825 17.0401 63.3382C16.9874 62.7957 17.0826 62.249 17.3153 61.7562C17.8453 60.6709 18.5161 59.6552 19.0761 58.5826C19.2105 58.2924 19.2281 57.9615 19.1252 57.6587C18.4307 55.9185 18.4576 54.2289 19.2612 52.5313C19.3131 52.3976 19.3365 52.2546 19.33 52.1113C19.3234 51.968 19.2871 51.8276 19.2233 51.6992C18.6063 50.6582 17.9466 49.6426 17.2742 48.6332C16.7236 47.8121 16.7094 47.0322 17.2948 46.2238C17.7441 45.6052 18.1696 44.9708 18.581 44.3254C19.3024 43.2021 19.5302 41.9792 19.1362 40.6978C18.7202 39.3514 18.2266 38.021 17.7662 36.681ZM9.47795 20.2706H5.78707C5.86459 21.4397 5.85826 22.525 6.01963 23.5833C6.65244 27.7283 10.6328 31.0917 14.7208 30.9857C19.6362 31.2752 24.811 26.7142 23.8365 20.2706H9.47795ZM31.9681 30.9793C32.0205 30.9878 32.0733 30.9931 32.1263 30.9952C45.8003 30.9952 59.4738 30.9894 73.1468 30.9778C73.498 30.9778 74.0454 30.6313 74.1435 30.3307C74.2416 30.0301 74.028 29.391 73.748 29.2043C72.0425 28.0731 70.2896 27.0084 68.5273 25.958C66.4216 24.6923 64.1688 24.2636 61.6818 24.3063C54.0438 24.4329 46.4026 24.3664 38.7613 24.3744C37.4625 24.126 36.3804 24.773 35.341 25.3426C33.1119 26.5639 30.935 27.8849 28.7803 29.2328C28.5019 29.4068 28.282 30.0665 28.3959 30.3623C28.5098 30.6582 29.0572 30.9382 29.4384 30.9778C30.2769 31.0616 31.1249 30.9888 31.9681 30.9793ZM47.7884 52.9696C52.0599 53.9568 56.0514 53.229 59.7327 50.8987C65.6147 47.1746 68.4086 39.7264 66.3077 33.3698H65.4834C58.6079 33.3698 51.7319 33.3698 44.8553 33.3698C42.881 33.3698 40.9002 33.3856 38.9306 33.3951C38.2725 33.3856 37.6128 33.4188 36.961 33.3555C36.3456 33.2938 36.094 33.5027 35.9722 34.1165C35.3283 37.3423 35.4486 40.5158 36.7363 43.5581C38.8341 48.5288 42.4791 51.7403 47.7773 52.9759L47.7884 52.9696ZM35.2793 60.9288C36.0228 61.3638 36.2064 61.9808 35.9944 62.8082C34.8347 67.3455 34.3902 71.965 34.4756 76.6399C34.4994 77.9388 35.1701 78.6238 36.4848 78.6238C46.344 78.6238 56.2053 78.6238 66.0688 78.6238C67.4009 78.6238 68.1697 77.8692 68.1824 76.5165C68.1903 75.7556 68.078 74.993 68.0811 74.2321C68.0594 71.1285 67.7234 68.0351 67.0781 64.9993C66.2175 60.7421 64.838 56.6763 62.5598 52.9458C62.2434 52.4285 62.0346 52.2497 61.4176 52.6721C58.4479 54.7131 54.9307 55.809 51.3272 55.8161C47.7238 55.8231 44.2023 54.741 41.2246 52.7117C40.5918 52.2814 40.2753 52.3542 39.9589 52.9949C39.1679 54.5991 38.3263 56.1795 37.5748 57.8011C37.2252 58.5541 36.7601 58.9354 35.9248 58.8009C35.0483 58.0431 34.955 57.722 35.4296 56.6905C36.0229 55.3996 36.6478 54.1229 37.2679 52.843C37.4261 52.5045 37.627 52.1786 37.8311 51.8036H28.0019C28.0019 55.0373 28.0811 58.2014 27.9751 61.3575C27.8944 63.7843 29.353 65.754 32.2987 65.523C32.7923 65.4834 32.9838 65.3157 33.0724 64.8475C33.2432 63.9473 33.4615 63.0534 33.6767 62.158C33.9267 61.1455 34.2288 60.9193 35.2793 60.9288ZM65.4122 49.0335C65.7745 48.9575 65.9818 48.9259 66.1795 48.8753C69.3958 47.9704 71.7942 46.208 72.3937 42.7054C72.9395 39.5271 72.0599 36.5528 70.8924 33.6435C70.8479 33.573 70.7879 33.5136 70.7168 33.47C70.6458 33.4264 70.5657 33.3997 70.4826 33.3919C69.9463 33.3619 69.4069 33.3793 68.8437 33.3793C70.0713 39.1331 68.9512 44.2795 65.4043 49.0335H65.4122ZM66.2871 54.2811L66.1368 54.4393C67.877 58.0495 68.9497 61.8748 69.7122 65.8932C71.3385 65.2256 72.8652 64.6038 74.3871 63.971C75.3253 63.5818 75.3363 63.4964 74.7557 62.6121C73.2541 60.3845 71.4429 58.3821 69.3768 56.6652C68.3865 55.8267 67.3202 55.0737 66.2871 54.2811ZM25.5988 51.7593C23.7748 51.5473 22.2956 51.9855 21.4175 53.6119C20.7468 54.8522 20.8512 56.1083 21.6833 57.2585C22.6563 58.6048 24.0279 58.8943 25.5988 58.6823V51.7593ZM74.6608 66.4295C73.2243 67.0291 71.8448 67.586 70.4858 68.1935C70.3787 68.2605 70.2892 68.3522 70.2248 68.4609C70.1603 68.5696 70.1229 68.6922 70.1156 68.8184C70.1884 70.0207 70.3213 71.2199 70.432 72.4206C71.7485 72.1136 72.9065 71.3339 73.686 70.2294C74.4655 69.125 74.8124 67.7728 74.6608 66.4295V66.4295Z" fill="#030202"/>
<path d="M35.9279 58.8009C36.7632 58.9354 37.2283 58.5541 37.578 57.8011C38.3294 56.1795 39.1711 54.5991 39.9621 52.9949C40.2785 52.3542 40.5949 52.2814 41.2277 52.7117C44.2054 54.741 47.7269 55.8231 51.3304 55.8161C54.9338 55.809 58.451 54.7131 61.4208 52.6722C62.0378 52.2498 62.2466 52.4285 62.563 52.9458C64.8411 56.6763 66.2206 60.7421 67.0813 64.9993C67.7212 68.0357 68.052 71.1291 68.0685 74.2321C68.0685 74.993 68.1776 75.7556 68.1697 76.5165C68.1555 77.8692 67.3945 78.627 66.0545 78.627C56.1953 78.627 46.334 78.627 36.4706 78.627C35.1559 78.627 34.4851 77.9419 34.4614 76.6431C34.3759 71.9682 34.8205 67.3487 35.9801 62.8114C36.1921 61.984 36.0086 61.367 35.265 60.9319C35.4855 60.22 35.7064 59.5097 35.9279 58.8009Z" fill="#3D4851"/>
<path d="M38.918 33.403C40.8923 33.3935 42.873 33.3777 44.8427 33.3777C51.7182 33.3777 58.5942 33.3777 65.4708 33.3777H66.295C68.3959 39.7343 65.6021 47.1825 59.7201 50.9066C56.045 53.2354 52.0488 53.9631 47.7773 52.9759C47.6736 52.8608 47.5562 52.7588 47.4277 52.6722C45.4558 51.6772 43.7149 50.2791 42.3177 48.5684C38.6585 44.0754 37.5527 39.0192 38.918 33.403ZM51.2404 42.7544C51.7289 42.7727 52.2155 42.6829 52.6654 42.4915C53.1152 42.3 53.5173 42.0117 53.8428 41.647C54.3064 41.1376 54.3064 40.4715 53.8745 40.008C53.7735 39.8942 53.6508 39.8017 53.5135 39.736C53.3763 39.6703 53.2273 39.6327 53.0753 39.6255C52.9233 39.6183 52.7714 39.6416 52.6285 39.6939C52.4857 39.7463 52.3547 39.8267 52.2434 39.9305C51.5647 40.5222 50.9667 40.5063 50.2928 39.9305C50.1804 39.8279 50.0488 39.7487 49.9055 39.6977C49.7622 39.6466 49.6102 39.6246 49.4583 39.633C49.3064 39.6414 49.1577 39.68 49.0209 39.7466C48.8842 39.8131 48.762 39.9063 48.6617 40.0207C48.459 40.2493 48.3515 40.5467 48.3612 40.8521C48.3709 41.1575 48.4971 41.4475 48.7139 41.6628C49.0326 42.0164 49.4238 42.297 49.861 42.4854C50.2981 42.6739 50.7708 42.7656 51.2467 42.7544H51.2404ZM41.5188 42.8683H42.7148C42.7675 42.8715 42.8204 42.8715 42.873 42.8683C43.5438 42.7908 43.9994 42.313 44.001 41.6897C44.005 41.5385 43.9791 41.3881 43.9247 41.247C43.8703 41.1059 43.7886 40.9769 43.6842 40.8675C43.5798 40.7582 43.4548 40.6705 43.3164 40.6096C43.178 40.5487 43.029 40.5157 42.8778 40.5127C41.9887 40.4715 41.0933 40.4715 40.2026 40.5127C40.0502 40.5183 39.9004 40.5542 39.762 40.6182C39.6236 40.6822 39.4993 40.7731 39.3962 40.8855C39.2932 40.998 39.2136 41.1298 39.1619 41.2732C39.1102 41.4167 39.0875 41.569 39.0951 41.7213C39.1474 42.3826 39.5397 42.7829 40.1931 42.8557C40.6364 42.8866 41.0812 42.8924 41.5251 42.8731L41.5188 42.8683ZM61.0664 40.5C60.6187 40.5 60.1678 40.4763 59.7217 40.5C59.0382 40.5443 58.5605 41.0316 58.5462 41.6549C58.5304 42.3067 59.0208 42.8319 59.7501 42.8572C60.5934 42.8857 61.4382 42.8889 62.2814 42.8572C62.9743 42.8303 63.4553 42.3241 63.4489 41.715C63.4489 41.0332 62.9743 40.5475 62.2529 40.5016C61.8574 40.4826 61.4603 40.5 61.0664 40.5ZM62.1738 38.04C62.1938 37.6711 62.1938 37.3014 62.1738 36.9325C62.101 36.2681 61.7087 35.8773 61.0363 35.8552C60.364 35.833 59.9099 36.2143 59.8419 36.8645C59.7652 37.5966 59.7652 38.3346 59.8419 39.0667C59.9115 39.7169 60.3687 40.0934 61.0427 40.0665C61.7166 40.0396 62.101 39.6457 62.1722 38.9797C62.1891 38.6677 62.1896 38.3551 62.1738 38.0431V38.04ZM42.7243 37.9561C42.7243 37.6397 42.7401 37.3233 42.7243 37.0069C42.68 36.3076 42.2307 35.8536 41.5821 35.8504C40.9002 35.8504 40.4573 36.2238 40.3892 36.8692C40.3102 37.6012 40.3102 38.3395 40.3892 39.0714C40.462 39.7169 40.9177 40.0998 41.5948 40.0665C42.2719 40.0333 42.6563 39.6505 42.7133 38.9765C42.7512 38.6443 42.7291 38.301 42.7291 37.9593L42.7243 37.9561Z" fill="#FDDACC"/>
<path d="M38.7598 24.3744C46.401 24.3664 54.0422 24.4329 61.6802 24.3063C64.1672 24.2636 66.4263 24.6971 68.5257 25.958C70.2817 27.0084 72.0346 28.0731 73.7464 29.2043C74.0264 29.391 74.2447 30.0206 74.1419 30.3307C74.0391 30.6408 73.4964 30.9762 73.1452 30.9777C59.4722 31.0062 45.7987 31.012 32.1247 30.9952C32.0717 30.9931 32.0189 30.9878 31.9665 30.9793C31.5473 29.7707 31.9238 28.7914 32.9316 28.0984C34.1355 27.2679 35.3995 26.5275 36.6351 25.7428C37.3502 25.2919 38.0573 24.8379 38.7598 24.3744Z" fill="#3D4850"/>
<path d="M9.47795 20.2706H23.8286C24.8031 26.7205 19.6283 31.2752 14.7129 30.9857C12.3003 29.5033 10.4778 27.5052 9.83707 24.7097C9.50959 23.278 9.58395 21.7529 9.47795 20.2706Z" fill="#EFBB62"/>
<path d="M52.5234 2.68945C53.1104 3.18305 53.9156 3.56115 54.2463 4.18922C56.2602 8.02248 58.1681 11.9127 60.1077 15.7855C60.1482 15.8929 60.1794 16.0035 60.201 16.1162C59.2518 16.1652 58.3485 16.219 57.4404 16.257C56.6668 16.2902 56.3171 16.7237 56.2602 17.4561L53.9314 17.3786C53.7653 16.5876 53.2986 16.2585 52.4823 16.2712C50.2327 16.2918 47.983 16.2585 45.7334 16.2475C45.7768 16.0199 45.8414 15.7969 45.9264 15.5814C47.4578 12.5028 48.9876 9.42258 50.5427 6.3566C51.1771 5.10996 51.8685 3.90604 52.5234 2.68945Z" fill="#3D4750"/>
<path d="M17.7662 36.681C18.2266 38.0209 18.7154 39.3514 19.1378 40.7041C19.5333 41.9855 19.3039 43.2084 18.5825 44.3317C18.1712 44.9756 17.7456 45.61 17.2963 46.2301C16.711 47.0385 16.7252 47.8121 17.2758 48.6395C17.9481 49.6473 18.6079 50.6645 19.2248 51.7055C19.2887 51.834 19.325 51.9743 19.3316 52.1176C19.3381 52.2609 19.3147 52.4039 19.2628 52.5377C18.4591 54.2352 18.4322 55.9264 19.1268 57.665C19.2297 57.9679 19.2121 58.2987 19.0777 58.5889C18.5177 59.6616 17.8469 60.6772 17.3169 61.7625C17.0841 62.2554 16.989 62.802 17.0416 63.3445C17.4735 67.1889 17.9608 71.0285 18.4386 74.9408H15.7649C15.583 73.5391 15.3916 72.1106 15.216 70.6788C14.9265 68.3058 14.6702 65.9169 14.3506 63.5439C14.1964 62.4663 14.4164 61.3685 14.9739 60.4336C15.7649 59.0635 16.499 57.6666 17.3312 56.3203C17.9307 55.3505 17.9481 54.5026 17.2758 53.5549C16.4547 52.3953 15.7238 51.1724 14.9676 49.9685C13.8728 48.2282 13.9124 46.488 15.0562 44.7857C15.4517 44.1961 15.8519 43.6082 16.2569 43.0218C16.4499 42.7542 16.5727 42.4426 16.6139 42.1153C16.655 41.788 16.6134 41.4556 16.4927 41.1486C16.0086 39.7248 15.5529 38.301 15.0862 36.8771L17.7662 36.681Z" fill="#DF956B"/>
<path d="M35.9279 58.8009C35.7064 59.5097 35.4902 60.219 35.2793 60.9288C34.2367 60.9193 33.9346 61.1455 33.6894 62.1612C33.4742 63.0534 33.2559 63.9473 33.085 64.8506C32.9964 65.3252 32.805 65.4834 32.3114 65.5261C29.3657 65.7571 27.907 63.7859 27.9877 61.3606C28.0937 58.1966 28.0146 55.0325 28.0146 51.8068H37.8422C37.6381 52.1817 37.4435 52.5076 37.279 52.8462C36.6588 54.126 36.0339 55.4027 35.4407 56.6937C34.9629 57.722 35.0515 58.0431 35.9279 58.8009Z" fill="#333A41"/>
<path d="M9.84498 6.23637C13.9583 6.22372 18.0715 6.1984 22.1848 6.21106C23.2574 6.21106 23.9061 6.89292 23.9251 7.95129C23.9504 9.37512 23.9251 10.7879 23.9251 12.169C23.8127 12.2323 23.7669 12.2797 23.7226 12.2797C18.9765 12.2797 14.2304 12.2745 9.48428 12.2639C9.48428 11.9475 9.4558 11.6311 9.48428 11.3258C9.60926 9.63141 9.15838 7.89276 9.84498 6.23637Z" fill="#EDBA62"/>
<path d="M53.9378 17.3755L56.2665 17.453C56.3678 18.2946 56.8993 18.6142 57.6904 18.6174C58.7709 18.6174 59.853 18.6379 60.9319 18.6094C61.3828 18.5984 61.6533 18.7202 61.8495 19.1537C62.2561 20.057 62.7212 20.9334 63.2101 21.9143C62.9554 21.9317 62.8098 21.9491 62.6643 21.9491H43.2828C43.1515 21.9491 43.0202 21.9317 42.8889 21.9238C42.9632 21.6528 43.0525 21.3861 43.1562 21.1249C43.528 20.2991 43.9204 19.4811 44.3048 18.6601L52.2023 18.6189C53.3667 18.6126 53.6166 18.4338 53.9378 17.3755Z" fill="#83A2E1"/>
<path d="M38.918 33.403C37.5463 39.0192 38.6522 44.0754 42.3114 48.5731C43.7104 50.2826 45.4529 51.6791 47.4261 52.6722C47.5546 52.7588 47.672 52.8608 47.7757 52.9759C42.4728 51.7403 38.8278 48.5288 36.7237 43.566C35.4359 40.5237 35.3157 37.3502 35.9596 34.1244C36.0814 33.5106 36.3329 33.3018 36.9483 33.3635C37.6065 33.4267 38.2662 33.3935 38.918 33.403Z" fill="#FBC7BA"/>
<path d="M65.4043 49.0335C68.9512 44.2795 70.0713 39.1331 68.8358 33.3714C69.399 33.3714 69.9432 33.354 70.4747 33.384C70.5577 33.3918 70.6379 33.4185 70.7089 33.4621C70.7799 33.5057 70.84 33.5651 70.8845 33.6356C72.052 36.5449 72.9316 39.5192 72.3858 42.6975C71.7862 46.1985 69.3879 47.9609 66.1716 48.8674C65.9707 48.9259 65.7666 48.9575 65.4043 49.0335Z" fill="#81A0DF"/>
<path d="M52.5234 2.68946C51.8621 3.9092 51.1708 5.11313 50.5427 6.35186C48.9876 9.41783 47.4578 12.4981 45.9264 15.5767C45.8414 15.7922 45.7768 16.0152 45.7334 16.2427H42.2402C42.3668 15.9548 42.457 15.7222 42.5677 15.5023C44.4535 11.7719 46.3414 8.04252 48.2314 4.3142C49.0809 2.63883 50.8465 1.98229 52.5234 2.68946Z" fill="#323940"/>
<path d="M9.33398 14.7129C12.7849 14.6981 16.2364 14.6839 19.6884 14.6702C21.0774 14.6702 22.4664 14.6702 23.8918 14.6702V17.8342H9.33715C9.33504 16.7975 9.33398 15.757 9.33398 14.7129Z" fill="#F3E076"/>
<path d="M35.6352 46.8281L37.0195 48.8848C36.849 48.9006 36.6774 48.9006 36.5069 48.8848C33.055 48.0289 30.2389 45.8188 30.0396 41.552C29.913 38.831 30.6076 36.2823 31.6216 33.8001C31.6783 33.6968 31.7569 33.6072 31.8521 33.5378C31.9473 33.4683 32.0565 33.4207 32.1722 33.3983C32.646 33.3629 33.1215 33.3565 33.596 33.3793C33.4726 34.9803 33.2796 36.5196 33.259 38.0605C33.2432 39.1837 33.452 40.3102 33.5596 41.4366C33.5837 42.8314 33.9418 44.2001 34.6038 45.428C34.8379 45.8647 35.2097 46.2285 35.5182 46.624H35.4881L35.6352 46.8281Z" fill="#5B82D6"/>
<path d="M66.2871 54.2811C67.3218 55.0721 68.388 55.8267 69.3831 56.6668C71.4493 58.3837 73.2604 60.3861 74.762 62.6136C75.349 63.498 75.3316 63.5834 74.3934 63.9726C72.8715 64.6054 71.3449 65.2271 69.7185 65.8948C68.956 61.8748 67.8897 58.051 66.1431 54.4409L66.2871 54.2811Z" fill="#323940"/>
<path d="M9.47794 20.2706C9.58394 21.7529 9.50958 23.2764 9.83706 24.7097C10.4699 27.5068 12.3003 29.5033 14.7129 30.9857C10.6328 31.0917 6.64452 27.7283 6.01962 23.5833C5.86142 22.525 5.86142 21.4397 5.78706 20.2706H9.47794Z" fill="#F29C19"/>
<path d="M25.5988 51.7593V58.6807C24.0279 58.8943 22.6563 58.6048 21.6833 57.2569C20.8512 56.1067 20.7468 54.8506 21.4175 53.6103C22.2956 51.9855 23.7748 51.5473 25.5988 51.7593Z" fill="#FCD9CB"/>
<path d="M9.845 6.23637C9.15839 7.89275 9.60927 9.6314 9.48587 11.3289C9.46214 11.6453 9.48587 11.9538 9.48587 12.2671H5.87726C5.87726 10.7009 5.82505 9.15363 5.89783 7.61273C5.9358 6.80273 6.67144 6.23953 7.5558 6.20789C8.31833 6.17783 9.08246 6.22371 9.845 6.23637Z" fill="#E8981D"/>
<path d="M38.7598 24.3744C38.051 24.8316 37.3359 25.2919 36.6304 25.7428C35.3948 26.5338 34.1307 27.2679 32.9268 28.0985C31.9191 28.7914 31.5425 29.7707 31.9618 30.9793C31.1186 30.9888 30.2706 31.0616 29.4305 30.9793C29.0493 30.9398 28.5035 30.6629 28.388 30.3639C28.2725 30.0649 28.494 29.4147 28.7724 29.2344C30.9271 27.8865 33.104 26.5655 35.3331 25.3441C36.3867 24.773 37.4673 24.126 38.7598 24.3744Z" fill="#323940"/>
<path d="M74.6608 66.4295C74.8122 67.7721 74.4655 69.1236 73.6866 70.2276C72.9078 71.3316 71.7508 72.1114 70.4352 72.4191C70.3213 71.2183 70.1884 70.0191 70.1188 68.8168C70.1263 68.6909 70.1639 68.5686 70.2283 68.4602C70.2927 68.3518 70.3821 68.2603 70.489 68.1935C71.8448 67.586 73.2243 67.0291 74.6608 66.4295Z" fill="#F9D7C9"/>
<path d="M44.3048 18.668C43.9203 19.489 43.528 20.3069 43.1562 21.1328C43.0525 21.394 42.9632 21.6607 42.8889 21.9317H39.3372C39.8751 20.8559 40.3608 19.8545 40.886 18.8736C40.9588 18.7376 41.2246 18.6363 41.4033 18.6347C42.37 18.6189 43.3366 18.6458 44.3048 18.668Z" fill="#597CC6"/>
<path d="M9.33397 14.7129C9.33397 15.7539 9.33397 16.7948 9.33397 17.8358H5.91362V14.7129H9.33397Z" fill="#EEBB62"/>
<path d="M17.7662 36.681L15.0862 36.874L13.8554 33.3176C14.7777 33.3176 15.583 33.3002 16.3867 33.335C16.4773 33.3599 16.5608 33.4056 16.6305 33.4685C16.7003 33.5314 16.7544 33.6097 16.7885 33.6973C17.1318 34.6845 17.4435 35.6859 17.7662 36.681Z" fill="#D57A3F"/>
<path d="M35.5087 46.6209C35.2002 46.2254 34.8284 45.8615 34.5943 45.4249C33.9323 44.1969 33.5743 42.8282 33.5501 41.4334C34.204 43.162 34.8569 44.8912 35.5087 46.6209Z" fill="#7693CF"/>
<path d="M35.6353 46.8281L35.4771 46.6288L35.6353 46.8281Z" fill="#7693CF"/>
<path d="M51.2467 42.7544C50.7711 42.7654 50.2987 42.6735 49.8619 42.4851C49.425 42.2967 49.034 42.0162 48.7155 41.6628C48.4987 41.4475 48.3725 41.1575 48.3628 40.8521C48.3531 40.5467 48.4606 40.2492 48.6633 40.0206C48.7636 39.9063 48.8857 39.8131 49.0225 39.7466C49.1593 39.68 49.308 39.6414 49.4599 39.633C49.6118 39.6246 49.7638 39.6466 49.9071 39.6977C50.0504 39.7487 50.182 39.8279 50.2943 39.9305C50.9683 40.5127 51.56 40.5285 52.245 39.9305C52.3563 39.8267 52.4872 39.7463 52.6301 39.6939C52.773 39.6415 52.9249 39.6183 53.0769 39.6255C53.2288 39.6327 53.3779 39.6703 53.5151 39.736C53.6524 39.8017 53.7751 39.8942 53.8761 40.008C54.3079 40.4715 54.308 41.1376 53.8444 41.647C53.5194 42.011 53.1181 42.299 52.6691 42.4904C52.2201 42.6818 51.7345 42.7719 51.2467 42.7544V42.7544Z" fill="#040404"/>
<path d="M41.5252 42.873C41.0797 42.8952 40.6334 42.892 40.1883 42.8635C39.535 42.7908 39.1426 42.3889 39.0904 41.7292C39.0828 41.5769 39.1054 41.4246 39.1571 41.2811C39.2088 41.1377 39.2885 41.0059 39.3915 40.8934C39.4945 40.781 39.6188 40.6901 39.7573 40.6261C39.8957 40.5621 40.0454 40.5262 40.1978 40.5206C41.0885 40.4778 41.9839 40.4778 42.873 40.5206C43.0242 40.5236 43.1733 40.5566 43.3117 40.6175C43.4501 40.6784 43.5751 40.7661 43.6795 40.8754C43.7839 40.9848 43.8656 41.1138 43.92 41.2549C43.9743 41.396 44.0003 41.5464 43.9963 41.6976C43.9963 42.3209 43.5391 42.805 42.8683 42.8762C42.8156 42.8794 42.7628 42.8794 42.7101 42.8762H41.5283L41.5252 42.873Z" fill="#FE899E"/>
<path d="M61.0664 40.5C61.4619 40.5 61.8574 40.4794 62.2529 40.5C62.9775 40.5459 63.4426 41.0316 63.4489 41.7134C63.4489 42.3225 62.9743 42.8208 62.2814 42.8556C61.4382 42.8889 60.5934 42.8857 59.7502 42.8556C59.0272 42.8303 58.5304 42.3051 58.5462 41.6533C58.5605 41.03 59.0382 40.5459 59.7217 40.4984C60.1662 40.4794 60.6171 40.5 61.0664 40.5Z" fill="#FE899E"/>
<path d="M62.1738 38.0431C62.1906 38.3593 62.1906 38.6761 62.1738 38.9923C62.1026 39.6584 61.715 40.0539 61.0443 40.0792C60.3735 40.1045 59.9131 39.7295 59.8435 39.0793C59.7668 38.3473 59.7668 37.6092 59.8435 36.8771C59.9115 36.2269 60.3608 35.8457 61.0379 35.8678C61.715 35.89 62.1026 36.2807 62.1754 36.9452C62.1945 37.3109 62.194 37.6774 62.1738 38.0431V38.0431Z" fill="#030302"/>
<path d="M42.7291 37.9593C42.7291 38.301 42.7512 38.6443 42.7291 38.9844C42.6721 39.6584 42.2798 40.0428 41.6106 40.0744C40.9414 40.1061 40.4779 39.7248 40.4051 39.0793C40.326 38.3474 40.326 37.6091 40.4051 36.8772C40.4731 36.2317 40.9161 35.8552 41.5979 35.8583C42.2466 35.8583 42.6959 36.3155 42.7402 37.0148C42.7591 37.3312 42.7402 37.6476 42.7402 37.964L42.7291 37.9593Z" fill="#040404"/>
</g>
<defs>
<clipPath id="clip0_28_89">
<rect width="81" height="81" fill="white"/>
</clipPath>
</defs>
</svg>
