<svg width="87" height="87" viewBox="0 0 87 87" fill="none" xmlns="http://www.w3.org/2000/svg">
<g clip-path="url(#clip0_28_29)">
<path d="M37.7226 87C37.6496 86.9286 37.5867 86.8301 37.4983 86.791C35.3081 85.9159 34.3242 84.2813 34.4245 81.9465C34.5536 78.9831 34.6861 76.0196 34.8204 72.9678C32.8612 73.0749 30.9496 72.645 29.4288 71.1225C27.9352 69.6289 27.3812 67.7869 27.546 65.6221C25.7754 65.7088 24.1272 65.5678 22.6183 64.4157C21.8502 65.9994 20.5792 67.2007 20.948 69.2703C21.592 72.9424 21.9233 76.6721 22.3651 80.3798C22.404 80.7116 22.3741 81.0477 22.2773 81.3674C22.1805 81.687 22.0189 81.9833 21.8025 82.2377C21.5862 82.4922 21.3197 82.6993 21.0198 82.8463C20.7199 82.9932 20.3929 83.0768 20.0593 83.0918C18.9565 83.136 17.8503 83.1292 16.7458 83.0918C16.1724 83.0886 15.6204 82.8739 15.1955 82.4888C14.7706 82.1038 14.5028 81.5755 14.4434 81.0052C13.8775 76.6008 13.3151 72.193 12.824 67.7801C12.6643 66.346 13.1061 64.9815 13.8231 63.7241C14.6201 62.3239 15.3983 60.9153 16.2207 59.5321C16.4433 59.1583 16.4246 58.9136 16.1885 58.5585C15.4034 57.3843 14.6473 56.1898 13.9047 54.9901C12.2055 52.2357 12.1375 49.4065 14.044 46.8084C15.0789 45.3963 15.1587 44.2307 14.5538 42.6759C13.6515 40.3683 12.9905 37.9656 12.1987 35.6139C12.0913 35.37 11.8968 35.1749 11.6532 35.0668C6.38566 32.7898 3.76886 28.7797 3.74847 23.0584C3.73148 18.3295 3.74847 13.6005 3.74847 8.87162C3.74847 5.92348 5.56154 4.11381 8.50628 4.11381C13.519 4.11381 18.5317 4.11381 23.5444 4.11381C26.45 4.11381 28.2529 5.91158 28.2597 8.82574C28.2699 13.3559 28.1323 17.8911 28.2937 22.4195C28.5146 28.5979 25.2861 33.0498 20.3872 35.1212C21.1026 37.2486 21.7347 39.4151 22.5554 41.5068C23.7823 44.6317 23.4696 47.4881 21.3575 50.1015C20.8477 50.737 20.8324 51.2263 21.332 51.867C21.8655 52.5466 22.2869 53.3198 22.7814 54.0912C24.1561 53.1669 25.6361 52.968 27.1994 52.9986C29.4084 53.0394 31.6174 53.0088 33.947 53.0088C28.1306 48.0148 29.2894 42.037 31.3132 35.8926C30.1764 35.755 29.1994 35.3183 28.5231 34.3446C27.3982 32.7253 27.6735 30.6692 29.2317 29.4169C32.0337 27.1688 35.2367 25.6208 38.4839 24.1493C38.9519 23.9341 39.3405 23.5775 39.5952 23.1298C42.6708 17.0941 45.7684 11.0653 48.7183 4.97191C49.8738 2.54883 51.3402 0.662695 54.0351 0H56.0742C56.0997 0.0458789 56.1218 0.125743 56.1541 0.130841C58.3732 0.502969 59.8414 1.81646 60.8252 3.78246C64.0537 10.2157 67.2907 16.6387 70.5108 23.0754C70.7398 23.5852 71.1613 23.9835 71.6832 24.1833C72.7903 24.6063 73.8663 25.1065 74.9032 25.6803C76.9253 26.8579 78.9304 28.0711 80.8675 29.3829C82.1487 30.2512 82.6177 31.5919 82.2371 33.1212C81.8564 34.6505 80.8267 35.5171 79.2974 35.8195L79.0612 35.8688C79.5336 38.2732 80.1572 40.5994 80.4206 42.9647C81.017 48.2425 78.1555 52.6928 73.1819 54.5194C72.5379 54.7556 71.8718 54.9323 71.1157 55.1685C71.5167 55.4455 71.8345 55.6698 72.1556 55.8873C76.3697 58.7369 80.057 62.1132 82.7995 66.4496C83.5047 67.5643 83.5676 68.6586 82.859 69.7869C82.7377 69.9954 82.6854 70.2368 82.7095 70.4768C83.2379 75.1004 81.0102 78.6942 76.6076 80.2031C75.9279 80.4359 75.6713 80.7316 75.7291 81.452C75.8327 82.7672 75.69 84.0434 74.8795 85.1699C74.1675 86.1538 73.1463 86.6296 72.052 87.0085L37.7226 87ZM38.105 50.0743H38.1356C37.4355 48.2165 36.7343 46.3592 36.0319 44.5025C35.9164 43.2927 35.6921 42.0829 35.7091 40.8764C35.7329 39.2214 35.9385 37.568 36.071 35.8484C35.5613 35.824 35.0506 35.8308 34.5417 35.8688C34.4175 35.8929 34.3001 35.9441 34.1979 36.0187C34.0957 36.0933 34.0112 36.1895 33.9504 36.3004C32.8646 38.9682 32.1186 41.7056 32.2512 44.6266C32.4653 49.2145 35.4899 51.5832 39.1976 52.5025C39.3807 52.5195 39.565 52.5195 39.7481 52.5025L38.2749 50.2969L38.105 50.0743ZM10.0254 15.8027H6.35168V19.157H25.6667V15.7586C24.1374 15.7586 22.6438 15.7586 21.1519 15.7586C17.4442 15.7744 13.7353 15.7891 10.0254 15.8027ZM46.0658 23.5478C46.2068 23.5563 46.3479 23.575 46.4889 23.575H67.3026C67.459 23.575 67.6153 23.5563 67.8889 23.5376C67.3638 22.4841 66.8693 21.5427 66.4275 20.5724C66.2168 20.1069 65.9263 19.976 65.442 19.9879C64.2831 20.0185 63.1209 20.0015 61.9603 19.9964C61.1107 19.9964 60.5432 19.6566 60.431 18.7458C60.4922 17.959 60.8677 17.4935 61.6986 17.4578C62.674 17.417 63.6476 17.3592 64.6638 17.3065C64.6405 17.1855 64.607 17.0667 64.5635 16.9514C62.4803 12.7917 60.431 8.61334 58.2679 4.49613C57.9128 3.81645 57.0479 3.41543 56.4174 2.88527C54.6095 2.12912 52.7131 2.8343 51.799 4.63037C49.7599 8.6326 47.7322 12.6382 45.7158 16.6472C45.5968 16.8834 45.5 17.1332 45.364 17.4425H49.1244C51.5407 17.4544 53.957 17.4901 56.3733 17.468C57.2552 17.4595 57.7513 17.8214 57.9298 18.6574C57.5899 19.7942 57.3163 19.9862 56.0606 19.993L47.5781 20.0372C46.5382 20.0219 45.5 19.993 44.4617 20.0015C44.2697 20.0015 43.9843 20.112 43.9061 20.2581C43.342 21.3116 42.8203 22.3872 42.2426 23.5427L46.0658 23.5478ZM10.5742 6.69832C9.75521 6.68473 8.93449 6.63545 8.11547 6.66603C7.1656 6.70002 6.37546 7.30494 6.33468 8.17494C6.25652 9.82998 6.31259 11.4918 6.31259 13.174H10.1953C15.293 13.1831 20.3906 13.1893 25.4883 13.1927C25.5359 13.1927 25.5851 13.1418 25.7058 13.0738C25.7058 11.5904 25.7262 10.0662 25.7058 8.54367C25.6854 7.4035 24.9887 6.67453 23.8366 6.67453C19.4085 6.65754 14.9922 6.68473 10.5742 6.69832ZM19.0822 39.3981C18.7424 38.3293 18.4025 37.2537 18.0304 36.1934C17.9938 36.0994 17.9357 36.0152 17.8607 35.9476C17.7858 35.8801 17.6961 35.831 17.5988 35.8042C16.7373 35.7669 15.8724 35.7855 14.8801 35.7855L16.202 39.6054C16.7033 41.1347 17.1927 42.664 17.7127 44.1933C17.8423 44.523 17.887 44.88 17.8428 45.2315C17.7986 45.5831 17.6668 45.9178 17.4595 46.2052C17.0245 46.8339 16.5946 47.4654 16.1698 48.0998C14.9412 49.9332 14.8987 51.7939 16.0746 53.6664C16.8868 54.9595 17.6719 56.273 18.5538 57.5186C19.2759 58.5381 19.2572 59.4472 18.6132 60.4888C17.7194 61.9314 16.9259 63.4318 16.0814 64.9068C15.4834 65.91 15.2471 67.0878 15.4119 68.244C15.7518 70.7929 16.0304 73.3536 16.3414 75.9075C16.53 77.4368 16.7356 78.9797 16.931 80.4852H19.8027C19.2929 76.283 18.7662 72.159 18.3023 68.0299C18.2458 67.4472 18.3479 66.8601 18.5979 66.3307C19.1672 65.165 19.8877 64.0741 20.4892 62.9221C20.6335 62.6103 20.6524 62.255 20.5418 61.9297C19.7959 60.0606 19.8248 58.2458 20.688 56.4226C20.7437 56.2789 20.7689 56.1253 20.7618 55.9714C20.7548 55.8175 20.7158 55.6667 20.6472 55.5288C19.9845 54.4107 19.2759 53.3198 18.5538 52.2357C17.9624 51.3538 17.9471 50.5161 18.5759 49.6478C19.0584 48.9834 19.5155 48.302 19.9573 47.6087C20.7322 46.4023 20.9768 45.0888 20.5537 43.7124C20.1069 42.2664 19.5767 40.8373 19.0822 39.3981ZM10.18 21.7721H6.21574C6.299 23.0278 6.2922 24.1935 6.46552 25.3303C7.14521 29.7822 11.4204 33.3947 15.8112 33.2809C21.0907 33.5919 26.6488 28.693 25.6021 21.7721H10.18ZM34.3361 33.2741C34.3924 33.2832 34.4491 33.2889 34.506 33.2911C49.1929 33.2911 63.8793 33.2849 78.5651 33.2724C78.9423 33.2724 79.5302 32.9003 79.6356 32.5774C79.7409 32.2546 79.5115 31.5681 79.2108 31.3676C77.379 30.1526 75.4963 29.0091 73.6033 27.8808C71.3417 26.5214 68.922 26.0609 66.2508 26.1068C58.047 26.2427 49.8398 26.1714 41.6326 26.1799C40.2375 25.9131 39.0752 26.6081 37.9588 27.2198C35.5646 28.5316 33.2265 29.9504 30.9122 31.3982C30.6131 31.5851 30.3769 32.2937 30.4993 32.6114C30.6216 32.9292 31.2095 33.2299 31.6191 33.2724C32.5196 33.3625 33.4304 33.2843 34.3361 33.2741ZM51.3283 56.8932C55.9162 57.9536 60.2033 57.1719 64.1574 54.669C70.4751 50.669 73.4759 42.6691 71.2193 35.8416H70.334C62.9492 35.8416 55.5639 35.8416 48.1779 35.8416C46.0573 35.8416 43.9299 35.8586 41.8144 35.8688C41.1075 35.8586 40.3989 35.8943 39.6988 35.8263C39.0378 35.7601 38.7677 35.9844 38.6368 36.6437C37.9452 40.1084 38.0744 43.517 39.4575 46.7846C41.7107 52.1235 45.6257 55.5729 51.3164 56.9L51.3283 56.8932ZM37.8926 65.442C38.6912 65.9093 38.8883 66.572 38.6606 67.4607C37.4151 72.334 36.9376 77.2958 37.0294 82.317C37.0549 83.712 37.7753 84.4478 39.1874 84.4478C49.7769 84.4478 60.3687 84.4478 70.9628 84.4478C72.3935 84.4478 73.2193 83.6372 73.2329 82.1844C73.2414 81.3671 73.1208 80.5481 73.1242 79.7307C73.1009 76.3973 72.7399 73.0748 72.0469 69.8141C71.1225 65.2415 69.6408 60.8745 67.1939 56.8678C66.854 56.3121 66.6297 56.1201 65.9671 56.5738C62.7773 58.766 58.9996 59.943 55.1292 59.9506C51.2588 59.9582 47.4765 58.7959 44.2782 56.6163C43.5985 56.1541 43.2587 56.2322 42.9189 56.9204C42.0692 58.6434 41.1653 60.341 40.3581 62.0827C39.9826 62.8915 39.483 63.301 38.5858 63.1566C37.6445 62.3426 37.5442 61.9977 38.054 60.8898C38.6912 59.5032 39.3624 58.132 40.0285 56.7573C40.1984 56.3937 40.4142 56.0436 40.6334 55.6409H30.0762C30.0762 59.1141 30.1611 62.5126 30.0473 65.9025C29.9606 68.5091 31.5273 70.6246 34.6912 70.3765C35.2214 70.3341 35.427 70.1539 35.5222 69.651C35.7057 68.6841 35.9402 67.7241 36.1713 66.7623C36.4397 65.6748 36.7643 65.4318 37.8926 65.442ZM70.2576 52.6656C70.6467 52.584 70.8693 52.55 71.0817 52.4957C74.5362 51.5237 77.1122 49.6308 77.7562 45.8687C78.3425 42.455 77.3977 39.2604 76.1437 36.1356C76.0959 36.0599 76.0314 35.9961 75.9551 35.9493C75.8788 35.9024 75.7927 35.8737 75.7036 35.8654C75.1275 35.8331 74.5481 35.8518 73.9432 35.8518C75.2618 42.0319 74.0587 47.5594 70.2491 52.6656H70.2576ZM71.1972 58.3019L71.0358 58.4718C72.905 62.3494 74.057 66.4581 74.8761 70.7742C76.6229 70.0571 78.2626 69.3893 79.8972 68.7096C80.9049 68.2916 80.9168 68.1998 80.2932 67.25C78.6803 64.8575 76.735 62.7067 74.5158 60.8626C73.4521 59.962 72.3068 59.1532 71.1972 58.3019ZM27.4951 55.5933C25.5359 55.3656 23.9471 55.8363 23.004 57.5831C22.2835 58.9153 22.3957 60.2645 23.2895 61.4998C24.3345 62.9459 25.8077 63.2568 27.4951 63.0291V55.5933ZM80.1912 71.3502C78.6483 71.9942 77.1666 72.5923 75.707 73.2448C75.5919 73.3168 75.4958 73.4153 75.4266 73.5321C75.3574 73.6489 75.3172 73.7805 75.3094 73.916C75.3875 75.2074 75.5303 76.4954 75.6492 77.7851C77.0632 77.4554 78.3069 76.6178 79.1442 75.4316C79.9815 74.2454 80.3541 72.793 80.1912 71.3502V71.3502Z" fill="#030202"/>
<path d="M38.5893 63.1566C39.4864 63.301 39.986 62.8915 40.3615 62.0827C41.1687 60.341 42.0727 58.6434 42.9223 56.9204C43.2621 56.2322 43.6019 56.1541 44.2816 56.6163C47.4799 58.7959 51.2622 59.9582 55.1326 59.9506C59.003 59.943 62.7807 58.766 65.9705 56.5738C66.6332 56.1201 66.8575 56.3121 67.1973 56.8678C69.6442 60.8745 71.1259 65.2415 72.0503 69.8141C72.7376 73.0754 73.0929 76.3979 73.1106 79.7307C73.1106 80.5481 73.2278 81.3671 73.2193 82.1844C73.204 83.6372 72.3867 84.4512 70.9475 84.4512C60.3579 84.4512 49.7661 84.4512 39.1721 84.4512C37.76 84.4512 37.0396 83.7154 37.0141 82.3204C36.9223 77.2992 37.3998 72.3374 38.6453 67.4641C38.873 66.5754 38.6759 65.9127 37.8773 65.4454C38.114 64.6808 38.3514 63.9178 38.5893 63.1566Z" fill="#FBFF29"/>
<path d="M41.8008 35.8773C43.9214 35.8671 46.0488 35.8501 48.1644 35.8501C55.5492 35.8501 62.9345 35.8501 70.3205 35.8501H71.2058C73.4623 42.6776 70.4615 50.6775 64.1438 54.6775C60.1965 57.1787 55.9043 57.9604 51.3164 56.9001C51.205 56.7764 51.0789 56.6668 50.9409 56.5738C48.8229 55.5051 46.953 54.0034 45.4524 52.166C41.5221 47.3402 40.3343 41.9095 41.8008 35.8773ZM55.036 45.9214C55.5607 45.941 56.0833 45.8446 56.5665 45.639C57.0497 45.4334 57.4815 45.1237 57.8312 44.7319C58.3291 44.1848 58.3291 43.4694 57.8652 42.9716C57.7567 42.8493 57.6249 42.7499 57.4775 42.6794C57.3301 42.6088 57.17 42.5685 57.0068 42.5607C56.8435 42.553 56.6804 42.578 56.5269 42.6342C56.3735 42.6905 56.2329 42.7769 56.1133 42.8883C55.3843 43.5238 54.742 43.5068 54.0182 42.8883C53.8975 42.7781 53.7561 42.6931 53.6022 42.6382C53.4483 42.5834 53.285 42.5598 53.1219 42.5688C52.9587 42.5778 52.799 42.6193 52.6521 42.6908C52.5052 42.7623 52.374 42.8623 52.2663 42.9851C52.0486 43.2307 51.9331 43.5502 51.9435 43.8782C51.9539 44.2062 52.0895 44.5177 52.3223 44.7489C52.6646 45.1288 53.0849 45.4302 53.5544 45.6325C54.0239 45.8349 54.5316 45.9334 55.0428 45.9214H55.036ZM44.5943 46.0437H45.8789C45.9355 46.0472 45.9922 46.0472 46.0488 46.0437C46.7693 45.9605 47.2587 45.4473 47.2604 44.7778C47.2647 44.6155 47.2368 44.4539 47.1784 44.3023C47.12 44.1508 47.0322 44.0123 46.9201 43.8948C46.808 43.7773 46.6737 43.6831 46.5251 43.6177C46.3764 43.5523 46.2163 43.5169 46.0539 43.5136C45.099 43.4694 44.1372 43.4694 43.1805 43.5136C43.0169 43.5197 42.856 43.5582 42.7073 43.627C42.5587 43.6957 42.4251 43.7933 42.3145 43.9141C42.2038 44.0349 42.1183 44.1764 42.0627 44.3305C42.0072 44.4846 41.9829 44.6482 41.9911 44.8118C42.0472 45.5221 42.4686 45.952 43.1703 46.0302C43.6465 46.0634 44.1242 46.0696 44.6011 46.0488L44.5943 46.0437ZM65.5898 43.5C65.109 43.5 64.6247 43.4745 64.1455 43.5C63.4114 43.5476 62.8983 44.0709 62.883 44.7404C62.866 45.4405 63.3927 46.0047 64.1761 46.0318C65.0818 46.0624 65.9892 46.0658 66.8948 46.0318C67.6391 46.003 68.1557 45.4592 68.1489 44.805C68.1489 44.0726 67.6391 43.551 66.8643 43.5017C66.4394 43.4813 66.0129 43.5 65.5898 43.5ZM66.7793 40.8577C66.8007 40.4615 66.8007 40.0645 66.7793 39.6683C66.7011 38.9546 66.2797 38.5349 65.5576 38.5111C64.8354 38.4873 64.3477 38.8968 64.2746 39.5952C64.1922 40.3815 64.1922 41.1742 64.2746 41.9605C64.3494 42.6589 64.8405 43.0633 65.5644 43.0344C66.2882 43.0055 66.7011 42.5824 66.7776 41.8671C66.7957 41.532 66.7963 41.1962 66.7793 40.8611V40.8577ZM45.8891 40.7677C45.8891 40.4278 45.9061 40.088 45.8891 39.7481C45.8415 38.9971 45.3589 38.5094 44.6623 38.506C43.9299 38.506 43.4541 38.907 43.381 39.6003C43.2961 40.3865 43.2961 41.1795 43.381 41.9656C43.4592 42.6589 43.9486 43.0701 44.6759 43.0344C45.4031 42.9987 45.816 42.5875 45.8772 41.8637C45.918 41.5068 45.8942 41.1381 45.8942 40.7711L45.8891 40.7677Z" fill="#FBFF29"/>
<path d="M41.6309 26.1799C49.8381 26.1714 58.0453 26.2427 66.2491 26.1068C68.9203 26.0609 71.3468 26.5265 73.6017 27.8808C75.4878 29.0091 77.3705 30.1526 79.2091 31.3676C79.5099 31.5681 79.7443 32.2444 79.6339 32.5774C79.5234 32.9105 78.9406 33.2707 78.5634 33.2724C63.8776 33.303 49.1913 33.3092 34.5043 33.2911C34.4474 33.2889 34.3907 33.2832 34.3344 33.2741C33.8841 31.9759 34.2885 30.9241 35.3709 30.1798C36.664 29.2877 38.0217 28.4925 39.3488 27.6497C40.1169 27.1654 40.8764 26.6777 41.6309 26.1799Z" fill="#FBFF29"/>
<path d="M10.18 21.7721H25.5936C26.6404 28.6998 21.0822 33.5919 15.8027 33.2809C13.2114 31.6887 11.2539 29.5426 10.5657 26.5401C10.214 25.0023 10.2939 23.3643 10.18 21.7721Z" fill="#FBFF29"/>
<path d="M56.4141 2.88867C57.0445 3.41883 57.9094 3.82494 58.2645 4.49953C60.4276 8.61674 62.4769 12.7951 64.5601 16.9548C64.6036 17.0701 64.6371 17.1889 64.6604 17.3099C63.6408 17.3626 62.6706 17.4204 61.6952 17.4612C60.8643 17.4969 60.4888 17.9624 60.4276 18.7492L57.9264 18.6659C57.7479 17.8163 57.2467 17.4629 56.3699 17.4765C53.9536 17.4986 51.5373 17.4629 49.121 17.451C49.1676 17.2066 49.237 16.9671 49.3283 16.7356C50.9732 13.4289 52.6163 10.1205 54.2866 6.82746C54.968 5.48848 55.7106 4.19537 56.4141 2.88867Z" fill="#FBFF29"/>
<path d="M19.0822 39.3981C19.5767 40.8373 20.1018 42.2664 20.5554 43.7192C20.9802 45.0956 20.7339 46.4091 19.959 47.6155C19.5172 48.3071 19.0601 48.9885 18.5776 49.6546C17.9488 50.5229 17.9641 51.3538 18.5555 52.2425C19.2776 53.3249 19.9862 54.4175 20.6489 55.5356C20.7175 55.6735 20.7565 55.8243 20.7635 55.9782C20.7706 56.132 20.7454 56.2857 20.6897 56.4293C19.8265 58.2526 19.7976 60.0691 20.5435 61.9365C20.6541 62.2618 20.6352 62.6171 20.4909 62.9289C19.8894 64.0809 19.1689 65.1718 18.5996 66.3375C18.3496 66.8669 18.2475 67.454 18.304 68.0367C18.7679 72.1658 19.2912 76.2898 19.8044 80.492H16.9327C16.7373 78.9865 16.5317 77.4521 16.3431 75.9143C16.0321 73.3655 15.7569 70.7996 15.4136 68.2508C15.248 67.0935 15.4843 65.9143 16.0831 64.9101C16.9327 63.4386 17.7211 61.9382 18.6149 60.4922C19.2589 59.4506 19.2776 58.5398 18.5555 57.5219C17.6736 56.2764 16.8885 54.9629 16.0763 53.6698C14.9004 51.8007 14.9429 49.9315 16.1715 48.1032C16.5963 47.4699 17.0262 46.8384 17.4612 46.2085C17.6685 45.9212 17.8003 45.5864 17.8445 45.2349C17.8887 44.8834 17.844 44.5264 17.7144 44.1967C17.1944 42.6674 16.705 41.1381 16.2037 39.6088L19.0822 39.3981Z" fill="#FBFF29"/>
<path d="M38.5893 63.1566C38.3514 63.9178 38.1191 64.6796 37.8926 65.442C36.7728 65.4318 36.4482 65.6748 36.1849 66.7657C35.9538 67.7241 35.7193 68.6841 35.5358 69.6544C35.4406 70.1641 35.235 70.3341 34.7048 70.3799C31.5409 70.628 29.9742 68.5108 30.0609 65.9059C30.1747 62.5075 30.0898 59.109 30.0898 55.6443H40.6453C40.4261 56.047 40.2171 56.3971 40.0404 56.7607C39.3743 58.1354 38.7031 59.5066 38.0659 60.8932C37.5527 61.9977 37.6479 62.3426 38.5893 63.1566Z" fill="#FBFF29"/>
<path d="M10.5742 6.69832C14.9922 6.68473 19.4102 6.65754 23.8281 6.67113C24.9802 6.67113 25.6769 7.4035 25.6973 8.54027C25.7245 10.0696 25.6973 11.587 25.6973 13.0704C25.5766 13.1384 25.5274 13.1893 25.4798 13.1893C20.3821 13.1893 15.2845 13.1837 10.1868 13.1723C10.1868 12.8325 10.1562 12.4927 10.1868 12.1647C10.321 10.3448 9.83677 8.4774 10.5742 6.69832Z" fill="#FBFF29"/>
<path d="M57.9332 18.6625L60.4344 18.7458C60.5432 19.6498 61.1141 19.993 61.9637 19.9964C63.1243 19.9964 64.2865 20.0185 65.4454 19.9879C65.9297 19.976 66.2203 20.1069 66.431 20.5724C66.8677 21.5427 67.3672 22.4841 67.8923 23.5376C67.6187 23.5563 67.4624 23.575 67.3061 23.575H46.4889C46.3479 23.575 46.2069 23.5563 46.0658 23.5478C46.1457 23.2567 46.2415 22.9702 46.353 22.6897C46.7523 21.8027 47.1737 20.9242 47.5866 20.0423L56.0691 19.9981C57.3197 19.9913 57.5882 19.7993 57.9332 18.6625Z" fill="#FBFF29"/>
<path d="M41.8008 35.8773C40.3276 41.9095 41.5153 47.3402 45.4456 52.1711C46.9482 54.0072 48.8198 55.5072 50.9392 56.5738C51.0772 56.6668 51.2033 56.7764 51.3147 56.9C45.6189 55.5729 41.7039 52.1235 39.444 46.7931C38.0608 43.5255 37.9317 40.1169 38.6232 36.6522C38.7541 35.9929 39.0243 35.7686 39.6852 35.8348C40.3921 35.9028 41.1007 35.8671 41.8008 35.8773Z" fill="#FBFF29"/>
<path d="M70.2491 52.6656C74.0588 47.5594 75.2618 42.0319 73.9347 35.8433C74.5396 35.8433 75.1242 35.8246 75.6951 35.8569C75.7843 35.8652 75.8703 35.8939 75.9466 35.9408C76.0229 35.9876 76.0874 36.0514 76.1352 36.1271C77.3892 39.252 78.334 42.4465 77.7478 45.8602C77.1038 49.6206 74.5277 51.5135 71.0732 52.4872C70.8574 52.55 70.6382 52.584 70.2491 52.6656Z" fill="#FBFF29"/>
<path d="M56.4141 2.88867C55.7038 4.19877 54.9612 5.49188 54.2866 6.82236C52.6163 10.1154 50.9732 13.4238 49.3283 16.7305C49.237 16.962 49.1676 17.2015 49.121 17.4459H45.3691C45.5051 17.1366 45.6019 16.8868 45.7209 16.6506C47.7463 12.6439 49.7741 8.63826 51.8041 4.63377C52.7166 2.8343 54.6129 2.12912 56.4141 2.88867Z" fill="#FBFF29"/>
<path d="M10.0254 15.8027C13.732 15.7869 17.4391 15.7716 21.1468 15.7569C22.6387 15.7569 24.1306 15.7569 25.6616 15.7569V19.1553H10.0288C10.0265 18.0417 10.0254 16.9242 10.0254 15.8027Z" fill="#FBFF29"/>
<path d="M38.2749 50.2969L39.7617 52.5059C39.5786 52.5229 39.3943 52.5229 39.2112 52.5059C35.5035 51.5866 32.4789 49.2128 32.2648 44.63C32.1288 41.7073 32.8748 38.9699 33.964 36.3038C34.0248 36.1929 34.1093 36.0967 34.2115 36.0221C34.3137 35.9475 34.4311 35.8963 34.5553 35.8722C35.0642 35.8342 35.5749 35.8274 36.0846 35.8518C35.9521 37.5714 35.7448 39.2248 35.7227 40.8798C35.7057 42.0862 35.93 43.2961 36.0455 44.5059C36.0714 46.0041 36.456 47.4742 37.167 48.7931C37.4185 49.262 37.8178 49.6529 38.1492 50.0777H38.1169L38.2749 50.2969Z" fill="#FBFF29"/>
<path d="M71.1973 58.3019C72.3086 59.1515 73.4538 59.962 74.5226 60.8643C76.7418 62.7084 78.6871 64.8592 80.3 67.2517C80.9304 68.2016 80.9117 68.2933 79.9041 68.7113C78.2694 69.391 76.6297 70.0588 74.8829 70.7759C74.0638 66.4582 72.9186 62.3511 71.0426 58.4735L71.1973 58.3019Z" fill="#FBFF29"/>
<path d="M10.18 21.7721C10.2939 23.3643 10.214 25.0006 10.5657 26.5401C11.2454 29.5443 13.2114 31.6887 15.8027 33.2809C11.4205 33.3947 7.13672 29.7822 6.46553 25.3303C6.29561 24.1935 6.29561 23.0278 6.21574 21.7721H10.18Z" fill="#FBFF29"/>
<path d="M27.4951 55.5933V63.0274C25.8077 63.2568 24.3345 62.9458 23.2895 61.4981C22.3957 60.2628 22.2836 58.9136 23.004 57.5814C23.9471 55.8363 25.5359 55.3656 27.4951 55.5933Z" fill="#FBFF29"/>
<path d="M10.5742 6.69832C9.83677 8.4774 10.3211 10.3448 10.1885 12.1681C10.163 12.5079 10.1885 12.8393 10.1885 13.1757H6.31259C6.31259 11.4935 6.25652 9.83167 6.33468 8.17664C6.37546 7.30664 7.1656 6.70172 8.11547 6.66773C8.93449 6.63545 9.75521 6.68472 10.5742 6.69832Z" fill="#FBFF29"/>
<path d="M41.6309 26.1799C40.8696 26.6709 40.1016 27.1654 39.3437 27.6497C38.0166 28.4993 36.659 29.2877 35.3658 30.1798C34.2834 30.9241 33.879 31.9759 34.3293 33.2741C33.4236 33.2843 32.5129 33.3625 31.6106 33.2741C31.2011 33.2316 30.6148 32.9343 30.4908 32.6131C30.3667 32.292 30.6046 31.5936 30.9037 31.3999C33.218 29.9521 35.5562 28.5333 37.9504 27.2215C39.082 26.6081 40.2426 25.9131 41.6309 26.1799Z" fill="#FBFF29"/>
<path d="M80.1912 71.3502C80.3538 72.7923 79.9815 74.2438 79.1449 75.4296C78.3083 76.6154 77.0657 77.453 75.6526 77.7834C75.5303 76.4937 75.3875 75.2057 75.3128 73.9143C75.3209 73.7791 75.3612 73.6478 75.4304 73.5313C75.4995 73.4149 75.5955 73.3166 75.7104 73.2448C77.1666 72.5923 78.6483 71.9942 80.1912 71.3502Z" fill="#FBFF29"/>
<path d="M47.5866 20.0508C47.1737 20.9327 46.7523 21.8112 46.353 22.6982C46.2415 22.9787 46.1457 23.2652 46.0658 23.5563H42.2511C42.8288 22.4008 43.3505 21.3252 43.9146 20.2717C43.9928 20.1255 44.2782 20.0168 44.4702 20.0151C45.5085 19.9981 46.5467 20.027 47.5866 20.0508Z" fill="#FBFF29"/>
<path d="M10.0254 15.8027C10.0254 16.9208 10.0254 18.0389 10.0254 19.157H6.35168V15.8027H10.0254Z" fill="#FBFF29"/>
<path d="M19.0822 39.3981L16.2038 39.6054L14.8818 35.7856C15.8724 35.7856 16.7373 35.7669 17.6005 35.8042C17.6978 35.831 17.7875 35.8801 17.8624 35.9477C17.9374 36.0152 17.9955 36.0994 18.0321 36.1934C18.4008 37.2537 18.7356 38.3293 19.0822 39.3981Z" fill="#FBFF29"/>
<path d="M38.139 50.0743C37.8076 49.6495 37.4083 49.2586 37.1568 48.7897C36.4458 47.4708 36.0613 46.0007 36.0353 44.5025C36.7377 46.3592 37.4389 48.2165 38.139 50.0743Z" fill="#FBFF29"/>
<path d="M38.2749 50.2969L38.105 50.0828L38.2749 50.2969Z" fill="#FBFF29"/>
<path d="M55.0428 45.9214C54.5319 45.9332 54.0246 45.8345 53.5553 45.6322C53.0861 45.4298 52.6661 45.1285 52.324 44.7489C52.0912 44.5177 51.9557 44.2062 51.9452 43.8782C51.9348 43.5502 52.0503 43.2307 52.268 42.9851C52.3757 42.8623 52.5069 42.7623 52.6538 42.6908C52.8007 42.6193 52.9604 42.5778 53.1236 42.5688C53.2867 42.5598 53.45 42.5834 53.6039 42.6382C53.7578 42.6931 53.8992 42.7781 54.0199 42.8883C54.7437 43.5136 55.3792 43.5306 56.115 42.8883C56.2346 42.7769 56.3752 42.6905 56.5286 42.6342C56.6821 42.578 56.8452 42.553 57.0085 42.5607C57.1717 42.5685 57.3318 42.6088 57.4792 42.6794C57.6266 42.7499 57.7584 42.8493 57.8669 42.9716C58.3308 43.4694 58.3308 44.1848 57.8329 44.7319C57.4838 45.123 57.0528 45.4323 56.5705 45.6379C56.0883 45.8435 55.5667 45.9403 55.0428 45.9214V45.9214Z" fill="#040404"/>
<path d="M44.6011 46.0488C44.1227 46.0726 43.6433 46.0692 43.1653 46.0386C42.4635 45.9605 42.0421 45.5289 41.986 44.8203C41.9778 44.6567 42.0021 44.4931 42.0577 44.339C42.1132 44.1849 42.1987 44.0434 42.3094 43.9226C42.42 43.8018 42.5536 43.7042 42.7022 43.6355C42.8509 43.5667 43.0118 43.5282 43.1754 43.5221C44.1321 43.4762 45.0939 43.4762 46.0488 43.5221C46.2112 43.5254 46.3713 43.5608 46.52 43.6262C46.6686 43.6916 46.8029 43.7858 46.915 43.9033C47.0271 44.0208 47.1149 44.1593 47.1733 44.3108C47.2317 44.4624 47.2596 44.624 47.2553 44.7863C47.2553 45.4558 46.7642 45.9758 46.0437 46.0522C45.9871 46.0557 45.9304 46.0557 45.8738 46.0522H44.6045L44.6011 46.0488Z" fill="#FBFF29"/>
<path d="M65.5898 43.5C66.0147 43.5 66.4395 43.4779 66.8643 43.5C67.6425 43.5493 68.1421 44.0709 68.1489 44.8033C68.1489 45.4575 67.6391 45.9928 66.8948 46.0301C65.9892 46.0658 65.0818 46.0624 64.1761 46.0301C63.3996 46.0029 62.866 45.4388 62.883 44.7387C62.8983 44.0692 63.4114 43.5493 64.1455 43.4983C64.623 43.4779 65.1073 43.5 65.5898 43.5Z" fill="#FBFF29"/>
<path d="M66.7793 40.8611C66.7973 41.2007 66.7973 41.541 66.7793 41.8807C66.7028 42.596 66.2865 43.0208 65.5661 43.048C64.8456 43.0752 64.3511 42.6725 64.2763 41.9741C64.1939 41.1878 64.1939 40.3951 64.2763 39.6088C64.3494 38.9104 64.832 38.5009 65.5593 38.5247C66.2865 38.5485 66.7028 38.9682 66.781 39.6819C66.8015 40.0747 66.8009 40.4683 66.7793 40.8611V40.8611Z" fill="#030302"/>
<path d="M45.8942 40.7711C45.8942 41.1381 45.918 41.5068 45.8942 41.8721C45.833 42.596 45.4116 43.0089 44.6929 43.0429C43.9741 43.0769 43.4762 42.6674 43.3981 41.9741C43.3131 41.1879 43.3131 40.3949 43.3981 39.6088C43.4711 38.9155 43.9469 38.5111 44.6793 38.5145C45.3759 38.5145 45.8585 39.0056 45.9061 39.7566C45.9265 40.0965 45.9061 40.4363 45.9061 40.7761L45.8942 40.7711Z" fill="#040404"/>
</g>
<defs>
<clipPath id="clip0_28_29">
<rect width="87" height="87" fill="white"/>
</clipPath>
</defs>
</svg>
