<svg width="88" height="88" viewBox="0 0 88 88" fill="none" xmlns="http://www.w3.org/2000/svg">
<path d="M44 88C68.3005 88 88 68.3005 88 44C88 19.6995 68.3005 0 44 0C19.6995 0 0 19.6995 0 44C0 68.3005 19.6995 88 44 88Z" fill="#FFA81D"/>
<path d="M44 72.8129C26.1161 72.8129 10.3613 64.0129 0.425781 50.529C3.6903 71.8193 22 88 44 88C66 88 84.3097 71.8193 87.5742 50.6709C77.6387 64.1548 61.8838 72.8129 44 72.8129Z" fill="#FFB533"/>
<path d="M0 44C0 19.729 19.729 0 44 0Z" fill="#FFC022"/>
<path d="M44 0C68.271 0 88 19.729 88 44C88 68.271 68.271 88 44 88" fill="#FF8C1A"/>
<path d="M46.8386 87.858C47.2645 87.858 47.8322 87.858 48.258 87.7161C48.5419 87.7161 48.8257 87.7161 49.1096 87.5741C49.5354 87.5741 49.9612 87.4322 50.387 87.4322C50.6709 87.4322 50.9548 87.2903 51.2386 87.2903C51.6645 87.2903 52.0903 87.1483 52.5161 87.0064C52.7999 87.0064 53.0838 86.8645 53.3677 86.8645C53.7935 86.7225 54.2193 86.7225 54.5032 86.5806C54.787 86.4387 55.0709 86.4387 55.3548 86.2967C55.7806 86.1548 56.0645 86.0128 56.4903 86.0128C56.7741 85.8709 57.058 85.8709 57.3419 85.729C57.7677 85.587 58.0516 85.4451 58.4774 85.3032C58.7612 85.1612 59.0451 85.1612 59.329 85.0193C59.7548 84.8774 60.0386 84.7354 60.4645 84.5935C60.7483 84.4516 61.0322 84.4516 61.1741 84.3096C61.5999 84.1677 62.0257 83.8838 62.4516 83.7419C62.5935 83.5999 62.8774 83.5999 63.0193 83.458C63.587 83.1741 64.1548 82.8903 64.8645 82.4645C65.0064 82.3225 65.1483 82.3225 65.2903 82.1806C65.7161 81.8967 66.1419 81.6128 66.7096 81.329C66.9935 81.187 67.1354 81.0451 67.4193 80.9032C67.7032 80.6193 68.129 80.4774 68.4128 80.1935C68.6967 80.0516 68.8386 79.9096 69.1225 79.6258C69.4064 79.3419 69.6903 79.1999 70.1161 78.9161C70.3999 78.7741 70.5419 78.4903 70.8257 78.3483C71.1096 78.0645 71.3935 77.9225 71.6774 77.6387C71.9612 77.4967 72.1032 77.2128 72.387 77.0709C72.6709 76.787 72.9548 76.6451 73.2386 76.3612C73.5225 76.2193 73.6645 75.9354 73.9483 75.7935C74.2322 75.5096 74.5161 75.3677 74.7999 75.0838C75.0838 74.7999 75.2257 74.658 75.5096 74.3741C75.7935 74.0903 76.0774 73.8064 76.2193 73.5225C76.5032 73.2387 76.6451 73.0967 76.787 72.8129C77.0709 72.529 77.2128 72.2451 77.4967 71.9612C77.6386 71.6774 77.9225 71.5354 78.0645 71.2516C78.3483 70.9677 78.6322 70.6838 78.7741 70.258C78.9161 69.9741 79.058 69.8322 79.1999 69.6903C79.6257 69.1225 79.9096 68.6967 80.3354 68.129C80.4774 67.8451 80.6193 67.7032 80.7612 67.4193C81.0451 67.1354 81.187 66.7096 81.4709 66.4258C81.6128 66.1419 81.7548 65.858 81.8967 65.5741C82.0386 65.2903 82.3225 65.0064 82.4645 64.5806C82.6064 64.2967 82.7483 64.0129 82.8903 63.729C83.0322 63.4451 83.1741 63.1612 83.3161 62.7354C83.458 62.4516 83.5999 62.1677 83.7419 61.8838C83.8838 61.5999 84.0257 61.3161 84.1677 60.8903C84.3096 60.6064 84.4515 60.3225 84.5935 59.8967C84.7354 59.6129 84.8774 59.187 85.0193 58.9032C85.1612 58.6193 85.3032 58.3354 85.3032 57.9096C85.4451 57.6258 85.587 57.1999 85.587 56.9161C85.729 56.6322 85.729 56.2064 85.8709 55.9225C86.0128 55.6387 86.0128 55.2129 86.1548 54.929C86.2967 54.6451 86.2967 54.2193 86.4387 53.9354C86.5806 53.6516 86.5806 53.2258 86.7225 52.8C86.8645 52.5161 86.8645 52.2322 86.8645 51.8064C87.0064 51.3806 87.0064 50.9548 87.1483 50.6709C87.1483 50.3871 87.2903 50.1032 87.2903 49.8193C77.3548 63.3032 61.5999 72.1032 43.7161 72.1032V87.9999C44.4257 87.9999 45.1354 87.9999 45.8451 87.9999C46.4128 87.9999 46.6967 87.858 46.8386 87.858Z" fill="#FFA31D"/>
<path d="M88 44C88 19.729 68.271 0 44 0Z" fill="#F47B0F"/>
<path d="M58.6194 26.6839C58.4775 26.1161 58.0517 25.8322 57.4839 25.6903L48.9678 24.4129L45.1355 16.7484C44.8517 16.3226 44.4259 16.0387 43.8581 16.0387C43.2904 16.0387 42.8646 16.3226 42.5807 16.7484L38.7484 24.4129L30.2323 25.6903C29.6646 25.8322 29.2388 26.1161 29.0968 26.6839C28.9549 27.2516 29.0968 27.6774 29.3807 28.1032L35.4839 34.0645L34.0646 42.5806C33.9226 43.1484 34.2065 43.5742 34.6323 43.858C35.0581 44.1419 35.6259 44.1419 36.0517 44L43.5742 40.0258L51.0968 44C51.2388 44.1419 51.5226 44.1419 51.8065 44.1419C52.0904 44.1419 52.3742 44 52.6581 43.858C53.0839 43.5742 53.2259 43.0064 53.2259 42.5806L51.8065 34.0645L57.9097 28.1032C58.6194 27.6774 58.7613 27.1097 58.6194 26.6839Z" fill="#F47B0F"/>
<path d="M58.6194 24.4129C58.4775 23.8452 58.0517 23.5613 57.4839 23.4194L48.9678 22.142L45.1355 14.4774C44.8517 14.0516 44.4259 13.7678 43.8581 13.7678C43.2904 13.7678 42.8646 14.0516 42.5807 14.4774L38.7484 22.142L30.2323 23.4194C29.6646 23.5613 29.2388 23.8452 29.0968 24.4129C28.9549 24.9807 29.0968 25.4065 29.3807 25.8323L35.4839 31.7936L34.0646 40.3097C33.9226 40.8774 34.2065 41.3032 34.6323 41.5871C35.0581 41.871 35.6259 41.871 36.0517 41.729L43.5742 37.7549L51.0968 41.729C51.2388 41.871 51.5226 41.871 51.8065 41.871C52.0904 41.871 52.3742 41.729 52.6581 41.5871C53.0839 41.3032 53.2259 40.7355 53.2259 40.3097L51.8065 31.7936L57.9097 25.8323C58.6194 25.4065 58.7613 24.8387 58.6194 24.4129Z" fill="#D31160"/>
<path d="M51.5227 41.729C51.6646 41.871 51.9485 41.871 52.2323 41.871C52.5162 41.871 52.8001 41.729 53.084 41.5871C53.5098 41.3032 53.6517 40.7355 53.6517 40.3097L52.2323 31.7936L58.3356 25.8323C58.7614 25.4065 58.9033 24.9807 58.6194 24.4129C58.3356 23.8452 58.0517 23.5613 57.484 23.4194L48.9678 22.142L45.1356 14.4774C44.8517 14.0516 44.4259 13.7678 43.8582 13.7678V37.7549L51.5227 41.729Z" fill="#AD055A"/>
</svg>
