<svg width="87" height="87" viewBox="0 0 87 87" fill="none" xmlns="http://www.w3.org/2000/svg">
<path d="M43.5001 87C61.0578 87 75.2912 72.7666 75.2912 55.2088C75.2912 37.651 61.0578 23.4176 43.5001 23.4176C25.9423 23.4176 11.7089 37.651 11.7089 55.2088C11.7089 72.7666 25.9423 87 43.5001 87Z" fill="#343A3A"/>
<path d="M17.5278 53.3637C16.8181 42.5775 25.0498 33.3523 35.6942 32.7846Z" fill="#777777"/>
<path d="M65.9242 32.6427C78.4136 45.1321 78.4136 65.1435 65.9242 77.6329C53.4348 90.1223 33.4234 90.1223 20.934 77.6329" fill="#1E2323"/>
<path d="M59.1118 26.3981C59.1118 29.5204 56.5572 32.0751 53.4348 32.0751H33.5653C30.443 32.0751 27.8883 29.5204 27.8883 26.3981C27.8883 23.2757 30.443 20.7211 33.5653 20.7211H53.4348C56.5572 20.7211 59.1118 23.2757 59.1118 26.3981Z" fill="#343A3A"/>
<path d="M59.1118 26.3981C59.1118 29.6623 56.6991 32.0751 53.4348 32.0751H33.5653C30.301 32.0751 27.8883 29.6623 27.8883 26.3981" fill="#1E2323"/>
<path d="M44.9192 19.3018H40.6614V8.79935C40.6614 6.2447 38.6745 4.39967 36.2617 4.39967C33.7071 4.39967 31.8621 6.38662 31.8621 9.22512H27.4624C27.4624 3.54812 31.2944 0 36.2617 0C41.2291 0 45.0611 3.69005 45.0611 8.65742V19.3018H44.9192Z" fill="#E88813"/>
<path d="M36.1199 0.141937C41.0873 0.141937 44.9192 3.83199 44.9192 8.79936V19.3018H40.6615V8.79936C40.6615 6.24471 38.6745 4.39969 36.2618 4.39969" fill="#BC5E00"/>
<path d="M29.5913 15.0441C31.5509 15.0441 33.1395 13.4555 33.1395 11.4959C33.1395 9.53637 31.5509 7.94781 29.5913 7.94781C27.6318 7.94781 26.0432 9.53637 26.0432 11.4959C26.0432 13.4555 27.6318 15.0441 29.5913 15.0441Z" fill="#E88813"/>
<path d="M32.004 9.08319C33.4232 10.5024 33.4232 12.6313 32.004 14.0506C30.5847 15.4698 28.4559 15.4698 27.0366 14.0506" fill="#BC5E00"/>
<path d="M23.7724 12.9152C23.7724 13.3409 23.4886 13.7667 23.0628 13.7667L15.5408 15.044C15.115 15.044 14.6892 14.7602 14.6892 14.3344C14.6892 13.9086 14.9731 13.4829 15.3988 13.4829L22.9209 12.3475C23.3466 12.2055 23.7724 12.4894 23.7724 12.9152Z" fill="#CEE0C7"/>
<path d="M24.9079 7.94777C24.624 8.23162 24.1982 8.37355 23.7725 8.0897L17.6697 3.69002C17.3858 3.40617 17.2439 2.9804 17.5278 2.55463C17.8116 2.12885 18.2374 2.12885 18.6632 2.4127L24.7659 6.9543C25.0498 7.09622 25.1917 7.66392 24.9079 7.94777Z" fill="#CEE0C7"/>
<path d="M26.327 17.3148C26.0431 17.031 25.4754 17.1729 25.1916 17.4567L20.65 23.5595C20.3661 23.8434 20.508 24.4111 20.7919 24.6949C21.0757 24.9788 21.6434 24.8368 21.9273 24.553L26.4689 18.4502C26.7527 18.1664 26.6108 17.5987 26.327 17.3148Z" fill="#CEE0C7"/>
</svg>
