<svg width="88" height="88" viewBox="0 0 88 88" fill="none" xmlns="http://www.w3.org/2000/svg">
<path d="M28.3871 52.0903C28.3871 53.0839 27.5355 53.9355 26.5419 53.9355H1.84516C0.851613 53.9355 0 53.0839 0 52.0903V6.10322C0 5.10967 0.851613 4.25806 1.84516 4.25806H26.5419C27.5355 4.25806 28.3871 5.10967 28.3871 6.10322V52.0903Z" fill="#870600"/>
<path d="M25.5483 48.6839C25.5483 49.3935 24.2709 49.6774 23.5612 49.6774H4.39991C3.69024 49.6774 2.83862 49.5355 2.83862 48.6839V9.93547C2.83862 9.22579 3.69024 8.51611 4.39991 8.51611H23.5612C24.2709 8.51611 25.5483 9.22579 25.5483 9.93547V48.6839Z" fill="#C43D27"/>
<path d="M2.83862 9.93547C2.83862 9.22579 3.69024 8.51611 4.39991 8.51611H23.5612C24.2709 8.51611 25.5483 9.22579 25.5483 9.93547V48.6839C25.5483 49.3935 24.5548 50.1032 23.8451 50.1032" fill="#AA241A"/>
<path d="M8.94202 20.7225C11.071 20.7225 12.7743 21.858 13.484 23.5612C13.484 23.7032 13.7678 23.8451 13.9098 23.8451C14.0517 23.8451 14.3356 23.8451 14.3356 23.5612C15.0452 21.858 16.7485 20.7225 18.8775 20.7225C21.5743 20.7225 23.7033 22.5677 23.7033 24.9806C23.7033 25.8322 23.4194 26.6838 22.8517 27.3935L13.9098 37.8967L4.96782 27.3935C4.40008 26.6838 4.11621 25.8322 4.11621 24.9806C4.11621 22.7096 6.38718 20.7225 8.94202 20.7225Z" fill="#EAE9DA"/>
<path d="M13.9097 23.8451C14.0516 23.8451 14.3355 23.8451 14.3355 23.5612C15.0452 21.858 16.7484 20.7225 18.8774 20.7225C21.5742 20.7225 23.7032 22.5677 23.7032 24.9806C23.7032 25.8322 23.4194 26.6838 22.8516 27.3935L13.9097 37.8967V23.8451Z" fill="#C9C6B1"/>
<path d="M48.2579 81.8968C48.2579 82.8903 47.4063 83.7419 46.4128 83.7419H21.716C20.7225 83.7419 19.8708 82.8903 19.8708 81.8968V35.9097C19.8708 34.9161 20.7225 34.0645 21.716 34.0645H46.4128C47.4063 34.0645 48.2579 34.9161 48.2579 35.9097V81.8968Z" fill="#1A1E1E"/>
<path d="M45.4194 78.0645C45.4194 78.7742 44.142 79.4839 43.4323 79.4839H24.271C23.5613 79.4839 22.7097 78.7742 22.7097 78.0645V39.3161C22.7097 38.6065 23.5613 38.3226 24.271 38.3226H43.4323C44.142 38.3226 45.4194 38.4645 45.4194 39.3161V78.0645Z" fill="#4A514F"/>
<path d="M22.8516 39.4581C22.8516 38.7484 23.4193 38.3226 24.2709 38.3226H43.4322C44.1419 38.3226 45.4193 38.4645 45.4193 39.3161V78.0645C45.4193 78.7742 44.1419 79.4839 43.4322 79.4839" fill="#393F3D"/>
<path d="M42.8646 58.1935C42.7227 58.1935 42.7227 58.1935 42.8646 58.1935C42.7227 58.1935 42.7227 58.1935 42.8646 58.1935L33.9227 47.5484L24.9808 58.1935C24.413 58.9032 24.1292 59.7548 24.1292 60.6064C24.1292 62.8774 26.2582 64.8645 28.955 64.8645C30.5162 64.8645 31.7937 64.1548 32.7872 63.1613L31.2259 69.5484H33.6388H34.0646H36.4775L35.0582 63.1613C35.9098 64.1548 37.3291 64.8645 38.8904 64.8645C41.5872 64.8645 43.7162 63.0194 43.7162 60.6064C43.5743 59.7548 43.2904 58.9032 42.8646 58.1935Z" fill="#EAE9DA"/>
<path d="M33.7808 69.5483H36.4775L35.0582 63.1612C35.9098 64.1548 37.3291 64.8645 38.8904 64.8645C41.5872 64.8645 43.7162 63.0193 43.7162 60.6064C43.7162 59.7548 43.4324 58.9032 42.8646 58.1935L33.9227 47.6903" fill="#C9C6B1"/>
<path d="M68.129 52.0903C68.129 53.0839 67.2774 53.9355 66.2839 53.9355H41.5871C40.5936 53.9355 39.7419 53.0839 39.7419 52.0903V6.10322C39.7419 5.10967 40.5936 4.25806 41.5871 4.25806H66.2839C67.2774 4.25806 68.129 5.10967 68.129 6.10322V52.0903Z" fill="#870600"/>
<path d="M65.2902 48.6839C65.2902 49.3935 64.4386 49.6774 63.729 49.6774H44.5677C43.858 49.6774 42.5806 49.5355 42.5806 48.6839V9.93547C42.5806 9.22579 43.858 8.51611 44.5677 8.51611H63.729C64.4386 8.51611 65.2902 9.22579 65.2902 9.93547V48.6839Z" fill="#C43D27"/>
<path d="M42.5806 9.93547C42.5806 9.22579 43.858 8.51611 44.5677 8.51611H63.729C64.4386 8.51611 65.2902 9.22579 65.2902 9.93547V48.6839C65.2902 49.3935 64.5806 50.1032 63.8709 50.1032" fill="#AA241A"/>
<path d="M61.316 29.3806L54.2192 39.0322L46.9805 29.3806L54.2192 19.5871L61.316 29.3806Z" fill="#EAE9DA"/>
<path d="M54.2192 19.5871L61.316 29.3806L54.2192 39.0322" fill="#C9C6B1"/>
<path d="M87.9999 81.8968C87.9999 82.8903 87.1483 83.7419 86.1547 83.7419H61.458C60.4644 83.7419 59.6128 82.8903 59.6128 81.8968V35.9097C59.6128 34.9161 60.4644 34.0645 61.458 34.0645H86.1547C87.1483 34.0645 87.9999 34.9161 87.9999 35.9097V81.8968Z" fill="#1A1E1E"/>
<path d="M85.1613 78.0645C85.1613 78.7742 84.3097 79.4839 83.6 79.4839H64.4388C63.7291 79.4839 62.4517 78.7742 62.4517 78.0645V39.3161C62.4517 38.6065 63.7291 38.3226 64.4388 38.3226H83.6C84.3097 38.3226 85.1613 38.4645 85.1613 39.3161V78.0645Z" fill="#4A514F"/>
<path d="M62.4517 39.3161C62.4517 38.6065 63.7291 38.3226 64.4388 38.3226H83.6C84.3097 38.3226 85.1613 38.4645 85.1613 39.3161V78.0645C85.1613 78.7742 84.3097 79.4839 83.6 79.4839" fill="#393F3D"/>
<path d="M76.3612 62.5936L80.4773 62.3097C81.0451 62.3097 81.6128 62.1678 82.0386 61.8839C83.8838 60.8903 84.7354 58.6194 83.7418 56.6323C82.7483 54.7871 80.4773 53.9355 78.4902 54.9291C78.3483 55.071 78.0644 55.2129 77.9225 55.3549L78.0644 54.9291C78.3483 54.3613 78.4902 53.7936 78.4902 53.0839C78.4902 50.5291 76.5031 48.542 73.9483 48.542C71.3935 48.542 69.5483 50.3871 69.5483 52.942C69.5483 53.6516 69.6902 54.2194 69.9741 54.7871L70.116 55.2129C69.9741 55.071 69.8322 54.9291 69.5483 54.7871C67.7031 53.7936 65.2902 54.5032 64.2967 56.4903C63.3031 58.3355 64.0128 60.7484 65.9999 61.742C66.5677 62.0258 66.9935 62.1678 67.5612 62.1678L71.6773 62.4516" fill="#EAE9DA"/>
<path d="M67.5613 62.3097L71.6774 62.5936Z" fill="#EAE9DA"/>
<path d="M74.0903 48.2581C76.6451 48.2581 78.6322 50.3871 78.6322 52.8C78.6322 53.5097 78.4903 54.0774 78.2064 54.6452L78.0645 55.071C78.2064 54.929 78.4903 54.7871 78.6322 54.6452C80.4774 53.6516 82.8903 54.3613 83.8838 56.3484C84.8774 58.1935 84.1677 60.6064 82.1806 61.6C81.6129 61.8839 81.187 62.0258 80.6193 62.0258L76.5032 62.3097H73.8064" fill="#C9C6B1"/>
<path d="M72.3871 65.2903L71.3936 69.5484H73.8065H74.3742H76.6452L75.7936 65.2903H72.3871Z" fill="#EAE9DA"/>
<path d="M73.8064 69.5484H74.3741H76.6451L75.7935 65.2903H73.8064" fill="#C9C6B1"/>
</svg>
