<svg width="87" height="86" viewBox="0 0 87 86" fill="none" xmlns="http://www.w3.org/2000/svg">
<g clip-path="url(#clip0_39_718)">
<path d="M87.0001 79.8258C87.0001 79.8258 87.0001 79.8258 87.0001 79.5439C87.0001 62.2029 65.7493 48.3865 44.3558 48.3865C22.9624 48.3865 1.71155 62.2029 1.71155 79.4029C1.71155 79.5439 1.71155 79.6849 1.71155 79.6849H87.0001V79.8258Z" fill="#BACBCC"/>
<path d="M87 79.6848C87 62.3438 65.7492 48.5274 44.3557 48.5274C42.9295 48.5274 41.6459 48.6684 40.2197 48.8094L22.5344 65.8684L36.9393 79.8258H87C87 79.8258 87 79.8258 87 79.6848Z" fill="#A1B4B5"/>
<path d="M32.0902 20.7537C34.9426 27.6619 29.3803 30.3406 25.1017 32.0324C20.823 33.7242 14.2623 43.593 11.5525 36.6848C8.70002 29.7766 11.2672 7.78318 15.4033 6.09137C19.5394 4.39957 29.2377 13.8455 32.0902 20.7537Z" fill="#CEDCDD"/>
<path d="M29.2377 19.7668C32.0902 26.675 30.2361 30.1996 25.9574 31.8914C21.6787 33.5832 17.4 37.2487 14.5476 30.3405C11.6951 23.4323 11.4099 8.77005 15.6886 6.93726C20.1099 5.24546 26.3853 12.8586 29.2377 19.7668Z" fill="#C10865"/>
<path d="M15.8312 7.07825C20.1099 5.38645 26.3853 12.8586 29.2377 19.7668C32.0902 26.675 30.2361 30.1996 25.9574 31.8914" fill="#A5085E"/>
<path d="M55.3377 20.7537C52.4853 27.6619 58.0476 30.3406 62.3263 32.0324C66.605 33.7242 73.1656 43.593 75.8755 36.6848C78.7279 29.7766 76.1607 7.78318 72.0246 6.09137C67.6033 4.39957 58.1902 13.8455 55.3377 20.7537Z" fill="#CEDCDD"/>
<path d="M58.1902 19.7668C55.3378 26.675 57.1919 30.1996 61.4705 31.8914C65.7492 33.5832 70.0279 37.2487 72.8804 30.3405C75.7328 23.4323 76.0181 8.77005 71.7394 6.93726C67.3181 5.24546 60.9001 12.8586 58.1902 19.7668Z" fill="#C10865"/>
<path d="M71.5968 7.07825C67.3181 5.38645 61.0427 12.8586 58.1902 19.7668C55.3378 26.675 57.1919 30.1996 61.4705 31.8914" fill="#A5085E"/>
<path d="M71.5967 53.8849C71.5967 65.5865 59.4738 75.0324 44.3557 75.0324C29.3803 75.0324 17.1147 65.5865 17.1147 53.8849C17.1147 42.1832 29.2377 36.4029 44.3557 36.4029C59.4738 36.4029 71.5967 42.3242 71.5967 53.8849Z" fill="#D81A71"/>
<path d="M44.3558 36.4029C30.0935 36.4029 18.3984 41.6193 17.2574 52.0521C18.3984 62.9078 30.0935 71.3668 44.3558 71.3668C58.6181 71.3668 70.3132 62.9078 71.4542 52.0521C70.3132 41.6193 58.6181 36.4029 44.3558 36.4029Z" fill="#C10865"/>
<path d="M77.7295 41.4783C77.7295 55.7177 62.7541 67.2783 44.3557 67.2783C25.9573 67.2783 10.9819 55.7177 10.9819 41.4783C10.9819 27.239 25.9573 17.3701 44.3557 17.3701C62.7541 17.3701 77.7295 27.098 77.7295 41.4783Z" fill="#DFEDEC"/>
<path d="M77.7295 41.4782C77.7295 55.7176 62.7541 67.2782 44.3557 67.2782C25.9573 67.2782 10.9819 55.7176 10.9819 41.4782C10.9819 27.2389 25.9573 20.0487 44.3557 20.0487C62.7541 20.0487 77.7295 27.0979 77.7295 41.4782Z" fill="#CEDCDD"/>
<path d="M44.3557 20.0487C62.7541 20.0487 77.7295 27.2389 77.7295 41.4782C77.7295 55.7176 62.7541 67.2782 44.3557 67.2782" fill="#BACBCC"/>
<path d="M44.3558 80.1077C47.4277 80.1077 49.918 77.646 49.918 74.6094C49.918 71.5727 47.4277 69.111 44.3558 69.111C41.2838 69.111 38.7935 71.5727 38.7935 74.6094C38.7935 77.646 41.2838 80.1077 44.3558 80.1077Z" fill="#EFC618"/>
<path d="M40.3623 70.6619C42.5016 68.5471 46.0672 68.5471 48.3492 70.6619C50.4885 72.7767 50.4885 76.3012 48.3492 78.557" fill="#EDB61B"/>
<path d="M37.082 37.6717C37.082 40.2094 35.0852 43.734 32.518 43.734C29.9508 43.734 27.9541 40.0684 27.9541 37.6717C27.9541 35.134 29.9508 33.1602 32.518 33.1602C34.9426 33.1602 37.082 35.134 37.082 37.6717Z" fill="#A3B5B5"/>
<path d="M32.518 42.1831C35.0386 42.1831 37.082 40.1633 37.082 37.6717C37.082 35.18 35.0386 33.1602 32.518 33.1602C29.9974 33.1602 27.9541 35.18 27.9541 37.6717C27.9541 40.1633 29.9974 42.1831 32.518 42.1831Z" fill="#2C363A"/>
<path d="M32.5181 33.1602C35.0853 33.1602 37.082 35.134 37.082 37.6717C37.082 40.2094 35.0853 42.1831 32.5181 42.1831" fill="black"/>
<path d="M32.0901 34.0062C32.3753 34.2881 31.9475 34.993 31.377 35.416C30.6639 35.8389 29.9507 35.9799 29.6655 35.557C29.3803 35.275 29.8081 34.5701 30.3786 34.1471C31.0917 33.7242 31.8048 33.7242 32.0901 34.0062Z" fill="#5F6668"/>
<path d="M41.3607 44.8619C41.3607 46.1307 37.3672 44.7209 32.518 44.7209C27.5262 44.7209 23.6754 46.2717 23.6754 44.8619C23.6754 43.593 27.6689 42.4652 32.518 42.4652C37.3672 42.4652 41.3607 43.4521 41.3607 44.8619Z" fill="#DFEDEC"/>
<path d="M60.9 37.6717C60.9 40.2094 58.9032 43.734 56.336 43.734C53.7688 43.734 51.7721 40.0684 51.7721 37.6717C51.7721 35.134 53.7688 33.1602 56.336 33.1602C58.7606 33.1602 60.9 35.134 60.9 37.6717Z" fill="#A3B5B5"/>
<path d="M56.336 42.1831C58.8566 42.1831 60.9 40.1633 60.9 37.6717C60.9 35.18 58.8566 33.1602 56.336 33.1602C53.8154 33.1602 51.7721 35.18 51.7721 37.6717C51.7721 40.1633 53.8154 42.1831 56.336 42.1831Z" fill="#2C363A"/>
<path d="M56.3361 33.1602C58.9033 33.1602 60.9 35.134 60.9 37.6717C60.9 40.2094 58.9033 42.1831 56.3361 42.1831" fill="black"/>
<path d="M55.9082 34.0062C56.1935 34.2881 55.7656 34.993 55.1951 35.416C54.482 35.8389 53.7689 35.9799 53.4836 35.557C53.1984 35.275 53.6262 34.5701 54.1967 34.1471C54.9098 33.7242 55.623 33.7242 55.9082 34.0062Z" fill="#5F6668"/>
<path d="M65.1787 44.8619C65.1787 46.1307 61.1852 44.7209 56.336 44.7209C51.3442 44.7209 47.4934 46.2717 47.4934 44.8619C47.4934 43.593 51.4869 42.4652 56.336 42.4652C61.1852 42.4652 65.1787 43.4521 65.1787 44.8619Z" fill="#CEDCDD"/>
<path d="M49.2049 43.875C49.2049 45.0029 47.0656 48.1045 44.3558 48.1045C41.6459 48.1045 39.5066 45.0029 39.5066 43.875C39.5066 42.7471 41.6459 41.7603 44.3558 41.7603C47.0656 41.7603 49.2049 42.6062 49.2049 43.875Z" fill="#A0BABA"/>
<path d="M49.2049 43.875C49.2049 45.0029 47.0656 46.9766 44.3558 46.9766C41.6459 46.9766 39.5066 45.1439 39.5066 43.875C39.5066 42.7471 41.6459 41.7603 44.3558 41.7603C47.0656 41.7603 49.2049 42.6062 49.2049 43.875Z" fill="#D81A71"/>
<path d="M44.3557 41.7603C47.0655 41.7603 49.2049 42.7471 49.2049 43.875C49.2049 45.0029 47.0655 46.9766 44.3557 46.9766" fill="#C10865"/>
<path d="M31.8049 26.252C31.6623 26.252 31.5197 26.252 31.5197 26.111C31.2344 25.97 31.0918 25.5471 31.2344 25.2651C32.0902 23.9963 33.2311 23.0094 34.8 22.5864C36.2262 22.1635 37.7951 22.4455 39.2213 23.1504C39.5066 23.2914 39.6492 23.7143 39.5066 23.9963C39.3639 24.2782 38.9361 24.4192 38.6508 24.2782C37.6525 23.7143 36.3688 23.4323 35.2279 23.8553C34.0869 24.1373 33.0885 24.8422 32.518 25.8291C32.2328 26.111 31.9475 26.252 31.8049 26.252Z" fill="#8D9998"/>
<path d="M56.9065 26.252C57.0491 26.252 57.1918 26.252 57.1918 26.111C57.477 25.97 57.6196 25.5471 57.477 25.2651C56.6213 23.9963 55.4803 23.0094 53.9114 22.5864C52.4852 22.1635 50.9164 22.4455 49.4901 23.1504C49.2049 23.2914 49.0623 23.7143 49.2049 23.9963C49.3475 24.2782 49.7754 24.4192 50.0606 24.2782C51.059 23.7143 52.3426 23.4323 53.4836 23.8553C54.6245 24.1373 55.6229 24.8422 56.1934 25.8291C56.4787 26.111 56.7639 26.252 56.9065 26.252Z" fill="#8D9998"/>
<path d="M22.1066 75.5963C22.1066 81.2357 17.8279 79.1209 12.123 79.1209C6.41809 79.1209 2.1394 81.0947 2.1394 75.5963V47.2586C2.1394 41.6193 6.41809 37.1078 12.123 37.1078C17.8279 37.1078 22.1066 41.6193 22.1066 47.2586V75.5963Z" fill="#BACBCC"/>
<path d="M22.1066 66.8553V47.2586C22.1066 43.3111 19.9672 39.9275 16.6869 38.2357L4.99182 49.7963L22.1066 66.8553Z" fill="#A1B4B5"/>
<path d="M23.9607 46.6947C23.9607 51.9111 18.541 51.0652 11.9803 51.0652C5.41967 51.0652 0 51.9111 0 46.6947C0 41.4783 5.41967 37.1078 11.9803 37.1078C18.541 37.1078 23.9607 41.3373 23.9607 46.6947Z" fill="#BACBCC"/>
<path d="M19.9672 48.8094C19.9672 50.5012 16.4016 50.2193 11.9803 50.2193C7.55898 50.2193 3.99341 50.5012 3.99341 48.8094C3.99341 47.1176 7.55898 45.7078 11.9803 45.7078C16.4016 45.5668 19.9672 46.9766 19.9672 48.8094Z" fill="#C10865"/>
<path d="M19.9672 48.8094C19.9672 50.5012 16.4016 50.2193 11.9803 50.2193C7.55898 50.2193 3.99341 50.5012 3.99341 48.8094" fill="#A5085E"/>
<path d="M0 46.6947C0 41.4783 5.41967 37.1078 11.9803 37.1078Z" fill="#CEDCDD"/>
<path d="M44.4984 70.8029C45.2861 70.8029 45.9246 70.1717 45.9246 69.393C45.9246 68.6144 45.2861 67.9832 44.4984 67.9832C43.7107 67.9832 43.0721 68.6144 43.0721 69.393C43.0721 70.1717 43.7107 70.8029 44.4984 70.8029Z" fill="#EFC618"/>
</g>
<defs>
<clipPath id="clip0_39_718">
<rect width="87" height="86" fill="white"/>
</clipPath>
</defs>
</svg>
