<svg width="88" height="88" viewBox="0 0 88 88" fill="none" xmlns="http://www.w3.org/2000/svg">
<path d="M0 41.1613V70.8258C0 81.7549 9.22581 80.9032 20.1548 80.9032H67.7032C78.6323 80.9032 87.8581 81.7549 87.8581 70.8258V41.1613H0Z" fill="#5B402E"/>
<path d="M19.871 80.9032H67.8452C78.7742 80.9032 88 81.7549 88 70.8258V41.1613" fill="#493322"/>
<path d="M88 34.0645V26.9677C88 16.0387 78.7742 7.09677 67.8452 7.09677H20.1548C9.22581 7.09677 0 16.0387 0 26.9677V34.0645H88Z" fill="#5B402E"/>
<path d="M0 26.9677V34.0645H88V26.9677C88 16.0387 78.7742 7.09677 67.8452 7.09677" fill="#493322"/>
<path d="M88 41.1613H0V52.5161H88V41.1613Z" fill="#F2B111"/>
<path d="M0 52.5161H88V41.1613" fill="#E88813"/>
<path d="M88 26.9677H0V34.0645H88V26.9677Z" fill="#F2B111"/>
<path d="M0 34.0645H88V26.9677" fill="#E88813"/>
<path d="M28.3871 5.67741H18.4517V32.6452H28.3871V5.67741Z" fill="#E88813"/>
<path d="M69.5484 5.67741H59.6129V32.6452H69.5484V5.67741Z" fill="#E88813"/>
<path d="M28.3871 51.0968H18.4517V82.3226H28.3871V51.0968Z" fill="#E88813"/>
<path d="M69.5484 51.0968H59.6129V82.3226H69.5484V51.0968Z" fill="#E88813"/>
<path d="M32.645 48.5419C33.5073 48.5419 34.2063 47.8429 34.2063 46.9806C34.2063 46.1184 33.5073 45.4194 32.645 45.4194C31.7828 45.4194 31.0837 46.1184 31.0837 46.9806C31.0837 47.8429 31.7828 48.5419 32.645 48.5419Z" fill="#493322"/>
<path d="M40.1676 48.5419C41.0299 48.5419 41.7289 47.8429 41.7289 46.9806C41.7289 46.1184 41.0299 45.4194 40.1676 45.4194C39.3053 45.4194 38.6063 46.1184 38.6063 46.9806C38.6063 47.8429 39.3053 48.5419 40.1676 48.5419Z" fill="#493322"/>
<path d="M47.8322 48.5419C48.6944 48.5419 49.3935 47.8429 49.3935 46.9806C49.3935 46.1184 48.6944 45.4194 47.8322 45.4194C46.9699 45.4194 46.2709 46.1184 46.2709 46.9806C46.2709 47.8429 46.9699 48.5419 47.8322 48.5419Z" fill="#493322"/>
<path d="M55.3547 48.5419C56.217 48.5419 56.916 47.8429 56.916 46.9806C56.916 46.1184 56.217 45.4194 55.3547 45.4194C54.4925 45.4194 53.7935 46.1184 53.7935 46.9806C53.7935 47.8429 54.4925 48.5419 55.3547 48.5419Z" fill="#493322"/>
<path d="M5.96119 48.5419C6.82347 48.5419 7.52248 47.8429 7.52248 46.9806C7.52248 46.1184 6.82347 45.4194 5.96119 45.4194C5.09892 45.4194 4.3999 46.1184 4.3999 46.9806C4.3999 47.8429 5.09892 48.5419 5.96119 48.5419Z" fill="#493322"/>
<path d="M13.3418 48.5419C14.2041 48.5419 14.9031 47.8429 14.9031 46.9806C14.9031 46.1184 14.2041 45.4194 13.3418 45.4194C12.4795 45.4194 11.7805 46.1184 11.7805 46.9806C11.7805 47.8429 12.4795 48.5419 13.3418 48.5419Z" fill="#493322"/>
<path d="M74.516 48.5419C75.3783 48.5419 76.0773 47.8429 76.0773 46.9806C76.0773 46.1184 75.3783 45.4194 74.516 45.4194C73.6537 45.4194 72.9547 46.1184 72.9547 46.9806C72.9547 47.8429 73.6537 48.5419 74.516 48.5419Z" fill="#493322"/>
<path d="M82.0386 48.5419C82.9009 48.5419 83.5999 47.8429 83.5999 46.9806C83.5999 46.1184 82.9009 45.4194 82.0386 45.4194C81.1763 45.4194 80.4773 46.1184 80.4773 46.9806C80.4773 47.8429 81.1763 48.5419 82.0386 48.5419Z" fill="#493322"/>
<path d="M48.9677 61.4581C48.9677 58.7614 46.6967 56.4904 44 56.4904C41.3032 56.4904 39.0322 58.7614 39.0322 61.4581C39.0322 63.3033 40.0258 65.0065 41.4451 66.0001L40.0258 75.2259H47.9742L46.5548 66.0001C47.9742 65.1485 48.9677 63.3033 48.9677 61.4581Z" fill="#F2B111"/>
<path d="M47.9742 75.2259L46.5548 66.0001C47.9742 65.1485 48.9677 63.3033 48.9677 61.4581C48.9677 58.7614 46.6967 56.4904 44 56.4904C41.3032 56.4904 39.0322 58.7614 39.0322 61.4581" fill="#E88813"/>
</svg>
