<svg width="88" height="88" viewBox="0 0 88 88" fill="none" xmlns="http://www.w3.org/2000/svg">
<g clip-path="url(#clip0_39_286)">
<path d="M79.4976 35.8518L72.4123 22.5314L65.3269 35.8518L58.2416 22.5314L52.5733 35.8518L44.0709 12.6119L35.5685 35.8518L29.9002 22.5314L22.8148 35.8518L15.7295 22.5314L8.64414 35.8518L0.141724 19.839V72.4122L87.8583 72.6956L88 19.839L79.4976 35.8518Z" fill="#FF9906"/>
<path d="M79.4976 45.0628L72.4122 23.8068L65.3269 45.0628L58.2415 23.8068L52.5733 45.0628L44.0709 13.6039L35.5684 45.0628L29.9002 23.8068L22.8148 45.0628L15.7295 23.8068L8.64412 45.0628L0.141707 20.2641L0 72.6957L87.8583 72.4123L88 20.2641L79.4976 45.0628Z" fill="#EF880C"/>
<path d="M44.0709 72.4122L87.8583 72.6956L88.0001 20.4058L79.4976 45.0628L72.4123 23.8068L65.3269 45.0628L58.2416 23.8068L52.5733 45.0628L43.9292 13.4622" fill="#ED6E0F"/>
<path d="M50.1642 52.0065L41.3784 60.7923L53.1401 72.4123H70.9952L50.1642 52.0065Z" fill="#DD600B"/>
<path d="M72.8373 50.306L66.8856 56.2577L83.1819 72.4122L87.8582 72.6957V65.6103L72.8373 50.306Z" fill="#DD600B"/>
<path d="M43.9292 72.554L21.3978 50.306L15.5878 56.116L31.8841 72.4122H43.7874L43.9292 72.554Z" fill="#ED690F"/>
<path d="M52.4316 55.4074L44.0709 63.7681L35.7102 55.4074L44.0709 43.2206L52.4316 55.4074Z" fill="#EA1F0A"/>
<path d="M52.4316 55.4074L44.0709 51.2979L35.7102 55.4074L44.0709 43.2206L52.4316 55.4074Z" fill="#FF5512"/>
<path d="M44.0709 43.2206L52.4316 55.4074L44.0709 63.7681" fill="#C61109"/>
<path d="M22.6731 53.2818C22.6731 55.6908 20.6892 57.533 18.4219 57.533C16.0128 57.533 14.1707 55.5491 14.1707 53.2818C14.1707 50.8727 16.1546 49.0305 18.4219 49.0305C20.8309 49.0305 22.6731 51.0144 22.6731 53.2818Z" fill="#329908"/>
<path d="M21.3977 50.306C23.0982 52.0065 23.0982 54.6989 21.3977 56.3994C19.6972 58.0998 17.0048 58.0998 15.3043 56.3994" fill="#236D00"/>
<path d="M74.1126 53.2818C74.1126 55.6908 72.1287 57.533 69.8614 57.533C67.4524 57.533 65.6102 55.5491 65.6102 53.2818C65.6102 50.8727 67.5941 49.0305 69.8614 49.0305C72.1287 49.0305 74.1126 51.0144 74.1126 53.2818Z" fill="#329908"/>
<path d="M72.8373 50.306C74.5378 52.0065 74.5378 54.6989 72.8373 56.3994C71.1368 58.0998 68.4444 58.0998 66.7439 56.3994" fill="#236D00"/>
<path d="M87.8583 72.6957C87.8583 74.2545 68.161 75.3881 44.0709 75.3881C19.839 75.3881 0 74.1128 0 72.6957C0 71.1369 19.839 70.0033 44.0709 70.0033C68.3027 70.0033 87.8583 71.2786 87.8583 72.6957Z" fill="#683C02"/>
<path d="M44.0709 70.0033C68.3028 70.0033 87.8584 71.2786 87.8584 72.6957C87.8584 74.2545 68.1611 75.3881 44.0709 75.3881" fill="#4C2A02"/>
</g>
<defs>
<clipPath id="clip0_39_286">
<rect width="88" height="88" fill="white"/>
</clipPath>
</defs>
</svg>
