<svg width="88" height="88" viewBox="0 0 88 88" fill="none" xmlns="http://www.w3.org/2000/svg">
<g clip-path="url(#clip0_39_510)">
<path d="M44 83.8839C64.3811 83.8839 80.9033 67.3617 80.9033 46.9806C80.9033 26.5995 64.3811 10.0774 44 10.0774C23.6189 10.0774 7.0968 26.5995 7.0968 46.9806C7.0968 67.3617 23.6189 83.8839 44 83.8839Z" fill="#1ABCE8"/>
<path d="M7.0968 46.9806C7.0968 26.5419 23.5613 10.0774 44 10.0774C64.4387 10.0774 80.9033 26.5419 80.9033 46.9806" fill="#1881EA"/>
<path d="M44 79.3419C61.8726 79.3419 76.3613 64.8533 76.3613 46.9806C76.3613 29.108 61.8726 14.6193 44 14.6193C26.1273 14.6193 11.6387 29.108 11.6387 46.9806C11.6387 64.8533 26.1273 79.3419 44 79.3419Z" fill="#1C91F2"/>
<path d="M21.1483 24.1291C33.7806 11.4968 54.2193 11.4968 66.8515 24.1291C79.4838 36.7613 79.4838 57.2 66.8515 69.8323" fill="#1881EA"/>
<path d="M52.3743 85.4451C52.3743 86.8645 48.6839 87.9999 44.0001 87.9999C39.3162 87.9999 35.6259 86.8645 35.6259 85.4451C35.6259 84.0258 39.3162 75.6516 44.0001 75.6516C48.6839 75.6516 52.3743 84.0258 52.3743 85.4451Z" fill="#D81A71"/>
<path d="M19.4452 31.7935C19.4452 19.4451 30.5162 4.39996 44 4.39996C57.6258 4.39996 68.5549 19.3032 68.5549 31.7935C68.5549 44.2838 57.6258 57.9096 44 57.9096C30.3742 57.9096 19.4452 44.1419 19.4452 31.7935Z" fill="#FF50A8"/>
<path d="M19.4452 31.7936C19.4452 19.4452 30.5162 7.80646 44 7.80646C57.6258 7.80646 68.5549 19.4452 68.5549 31.7936C68.5549 44.1419 57.6258 57.9097 44 57.9097C30.3742 57.9097 19.4452 44.1419 19.4452 31.7936Z" fill="#EF337F"/>
<path d="M65.5742 47.8323C65.5742 56.9162 53.9355 87.5742 44 87.5742C34.0645 87.5742 22.4258 56.9162 22.4258 47.8323C22.4258 38.7484 34.0645 28.9549 44 28.9549C53.9355 28.9549 65.5742 38.8904 65.5742 47.8323Z" fill="#D81A71"/>
<path d="M54.6452 29.8065C54.6452 39.3162 48.8258 36.0517 44 36.0517C39.1742 36.0517 33.3549 39.3162 33.3549 29.8065C33.3549 20.2968 39.1742 9.08392 44 9.08392C48.8258 9.08392 54.6452 20.4388 54.6452 29.8065Z" fill="#D81A71"/>
<path d="M35.3419 45.5613C35.3419 50.2451 35.2 55.7806 30.658 55.7806C25.9742 55.7806 18.5935 50.2451 18.5935 45.5613C18.5935 40.8774 22.2838 34.4903 26.9677 34.4903C31.6516 34.4903 35.3419 41.0193 35.3419 45.5613Z" fill="#EF337F"/>
<path d="M35.3419 45.5613C35.3419 50.2451 35.2 55.7806 30.658 55.7806C25.9742 55.7806 18.5935 50.2451 18.5935 45.5613C18.5935 40.8774 22.7096 42.1548 27.3935 42.1548C31.9354 42.1548 35.3419 41.0193 35.3419 45.5613Z" fill="#D81A71"/>
<path d="M69.4065 45.5613C69.4065 50.2451 62.0258 55.7806 57.342 55.7806C52.6581 55.7806 52.6581 50.2451 52.6581 45.5613C52.6581 40.8774 56.3484 34.4903 61.0323 34.4903C65.7161 34.4903 69.4065 41.0193 69.4065 45.5613Z" fill="#EF337F"/>
<path d="M69.4065 45.5612C69.4065 50.2451 62.0258 55.7806 57.342 55.7806C52.6581 55.7806 52.6581 50.2451 52.6581 45.5612C52.6581 40.8774 56.3484 42.7225 61.0323 42.7225C65.7161 42.7225 69.4065 41.0193 69.4065 45.5612Z" fill="#D81A71"/>
<path d="M41.4452 44.7097C41.4452 46.8387 42.8645 52.658 41.871 52.658C40.8774 52.658 38.7484 48.258 38.7484 46.129C38.7484 44 39.4581 44.1419 40.4516 44.1419C41.4452 44.1419 41.4452 42.7226 41.4452 44.7097Z" fill="#C4126B"/>
<path d="M46.5548 44.7097C46.5548 46.8387 45.1354 52.658 46.129 52.658C47.1225 52.658 49.2516 48.258 49.2516 46.129C49.2516 44 48.5419 44.1419 47.5483 44.1419C46.5548 44.1419 46.5548 42.7226 46.5548 44.7097Z" fill="#C4126B"/>
<path d="M50.3871 55.2129C50.3871 56.3484 46.5549 62.8774 44 62.8774C41.4452 62.8774 37.6129 56.4903 37.6129 55.2129C37.6129 53.9355 41.4452 57.6258 44 57.6258C46.5549 57.6258 50.3871 54.0774 50.3871 55.2129Z" fill="#C4126B"/>
<path d="M50.3871 55.2129C50.3871 56.3484 46.5549 59.8968 44 59.8968C41.4452 59.8968 37.6129 56.3484 37.6129 55.2129C37.6129 54.0774 41.4452 58.0516 44 58.0516C46.5549 58.0516 50.3871 54.0774 50.3871 55.2129Z" fill="#AD0B64"/>
<path d="M39.8839 52.5162C40.0258 52.3742 40.3097 52.3742 40.4516 52.2323C40.3097 52.2323 40.0258 52.0903 39.742 52.0903C38.3226 52.0903 37.1871 53.0839 37.1871 54.3613C37.1871 54.5032 37.1871 54.6452 37.3291 54.9291C37.6129 53.9355 38.6065 53.0839 39.8839 52.5162Z" fill="#EF337F"/>
<path d="M48.1161 52.5162C47.9741 52.3742 47.6903 52.3742 47.5483 52.2323C47.6903 52.2323 47.9741 52.0903 48.258 52.0903C49.6774 52.0903 50.8129 53.0839 50.8129 54.3613C50.8129 54.5032 50.8129 54.6452 50.6709 54.9291C50.387 53.9355 49.3935 53.0839 48.1161 52.5162Z" fill="#EF337F"/>
<path d="M49.6775 45.5613C49.6775 46.9806 47.1226 44.5677 44 44.5677C40.8775 44.5677 38.3226 46.9806 38.3226 45.5613C38.3226 44.1419 40.8775 41.1613 44 41.1613C47.1226 41.0194 49.6775 44 49.6775 45.5613Z" fill="#B20D67"/>
<path d="M33.6387 42.1548C37.329 43.4322 41.4451 42.0129 40.5935 44C39.7419 45.9871 36.1935 48.258 32.5032 46.9806C28.8129 45.7032 25.4064 40.1677 26.6838 38.4645C28.6709 35.4838 29.9484 40.8774 33.6387 42.1548Z" fill="#EF337F"/>
<path d="M33.6388 42.5806C37.3291 43.858 41.4452 42.0129 40.5936 44C39.742 45.9871 35.6259 49.6774 32.0775 48.4C28.3872 47.1226 26.6839 41.4451 27.5356 39.458C28.2452 37.6129 29.9485 41.3032 33.6388 42.5806Z" fill="#B20D67"/>
<path d="M33.6388 42.5806C37.3291 43.858 41.4452 42.0129 40.5936 44C39.742 45.9871 36.1936 48.258 32.5033 46.9806C28.813 45.7032 26.542 41.4451 27.3936 39.6C28.2452 37.6129 29.9485 41.3032 33.6388 42.5806Z" fill="#591035"/>
<path d="M33.3548 45.7032C36.1935 46.6968 39.0322 45.5613 40.5935 44C41.3032 42.1548 37.187 43.8581 33.6386 42.5807C30.7999 41.5871 29.2386 39.1742 28.1031 39.0323C28.1031 41.1613 30.2322 44.5678 33.3548 45.7032Z" fill="#1E0313"/>
<path d="M54.3613 42.1548C50.671 43.4322 46.5549 42.0129 47.4065 44C48.2581 45.9871 51.8065 48.258 55.4968 46.9806C59.1871 45.7032 62.5936 40.1677 61.3162 38.4645C59.3291 35.4838 58.0516 40.8774 54.3613 42.1548Z" fill="#EF337F"/>
<path d="M54.3613 42.5806C50.671 43.858 46.5549 42.0129 47.4065 44C48.2581 45.9871 52.3742 49.6774 55.9226 48.4C59.6129 47.1226 61.3162 41.4451 60.4646 39.458C59.7549 37.6129 58.0516 41.3032 54.3613 42.5806Z" fill="#B20D67"/>
<path d="M54.3613 42.5806C50.671 43.858 46.5549 42.0129 47.4065 44C48.2581 45.9871 51.8065 48.258 55.4968 46.9806C59.1871 45.7032 61.4581 41.4451 60.6065 39.6C59.7549 37.6129 58.0516 41.3032 54.3613 42.5806Z" fill="#591035"/>
<path d="M54.6452 45.7032C51.8065 46.6968 48.9678 45.5613 47.4065 44C46.6968 42.1548 50.8129 43.8581 54.3613 42.5807C57.2 41.5871 58.7613 39.1742 59.8968 39.0323C59.8968 41.1613 57.7678 44.5678 54.6452 45.7032Z" fill="#1E0313"/>
<path d="M44 34.4903C39.458 34.4903 35.7677 29.6645 35.3419 23.4193C35.3419 23.7032 35.3419 23.9871 35.3419 24.4129C35.3419 31.0839 39.1742 36.3355 44 36.3355C48.8258 36.3355 52.658 30.9419 52.658 24.4129C52.658 24.129 52.658 23.8451 52.658 23.4193C52.2322 29.6645 48.5419 34.4903 44 34.4903Z" fill="#EF337F"/>
<path d="M44 38.7484C39.458 38.7484 35.7677 33.9226 35.3419 27.6774C35.3419 27.9613 35.3419 28.2451 35.3419 28.6709C35.3419 35.3419 39.1742 40.5935 44 40.5935C48.8258 40.5935 52.658 35.2 52.658 28.6709C52.658 28.3871 52.658 28.1032 52.658 27.6774C52.2322 33.9226 48.5419 38.7484 44 38.7484Z" fill="#EF337F"/>
<path d="M38.4646 75.7935C38.4646 75.7935 38.6065 69.6903 36.1936 66.8516C36.1936 66.8516 41.1613 69.6903 40.1678 77.4967C40.1678 77.4967 39.8839 77.7806 39.0323 77.6387C38.3226 77.3548 38.4646 75.7935 38.4646 75.7935Z" fill="#D3B524"/>
<path d="M31.6516 59.0451C31.6516 59.0451 30.5161 64.0128 28.8129 68.2709C29.2387 69.1225 29.6645 70.1161 30.2322 70.9677C31.9354 69.2645 33.7806 66.4258 35.6258 62.0258C35.6258 62.0258 33.0709 59.7548 32.5032 59.4709C31.7935 59.0451 31.6516 59.0451 31.6516 59.0451Z" fill="#C4126B"/>
<path d="M56.3483 59.0451C56.3483 59.0451 57.4838 64.0128 59.187 68.2709C58.7612 69.1225 58.3354 70.1161 57.7677 70.9677C56.0645 69.2645 54.0774 66.4258 52.3741 62.0258C52.3741 62.0258 54.929 59.7548 55.4967 59.4709C56.2064 59.0451 56.3483 59.0451 56.3483 59.0451Z" fill="#C4126B"/>
<path d="M23.1355 52.658C24.129 57.058 26.2581 62.7354 28.8129 68.2709C30.0903 65.1483 29.6645 61.0322 27.5355 57.3419C26.2581 55.2129 24.6968 53.6516 23.1355 52.658Z" fill="#B20D67"/>
<path d="M43.9999 62.5935C42.8645 62.5935 38.7483 60.7483 33.7806 56.4903C28.2451 51.8064 26.1161 54.0774 26.1161 54.0774C26.1161 54.0774 33.6387 63.729 36.3354 72.9548C38.0387 78.9161 36.1935 82.0386 40.8774 81.6128C43.4322 81.329 43.5741 80.4774 43.9999 80.4774V62.5935V62.5935Z" fill="#EF337F"/>
<path d="M44 62.5935C45.1355 62.5935 49.2516 60.7483 54.2194 56.4903C59.7548 51.8064 61.8839 54.0774 61.8839 54.0774C61.8839 54.0774 54.3613 63.729 51.6645 72.9548C49.9613 78.9161 51.8065 82.0386 47.1226 81.6128C44.5677 81.329 44.4258 80.4774 44 80.4774V62.5935V62.5935Z" fill="#EF337F"/>
<path d="M53.3677 58.0517C48.3999 62.3097 45.1354 62.5936 43.9999 62.5936C42.8644 62.5936 39.5999 62.3097 34.6322 58.0517C29.0967 53.3678 28.1031 55.071 28.1031 55.071C28.1031 55.071 33.9225 63.7291 36.4773 72.9549C38.1806 78.9162 37.7548 80.4775 42.2967 80.4775C43.0064 80.4775 43.5741 80.4775 43.9999 80.4775C44.4257 80.4775 44.9935 80.4775 45.8451 80.4775C50.529 80.3355 49.9612 78.9162 51.6644 72.9549C54.2193 63.7291 60.0386 55.071 60.0386 55.071C60.0386 55.071 58.9032 53.3678 53.3677 58.0517Z" fill="#1E0313"/>
<path d="M53.3677 58.0517C48.4 62.3097 45.1355 62.5936 44 62.5936C42.8645 62.5936 39.6 62.3097 34.6322 58.0517C32.7871 56.4904 31.5097 55.6388 30.5161 55.213C32.3613 58.4775 35.4839 64.2968 37.1871 70.4001C38.8903 76.3613 38.4645 77.9226 43.0064 77.9226C43.4322 77.9226 43.7161 77.9226 44 77.9226C44.2839 77.9226 44.5677 77.9226 44.9935 77.9226C49.6774 77.7807 49.1097 76.3613 50.8129 70.4001C52.5161 64.2968 55.6387 58.4775 57.4839 55.213C56.6322 55.6388 55.2129 56.4904 53.3677 58.0517Z" fill="#591035"/>
<path d="M53.3677 58.0516C48.4 62.3097 45.1355 62.5935 44 62.5935C42.8645 62.5935 39.6 62.3097 34.6323 58.0516C34.4903 58.0516 34.4903 57.9097 34.3484 57.9097C35.4839 60.4645 36.6194 63.1613 37.329 66C39.0323 71.9613 38.6064 73.5226 43.1484 73.5226C43.4323 73.5226 43.7161 73.5226 43.8581 73.5226C44.1419 73.5226 44.2839 73.5226 44.5677 73.5226C49.2516 73.3806 48.6839 71.9613 50.3871 66C51.2387 63.1613 52.2322 60.3226 53.3677 57.9097C53.5097 58.0516 53.5097 58.0516 53.3677 58.0516Z" fill="#7C154E"/>
<path d="M31.2258 55.6387C31.2258 55.6387 27.9613 69.2645 24.5548 70.542C24.5548 70.542 30.2322 70.4 35.058 58.6194C35.058 58.6194 32.5032 56.3484 31.9355 56.0645C31.3677 55.6387 31.2258 55.6387 31.2258 55.6387Z" fill="#C4A41A"/>
<path d="M31.2258 55.6387C31.2258 55.6387 29.6646 62.1678 27.5355 66.5678C29.3807 65.2903 31.9355 62.8774 34.2065 57.7678C33.3549 57.0581 32.3613 56.0645 31.9355 55.9226C31.3678 55.6387 31.2258 55.6387 31.2258 55.6387Z" fill="#EFC618"/>
<path d="M38.0388 63.0194C38.3226 64.8646 39.0323 65.5742 40.4517 65.4323C41.3033 65.2904 41.1613 63.3033 40.8775 62.0259C39.742 61.6 38.3226 60.8904 36.7614 59.7549C37.1872 60.7484 37.7549 62.1678 38.0388 63.0194Z" fill="#EFC618"/>
<path d="M40.7355 62.0258C39.6 61.6 38.1807 60.8903 36.6194 59.7548C37.1871 60.8903 37.7549 62.1677 37.8968 63.0193" fill="#C4A41A"/>
<path d="M44 67.1354V62.5935C43.4322 62.5935 42.2968 62.5935 40.7355 61.8838C40.8774 62.8774 41.1613 64.2967 41.1613 65.4322C41.1613 67.1354 42.7226 68.5548 43.8581 67.4193C43.8581 67.4193 44 67.2774 44 67.1354Z" fill="#EFC618"/>
<path d="M38.6064 75.7935C38.6064 75.7935 38.7484 69.6903 36.3354 66.8516C36.3354 66.8516 41.3032 69.6903 40.3096 77.4967C40.3096 77.4967 40.0258 77.7806 39.1742 77.6387C38.4645 77.3548 38.6064 75.7935 38.6064 75.7935Z" fill="#C4A41A"/>
<path d="M36.7613 66.9936C36.4774 66.8516 36.3354 66.7097 36.3354 66.7097C38.7484 69.5484 38.6064 75.6516 38.6064 75.6516C38.6064 75.6516 38.6064 76.2194 38.6064 76.6452C39.7419 71.5355 37.8967 68.4129 36.7613 66.9936Z" fill="#D3B524"/>
<path d="M42.4386 77.4968C42.4386 78.2064 41.8709 78.7742 41.1612 78.7742C40.4515 78.7742 39.8838 78.2064 39.8838 77.4968V76.929C39.8838 76.2193 40.4515 75.6516 41.1612 75.6516C41.8709 75.6516 42.4386 76.2193 42.4386 76.929V77.4968Z" fill="#D3B524"/>
<path d="M44 75.9355C43.8581 75.9355 43.7161 75.7936 43.5742 75.7936C42.7226 75.7936 41.871 76.5033 41.871 77.4968V78.2065C41.871 79.0581 42.5807 79.9097 43.5742 79.9097C43.7161 79.9097 43.8581 79.9097 44 79.7678V75.9355Z" fill="#D3B524"/>
<path d="M64.8645 52.658C63.8709 57.058 61.7419 62.7354 59.1871 68.2709C57.9096 65.1483 58.3354 61.0322 60.4645 57.3419C61.7419 55.2129 63.3032 53.6516 64.8645 52.658Z" fill="#B20D67"/>
<path d="M56.7742 55.6387C56.7742 55.6387 60.0387 69.2645 63.4451 70.542C63.4451 70.542 57.7677 70.4 52.9419 58.6194C52.9419 58.6194 55.4967 56.3484 56.0645 56.0645C56.6322 55.6387 56.7742 55.6387 56.7742 55.6387Z" fill="#C4A41A"/>
<path d="M56.7742 55.6387C56.7742 55.6387 58.3355 62.1678 60.4645 66.5678C58.6194 65.2903 56.0645 62.8774 53.7936 57.7678C54.6452 57.0581 55.6387 56.0645 56.0645 55.9226C56.6323 55.6387 56.7742 55.6387 56.7742 55.6387Z" fill="#EFC618"/>
<path d="M49.9613 63.0194C49.6774 64.8646 48.9678 65.5742 47.5484 65.4323C46.6968 65.2904 46.8387 63.3033 47.1226 62.0259C48.2581 61.6 49.6774 60.8904 51.2387 59.7549C50.8129 60.7484 50.2452 62.1678 49.9613 63.0194Z" fill="#EFC618"/>
<path d="M47.2645 62.0258C48.4 61.6 49.8194 60.8903 51.3807 59.7548C50.8129 60.8903 50.2452 62.1677 50.1032 63.0193" fill="#C4A41A"/>
<path d="M44 67.1354V62.5935C44.5677 62.5935 45.7032 62.5935 47.2645 61.8838C47.1226 62.8774 46.8387 64.2967 46.8387 65.4322C46.8387 67.1354 45.2774 68.5548 44.1419 67.4193C44.1419 67.4193 44 67.2774 44 67.1354Z" fill="#EFC618"/>
<path d="M47.2645 62.0258C45.7032 62.5936 44.5677 62.7355 44 62.7355C43.4322 62.7355 42.2968 62.7355 40.7355 62.0258C40.8774 63.0194 41.1613 64.4387 41.1613 65.5742L44 67.2775L46.8387 65.5742C46.8387 64.4387 47.1226 63.0194 47.2645 62.0258Z" fill="#C4A41A"/>
<path d="M49.3936 75.7936C49.3936 75.7936 49.2516 69.6904 51.6646 66.8517C51.6646 66.8517 46.6968 69.6904 47.6903 77.4968C47.6903 77.4968 47.9742 77.7807 48.8258 77.6388C49.5355 77.3549 49.3936 75.7936 49.3936 75.7936Z" fill="#C4A41A"/>
<path d="M51.2387 66.9936C51.5226 66.8516 51.6645 66.7097 51.6645 66.7097C49.2516 69.5484 49.3935 75.6516 49.3935 75.6516C49.3935 75.6516 49.3935 76.2194 49.3935 76.6452C48.258 71.5355 50.1032 68.4129 51.2387 66.9936Z" fill="#D3B524"/>
<path d="M45.5613 77.4968C45.5613 78.2064 46.129 78.7742 46.8387 78.7742C47.5484 78.7742 48.1161 78.2064 48.1161 77.4968V76.929C48.1161 76.2193 47.5484 75.6516 46.8387 75.6516C46.129 75.6516 45.5613 76.2193 45.5613 76.929V77.4968Z" fill="#D3B524"/>
<path d="M44 75.9355C44.1419 75.9355 44.2839 75.7936 44.4258 75.7936C45.2774 75.7936 46.129 76.5033 46.129 77.4968V78.2065C46.129 79.0581 45.4194 79.9097 44.4258 79.9097C44.2839 79.9097 44.1419 79.9097 44 79.7678V75.9355Z" fill="#D3B524"/>
<path d="M46.271 57.2C46.271 57.7677 45.2774 59.7548 44 59.7548C42.7226 59.7548 41.729 57.7677 41.729 57.2C41.729 56.6323 42.7226 57.6258 44 57.6258C45.2774 57.6258 46.271 56.6323 46.271 57.2Z" fill="#EF337F"/>
<path d="M29.8064 48.5419C32.3613 49.8193 34.9161 49.8193 34.6323 50.3871C34.3484 50.9548 31.9355 50.3871 29.3806 49.1097C26.8258 47.8322 24.9806 46.2709 25.4064 45.5613C25.8323 44.9935 27.2516 47.1226 29.8064 48.5419Z" fill="#EF337F"/>
<path d="M58.1935 48.5419C55.6387 49.8193 53.0839 49.8193 53.3677 50.3871C53.6516 50.9548 56.0645 50.3871 58.6193 49.1097C61.1742 47.8322 63.0194 46.2709 62.5935 45.5613C62.1677 44.9935 60.7484 47.1226 58.1935 48.5419Z" fill="#EF337F"/>
<path d="M49.6773 84.7355C49.6773 85.1613 47.1225 83.7419 43.9999 83.7419C40.8773 83.7419 38.3225 85.1613 38.3225 84.7355C38.3225 84.3097 40.8773 82.0387 43.9999 82.0387C47.1225 82.1806 49.6773 84.3097 49.6773 84.7355Z" fill="#EF337F"/>
<path d="M24.129 24.129L19.5871 28.671C19.4452 29.6645 19.3032 30.8 19.3032 31.7935C19.3032 33.4968 19.4452 35.0581 19.871 36.7613L28.3871 28.3871L24.129 24.129Z" fill="#D81A71"/>
<path d="M31.0839 23.9871C24.6968 23.9871 19.4451 17.3161 19.4451 9.08387C19.4451 5.67742 20.2968 2.55484 21.858 0C18.4516 2.12903 16.0387 7.52258 16.0387 13.7677C16.0387 22 18.0258 31.5097 23.1355 31.5097C25.6903 31.5097 30.0903 26.8258 31.7935 23.9871C31.6516 23.9871 31.3677 23.9871 31.0839 23.9871Z" fill="#C4A41A"/>
<path d="M25.8322 28.2452C27.2516 28.2452 29.2387 26.8258 30.9419 25.1226C31.2258 24.6968 31.5096 24.271 31.6516 23.9871C31.3677 23.9871 31.2258 23.9871 30.9419 23.9871C24.5548 23.9871 19.3032 17.3161 19.3032 9.08387C19.3032 5.67742 20.1548 2.55484 21.7161 0C21.5742 0.141935 21.2903 0.283871 21.1483 0.425806C19.5871 3.12258 18.5935 6.67097 18.5935 10.6452C18.7354 18.8774 20.8645 28.2452 25.8322 28.2452Z" fill="#EFC618"/>
<path d="M63.871 24.129L68.4129 28.671C68.5549 29.6645 68.6968 30.8 68.6968 31.7935C68.6968 33.4968 68.5549 35.0581 68.129 36.7613L59.6129 28.3871L63.871 24.129Z" fill="#D81A71"/>
<path d="M56.9161 23.9871C63.3032 23.9871 68.5548 17.3161 68.5548 9.08387C68.5548 5.67742 67.7032 2.55484 66.1419 0C69.5484 2.12903 71.9613 7.52258 71.9613 13.7677C71.9613 22 69.9742 31.5097 64.8645 31.5097C62.3096 31.5097 57.9096 26.8258 56.2064 23.9871C56.3484 23.9871 56.6322 23.9871 56.9161 23.9871Z" fill="#C4A41A"/>
<path d="M62.1677 28.2452C60.7484 28.2452 58.7613 26.8258 57.0581 25.1226C56.7742 24.6968 56.4903 24.271 56.3484 23.9871C56.6323 23.9871 56.7742 23.9871 57.0581 23.9871C63.4452 23.9871 68.6968 17.3161 68.6968 9.08387C68.6968 5.67742 67.8452 2.55484 66.2839 0C66.4258 0.141935 66.7097 0.283871 66.8516 0.425806C68.4129 3.12258 69.4065 6.67097 69.4065 10.6452C69.2645 18.8774 67.1355 28.2452 62.1677 28.2452Z" fill="#EFC618"/>
<path d="M24.6967 34.6323C26.258 32.929 29.9483 33.7806 33.0709 36.6194C34.3483 37.7548 35.2 38.8903 35.7677 40.1677C35.3419 38.4645 34.2064 36.6194 32.3613 35.0581C29.2387 32.2194 25.5484 31.3677 23.9871 33.071C22.9935 34.0645 23.1355 35.9097 24.129 37.7548C23.9871 36.3355 24.129 35.3419 24.6967 34.6323Z" fill="#FF50A8"/>
<path d="M63.3032 34.6323C61.7419 32.929 58.0515 33.7806 54.929 36.6194C53.6515 37.7548 52.7999 38.8903 52.2322 40.1677C52.658 38.4645 53.7935 36.6194 55.6386 35.0581C58.7612 32.2194 62.4515 31.3677 64.0128 33.071C65.0064 34.0645 64.8645 35.9097 63.8709 37.7548C64.0128 36.3355 63.8709 35.3419 63.3032 34.6323Z" fill="#FF50A8"/>
</g>
<defs>
<clipPath id="clip0_39_510">
<rect width="88" height="88" fill="white"/>
</clipPath>
</defs>
</svg>
