<svg width="90" height="90" viewBox="0 0 90 90" fill="none" xmlns="http://www.w3.org/2000/svg">
<path d="M72.7143 30.7143L90 48.2857L45 88L0 48.2857L17.2857 30.7143H72.7143Z" fill="#EF683F"/>
<path d="M72.7143 30.7143L90 48.2857L45 88L0 48.2857L17.2857 30.7143H72.7143Z" fill="#EF683F"/>
<path d="M90 48.1428L45 87.9999L0 48.1428" fill="#E84621"/>
<path d="M72.7142 30.7143L71.4285 48.2857L44.9999 88L19.9999 48.2857L17.2856 30.7143H72.7142Z" fill="#EF683F"/>
<path d="M72.7142 30.7143L71.4285 48.2857L44.9999 30.7143L19.9999 48.2857L17.2856 30.7143H72.7142Z" fill="#EA1F0A"/>
<path d="M71.4286 48.1428L45 87.9999L20 48.1428" fill="#AA2011"/>
<path d="M9 48.1429L45 88L0 48.2857L17.2857 30.7143" fill="#EDA785"/>
<path d="M81 48.1429L45 88L89.8571 48.1429L72.7143 30.7143" fill="#AA2011"/>
<path d="M38.5714 19L45.1428 2.00005L51.4286 19" fill="#E84621"/>
<path d="M44.4286 19L45.1429 2.00005L51.4286 19" fill="#AA2011"/>
<path d="M20.4286 26.8571L17 8.99998L31.2857 20" fill="#E84621"/>
<path d="M25.4286 23.7143L17 8.99998L31.2857 20" fill="#AA2011"/>
<path d="M69.5714 26.8571L72.9999 8.99998L58.7142 20" fill="#E84621"/>
<path d="M64.5714 23.7143L72.9999 8.99998L58.7142 20" fill="#AA2011"/>
</svg>
