<svg width="85" height="84" viewBox="0 0 85 84" fill="none" xmlns="http://www.w3.org/2000/svg">
<path d="M5.41943 22.9731L41.0738 43.2684V83.9999L5.41943 63.7047V22.9731Z" fill="#EA1F0A"/>
<path d="M5.56213 23.3959L41.0739 43.2684V82.8724" fill="#D81107"/>
<path d="M42.5 40.4497L7.13086 20.2953L42.5 0L77.8691 20.2953L42.5 40.4497Z" fill="#EF683F"/>
<path d="M42.5 0L77.8691 20.2953L42.5 40.4497" fill="#E24F2D"/>
<path d="M42.5 25.651C46.8321 25.651 50.3439 23.2532 50.3439 20.2953C50.3439 17.3374 46.8321 14.9396 42.5 14.9396C38.1679 14.9396 34.656 17.3374 34.656 20.2953C34.656 23.2532 38.1679 25.651 42.5 25.651Z" fill="white"/>
<path d="M42.5 14.9396C46.7785 14.9396 50.344 17.3355 50.344 20.2953C50.344 23.255 46.7785 25.51 42.5 25.51" fill="#E5E5E5"/>
<path d="M43.9261 43.2684L79.5805 22.9731V63.7047L43.9261 83.9999V43.2684Z" fill="#AA2011"/>
<path d="M43.9261 82.8725V43.2685L79.4379 23.1141" fill="#99170D"/>
<path d="M71.4513 44.3959C73.4204 44.3959 75.0167 42.1243 75.0167 39.3221C75.0167 36.5199 73.4204 34.2483 71.4513 34.2483C69.4822 34.2483 67.8859 36.5199 67.8859 39.3221C67.8859 42.1243 69.4822 44.3959 71.4513 44.3959Z" fill="white"/>
<path d="M68.0286 39.3221C68.0286 36.5033 69.5974 34.2483 71.594 34.2483C73.5906 34.2483 75.1594 36.5033 75.1594 39.3221" fill="#E5E5E5"/>
<path d="M62.8943 58.0671C64.8634 58.0671 66.4597 55.7955 66.4597 52.9933C66.4597 50.1911 64.8634 47.9195 62.8943 47.9195C60.9252 47.9195 59.3289 50.1911 59.3289 52.9933C59.3289 55.7955 60.9252 58.0671 62.8943 58.0671Z" fill="white"/>
<path d="M59.3289 52.9933C59.3289 50.1745 60.8976 47.9195 62.8943 47.9195C64.8909 47.9195 66.4597 50.1745 66.4597 52.9933" fill="#E5E5E5"/>
<path d="M54.1946 71.7383C56.1637 71.7383 57.76 69.4667 57.76 66.6645C57.76 63.8623 56.1637 61.5906 54.1946 61.5906C52.2255 61.5906 50.6292 63.8623 50.6292 66.6645C50.6292 69.4667 52.2255 71.7383 54.1946 71.7383Z" fill="white"/>
<path d="M50.7717 66.6645C50.7717 63.8457 52.3405 61.5906 54.3372 61.5906C56.3338 61.5906 57.9026 63.8457 57.9026 66.6645" fill="#E5E5E5"/>
<path d="M16.8289 49.3289C18.8768 49.3289 20.537 46.9311 20.537 43.9732C20.537 41.0153 18.8768 38.6175 16.8289 38.6175C14.781 38.6175 13.1208 41.0153 13.1208 43.9732C13.1208 46.9311 14.781 49.3289 16.8289 49.3289Z" fill="white"/>
<path d="M13.1208 43.9732C13.1208 41.0135 14.6896 38.6175 16.8289 38.6175C18.9682 38.6175 20.537 41.0135 20.537 43.9732" fill="#E5E5E5"/>
<path d="M27.953 67.3691C30.001 67.3691 31.6611 64.9713 31.6611 62.0134C31.6611 59.0556 30.001 56.6577 27.953 56.6577C25.9051 56.6577 24.245 59.0556 24.245 62.0134C24.245 64.9713 25.9051 67.3691 27.953 67.3691Z" fill="white"/>
<path d="M24.245 62.0134C24.245 59.0537 25.8138 56.6577 27.953 56.6577C30.0923 56.6577 31.6611 59.0537 31.6611 62.0134" fill="#E5E5E5"/>
</svg>
