<svg width="89" height="89" viewBox="0 0 89 89" fill="none" xmlns="http://www.w3.org/2000/svg">
<path d="M59.5714 76.1428V72.4285C59.5714 70.5714 58.5714 69 56.7143 69C54.8571 69 53.8571 70.5714 53.8571 72.4285V76.1428H45.2857V72.4285C45.2857 70.5714 44.2857 69 42.4286 69C40.5714 69 39.5714 70.5714 39.5714 72.4285V76.1428H31V72.4285C31 70.5714 30 69 28.1429 69C26.2857 69 25.2857 70.5714 25.2857 72.4285V76.1428H16.7143V72.4285C16.7143 70.5714 15.7143 69 13.8571 69C12 69 11 70.5714 11 72.4285V76.1428V88.9999H59.5714V76.1428Z" fill="#009AAF"/>
<path d="M59.5714 88.9999V76.1428V72.4285C59.5714 70.5714 58.5714 69 56.7142 69C54.8571 69 53.8571 70.5714 53.8571 72.4285V76.1428H45.2857V72.4285C45.2857 70.5714 44.2857 69 42.4285 69C40.5714 69 39.5714 70.5714 39.5714 72.4285V76.1428H30.9999V72.4285C30.9999 70.5714 29.9999 69 28.1428 69C26.2857 69 25.2857 70.5714 25.2857 72.4285V76.1428H16.7142" fill="#006884"/>
<path d="M22.4286 74.7143V12.5715C22.4286 11.7143 21.8571 11 21 11C20.1428 11 19.5714 11.7143 19.5714 12.5715V74.7143H22.4286Z" fill="#EAAA0A"/>
<path d="M20.7143 8.85714C23.1602 8.85714 25.1429 6.8744 25.1429 4.42857C25.1429 1.98274 23.1602 0 20.7143 0C18.2685 0 16.2858 1.98274 16.2858 4.42857C16.2858 6.8744 18.2685 8.85714 20.7143 8.85714Z" fill="#FF5512"/>
<path d="M19.0153 2.51719C19.6264 1.79404 19.9263 1.0427 19.6853 0.839016C19.4442 0.635334 18.7535 1.05644 18.1424 1.77959C17.5314 2.50273 17.2314 3.25408 17.4725 3.45776C17.7135 3.66144 18.4043 3.24033 19.0153 2.51719Z" fill="#FFCDBD"/>
<path d="M23.8571 1.28571C25.5714 2.99999 25.5714 5.85713 23.8571 7.57142C22.1428 9.28571 19.2857 9.28571 17.5714 7.57142" fill="#CC3006"/>
<path d="M23.8572 13V34.1429L62.4286 23.4286L23.8572 13Z" fill="#FF5512"/>
<path d="M49.5714 33.1429V48.8572L78 41L49.5714 33.1429Z" fill="#FF5512"/>
<path d="M62.4286 23.4286V36.7143L38.4286 30L62.4286 23.4286Z" fill="#CC3006"/>
<path d="M25.2857 85.1429C26.1535 85.1429 26.8571 84.4394 26.8571 83.5715C26.8571 82.7036 26.1535 82.0001 25.2857 82.0001C24.4178 82.0001 23.7142 82.7036 23.7142 83.5715C23.7142 84.4394 24.4178 85.1429 25.2857 85.1429Z" fill="white"/>
<path d="M35.2857 85.1429C36.1535 85.1429 36.8571 84.4394 36.8571 83.5715C36.8571 82.7036 36.1535 82.0001 35.2857 82.0001C34.4178 82.0001 33.7142 82.7036 33.7142 83.5715C33.7142 84.4394 34.4178 85.1429 35.2857 85.1429Z" fill="white"/>
<path d="M45.2857 85.1429C46.1535 85.1429 46.8571 84.4394 46.8571 83.5715C46.8571 82.7036 46.1535 82.0001 45.2857 82.0001C44.4178 82.0001 43.7142 82.7036 43.7142 83.5715C43.7142 84.4394 44.4178 85.1429 45.2857 85.1429Z" fill="white"/>
</svg>
