<svg width="88" height="88" viewBox="0 0 88 88" fill="none" xmlns="http://www.w3.org/2000/svg">
<g clip-path="url(#clip0_39_772)">
<path d="M51.0968 53.0838C51.0968 54.3612 50.1032 55.3548 48.8258 55.3548H39.3161C38.0387 55.3548 37.0452 54.3612 37.0452 53.0838V39.3161C37.0452 38.0387 38.0387 37.0451 39.3161 37.0451H48.8258C50.1032 37.0451 51.0968 38.0387 51.0968 39.3161V53.0838Z" fill="#3A2819"/>
<path d="M88 82.6065C88 84.4516 86.5806 86.5806 84.7355 86.5806H3.26452C1.41935 86.5806 0 84.4516 0 82.6065V48.4C0 46.5548 1.41935 45.4194 3.26452 45.4194H84.7355C86.5806 45.4194 88 46.5548 88 48.4V82.6065V82.6065Z" fill="#A09D93"/>
<path d="M88 78.2064C88 80.0516 86.5806 80.9032 84.7355 80.9032H3.26452C1.41935 80.9032 0 80.0516 0 78.2064V44C0 42.1548 1.41935 41.1613 3.26452 41.1613H84.7355C86.5806 41.1613 88 42.1548 88 44V78.2064V78.2064Z" fill="#D8D6CA"/>
<path d="M2.83862 41.1613H84.7354C86.5806 41.1613 87.9999 42.1548 87.9999 44V78.2064C87.9999 80.0516 86.5806 80.9032 84.7354 80.9032" fill="#C1BDAE"/>
<path d="M49.6773 59.329C49.6773 59.471 49.5354 59.6129 49.3935 59.6129H38.6064C38.4644 59.6129 38.3225 59.471 38.3225 59.329V57.0581C38.3225 56.9161 38.4644 56.7742 38.6064 56.7742H49.3935C49.5354 56.7742 49.6773 56.9161 49.6773 57.0581V59.329Z" fill="#F9A12C"/>
<path d="M39.7419 56.7742H49.6774V59.329C49.6774 59.471 49.5355 59.6129 49.3936 59.6129" fill="#E88813"/>
<path d="M49.6773 66.4258C49.6773 66.5677 49.5354 66.7097 49.3935 66.7097H38.6064C38.4644 66.7097 38.3225 66.5677 38.3225 66.4258V64.1548C38.3225 64.0129 38.4644 63.871 38.6064 63.871H49.3935C49.5354 63.871 49.6773 64.0129 49.6773 64.1548V66.4258Z" fill="#F9A12C"/>
<path d="M39.7419 63.871H49.6774V66.4258C49.6774 66.5677 49.5355 66.7097 49.3936 66.7097" fill="#E88813"/>
<path d="M32.6452 72.529C32.6452 73.8065 31.7936 75.2258 30.5162 75.2258H7.52265C6.24523 75.2258 5.67749 73.8065 5.67749 72.529V49.6774C5.67749 48.4 6.24523 46.8387 7.52265 46.8387H30.3743C31.6517 46.8387 32.5033 48.2581 32.5033 49.6774V72.529H32.6452Z" fill="#3A2819"/>
<path d="M82.3226 72.8129C82.3226 74.0903 81.1872 75.2258 79.9097 75.2258H56.3485C55.071 75.2258 53.9355 74.0903 53.9355 72.8129V49.2516C53.9355 47.9742 55.071 46.8387 56.3485 46.8387H79.9097C81.1872 46.8387 82.3226 47.9742 82.3226 49.2516V72.8129Z" fill="#3A2819"/>
<path d="M26.9678 56.7742H24.1291V53.0839C24.1291 52.0903 23.1355 51.0968 22.2839 51.0968H15.8968C14.9033 51.0968 14.1936 52.0903 14.1936 53.0839V56.7742H11.071C10.0775 56.7742 9.93555 56.9161 9.93555 57.9097V64.2968C9.93555 65.2903 10.0775 66.7097 11.071 66.7097H14.1936V69.1226C14.1936 70.1161 14.9033 70.9677 15.8968 70.9677H22.2839C23.2775 70.9677 24.1291 69.9742 24.1291 69.1226V66.7097H26.9678C27.9614 66.7097 28.3872 65.2903 28.3872 64.2968V57.9097C28.3872 56.9161 27.9614 56.7742 26.9678 56.7742Z" fill="#EA1F0A"/>
<path d="M14.1936 66.7097V69.1226C14.1936 70.1161 14.9033 70.9678 15.8968 70.9678H22.2839C23.2775 70.9678 24.1291 69.9742 24.1291 69.1226V66.7097H26.9678C27.9613 66.7097 28.3872 65.2903 28.3872 64.2968V57.9097C28.3872 56.9161 27.9613 56.7742 26.9678 56.7742H24.1291" fill="#BC0400"/>
<path d="M68.9805 56.6322C68.9805 59.6128 66.5676 61.8838 63.7289 61.8838C60.7483 61.8838 58.4773 59.4709 58.4773 56.6322C58.4773 53.6515 60.8902 51.3806 63.7289 51.3806C66.5676 51.3806 68.9805 53.7935 68.9805 56.6322Z" fill="#329908"/>
<path d="M67.4193 52.942C69.5483 55.071 69.5483 58.3356 67.4193 60.4646C65.2903 62.5936 62.0258 62.5936 59.8967 60.4646" fill="#236D00"/>
<path d="M78.9161 65.5743C78.9161 68.5549 76.5032 70.8259 73.6645 70.8259C70.6838 70.8259 68.4128 68.413 68.4128 65.5743C68.4128 62.5937 70.8257 60.3227 73.6645 60.3227C76.5032 60.1807 78.9161 62.5937 78.9161 65.5743Z" fill="#07BED6"/>
<path d="M77.3549 61.7419C79.4839 63.871 79.4839 67.1355 77.3549 69.2645C75.2258 71.3936 71.9613 71.3936 69.8323 69.2645" fill="#00A1AD"/>
<path d="M84.1678 44C84.1678 44.5677 83.7419 45.4194 83.1742 45.4194H4.82582C4.25808 45.4194 3.83228 44.5677 3.83228 44C3.83228 43.4323 4.25808 42.5806 4.82582 42.5806H83.1742C83.7419 42.5806 84.1678 43.4323 84.1678 44Z" fill="#D8D6CA"/>
<path d="M45.4194 34.0645H41.1613V24.2709C41.1613 21.7161 39.4581 19.729 37.0452 19.729C34.6323 19.729 32.7871 21.2903 32.7871 24.129H28.5291C28.5291 19.8709 32.0774 15.329 36.9032 15.329C41.729 15.329 45.2774 19.3032 45.2774 24.129V34.0645H45.4194V34.0645Z" fill="#4C5254"/>
<path d="M30.658 22C29.5225 22 28.5289 22.9935 28.5289 24.129C28.5289 26.6839 26.6838 28.671 24.1289 28.671C21.5741 28.671 19.8709 26.6839 19.8709 24.129V1.41936H15.6128V24.129C15.6128 28.9548 19.3031 32.929 24.2709 32.929C29.2386 32.929 32.9289 28.9548 32.9289 24.129C32.9289 22.9935 31.7934 22 30.658 22Z" fill="#2F423F"/>
</g>
<defs>
<clipPath id="clip0_39_772">
<rect width="88" height="88" fill="white"/>
</clipPath>
</defs>
</svg>
