<svg width="88" height="88" viewBox="0 0 88 88" fill="none" xmlns="http://www.w3.org/2000/svg">
<path d="M76.4156 0H49.0221C47.7447 0 47.035 0.283871 47.035 1.27742V6.24516V6.3871V15.6129V15.471L12.9705 38.1806V75.3677C12.9705 84.4516 16.8027 88 25.8866 88H65.4866C74.5705 88 78.2608 87.7161 78.2608 78.6323V29.2387C78.2608 28.529 78.2608 27.9613 78.2608 27.2516C78.2608 27.1097 78.2608 27.1097 78.2608 26.9677V6.10323V5.53548V1.27742C78.2608 0.283871 77.693 0 76.4156 0ZM55.5511 15.6129V8.51613H69.7447V15.6129H67.0479H55.5511Z" fill="#40BF16"/>
<path d="M25.7447 88H65.4866C74.5705 88 78.2608 87.7161 78.2608 78.6323V29.2387C78.2608 28.529 78.2608 27.9613 78.2608 27.2516C78.2608 27.1097 78.2608 27.1097 78.2608 26.9678V6.10324V5.67743L25.7447 88ZM47.035 15.471L35.964 30.0903L12.9705 38.0387" fill="#239B02"/>
<path d="M60.235 26.9677H46.3254L22.906 42.5806V67.9871C22.906 74.2323 25.8867 76.6452 32.1318 76.6452H59.2415C65.4866 76.6452 68.3253 76.5032 68.3253 70.2581V36.4774C68.3253 30.2323 66.4802 26.9677 60.235 26.9677Z" fill="#227208"/>
<path d="M42.4931 10.0774C43.4866 11.6387 42.4931 12.7742 40.9318 13.7677L17.9382 28.529C16.377 29.5225 14.9576 29.9484 13.9641 28.3871L10.2737 22.5677C9.28018 21.0064 9.70599 19.0193 11.2673 18.0258L34.2608 3.26448C35.8221 2.27093 37.8092 2.69674 38.8028 4.25803L42.4931 10.0774Z" fill="#FF5512"/>
<path d="M38.8027 4.39996L42.493 10.2193C43.4866 11.7806 42.493 12.9161 40.9317 13.9096L17.9382 28.529C16.3769 29.5225 14.9576 29.9483 13.964 28.3871L10.2737 22.5677" fill="#CC3006"/>
<path d="M21.4517 29.9077L40.8267 17.523L39.1447 14.8918L19.7698 27.2765L21.4517 29.9077Z" fill="#252828"/>
<path d="M17.7962 24.1291C18.0801 24.5549 17.9381 24.9807 17.5123 25.2645C17.0865 25.5484 16.6607 25.4065 16.3768 24.9807L13.822 20.8646C13.5381 20.4388 13.6801 20.0129 14.1059 19.7291C14.5317 19.4452 14.9575 19.5871 15.2414 20.0129L17.7962 24.1291Z" fill="#A52713"/>
<path d="M21.9124 21.4324C22.1963 21.8582 22.0543 22.284 21.6285 22.5678C21.2027 22.8517 20.7769 22.7098 20.4931 22.284L17.9382 18.1678C17.6543 17.742 17.7963 17.3162 18.2221 17.0324C18.6479 16.7485 19.0737 16.8904 19.3576 17.3162L21.9124 21.4324Z" fill="#A52713"/>
<path d="M26.0286 18.7355C26.3125 19.1613 26.1705 19.5871 25.7447 19.871C25.3189 20.1549 24.8931 20.0129 24.6093 19.5871L22.0544 15.6129C21.7706 15.1871 21.9125 14.7613 22.3383 14.4774C22.7641 14.1936 23.1899 14.3355 23.4738 14.7613L26.0286 18.7355Z" fill="#A52713"/>
<path d="M30.1446 16.1807C30.4285 16.6066 30.2865 17.0324 29.8607 17.3162C29.4349 17.6001 29.0091 17.4582 28.7252 17.0324L26.1704 12.9162C25.8865 12.4904 26.0285 12.0646 26.4543 11.7807C26.8801 11.4969 27.3059 11.6388 27.5897 12.0646L30.1446 16.1807Z" fill="#A52713"/>
<path d="M34.2606 13.484C34.5444 13.9098 34.4025 14.3356 33.9767 14.6195C33.5509 14.9033 33.1251 14.7614 32.8412 14.3356L30.2864 10.2195C30.0025 9.93558 30.1444 9.50977 30.5702 9.2259C30.996 8.94203 31.4218 9.08397 31.7057 9.50977L34.2606 13.484Z" fill="#A52713"/>
<path d="M38.3768 10.9291C38.6606 11.3549 38.5187 11.7807 38.0929 12.0646C37.6671 12.3484 37.2413 12.2065 36.9574 11.7807L34.4026 7.66458C34.1187 7.23877 34.2606 6.81297 34.6864 6.5291C35.1122 6.24522 35.5381 6.38716 35.8219 6.81297L38.3768 10.9291Z" fill="#A52713"/>
<path d="M47.1767 56.7742C46.7509 57.2 45.8993 57.2 45.3316 56.7742C44.9058 56.3484 44.9058 55.4968 45.3316 54.929L56.8283 43.4323C57.2541 43.0064 58.1058 43.0064 58.6735 43.4323C59.0993 43.8581 59.0993 44.7097 58.6735 45.2774L47.1767 56.7742Z" fill="#239B02"/>
<path d="M44.1963 56.7742C44.6221 57.2 45.4737 57.2 46.0414 56.7742C46.4672 56.3484 46.4672 55.4968 46.0414 54.929L34.5446 43.4323C34.1188 43.0064 33.2672 43.0064 32.6995 43.4323C32.2737 43.8581 32.2737 44.7097 32.6995 45.2774L44.1963 56.7742Z" fill="#40BF16"/>
<path d="M44.1963 56.4903C44.6221 56.0645 45.4737 56.0645 46.0414 56.4903C46.4672 56.9162 46.4672 57.7678 46.0414 58.3355L34.5446 69.8323C34.1188 70.2581 33.2672 70.2581 32.6995 69.8323C32.2737 69.4065 32.2737 68.5549 32.6995 67.9871L44.1963 56.4903Z" fill="#239B02"/>
<path d="M47.177 56.4903C46.7512 56.0645 45.8995 56.0645 45.3318 56.4903C44.906 56.9162 44.906 57.7678 45.3318 58.3355L56.8286 69.8323C57.2544 70.2581 58.106 70.2581 58.6737 69.8323C59.0995 69.4065 59.0995 68.5549 58.6737 67.9871L47.177 56.4903Z" fill="#239B02"/>
</svg>
