<svg width="89" height="89" viewBox="0 0 89 89" fill="none" xmlns="http://www.w3.org/2000/svg">
<g clip-path="url(#clip0_39_869)">
<path d="M18.5716 57.9286C18.5716 60.6429 16.2859 63.0715 13.5716 63.0715H5.28585C2.57157 63.0715 0.428711 60.6429 0.428711 57.9286L6.85728 33.5C6.85728 30.7858 9.00014 28.7858 11.7144 28.7858H20.0001C22.7144 28.7858 24.8573 30.3572 24.8573 33.0715L18.5716 57.9286Z" fill="#454949"/>
<path d="M69 23.0715H6.14286V33.5L0 57.9286C0 60.6429 2.57143 63.0715 5.28571 63.0715H13.5714C16.2857 63.0715 18.5714 60.6429 18.5714 57.9286L22 44.5H38.2857C41 44.5 41.8571 42.3572 41.8571 39.6429V33.0715H69V23.0715ZM36.1429 37.0715C36.1429 39.2143 35.8571 41.6429 33.7143 41.6429H23L25 33.0715H36.1429V37.0715Z" fill="#454949"/>
<path d="M21.8571 44.5H38.2857C41 44.5 41.8571 42.3572 41.8571 39.6429V33.0715H69V23.0715H6.14282V33.0715L21.8571 44.5ZM36.1428 37.0715C36.1428 39.2143 35.8571 41.6429 33.7143 41.6429H23L25 33.0715H36.1428V37.0715Z" fill="#252828"/>
<path d="M30.4286 40.2143H28.5715L26.8572 34.5H30.4286V40.2143Z" fill="#2ABA9E"/>
<path d="M27.5715 34.5H30.4287V40.2143" fill="#1A9992"/>
<path d="M73.7141 4.50005L72.1427 10.2143H9.57125L6.71411 21.6429H76.1427V10.6429V10.3572V4.50005H73.7141Z" fill="#2ABA9E"/>
<path d="M12.7142 37.3572H5.14275L4.42847 40.2143H12.7142C13.2856 40.2143 13.7142 39.3572 13.7142 38.7858C13.7142 38.2143 13.2856 37.3572 12.7142 37.3572Z" fill="#2ABA9E"/>
<path d="M11.2855 43.0715H3.71404L2.99976 45.9286H11.2855C11.8569 45.9286 12.2855 45.0715 12.2855 44.5001C12.2855 43.9286 11.8569 43.0715 11.2855 43.0715Z" fill="#2ABA9E"/>
<path d="M9.857 48.7858H2.28557L1.57129 51.6429H9.857C10.4284 51.6429 10.857 50.7858 10.857 50.2143C10.857 49.6429 10.4284 48.7858 9.857 48.7858Z" fill="#2ABA9E"/>
<path d="M70.4287 31.6429C70.4287 32.5 69.8572 33.0715 69.0001 33.0715C68.143 33.0715 67.5715 32.5 67.5715 31.6429V24.5C67.5715 23.6429 68.143 23.0715 69.0001 23.0715C69.8572 23.0715 70.4287 23.6429 70.4287 24.5V31.6429Z" fill="#252828"/>
<path d="M8.57125 14.5L6.71411 21.6429H76.1427V14.5H8.57125Z" fill="#1A9992"/>
<path d="M76.1429 20.5C76.1429 21.0715 75.2858 21.6429 74.7143 21.6429C74.1429 21.6429 73.2858 21.0715 73.2858 20.5V15.6429C73.2858 15.0715 74.1429 14.5 74.7143 14.5C75.2858 14.5 76.1429 15.0715 76.1429 15.6429V20.5Z" fill="#2ABA9E"/>
<path d="M6.14282 64.5001H10.4285V74.9286C10.4285 77.5001 12.2857 79.2143 14.8571 79.2143C17.4285 79.2143 19.2857 77.3572 19.2857 74.5001H23.5714C23.5714 80.2143 19.7143 83.5001 14.8571 83.5001C9.99997 83.5001 6.14282 79.7858 6.14282 74.9286V64.5001V64.5001Z" fill="#4C5254"/>
<path d="M21.2857 77.0714C22.4285 77.0714 23.4285 76.0714 23.4285 74.9286C23.4285 72.3571 25.8571 70.3571 28.2857 70.3571C30.7143 70.3571 33.1428 72.3571 33.1428 74.9286V84.5H37.4285V74.9286C37.4285 70.0714 33.1428 66.0714 28.2857 66.0714C23.4285 66.0714 19.1428 70.0714 19.1428 74.9286C19.1428 76.2143 20.1428 77.0714 21.2857 77.0714Z" fill="#252828"/>
<path d="M39.5716 29.3571C40.2817 29.3571 40.8573 28.7815 40.8573 28.0714C40.8573 27.3613 40.2817 26.7857 39.5716 26.7857C38.8615 26.7857 38.2859 27.3613 38.2859 28.0714C38.2859 28.7815 38.8615 29.3571 39.5716 29.3571Z" fill="#2ABA9E"/>
<path d="M46.5716 29.3571C47.2817 29.3571 47.8573 28.7815 47.8573 28.0714C47.8573 27.3613 47.2817 26.7857 46.5716 26.7857C45.8615 26.7857 45.2859 27.3613 45.2859 28.0714C45.2859 28.7815 45.8615 29.3571 46.5716 29.3571Z" fill="#2ABA9E"/>
<path d="M53.5716 29.3571C54.2817 29.3571 54.8573 28.7815 54.8573 28.0714C54.8573 27.3613 54.2817 26.7857 53.5716 26.7857C52.8615 26.7857 52.2859 27.3613 52.2859 28.0714C52.2859 28.7815 52.8615 29.3571 53.5716 29.3571Z" fill="#2ABA9E"/>
<path d="M77.5714 33.5C74.5714 33.5 72 31.0715 72 27.9286C72 24.7858 74.4286 22.3572 77.5714 22.3572" fill="#EA1F0A"/>
<path d="M89 27.3572H76C75.2857 27.3572 74.8572 27.3572 74.8572 28.0715C74.8572 28.7857 75.4286 28.7857 76 28.7857H89V27.3572Z" fill="#FF5512"/>
</g>
<defs>
<clipPath id="clip0_39_869">
<rect width="89" height="89" fill="white"/>
</clipPath>
</defs>
</svg>
