<svg width="86" height="86" viewBox="0 0 86 86" fill="none" xmlns="http://www.w3.org/2000/svg">
<path d="M25.2361 86L0 60.7639V25.2361L25.2361 0H60.7639L86 25.2361V60.7639L60.7639 86H25.2361Z" fill="#5E5E5E"/>
<path d="M26.082 83.7442L2.25574 59.918V26.0819L26.082 2.25571H59.918L83.7443 26.0819V59.918L59.918 83.7442H26.082Z" fill="white"/>
<path d="M58.5082 2.25571L2.25574 58.5082V59.918L26.082 83.7442H59.918L83.7443 59.918V26.0819L59.918 2.25571H58.5082Z" fill="#E4EAEA"/>
<path d="M26.0819 83.7443H59.918L83.7442 59.918V26.082" fill="#DAE0E0"/>
<path d="M50.0492 9.58683C50.0492 10.1508 49.6262 10.5737 49.0623 10.5737H36.7967C36.3738 10.5737 35.9508 10.1508 35.9508 9.58683C35.9508 9.0229 36.3738 8.59995 36.9377 8.59995H49.2033C49.6262 8.74093 50.0492 9.16388 50.0492 9.58683Z" fill="#5E5E5E"/>
<path d="M50.0492 12.9705C50.0492 13.5344 49.6262 13.9574 49.0623 13.9574H36.7967C36.2328 13.9574 35.8098 13.5344 35.8098 12.9705C35.8098 12.4065 36.2328 11.9836 36.7967 11.9836H49.0623C49.6262 11.9836 50.0492 12.4065 50.0492 12.9705Z" fill="#5E5E5E"/>
<path d="M50.0492 16.2131C50.0492 16.777 49.6262 17.2 49.0623 17.2H36.7967C36.2328 17.2 35.8098 16.777 35.8098 16.2131C35.8098 15.6491 36.2328 15.2262 36.7967 15.2262H49.0623C49.6262 15.2262 50.0492 15.6491 50.0492 16.2131Z" fill="#5E5E5E"/>
<path d="M50.0492 69.7869C50.0492 70.3508 49.6262 70.7737 49.0623 70.7737H36.7967C36.2328 70.7737 35.8098 70.3508 35.8098 69.7869C35.8098 69.2229 36.2328 68.8 36.7967 68.8H49.0623C49.6262 68.8 50.0492 69.2229 50.0492 69.7869Z" fill="#5E5E5E"/>
<path d="M50.0492 73.0295C50.0492 73.5934 49.6262 74.0163 49.0623 74.0163H36.7967C36.2328 74.0163 35.8098 73.5934 35.8098 73.0295C35.8098 72.4655 36.2328 72.0426 36.7967 72.0426H49.0623C49.6262 72.0426 50.0492 72.4655 50.0492 73.0295Z" fill="#5E5E5E"/>
<path d="M50.0492 76.4131C50.0492 76.977 49.6262 77.4 49.0623 77.4H36.7967C36.2328 77.4 35.8098 76.977 35.8098 76.4131C35.8098 75.8492 36.2328 75.4262 36.7967 75.4262H49.0623C49.6262 75.4262 50.0492 75.8492 50.0492 76.4131Z" fill="#5E5E5E"/>
<path d="M24.3902 14.3803C24.8131 14.8032 24.8131 15.3672 24.3902 15.7901L15.7902 24.3901C15.3672 24.8131 14.8033 24.8131 14.3803 24.3901C13.9574 23.9672 13.9574 23.4032 14.3803 22.9803L22.9803 14.3803C23.4033 14.0983 24.1082 14.0983 24.3902 14.3803Z" fill="#5E5E5E"/>
<path d="M26.7869 16.777C27.2098 17.2 27.2098 17.7639 26.7869 18.1869L18.1869 26.7868C17.7639 27.2098 17.2 27.2098 16.7771 26.7868C16.3541 26.3639 16.3541 25.8 16.7771 25.377L25.3771 16.777C25.8 16.3541 26.3639 16.3541 26.7869 16.777Z" fill="#5E5E5E"/>
<path d="M29.0426 19.0327C29.4656 19.4557 29.4656 20.0196 29.0426 20.4426L20.4426 29.0426C20.0197 29.4655 19.4557 29.4655 19.0328 29.0426C18.6098 28.6196 18.6098 28.0557 19.0328 27.6327L27.6328 19.0327C28.0557 18.7508 28.7607 18.7508 29.0426 19.0327Z" fill="#5E5E5E"/>
<path d="M66.9672 56.9573C67.3901 57.3802 67.3901 57.9442 66.9672 58.3671L58.2262 66.9671C57.8032 67.3901 57.2393 67.3901 56.8164 66.9671C56.3934 66.5442 56.3934 65.9803 56.8164 65.5573L65.4164 56.9573C65.9803 56.5343 66.5442 56.5343 66.9672 56.9573Z" fill="#5E5E5E"/>
<path d="M69.2229 59.2131C69.6459 59.636 69.6459 60.1999 69.2229 60.6229L60.6229 69.2229C60.2 69.6458 59.636 69.6458 59.2131 69.2229C58.7901 68.7999 58.7901 68.236 59.2131 67.8131L67.8131 59.2131C68.236 58.9311 68.9409 58.9311 69.2229 59.2131Z" fill="#5E5E5E"/>
<path d="M71.6196 61.6098C72.0426 62.0328 72.0426 62.5967 71.6196 63.0196L63.0196 71.6196C62.5967 72.0426 62.0328 72.0426 61.6098 71.6196C61.1869 71.1967 61.1869 70.6328 61.6098 70.2098L70.2098 61.6098C70.6328 61.1869 71.1967 61.1869 71.6196 61.6098Z" fill="#5E5E5E"/>
<path d="M9.58686 35.9508C10.1508 35.9508 10.5737 36.3738 10.5737 36.9377V49.2033C10.5737 49.6262 10.1508 50.0492 9.58686 50.0492C9.02293 50.0492 8.59998 49.6262 8.59998 49.0623V36.7967C8.74096 36.3738 9.16391 35.9508 9.58686 35.9508Z" fill="#5E5E5E"/>
<path d="M12.9705 35.9508C13.5345 35.9508 13.9574 36.3738 13.9574 36.9377V49.2033C13.9574 49.7672 13.5345 50.1901 12.9705 50.1901C12.4066 50.1901 11.9836 49.7672 11.9836 49.2033V36.9377C11.9836 36.3738 12.4066 35.9508 12.9705 35.9508Z" fill="#5E5E5E"/>
<path d="M16.2131 35.9508C16.777 35.9508 17.2 36.3738 17.2 36.9377V49.2033C17.2 49.7672 16.777 50.1901 16.2131 50.1901C15.6491 50.1901 15.2262 49.7672 15.2262 49.2033V36.9377C15.2262 36.3738 15.6491 35.9508 16.2131 35.9508Z" fill="#5E5E5E"/>
<path d="M69.7868 35.9508C70.3507 35.9508 70.7737 36.3738 70.7737 36.9377V49.2033C70.7737 49.7672 70.3507 50.1901 69.7868 50.1901C69.2229 50.1901 68.7999 49.7672 68.7999 49.2033V36.9377C68.7999 36.3738 69.2229 35.9508 69.7868 35.9508Z" fill="#5E5E5E"/>
<path d="M73.0295 35.9508C73.5934 35.9508 74.0164 36.3738 74.0164 36.9377V49.2033C74.0164 49.7672 73.5934 50.1901 73.0295 50.1901C72.4656 50.1901 72.0426 49.7672 72.0426 49.2033V36.9377C72.0426 36.3738 72.4656 35.9508 73.0295 35.9508Z" fill="#5E5E5E"/>
<path d="M76.4132 35.9508C76.9771 35.9508 77.4 36.3738 77.4 36.9377V49.2033C77.4 49.7672 76.9771 50.1901 76.4132 50.1901C75.8492 50.1901 75.4263 49.7672 75.4263 49.2033V36.9377C75.4263 36.3738 75.8492 35.9508 76.4132 35.9508Z" fill="#5E5E5E"/>
<path d="M14.3803 61.6098C14.8032 61.1869 15.3672 61.1869 15.7901 61.6098L24.3901 70.2098C24.8131 70.6328 24.8131 71.1967 24.3901 71.6196C23.9672 72.0426 23.4032 72.0426 22.9803 71.6196L14.3803 63.0196C14.0983 62.5967 14.0983 61.8918 14.3803 61.6098Z" fill="#5E5E5E"/>
<path d="M16.7771 59.2131C17.2 58.7901 17.7639 58.7901 18.1869 59.2131L26.7869 67.813C27.2098 68.236 27.2098 68.7999 26.7869 69.2229C26.3639 69.6458 25.8 69.6458 25.3771 69.2229L16.7771 60.6229C16.3541 60.1999 16.3541 59.636 16.7771 59.2131Z" fill="#5E5E5E"/>
<path d="M19.0328 56.9573C19.4557 56.5343 20.0196 56.5343 20.4426 56.9573L29.0426 65.5573C29.4656 65.9803 29.4656 66.5442 29.0426 66.9671C28.6197 67.3901 28.0557 67.3901 27.6328 66.9671L19.0328 58.2261C18.7508 57.9442 18.7508 57.2393 19.0328 56.9573Z" fill="#5E5E5E"/>
<path d="M56.9573 19.0327C57.3803 18.6097 57.9442 18.6097 58.3672 19.0327L66.9672 27.6327C67.3901 28.0557 67.3901 28.6196 66.9672 29.0425C66.5442 29.4655 65.9803 29.4655 65.5573 29.0425L56.9573 20.4425C56.5344 20.0196 56.5344 19.4556 56.9573 19.0327Z" fill="#5E5E5E"/>
<path d="M59.2131 16.777C59.636 16.3541 60.1999 16.3541 60.6229 16.777L69.2229 25.377C69.6459 25.8 69.6459 26.3639 69.2229 26.7868C68.8 27.2098 68.236 27.2098 67.8131 26.7868L59.2131 18.1869C58.9311 17.7639 58.9311 17.059 59.2131 16.777Z" fill="#5E5E5E"/>
<path d="M61.6098 14.3803C62.0328 13.9573 62.5967 13.9573 63.0196 14.3803L71.6196 22.9803C72.0426 23.4032 72.0426 23.9671 71.6196 24.3901C71.1967 24.813 70.6328 24.813 70.2098 24.3901L61.6098 15.7901C61.1869 15.3671 61.1869 14.8032 61.6098 14.3803Z" fill="#5E5E5E"/>
<path d="M43 61.1868C53.0443 61.1868 61.1869 53.0443 61.1869 42.9999C61.1869 32.9556 53.0443 24.8131 43 24.8131C32.9557 24.8131 24.8131 32.9556 24.8131 42.9999C24.8131 53.0443 32.9557 61.1868 43 61.1868Z" fill="#5E5E5E"/>
<path d="M55.8295 30.1705C62.8787 37.2197 62.8787 48.7804 55.8295 55.8295C48.7804 62.8787 37.2197 62.8787 30.1705 55.8295" fill="#484949"/>
<path d="M30.5934 41.3083C30.1705 41.3083 29.7475 41.3083 29.4656 41.4493C29.3246 41.4493 29.3246 41.5902 29.3246 41.5902V45.8198C29.3246 45.9607 29.4656 45.9607 29.4656 45.9607C29.7475 45.9607 30.1705 45.9607 30.4525 45.9607C31.2984 45.9607 32.0033 45.6788 32.4262 45.2558C32.8492 44.8329 33.1311 44.2689 33.1311 43.423C33.1311 42.7181 32.8492 42.1542 32.4262 41.7312C32.1443 41.5902 31.4393 41.3083 30.5934 41.3083ZM30.5934 45.2558C30.4525 45.2558 30.3115 45.2558 30.1705 45.2558V42.2952C30.3115 42.2952 30.4525 42.2952 30.5934 42.2952C31.1574 42.2952 31.4393 42.4361 31.7213 42.7181C32.0033 43.0001 32.1443 43.282 32.1443 43.705C32.1443 44.6919 31.7213 45.2558 30.5934 45.2558Z" fill="#484949"/>
<path d="M37.5017 41.4492H36.9377C36.7967 41.4492 36.7967 41.5902 36.7967 41.5902V43.141H35.1049V41.5902C35.1049 41.4492 34.964 41.4492 34.964 41.4492H34.4C34.259 41.4492 34.259 41.5902 34.259 41.5902V45.8197C34.259 45.9607 34.4 45.9607 34.4 45.9607H34.964C35.1049 45.9607 35.1049 45.8197 35.1049 45.8197V43.9869H36.7967V45.8197C36.7967 45.9607 36.9377 45.9607 36.9377 45.9607H37.5017C37.6426 45.9607 37.6426 45.8197 37.6426 45.8197V41.5902C37.6426 41.4492 37.6426 41.4492 37.5017 41.4492Z" fill="#484949"/>
<path d="M41.0262 41.5902C41.0262 41.4492 40.8853 41.4492 40.8853 41.4492H40.1803C40.0394 41.4492 40.0394 41.4492 40.0394 41.5902L38.6295 45.8197V45.9607L38.7705 46.1017H39.3344C39.4754 46.1017 39.4754 46.1017 39.4754 45.9607L39.8984 44.6918H41.1672L41.5902 45.9607C41.5902 46.1017 41.7312 46.1017 41.7312 46.1017H42.2951C42.2951 46.1017 42.4361 46.1017 42.4361 45.9607V45.8197L41.0262 41.5902ZM40.8853 43.8459H40.1803L40.4623 42.8591V42.7181V42.8591L40.8853 43.8459Z" fill="#484949"/>
<path d="M46.2426 44.6919C46.1016 44.2689 45.9607 44.1279 45.8197 43.846C46.2426 43.564 46.3836 43.1411 46.3836 42.7181C46.3836 42.2952 46.2426 42.0132 45.9607 41.7312C45.6787 41.4493 45.2557 41.3083 44.5508 41.3083C44.1279 41.3083 43.7049 41.3083 43.423 41.4493C43.282 41.4493 43.282 41.5902 43.282 41.5902V45.8198C43.282 45.9607 43.423 45.9607 43.423 45.9607H43.9869C44.1279 45.9607 44.1279 45.8198 44.1279 45.8198V44.1279H44.4098C44.8328 44.1279 44.9738 44.2689 45.1148 44.8329C45.2557 45.5378 45.3967 45.8197 45.3967 45.9607L45.5377 46.1017H46.1016C46.1016 46.1017 46.2426 46.1017 46.2426 45.9607V45.8198C46.5246 45.6788 46.3836 45.1148 46.2426 44.6919ZM45.3967 42.7181C45.3967 43.1411 45.1148 43.282 44.6918 43.282H44.2689V42.1542C44.4098 42.1542 44.4098 42.1542 44.5508 42.1542C45.3967 42.1542 45.3967 42.5771 45.3967 42.7181Z" fill="#484949"/>
<path d="M51.6 41.4492H50.8951C50.7541 41.4492 50.7541 41.4492 50.7541 41.5902L50.0492 43.705C49.9082 43.9869 49.9082 44.2689 49.7672 44.5509C49.6262 44.2689 49.6262 43.9869 49.4852 43.705L48.6393 41.5902C48.6393 41.4492 48.4984 41.4492 48.4984 41.4492H47.7934C47.6525 41.4492 47.6525 41.5902 47.6525 41.5902L47.3705 45.8197V45.9607H47.5115H48.0754C48.2164 45.9607 48.2164 45.8197 48.2164 45.8197L48.3574 43.9869C48.3574 43.705 48.3574 43.564 48.3574 43.282C48.3574 43.423 48.4984 43.564 48.4984 43.8459L49.2033 45.8197C49.2033 45.9607 49.3443 45.9607 49.3443 45.9607H49.7672C49.9082 45.9607 49.9082 45.9607 49.9082 45.8197L50.6131 43.705C50.7541 43.564 50.7541 43.282 50.7541 43.141C50.7541 43.423 50.7541 43.705 50.7541 43.8459L50.8951 45.6787C50.8951 45.8197 51.0361 45.8197 51.0361 45.8197H51.6H51.741V45.6787L51.459 41.4492C51.741 41.4492 51.741 41.4492 51.6 41.4492Z" fill="#484949"/>
<path d="M56.6755 45.8197L55.2656 41.5902C55.2656 41.4492 55.1246 41.4492 55.1246 41.4492H54.4197C54.2787 41.4492 54.2787 41.4492 54.2787 41.5902L52.8689 45.8197V45.9607L53.0099 46.1017H53.5738C53.7148 46.1017 53.7148 46.1017 53.7148 45.9607L54.1378 44.6918H55.4066L55.8296 45.9607C55.8296 46.1017 55.9705 46.1017 55.9705 46.1017H56.5345C56.5345 46.1017 56.6755 46.1017 56.6755 45.9607V45.8197V45.8197ZM55.1246 43.8459H54.2787L54.5607 42.8591V42.7181V42.8591L55.1246 43.8459Z" fill="#484949"/>
<path d="M30.5934 40.6034C30.1705 40.6034 29.7475 40.6034 29.4656 40.7443C29.3246 40.7443 29.3246 40.8853 29.3246 40.8853V45.1148C29.3246 45.2558 29.4656 45.2558 29.4656 45.2558C29.7475 45.2558 30.1705 45.2558 30.4525 45.2558C31.2984 45.2558 32.0033 44.9739 32.4262 44.5509C32.8492 44.128 33.1311 43.564 33.1311 42.7181C33.1311 42.0132 32.8492 41.4493 32.4262 41.0263C32.1443 40.8853 31.4393 40.6034 30.5934 40.6034ZM30.5934 44.5509C30.4525 44.5509 30.3115 44.5509 30.1705 44.5509V41.5902C30.3115 41.5902 30.4525 41.5902 30.5934 41.5902C31.1574 41.5902 31.4393 41.7312 31.7213 42.0132C32.0033 42.2952 32.1443 42.5771 32.1443 43.0001C32.1443 43.987 31.7213 44.5509 30.5934 44.5509Z" fill="#E4EAEA"/>
<path d="M37.5017 40.6034H36.9377C36.7967 40.6034 36.7967 40.7443 36.7967 40.7443V42.2952H35.1049V40.7443C35.1049 40.6034 34.964 40.6034 34.964 40.6034H34.4C34.259 40.6034 34.259 40.7443 34.259 40.7443V44.9739C34.259 45.1148 34.4 45.1148 34.4 45.1148H34.964C35.1049 45.1148 35.1049 44.9739 35.1049 44.9739V43.1411H36.7967V44.9739C36.7967 45.1148 36.9377 45.1148 36.9377 45.1148H37.5017C37.6426 45.1148 37.6426 44.9739 37.6426 44.9739V40.7443C37.6426 40.7443 37.6426 40.6034 37.5017 40.6034Z" fill="#E4EAEA"/>
<path d="M41.0262 40.7443C41.0262 40.6034 40.8853 40.6034 40.8853 40.6034H40.1803C40.0394 40.6034 40.0394 40.6034 40.0394 40.7443L38.6295 44.9739V45.1148L38.7705 45.2558H39.3344C39.4754 45.2558 39.4754 45.2558 39.4754 45.1148L39.8984 43.846H41.1672L41.5902 45.1148C41.5902 45.2558 41.7312 45.2558 41.7312 45.2558H42.2951C42.2951 45.2558 42.4361 45.2558 42.4361 45.1148V44.9739L41.0262 40.7443ZM40.8853 43.1411H40.1803L40.4623 42.1542V42.0132V42.1542L40.8853 43.1411Z" fill="#E4EAEA"/>
<path d="M46.2426 43.8459C46.1016 43.423 45.9607 43.282 45.8197 43C46.2426 42.7181 46.3836 42.2951 46.3836 41.8722C46.3836 41.4492 46.2426 41.1672 45.9607 40.8853C45.6787 40.6033 45.2557 40.4623 44.5508 40.4623C44.1279 40.4623 43.7049 40.4623 43.423 40.6033C43.282 40.6033 43.282 40.7443 43.282 40.7443V44.9738C43.282 45.1148 43.423 45.1148 43.423 45.1148H43.9869C44.1279 45.1148 44.1279 44.9738 44.1279 44.9738V43.282H44.4098C44.8328 43.282 44.9738 43.423 45.1148 43.9869C45.2557 44.6918 45.3967 44.9738 45.3967 45.1148L45.5377 45.2558H46.1016C46.1016 45.2558 46.2426 45.2558 46.2426 45.1148C46.2426 44.9738 46.2426 44.9738 46.2426 44.9738C46.5246 44.8328 46.3836 44.4099 46.2426 43.8459ZM45.3967 42.0131C45.3967 42.4361 45.1148 42.5771 44.6918 42.5771H44.2689V41.4492C44.4098 41.4492 44.4098 41.4492 44.5508 41.4492C45.3967 41.4492 45.3967 41.8722 45.3967 42.0131Z" fill="#E4EAEA"/>
<path d="M51.6 40.6034H50.8951C50.7541 40.6034 50.7541 40.6034 50.7541 40.7443L50.0492 42.8591C49.9082 43.1411 49.9082 43.423 49.7672 43.705C49.6262 43.423 49.6262 43.1411 49.4852 42.8591L48.6393 40.7443C48.6393 40.6034 48.4984 40.6034 48.4984 40.6034H47.7934C47.6525 40.6034 47.6525 40.7443 47.6525 40.7443L47.3705 44.9739V45.1148H47.5115H48.0754C48.2164 45.1148 48.2164 44.9739 48.2164 44.9739L48.3574 43.1411C48.3574 42.8591 48.3574 42.7181 48.3574 42.4362C48.3574 42.5771 48.4984 42.7181 48.4984 43.0001L49.2033 44.9739C49.2033 45.1148 49.3443 45.1148 49.3443 45.1148H49.7672C49.9082 45.1148 49.9082 45.1148 49.9082 44.9739L50.6131 42.8591C50.7541 42.7181 50.7541 42.4362 50.7541 42.2952C50.7541 42.5771 50.7541 42.8591 50.7541 43.0001L50.8951 44.8329C50.8951 44.9739 51.0361 44.9739 51.0361 44.9739H51.6H51.741V44.8329L51.459 40.6034C51.741 40.7443 51.741 40.6034 51.6 40.6034Z" fill="#E4EAEA"/>
<path d="M56.6755 45.1148L55.2656 40.8853C55.2656 40.7443 55.1246 40.7443 55.1246 40.7443H54.4197C54.2787 40.7443 54.2787 40.7443 54.2787 40.8853L52.8689 45.1148V45.2558L53.0099 45.3968H53.5738C53.7148 45.3968 53.7148 45.3968 53.7148 45.2558L54.1378 43.9869H55.4066L55.8296 45.2558C55.8296 45.3968 55.9705 45.3968 55.9705 45.3968H56.5345C56.5345 45.3968 56.6755 45.3968 56.6755 45.2558V45.1148V45.1148ZM55.1246 43.141H54.2787L54.5607 42.1541V42.0131V42.1541L55.1246 43.141Z" fill="#E4EAEA"/>
</svg>
