<svg width="85" height="85" viewBox="0 0 85 85" fill="none" xmlns="http://www.w3.org/2000/svg">
<g clip-path="url(#clip0_39_41)">
<path d="M83.5833 66.0875C83.5833 76.0042 75.5083 84.0792 65.5917 84.0792H17.9917C8.075 84.0792 0 76.0042 0 66.0875V18.4875C0 8.57085 8.075 0.49585 17.9917 0.49585H65.5917C75.5083 0.49585 83.5833 8.57085 83.5833 18.4875V66.0875Z" fill="#EAE9DA"/>
<path d="M18.4167 0.49585H66.4418C76.3584 0.49585 85.0001 9.13752 85.0001 19.0542V66.7959C85.0001 76.7125 76.5001 84.5042 66.5834 84.5042" fill="#DBD8C3"/>
<path d="M29.3251 28.4042L24.5084 23.5875L29.3251 18.9125L25.3584 15.0875L20.6834 19.7625L16.0084 15.0875L12.0417 18.9125L16.8584 23.5875L12.0417 28.4042L16.0084 32.2292L20.6834 27.5542L25.3584 32.2292L29.3251 28.4042Z" fill="#EA1F0A"/>
<path d="M16.0083 32.2292L20.6833 27.5542L25.3583 32.2292L29.325 28.4042L24.5083 23.5875L29.325 18.9125L25.3583 15.0875L20.6833 19.7625" fill="#CE0A00"/>
<path d="M55.3917 65.9459L62.3334 76.9959H74.3751L55.3917 46.9626L35.4167 76.9959H48.1667L55.3917 65.9459Z" fill="#049CBF"/>
<path d="M55.3916 65.9458L62.3333 76.9958H74.3749L55.3916 46.8208" fill="#047BA0"/>
<path d="M22.6668 66.3708C22.6668 67.5041 21.6751 68.4958 20.5417 68.4958C19.4084 68.4958 18.4167 67.5041 18.4167 66.3708V36.6208C18.4167 35.4875 19.4084 34.4958 20.5417 34.4958C21.6751 34.4958 22.6668 35.4875 22.6668 36.6208V66.3708Z" fill="#8C8B83"/>
<path d="M34.1417 25.9958C32.8667 25.9958 31.875 25.1458 31.875 23.8708C31.875 22.5958 32.8667 21.7458 34.1417 21.7458H62.7583C64.0333 21.7458 65.025 22.5958 65.025 23.8708C65.025 25.1458 64.0333 25.9958 62.7583 25.9958H34.1417Z" fill="#8C8B83"/>
<path d="M32.4417 64.2458C33.7167 64.2458 34.7083 65.0958 34.7083 66.3708C34.7083 67.6458 33.7167 68.4958 32.4417 68.4958H20.825C19.55 68.4958 18.5583 67.6458 18.5583 66.3708C18.5583 65.0958 19.55 64.2458 20.825 64.2458H32.4417Z" fill="#8C8B83"/>
<path d="M60.9167 11.9708C60.9167 10.6958 61.7667 9.70416 63.0417 9.70416C64.3167 9.70416 65.1667 10.6958 65.1667 11.9708V23.5875C65.1667 24.8625 64.3167 25.8542 63.0417 25.8542C61.7667 25.8542 60.9167 24.8625 60.9167 23.5875V11.9708Z" fill="#8C8B83"/>
</g>
<defs>
<clipPath id="clip0_39_41">
<rect width="85" height="85" fill="white"/>
</clipPath>
</defs>
</svg>
