<svg width="88" height="88" viewBox="0 0 88 88" fill="none" xmlns="http://www.w3.org/2000/svg">
<g clip-path="url(#clip0_39_808)">
<path d="M43.9999 44.4976C34.7592 44.4976 26.9401 18.055 23.8125 1.27953V60.9887C23.8125 65.538 27.5088 69.2343 32.0581 69.2343H55.7996C60.3489 69.2343 64.0451 65.538 64.0451 60.9887V1.27953C61.0597 18.055 53.2406 44.4976 43.9999 44.4976Z" fill="#491E3C"/>
<path d="M43.9999 41.9386C34.7592 41.9386 26.9401 16.9176 23.8125 0.142165V35.6834C26.9401 52.4588 34.9014 57.4346 43.9999 57.4346C53.2406 57.4346 61.0597 52.4588 64.1873 35.6834V0C61.0597 16.9176 53.2406 41.9386 43.9999 41.9386Z" fill="#FF6700"/>
<path d="M43.9999 41.9386C34.7592 41.9386 26.9401 16.9176 23.8125 0.142165V35.6834C26.9401 52.4588 34.9014 57.4346 43.9999 57.4346C53.2406 57.4346 61.0597 52.4588 64.1873 35.6834V0C61.0597 16.9176 53.2406 41.9386 43.9999 41.9386Z" fill="#CE391B"/>
<path d="M43.9999 51.3215C34.7592 51.3215 26.9401 26.3005 23.8125 9.52505V33.8352C26.9401 50.6107 34.9014 55.5864 43.9999 55.5864C53.2406 55.5864 61.0597 50.6107 64.1873 33.8352V9.52505C61.0597 26.3005 53.2406 51.3215 43.9999 51.3215Z" fill="#AA2A07"/>
<path d="M43.9999 41.9386C34.7592 41.9386 26.9401 16.9176 23.8125 0.142165V5.54443C26.9401 22.3199 34.9014 47.3409 43.9999 47.3409C53.2406 47.3409 61.0597 22.3199 64.1873 5.54443V0C61.0597 16.9176 53.2406 41.9386 43.9999 41.9386Z" fill="#D85039"/>
<path d="M43.9999 41.9386C34.7592 41.9386 26.9401 16.9176 23.8125 0.142165V2.4168C26.9401 19.1922 34.9014 44.2132 43.9999 44.2132C53.2406 44.2132 61.0597 19.1922 64.1873 2.4168V0C61.0597 16.9176 53.2406 41.9386 43.9999 41.9386Z" fill="#E07055"/>
<path d="M72.433 66.2487C72.433 68.9498 72.2908 71.0823 69.5897 71.0823H18.5525C15.8514 71.0823 15.7092 68.9498 15.7092 66.2487C15.7092 63.5476 17.8417 59.2826 20.5428 59.2826H67.4572C70.1583 59.2826 72.433 63.5476 72.433 66.2487Z" fill="#1E0313"/>
<path d="M20.5428 60.1357H67.4572C70.1583 60.1357 72.2908 64.2584 72.2908 66.9596C72.2908 66.6752 72.2908 66.3909 72.2908 66.1066C72.2908 63.4055 70.1583 59.1405 67.4572 59.1405H20.5428C17.8417 59.1405 15.7092 63.4055 15.7092 66.1066C15.7092 66.3909 15.7092 66.6752 15.7092 66.9596C15.7092 64.4006 17.8417 60.1357 20.5428 60.1357Z" fill="#350D27"/>
<path d="M19.6897 61.4151C14.9983 61.8416 13.7188 52.3166 12.7236 46.3457V68.0969C12.7236 69.8029 14.0031 71.0823 15.7091 71.0823H19.6897C19.6897 71.0823 19.6897 61.4151 19.6897 61.4151Z" fill="#1E0313"/>
<path d="M68.3101 61.4151C73.0015 61.8416 74.281 52.3166 75.2761 46.3457V68.0969C75.2761 69.8029 73.9967 71.0823 72.2907 71.0823H68.3101V61.4151Z" fill="#1E0313"/>
<path d="M44 51.1793C38.3134 51.1793 33.4798 51.4637 30.6365 51.748C31.063 52.3166 31.6316 52.7431 32.2003 53.3118C35.1857 53.5961 39.3085 56.5816 44.1421 56.5816C48.8336 56.5816 53.0985 53.454 56.084 53.3118C56.6526 52.8853 57.0791 52.3166 57.6478 51.748C54.5202 51.4637 49.6866 51.1793 44 51.1793Z" fill="#7A1805"/>
<path d="M43.9999 55.5864C34.7592 55.5864 26.9401 50.6106 23.8125 33.8352V35.6833C26.9401 52.4588 34.9014 58.0032 43.9999 58.0032C53.2406 58.0032 61.0597 52.6009 64.1873 35.6833V33.8352C61.0597 50.6106 53.2406 55.5864 43.9999 55.5864Z" fill="#602551"/>
<path d="M44 52.8853C48.3183 52.8853 51.819 52.6307 51.819 52.3167C51.819 52.0026 48.3183 51.748 44 51.748C39.6816 51.748 36.1809 52.0026 36.1809 52.3167C36.1809 52.6307 39.6816 52.8853 44 52.8853Z" fill="#932106"/>
<path d="M44.1421 47.0565V46.3457C44.1421 46.4878 44.1421 46.63 44.1421 46.63C44.1421 46.4878 44.1421 46.3457 44.1421 46.3457V47.0565C43.0048 53.0274 41.5831 61.9838 37.176 61.4151V71.0823H41.1566C42.5783 71.0823 43.8578 70.0872 44.1421 68.6655C44.4264 70.0872 45.5638 71.0823 47.1276 71.0823H51.1082V61.4151C46.5589 61.8416 45.1373 53.0274 44.1421 47.0565Z" fill="#1E0313"/>
<path d="M12.7236 46.3457V48.9046C13.861 54.8756 15.1404 64.4006 19.6897 63.9741V61.4151C15.1404 61.9838 13.861 52.3166 12.7236 46.3457Z" fill="#602551"/>
<path d="M68.3101 61.4151V63.9741C73.0015 64.4006 74.281 54.8756 75.2761 48.9046V46.3457C74.1388 52.3166 72.8593 61.9838 68.3101 61.4151Z" fill="#602551"/>
<path d="M44.1421 47.0565V46.3457C44.1421 46.4878 44.1421 46.63 44.1421 46.63C44.1421 46.4878 44.1421 46.3457 44.1421 46.3457V47.0565C43.0048 53.0274 41.5831 61.9838 37.176 61.4151V63.9741C41.5831 64.4006 43.0048 55.5864 43.9999 49.6155V48.9046C43.9999 49.0468 43.9999 49.189 43.9999 49.189C43.9999 49.0468 43.9999 48.9046 43.9999 48.9046V49.6155C45.1372 55.5864 46.4167 64.4006 50.8238 63.9741V61.4151C46.5589 61.8416 45.1372 53.0274 44.1421 47.0565Z" fill="#491E3C"/>
<path d="M71.1535 71.6511C71.1535 72.0776 70.727 72.5041 70.3005 72.5041H17.8417C17.4152 72.5041 16.9887 72.0776 16.9887 71.6511C16.9887 71.2246 14.5719 70.7981 15.1406 70.7981H73.0017C73.4282 70.7981 71.1535 71.2246 71.1535 71.6511Z" fill="#1E0313"/>
<path d="M31.916 87.0049C31.916 87.2893 31.916 87.7157 31.916 88.0001H56.084C56.084 87.7157 56.084 87.2893 56.084 87.0049C56.084 78.9015 61.3441 72.5041 64.7561 72.5041V71.6511C64.7561 68.8078 62.4815 66.5332 59.6382 66.5332H28.2197C25.3764 66.5332 23.1018 68.8078 23.1018 71.6511V72.5041C26.6559 72.5041 31.916 79.0437 31.916 87.0049Z" fill="#1E0313"/>
<path opacity="0.2" d="M63.4766 27.0114C63.4766 32.2714 54.6624 41.0857 44 41.0857C33.3377 41.0857 24.5234 32.2714 24.5234 27.0114C24.5234 21.7513 33.3377 14.0744 44 14.0744C54.6624 14.0744 63.4766 21.7513 63.4766 27.0114Z" fill="#602551"/>
<path d="M63.4766 27.0114C63.4766 32.2714 54.6624 38.811 44 38.811C33.3377 38.811 24.5234 32.2714 24.5234 27.0114C24.5234 21.7513 33.3377 14.0744 44 14.0744C54.6624 14.0744 63.4766 21.7513 63.4766 27.0114Z" fill="#FF9700"/>
<path d="M44 14.0744C54.8045 14.0744 63.4766 21.7513 63.4766 27.0114Z" fill="#FFBC00"/>
<path d="M24.5234 27.0114C24.5234 21.7513 33.3377 14.0744 44 14.0744Z" fill="#FFBC00"/>
<path d="M63.4766 27.0113C63.4766 32.2714 54.6624 38.811 44 38.811C33.3377 38.811 24.5234 32.2714 24.5234 27.0113" fill="#FF7F00"/>
<path d="M63.4766 27.0113C63.4766 32.2714 54.6624 38.811 44 38.811Z" fill="#FF6700"/>
<path d="M44 38.811C33.1955 38.811 24.5234 32.2714 24.5234 27.0113Z" fill="#FF6700"/>
<path d="M38.3133 62.6946C38.3133 63.4054 37.7447 63.9741 37.0339 63.9741H20.4006C19.6898 63.9741 19.1211 63.4054 19.1211 62.6946C19.1211 61.9838 19.6898 61.4151 20.4006 61.4151H37.0339C37.7447 61.4151 38.3133 61.9838 38.3133 62.6946Z" fill="#491E3C"/>
<path d="M68.8788 62.6946C68.8788 63.4054 68.3101 63.9741 67.5993 63.9741H50.966C50.2552 63.9741 49.6865 63.4054 49.6865 62.6946C49.6865 61.9838 50.2552 61.4151 50.966 61.4151H67.5993C68.3101 61.4151 68.8788 61.9838 68.8788 62.6946Z" fill="#491E3C"/>
<path d="M60.6333 72.646C60.6333 72.7882 60.4911 72.9304 60.3489 72.9304H27.651C27.5089 72.9304 27.3667 72.7882 27.3667 72.646C27.3667 72.5039 27.5089 72.3617 27.651 72.3617H60.3489C60.4911 72.3617 60.6333 72.5039 60.6333 72.646Z" fill="#491E3C"/>
<path d="M28.2197 76.0581C28.3619 76.2003 28.5041 76.4846 28.6462 76.6268H59.3538C59.496 76.4846 59.6382 76.2003 59.7803 76.0581H28.2197Z" fill="#491E3C"/>
<path d="M30.3521 79.6123C30.4942 79.7544 30.4942 80.0388 30.6364 80.1809H57.5055C57.6477 80.0388 57.6477 79.7544 57.7898 79.6123H30.3521Z" fill="#491E3C"/>
<path d="M31.4893 83.1664C31.4893 83.3086 31.6314 83.5929 31.6314 83.7351H56.3681C56.3681 83.5929 56.5102 83.3086 56.5102 83.1664H31.4893Z" fill="#491E3C"/>
<path d="M56.084 87.4313C56.084 87.2891 56.084 87.1469 56.084 87.1469C56.084 87.0048 56.084 87.0048 56.084 86.8626H31.916C31.916 87.0048 31.916 87.0048 31.916 87.1469C31.916 87.2891 31.916 87.4313 31.916 87.4313H56.084Z" fill="#491E3C"/>
<path d="M47.2698 26.4427C47.2698 31.7028 44.9952 37.3894 44 37.3894C43.0049 37.3894 40.7302 31.7028 40.7302 26.4427C40.7302 21.1826 43.0049 15.496 44 15.496C44.9952 15.496 47.2698 21.1826 47.2698 26.4427Z" fill="#FFE000"/>
<path d="M40.7302 27.0113C40.8724 32.1292 43.0049 37.3893 44 37.3893C44.9952 37.3893 47.1277 32.1292 47.2698 27.0113H40.7302Z" fill="#FF9700"/>
<path d="M44 35.9677C45.0207 35.9677 45.8481 31.7032 45.8481 26.4427C45.8481 21.1822 45.0207 16.9176 44 16.9176C42.9793 16.9176 42.1519 21.1822 42.1519 26.4427C42.1519 31.7032 42.9793 35.9677 44 35.9677Z" fill="#491E3C"/>
<path d="M44 16.9176C44.9952 16.9176 45.8481 21.1826 45.8481 26.4427C45.8481 31.7028 44.9952 35.9677 44 35.9677" fill="#1E0313"/>
<path d="M43.5735 19.1923C43.809 19.1923 44 19.0013 44 18.7658C44 18.5302 43.809 18.3393 43.5735 18.3393C43.3379 18.3393 43.147 18.5302 43.147 18.7658C43.147 19.0013 43.3379 19.1923 43.5735 19.1923Z" fill="#997A92"/>
<path d="M43.147 20.3295C43.2256 20.3295 43.2892 20.2659 43.2892 20.1874C43.2892 20.1088 43.2256 20.0452 43.147 20.0452C43.0685 20.0452 43.0049 20.1088 43.0049 20.1874C43.0049 20.2659 43.0685 20.3295 43.147 20.3295Z" fill="#754167"/>
</g>
<defs>
<clipPath id="clip0_39_808">
<rect width="88" height="88" fill="white"/>
</clipPath>
</defs>
</svg>
