<svg width="88" height="88" viewBox="0 0 88 88" fill="none" xmlns="http://www.w3.org/2000/svg">
<path d="M88 50.671C88 63.729 68.271 51.0968 44 51.0968C19.729 51.0968 0 63.729 0 50.671C0 37.6129 19.729 5.10968 44 5.10968C68.271 5.10968 88 37.6129 88 50.671Z" fill="#F74FAF"/>
<path d="M44 5.10968C68.271 5.10968 88 37.471 88 50.671C88 63.871 68.271 51.0968 44 51.0968" fill="#ED3596"/>
<path d="M88 50.671C88 63.729 68.271 74.3742 44 74.3742C19.729 74.3742 0 63.729 0 50.671C0 37.6129 19.729 9.08386 44 9.08386C68.271 9.08386 88 37.6129 88 50.671Z" fill="#BC005E"/>
<path d="M88 50.671C88 63.729 68.271 51.0968 44 51.0968C19.729 51.0968 0 63.729 0 50.671C0 37.6129 19.729 9.08386 44 9.08386C68.271 9.08386 88 37.6129 88 50.671Z" fill="#DD1F83"/>
<path d="M44 9.08386C68.271 9.08386 88 37.6129 88 50.671C88 63.729 68.271 51.0968 44 51.0968" fill="#CC1B70"/>
<path d="M69.2644 67.7032C69.2644 77.071 57.9095 81.7549 43.9999 81.7549C30.0902 81.7549 18.7354 77.071 18.7354 67.7032C18.7354 58.3355 30.0902 55.6387 43.9999 55.6387C57.9095 55.6387 69.2644 58.3355 69.2644 67.7032Z" fill="#F2D6A7"/>
<path d="M69.2644 67.7033C69.2644 77.071 57.9095 82.8904 43.9999 82.8904C30.0902 82.8904 18.7354 77.071 18.7354 67.7033C18.7354 58.3355 30.0902 55.6387 43.9999 55.6387C57.9095 55.6387 69.2644 58.3355 69.2644 67.7033Z" fill="#D6B47C"/>
<path d="M69.2644 67.7032C69.2644 77.071 57.9095 81.7549 43.9999 81.7549C30.0902 81.7549 18.7354 77.071 18.7354 67.7032C18.7354 58.3355 30.0902 55.6387 43.9999 55.6387C57.9095 55.6387 69.2644 58.3355 69.2644 67.7032Z" fill="#F2D6A7"/>
<path d="M44 55.6387C57.9097 55.6387 69.2645 58.3355 69.2645 67.7032C69.2645 77.071 57.9097 81.7549 44 81.7549" fill="#E5C58C"/>
<path d="M43.9999 60.3225C57.3418 60.3225 68.2708 60.3225 69.1224 68.6967C69.1224 68.2709 69.2644 67.9871 69.2644 67.5612C69.2644 58.1935 57.9095 55.4967 43.9999 55.4967C30.0902 55.4967 18.7354 58.1935 18.7354 67.5612C18.7354 67.9871 18.7354 68.2709 18.8773 68.6967C19.7289 60.3225 30.6579 60.3225 43.9999 60.3225Z" fill="#D6B47C"/>
<path d="M44 44.7097C52.7796 44.7097 59.8968 37.5924 59.8968 28.8129C59.8968 20.0334 52.7796 12.9161 44 12.9161C35.2205 12.9161 28.1033 20.0334 28.1033 28.8129C28.1033 37.5924 35.2205 44.7097 44 44.7097Z" fill="#EAD0DF"/>
<path d="M44 12.9161C52.8 12.9161 59.8968 20.0129 59.8968 28.8129C59.8968 37.6129 52.8 44.7097 44 44.7097" fill="#DDBAD0"/>
<path d="M17.4581 36.1935C17.4581 31.3677 15.471 26.9677 12.2065 23.9871C4.68387 33.3548 0 44.2839 0 50.6709C0 51.6645 0.141935 52.3742 0.283871 53.0839H0.425806C9.79355 53.0839 17.4581 45.5613 17.4581 36.1935Z" fill="#EAD0DF"/>
<path d="M0.141935 51.9484C0.141935 52.3742 0.283871 52.6581 0.425806 53.0839H0.567742C9.93548 53.0839 17.6 45.4193 17.6 36.0516C17.6 31.6516 15.8968 27.6774 13.2 24.6968C5.53548 33.071 0.709677 42.7226 0 49.3935C0 49.8193 0 50.2452 0 50.671C0 51.0968 0 51.5226 0.141935 51.9484Z" fill="#DDBAD0"/>
<path d="M70.5419 36.1935C70.5419 31.3677 72.529 26.9677 75.7935 23.9871C83.316 33.4968 87.9999 44.4258 87.9999 50.8129C87.9999 51.8065 87.858 52.5161 87.716 53.2258H87.5741C78.2064 53.0839 70.5419 45.5613 70.5419 36.1935Z" fill="#EAD0DF"/>
<path d="M87.858 51.9484C87.858 52.3742 87.716 52.6581 87.5741 53.0839H87.4322C78.0644 53.0839 70.3999 45.4193 70.3999 36.0516C70.3999 31.6516 72.1031 27.6774 74.7999 24.6968C82.3225 32.929 87.1483 42.7226 87.716 49.2516C87.716 49.6774 87.716 50.1032 87.716 50.529C87.9999 51.0968 87.9999 51.5226 87.858 51.9484Z" fill="#DDBAD0"/>
<path d="M35.0581 65.8581C35.0581 68.1291 33.7807 70.9678 32.3613 70.9678C30.942 70.9678 29.6646 68.1291 29.6646 65.8581C29.6646 63.5872 30.942 61.6001 32.3613 61.6001C33.7807 61.6001 35.0581 63.5872 35.0581 65.8581Z" fill="#E5C58C"/>
<path d="M32.3613 70.1162C33.8507 70.1162 35.0581 68.2098 35.0581 65.8581C35.0581 63.5065 33.8507 61.6001 32.3613 61.6001C30.8719 61.6001 29.6646 63.5065 29.6646 65.8581C29.6646 68.2098 30.8719 70.1162 32.3613 70.1162Z" fill="#495156"/>
<path d="M32.3613 61.7419C33.9226 61.7419 35.0581 63.5871 35.0581 66C35.0581 68.4129 33.7807 70.2581 32.3613 70.2581" fill="#293033"/>
<path d="M36.0515 70.6839C36.0515 71.1097 34.3483 71.1097 32.3612 71.1097C30.3741 71.1097 28.6709 71.1097 28.6709 70.6839C28.6709 70.2581 30.3741 69.8323 32.3612 69.8323C34.3483 69.8323 36.0515 70.2581 36.0515 70.6839Z" fill="#F4E1C6"/>
<path d="M58.4775 65.8581C58.4775 68.1291 57.2001 70.9678 55.7808 70.9678C54.3614 70.9678 53.084 68.1291 53.084 65.8581C53.084 63.5872 54.3614 61.6001 55.7808 61.6001C57.2001 61.6001 58.4775 63.5872 58.4775 65.8581Z" fill="#E5C58C"/>
<path d="M55.6387 70.1162C57.1281 70.1162 58.3354 68.2098 58.3354 65.8581C58.3354 63.5065 57.1281 61.6001 55.6387 61.6001C54.1493 61.6001 52.9419 63.5065 52.9419 65.8581C52.9419 68.2098 54.1493 70.1162 55.6387 70.1162Z" fill="#495156"/>
<path d="M55.6387 61.7419C57.2 61.7419 58.3354 63.5871 58.3354 66C58.3354 68.4129 57.058 70.2581 55.6387 70.2581" fill="#293033"/>
<path d="M59.471 70.6839C59.471 71.1097 57.7677 71.1097 55.7807 71.1097C53.7936 71.1097 52.0903 71.1097 52.0903 70.6839C52.0903 70.2581 53.7936 69.8323 55.7807 69.8323C57.7677 69.8323 59.471 70.2581 59.471 70.6839Z" fill="#F4E1C6"/>
</svg>
