<svg width="89" height="89" viewBox="0 0 89 89" fill="none" xmlns="http://www.w3.org/2000/svg">
<g clip-path="url(#clip0_39_135)">
<path d="M82.5715 48.2857C85 48.2857 87.2858 49.1429 88.7143 50.5715V33.4286C88.7143 29.2857 85.4286 25.8572 81.4286 25.8572H64.5715C65.8572 24.4286 66.5715 22.2857 66.5715 20.1429C66.5715 15 62.4286 11 57.2857 11C52.1429 11 48 15 48 20.1429C48 22.2857 48.7143 24.4286 50 25.8572H33.2858C29.1429 25.8572 25.8572 29.2857 25.8572 33.4286V51.2857C24.4286 49.4286 21.7143 48.2857 19 48.2857C13.8572 48.2857 9.85718 52.4286 9.85718 57.5715C9.85718 62.7143 14 66.8572 19 66.8572C21.7143 66.8572 24.4286 65.7143 25.8572 63.8572V81.7143C25.8572 85.8572 29.2858 89 33.2858 89H50.8572C49.1429 87.5715 48.1429 85.1429 48.1429 82.5715C48.1429 77.4286 52.2858 73.4286 57.4286 73.4286C62.5715 73.4286 66.7143 77.4286 66.7143 82.5715C66.7143 85.1429 65.7143 87.5715 64 89H81.5715C85.7143 89 88.8572 85.8572 88.8572 81.7143V64.5715C87.4286 66 85.1429 66.8572 82.7143 66.8572C77.5715 66.8572 73.4286 62.7143 73.4286 57.5715C73.4286 52.4286 77.5715 48.2857 82.5715 48.2857Z" fill="#FCC03A"/>
<path d="M25.8571 63V81.4285C25.8571 85.5714 29.2856 88.7143 33.2856 88.7143H50.8571C49.1428 87.2857 48.1428 84.8571 48.1428 82.2857C48.1428 77.1428 52.2856 73.1428 57.4285 73.1428C62.5713 73.1428 66.7142 77.1428 66.7142 82.2857C66.7142 84.8571 65.7142 87.2857 63.9999 88.7143H81.5713C85.7142 88.7143 88.8571 85.5714 88.8571 81.4285V64.2857C87.4285 65.7143 85.1428 66.5714 82.7142 66.5714C77.5714 66.5714 73.5713 62.4285 73.5713 57.2857C73.5713 52.1428 77.7142 48 82.7142 48C85.1428 48 87.4285 48.8571 88.8571 50.2857V33.1428C88.8571 29 85.5713 25.5714 81.5713 25.5714H64.4285" fill="#EAAA0A"/>
<path d="M33 88.7143H50.8571C49.1429 87.2857 48.1429 84.8571 48.1429 82.2857C48.1429 77.1429 52.2857 73.1429 57.4286 73.1429C62.5714 73.1429 66.7143 77.1429 66.7143 82.2857C66.7143 84.8571 65.7143 87.2857 64 88.7143H81.5714C85.7143 88.7143 88.8571 85.5714 88.8571 81.4286V64.2857C87.4286 65.7143 85.1429 66.5714 82.7143 66.5714C77.5714 66.5714 73.5714 62.4286 73.5714 57.2857C73.5714 52.1429 77.7143 48 82.7143 48C85.1429 48 87.4286 48.8571 88.8571 50.2857V33" fill="#E8930C"/>
<path d="M38.7142 21.5714C38.7142 22.1428 38.1428 22.4285 37.2856 22.4285C36.4285 22.4285 35.8571 22 35.8571 21.5714V10.5714C35.8571 9.99998 36.4285 9.71426 37.2856 9.71426C38.1428 9.71426 38.7142 10.1428 38.7142 10.5714V21.5714Z" fill="#DBD8C3"/>
<path d="M31.5714 11.8571C31.5714 12.4286 30.9999 12.7143 30.1428 12.7143C29.2857 12.7143 28.7142 12.2857 28.7142 11.8571V0.857143C28.7142 0.285714 29.2857 0 30.1428 0C30.9999 0 31.5714 0.428571 31.5714 0.857143V11.8571Z" fill="#DBD8C3"/>
<path d="M83 21.5714C83 22.1428 82.4285 22.4285 81.5714 22.4285C80.7143 22.4285 80.1428 22 80.1428 21.5714V10.5714C80.1428 9.99998 80.7143 9.71426 81.5714 9.71426C82.4285 9.71426 83 10.1428 83 10.5714V21.5714Z" fill="#DBD8C3"/>
<path d="M75.8571 11.8571C75.8571 12.4286 75.2857 12.7143 74.4286 12.7143C73.5714 12.7143 73 12.2857 73 11.8571V0.857143C73 0.285714 73.5714 0 74.4286 0C75.2857 0 75.8571 0.428571 75.8571 0.857143V11.8571Z" fill="#DBD8C3"/>
<path d="M21.7143 74.4285C22.2858 74.4285 22.5715 75 22.5715 75.8571C22.5715 76.7142 22.1429 77.2857 21.7143 77.2857H10.7143C10.1429 77.2857 9.85718 76.7142 9.85718 75.8571C9.85718 75 10.2857 74.4285 10.7143 74.4285H21.7143Z" fill="#DBD8C3"/>
<path d="M11.8571 80.1428C12.4285 80.1428 12.7142 80.7143 12.7142 81.5714C12.7142 82.4285 12.2857 83 11.8571 83H0.999965C0.428536 83 0.142822 82.4285 0.142822 81.5714C0.142822 80.7143 0.571394 80.1428 0.999965 80.1428H11.8571Z" fill="#DBD8C3"/>
<path d="M21.7143 30.1429C22.2858 30.1429 22.5715 30.7143 22.5715 31.5715C22.5715 32.4286 22.1429 33 21.7143 33H10.7143C10.1429 33 9.85718 32.4286 9.85718 31.5715C9.85718 30.7143 10.2857 30.1429 10.7143 30.1429H21.7143Z" fill="#DBD8C3"/>
<path d="M11.8571 37.2857C12.4285 37.2857 12.7142 37.8571 12.7142 38.7142C12.7142 39.5714 12.2857 40.1428 11.8571 40.1428H0.999965C0.428536 40.1428 0.142822 39.5714 0.142822 38.7142C0.142822 37.8571 0.571394 37.2857 0.999965 37.2857H11.8571Z" fill="#DBD8C3"/>
</g>
<defs>
<clipPath id="clip0_39_135">
<rect width="89" height="89" fill="white"/>
</clipPath>
</defs>
</svg>
