<svg width="89" height="89" viewBox="0 0 89 89" fill="none" xmlns="http://www.w3.org/2000/svg">
<path d="M81.726 15.5465C81.726 12.5513 81.5833 9.55609 81.2981 6.5609L44.5 0V0.285256V0L7.70193 6.70353C7.41668 9.55609 7.27405 12.5513 7.27405 15.5465C7.27405 50.3478 23.1058 79.7292 44.5 89C66.0369 79.7292 81.726 50.3478 81.726 15.5465Z" fill="#FFC41D"/>
<path d="M44.5 88.7147V89C66.0369 79.7292 81.726 50.3478 81.726 15.5465C81.726 12.5513 81.5833 9.55609 81.2981 6.5609L44.5 0V0.285256" fill="#FF9E1F"/>
<path d="M73.1683 21.8221C73.1683 19.3975 73.0257 17.1154 72.8831 14.8334L44.5001 9.55612V10.2693V9.55612L16.117 14.8334C15.9744 17.1154 15.8318 19.3975 15.8318 21.8221C15.8318 49.0641 27.3847 72.0273 44.5001 79.3013C61.6154 72.0273 73.1683 49.0641 73.1683 21.8221Z" fill="#34B515"/>
<path d="M44.5 78.7308V79.4439C61.6154 72.1699 73.1683 49.2068 73.1683 21.9648C73.1683 19.5401 73.0256 17.258 72.883 14.976L44.5 9.55612V10.2693" fill="#329908"/>
<path d="M60.1891 49.7773L44.5 58.6202L28.8109 49.7773V31.8061L44.5 22.8205L60.1891 31.8061V49.7773Z" fill="#329908"/>
<path d="M44.5 22.8205L60.1891 31.8061V49.7773L44.5 58.6202" fill="#34B515"/>
</svg>
