<svg width="86" height="86" viewBox="0 0 86 86" fill="none" xmlns="http://www.w3.org/2000/svg">
<g clip-path="url(#clip0_39_395)">
<path d="M43.0001 85.9289C66.7287 85.9289 85.9645 66.693 85.9645 42.9644C85.9645 19.2358 66.7287 0 43.0001 0C19.2715 0 0.0356445 19.2358 0.0356445 42.9644C0.0356445 66.693 19.2715 85.9289 43.0001 85.9289Z" fill="#FFC41D"/>
<path d="M73.3027 12.6617C90.0901 29.4492 90.0901 56.622 73.3027 73.4095C56.5152 90.1969 29.3424 90.1969 12.5549 73.4095" fill="#EAAA0A"/>
<path d="M62.4905 68.5724H23.5095L24.9322 27.3152H61.0678L62.4905 68.5724Z" fill="#353A3A"/>
<path d="M25.928 27.3152H61.0677L62.4904 68.5724" fill="#1E2323"/>
<path d="M67.1853 72.8404H18.8147V82.799H67.1853V72.8404Z" fill="#353A3A"/>
<path d="M18.8147 72.8404H67.1853V82.799" fill="#1E2323"/>
<path d="M65.7625 11.6658V7.11328C65.7625 5.26381 64.7666 3.69888 62.9172 3.69888C61.0677 3.69888 60.0719 5.26381 60.0719 7.11328V11.6658H52.9585V7.11328C52.9585 5.26381 51.9627 3.69888 50.1132 3.69888C48.2638 3.69888 47.2679 5.26381 47.2679 7.11328V11.6658H38.7319V7.11328C38.7319 5.26381 37.7361 3.69888 35.8866 3.69888C34.0371 3.69888 33.0413 5.26381 33.0413 7.11328V11.6658H25.928V7.11328C25.928 5.26381 24.9321 3.84115 23.0826 3.84115C21.2332 3.84115 20.2373 5.26381 20.2373 7.11328V11.6658V24.4698H65.7625V11.6658Z" fill="#353A3A"/>
<path d="M65.7625 24.4698V11.6658V7.11328C65.7625 5.26381 64.7667 3.69888 62.9172 3.69888C61.0677 3.69888 60.0719 5.26381 60.0719 7.11328V11.6658H52.9586V7.11328C52.9586 5.26381 51.9627 3.69888 50.1132 3.69888C48.2638 3.69888 47.2679 5.26381 47.2679 7.11328V11.6658H38.7319V7.11328C38.7319 5.26381 37.7361 3.69888 35.8866 3.69888C34.0372 3.69888 33.0413 5.26381 33.0413 7.11328V11.6658H25.928" fill="#1E2323"/>
<path d="M51.5358 65.7271V49.7932C51.5358 44.9562 47.8369 41.115 42.9999 41.115C38.1628 41.115 34.4639 44.9562 34.4639 49.7932V65.7271H51.5358Z" fill="#E24F2D"/>
<path d="M51.5358 65.7271V49.7932C51.5358 44.9562 47.6946 41.115 42.9999 41.115C38.1628 41.115 34.4639 44.9562 34.4639 49.7932" fill="#CE351B"/>
<path d="M33.1836 19.0637C34.0479 19.0637 34.7485 18.3631 34.7485 17.4988C34.7485 16.6345 34.0479 15.9338 33.1836 15.9338C32.3193 15.9338 31.6187 16.6345 31.6187 17.4988C31.6187 18.3631 32.3193 19.0637 33.1836 19.0637Z" fill="#EAAA0A"/>
<path d="M43 19.0637C43.8643 19.0637 44.5649 18.3631 44.5649 17.4988C44.5649 16.6345 43.8643 15.9338 43 15.9338C42.1357 15.9338 41.4351 16.6345 41.4351 17.4988C41.4351 18.3631 42.1357 19.0637 43 19.0637Z" fill="#EAAA0A"/>
<path d="M52.8164 19.0637C53.6807 19.0637 54.3813 18.3631 54.3813 17.4988C54.3813 16.6345 53.6807 15.9338 52.8164 15.9338C51.9521 15.9338 51.2515 16.6345 51.2515 17.4988C51.2515 18.3631 51.9521 19.0637 52.8164 19.0637Z" fill="#EAAA0A"/>
</g>
<defs>
<clipPath id="clip0_39_395">
<rect width="86" height="86" fill="white"/>
</clipPath>
</defs>
</svg>
