<svg width="87" height="86" viewBox="0 0 87 86" fill="none" xmlns="http://www.w3.org/2000/svg">
<path d="M43.5 75.2852C25.5295 75.2852 10.8394 60.7639 10.8394 43C10.8394 25.236 25.5295 10.7147 43.5 10.7147C61.4705 10.7147 76.1607 25.236 76.1607 43C76.1607 60.7639 61.4705 75.2852 43.5 75.2852ZM43.5 19.0328C30.0935 19.0328 19.2541 29.7475 19.2541 43C19.2541 56.2524 30.0935 66.9672 43.5 66.9672C56.9066 66.9672 67.7459 56.2524 67.7459 43C67.7459 29.7475 56.9066 19.0328 43.5 19.0328Z" fill="#275FAF"/>
<path d="M43.5 75.2852C61.4705 75.2852 76.1607 60.7639 76.1607 43C76.1607 33.977 72.3099 25.8 66.3197 19.8787L60.3295 25.8C64.8935 30.1705 67.7459 36.2328 67.7459 43C67.7459 56.2524 56.9066 66.9672 43.5 66.9672C36.6541 66.9672 30.5213 64.1475 26.1 59.636L20.1099 65.5573C26.1 71.4787 34.3722 75.2852 43.5 75.2852Z" fill="#144F96"/>
<path d="M43.5001 62.7377C32.5181 62.7377 23.5328 53.8557 23.5328 43C23.5328 32.1443 32.5181 23.2623 43.5001 23.2623C54.482 23.2623 63.4673 32.1443 63.4673 43C63.4673 53.8557 54.482 62.7377 43.5001 62.7377ZM43.5001 27.9148C35.0853 27.9148 28.2394 34.682 28.2394 43C28.2394 51.318 35.0853 58.0853 43.5001 58.0853C51.9148 58.0853 58.7607 51.318 58.7607 43C58.7607 34.682 51.9148 27.9148 43.5001 27.9148Z" fill="#1FE3E8"/>
<path d="M43.5001 62.7378C54.482 62.7378 63.4673 53.8558 63.4673 43C63.4673 37.3607 61.0427 32.2853 57.3345 28.7607L53.9115 32.1443C56.9066 34.823 58.6181 38.7705 58.6181 43C58.6181 51.3181 51.7722 58.0853 43.3574 58.0853C39.0787 58.0853 35.0853 56.2525 32.3755 53.4328L28.9525 56.8164C32.6607 60.482 37.7951 62.7378 43.5001 62.7378Z" fill="#0DC0CE"/>
<path d="M43.5 51.318C48.1473 51.318 51.9147 47.5939 51.9147 43C51.9147 38.406 48.1473 34.6819 43.5 34.6819C38.8526 34.6819 35.0852 38.406 35.0852 43C35.0852 47.5939 38.8526 51.318 43.5 51.318Z" fill="#EF2EC6"/>
<path d="M43.5 51.318C48.2065 51.318 51.9147 47.6524 51.9147 43C51.9147 40.6033 50.7737 38.3475 49.2049 36.7967L37.3672 48.4983C38.7934 50.1901 41.0754 51.318 43.5 51.318Z" fill="#E520B2"/>
<path d="M43.5 5.92131C45.1541 5.92131 46.495 4.59578 46.495 2.96066C46.495 1.32553 45.1541 0 43.5 0C41.8458 0 40.5049 1.32553 40.5049 2.96066C40.5049 4.59578 41.8458 5.92131 43.5 5.92131Z" fill="#E520B2"/>
<path d="M43.5 85.9999C45.1541 85.9999 46.495 84.6744 46.495 83.0393C46.495 81.4042 45.1541 80.0787 43.5 80.0787C41.8458 80.0787 40.5049 81.4042 40.5049 83.0393C40.5049 84.6744 41.8458 85.9999 43.5 85.9999Z" fill="#E520B2"/>
<path d="M23.2475 11.2787C24.9017 11.2787 26.2426 9.95314 26.2426 8.31802C26.2426 6.68289 24.9017 5.35736 23.2475 5.35736C21.5934 5.35736 20.2524 6.68289 20.2524 8.31802C20.2524 9.95314 21.5934 11.2787 23.2475 11.2787Z" fill="#E520B2"/>
<path d="M63.7524 80.6426C65.4066 80.6426 66.7475 79.3171 66.7475 77.682C66.7475 76.0468 65.4066 74.7213 63.7524 74.7213C62.0983 74.7213 60.7573 76.0468 60.7573 77.682C60.7573 79.3171 62.0983 80.6426 63.7524 80.6426Z" fill="#E520B2"/>
<path d="M8.41781 25.9364C10.0719 25.9364 11.4129 24.6109 11.4129 22.9758C11.4129 21.3406 10.0719 20.0151 8.41781 20.0151C6.76367 20.0151 5.42273 21.3406 5.42273 22.9758C5.42273 24.6109 6.76367 25.9364 8.41781 25.9364Z" fill="#E520B2"/>
<path d="M78.5853 65.9803C80.2394 65.9803 81.5804 64.6547 81.5804 63.0196C81.5804 61.3845 80.2394 60.059 78.5853 60.059C76.9312 60.059 75.5902 61.3845 75.5902 63.0196C75.5902 64.6547 76.9312 65.9803 78.5853 65.9803Z" fill="#E520B2"/>
<path d="M2.99508 45.9607C4.64922 45.9607 5.99016 44.6352 5.99016 43C5.99016 41.3649 4.64922 40.0394 2.99508 40.0394C1.34094 40.0394 0 41.3649 0 43C0 44.6352 1.34094 45.9607 2.99508 45.9607Z" fill="#E520B2"/>
<path d="M84.005 40.0394C85.7164 40.0394 87.0001 41.3082 87.0001 43C87.0001 44.6919 85.7164 45.9607 84.005 45.9607C82.2935 45.9607 81.0099 44.6919 81.0099 43C81.0099 41.3082 82.4361 40.0394 84.005 40.0394Z" fill="#E520B2"/>
<path d="M8.41476 65.9803C10.0689 65.9803 11.4098 64.6547 11.4098 63.0196C11.4098 61.3845 10.0689 60.059 8.41476 60.059C6.76062 60.059 5.41968 61.3845 5.41968 63.0196C5.41968 64.6547 6.76062 65.9803 8.41476 65.9803Z" fill="#E520B2"/>
<path d="M78.5853 25.941C80.2394 25.941 81.5804 24.6155 81.5804 22.9803C81.5804 21.3452 80.2394 20.0197 78.5853 20.0197C76.9312 20.0197 75.5902 21.3452 75.5902 22.9803C75.5902 24.6155 76.9312 25.941 78.5853 25.941Z" fill="#E520B2"/>
<path d="M20.6804 76.2721C21.5361 74.8623 23.3902 74.4393 24.8164 75.1442C26.2427 75.8492 26.6705 77.8229 25.9574 79.2328C25.1017 80.6426 23.2476 81.0655 21.8214 80.3606C20.3951 79.3737 19.8246 77.6819 20.6804 76.2721Z" fill="#E520B2"/>
<path d="M63.7524 11.2787C65.4066 11.2787 66.7475 9.95314 66.7475 8.31802C66.7475 6.68289 65.4066 5.35736 63.7524 5.35736C62.0983 5.35736 60.7573 6.68289 60.7573 8.31802C60.7573 9.95314 62.0983 11.2787 63.7524 11.2787Z" fill="#E520B2"/>
<path d="M32.9459 7.33116C34.6 7.33116 35.941 6.00563 35.941 4.37051C35.941 2.73538 34.6 1.40985 32.9459 1.40985C31.2917 1.40985 29.9508 2.73538 29.9508 4.37051C29.9508 6.00563 31.2917 7.33116 32.9459 7.33116Z" fill="#E520B2"/>
<path d="M54.054 84.5901C55.7082 84.5901 57.0491 83.2646 57.0491 81.6295C57.0491 79.9944 55.7082 78.6688 54.054 78.6688C52.3999 78.6688 51.059 79.9944 51.059 81.6295C51.059 83.2646 52.3999 84.5901 54.054 84.5901Z" fill="#E520B2"/>
<path d="M14.8328 17.764C16.487 17.764 17.8279 16.4384 17.8279 14.8033C17.8279 13.1682 16.487 11.8427 14.8328 11.8427C13.1787 11.8427 11.8378 13.1682 11.8378 14.8033C11.8378 16.4384 13.1787 17.764 14.8328 17.764Z" fill="#E520B2"/>
<path d="M72.1672 74.1574C73.8213 74.1574 75.1623 72.8319 75.1623 71.1968C75.1623 69.5616 73.8213 68.2361 72.1672 68.2361C70.5131 68.2361 69.1721 69.5616 69.1721 71.1968C69.1721 72.8319 70.5131 74.1574 72.1672 74.1574Z" fill="#E520B2"/>
<path d="M5.13447 29.8885C6.70333 30.3115 7.70169 31.8623 7.27382 33.5541C6.84595 35.1049 5.13447 35.9508 3.56562 35.5279C1.99677 35.1049 0.998409 33.5541 1.42628 31.8623C1.85415 30.4525 3.56562 29.4656 5.13447 29.8885Z" fill="#E520B2"/>
<path d="M82.7213 56.2525C84.3754 56.2525 85.7164 54.927 85.7164 53.2918C85.7164 51.6567 84.3754 50.3312 82.7213 50.3312C81.0671 50.3312 79.7262 51.6567 79.7262 53.2918C79.7262 54.927 81.0671 56.2525 82.7213 56.2525Z" fill="#E520B2"/>
<path d="M3.56559 50.6131C5.13445 50.1902 6.84592 51.1771 7.27379 52.7279C7.70166 54.2787 6.7033 55.9705 5.13445 56.3935C3.56559 56.6754 1.99674 55.8295 1.56887 54.2787C1.141 52.7279 1.99674 51.0361 3.56559 50.6131Z" fill="#E520B2"/>
<path d="M82.5787 35.5279C84.2328 35.5279 85.5738 34.2023 85.5738 32.5672C85.5738 30.9321 84.2328 29.6066 82.5787 29.6066C80.9246 29.6066 79.5836 30.9321 79.5836 32.5672C79.5836 34.2023 80.9246 35.5279 82.5787 35.5279Z" fill="#E520B2"/>
<path d="M14.9754 74.2984C16.6296 74.2984 17.9705 72.9728 17.9705 71.3377C17.9705 69.7026 16.6296 68.377 14.9754 68.377C13.3213 68.377 11.9803 69.7026 11.9803 71.3377C11.9803 72.9728 13.3213 74.2984 14.9754 74.2984Z" fill="#E520B2"/>
<path d="M72.0246 17.6229C73.6788 17.6229 75.0197 16.2974 75.0197 14.6623C75.0197 13.0272 73.6788 11.7016 72.0246 11.7016C70.3705 11.7016 69.0295 13.0272 69.0295 14.6623C69.0295 16.2974 70.3705 17.6229 72.0246 17.6229Z" fill="#E520B2"/>
<path d="M33.0885 84.7312C34.7426 84.7312 36.0835 83.4057 36.0835 81.7705C36.0835 80.1354 34.7426 78.8099 33.0885 78.8099C31.4343 78.8099 30.0934 80.1354 30.0934 81.7705C30.0934 83.4057 31.4343 84.7312 33.0885 84.7312Z" fill="#E520B2"/>
<path d="M53.9115 7.1902C55.5656 7.1902 56.9065 5.86467 56.9065 4.22955C56.9065 2.59442 55.5656 1.26889 53.9115 1.26889C52.2573 1.26889 50.9164 2.59442 50.9164 4.22955C50.9164 5.86467 52.2573 7.1902 53.9115 7.1902Z" fill="#E520B2"/>
</svg>
