<svg width="89" height="89" viewBox="0 0 89 89" fill="none" xmlns="http://www.w3.org/2000/svg">
<path d="M85.862 89H3.1377L31.5207 23.391H57.479L85.862 89Z" fill="#5EE5CF"/>
<path d="M54.056 27.3846C54.056 31.6635 49.7772 34.9439 44.4999 34.9439C39.2227 34.9439 34.9438 31.5208 34.9438 27.3846C34.9438 23.1058 39.2227 19.8253 44.4999 19.8253C49.7772 19.8253 54.056 23.1058 54.056 27.3846Z" fill="#EA1F0A"/>
<path d="M51.2035 21.9647C54.9118 24.9599 54.9118 29.8093 51.2035 32.8045C47.4952 35.7996 41.5048 35.7996 37.6538 32.8045" fill="#C61109"/>
<path d="M33.9454 24.532C33.9454 28.8109 29.6666 32.0913 24.3893 32.0913C19.1121 32.0913 14.8333 28.6683 14.8333 24.532C14.8333 20.2532 19.1121 16.9727 24.3893 16.9727C29.6666 16.9727 33.9454 20.3958 33.9454 24.532Z" fill="#EA1F0A"/>
<path d="M31.0931 19.1122C34.8015 22.1074 34.8015 26.9567 31.0931 29.9519C27.3848 32.9471 21.3944 32.9471 17.5435 29.9519" fill="#C61109"/>
<path d="M74.1666 24.532C74.1666 28.8109 69.8878 32.0913 64.6105 32.0913C59.3333 32.0913 55.0544 28.6683 55.0544 24.532C55.0544 20.2532 59.3333 16.9727 64.6105 16.9727C69.8878 16.9727 74.1666 20.3958 74.1666 24.532Z" fill="#EA1F0A"/>
<path d="M71.3141 19.1122C75.0224 22.1074 75.0224 26.9567 71.3141 29.9519C67.6057 32.9471 61.6154 32.9471 57.7644 29.9519" fill="#C61109"/>
<path d="M66.7499 13.9776C65.6088 7.84455 56.0528 0 44.4999 0C32.947 0 23.3909 7.84455 22.2499 13.9776C10.2691 15.2612 2.42456 17.5433 2.42456 20.1106C2.42456 24.1042 21.2515 27.242 44.4999 27.242C67.7483 27.242 86.5752 23.9615 86.5752 20.1106C86.5752 17.5433 78.588 15.2612 66.7499 13.9776Z" fill="#343A3A"/>
<path d="M44.5 27.242C67.7484 27.242 86.5753 23.9615 86.5753 20.1106C86.5753 17.5433 78.5881 15.2612 66.75 13.9776C65.609 7.84455 56.0529 0 44.5 0" fill="#1E2323"/>
<path d="M33.5176 16.8301C35.0142 16.8301 36.2275 15.6168 36.2275 14.1202C36.2275 12.6235 35.0142 11.4102 33.5176 11.4102C32.0209 11.4102 30.8076 12.6235 30.8076 14.1202C30.8076 15.6168 32.0209 16.8301 33.5176 16.8301Z" fill="#FFC41D"/>
<path d="M35.3717 12.2661C36.3701 13.2644 36.3701 14.976 35.3717 16.117C34.3733 17.1154 32.6618 17.1154 31.5208 16.117" fill="#F4A211"/>
<path d="M44.5 16.8301C45.9966 16.8301 47.2099 15.6168 47.2099 14.1202C47.2099 12.6235 45.9966 11.4102 44.5 11.4102C43.0033 11.4102 41.79 12.6235 41.79 14.1202C41.79 15.6168 43.0033 16.8301 44.5 16.8301Z" fill="#FFC41D"/>
<path d="M46.3541 12.2661C47.3525 13.2644 47.3525 14.976 46.3541 16.117C45.3557 17.1154 43.6442 17.1154 42.5032 16.117" fill="#F4A211"/>
<path d="M55.4824 16.8301C56.9791 16.8301 58.1923 15.6168 58.1923 14.1202C58.1923 12.6235 56.9791 11.4102 55.4824 11.4102C53.9857 11.4102 52.7725 12.6235 52.7725 14.1202C52.7725 15.6168 53.9857 16.8301 55.4824 16.8301Z" fill="#FFC41D"/>
<path d="M57.4792 12.2661C58.4776 13.2644 58.4776 14.976 57.4792 16.117C56.4808 17.1154 54.7692 17.1154 53.6282 16.117" fill="#F4A211"/>
<path d="M76.4486 67.3205L66.7499 77.0192L60.7595 71.0288L55.0544 76.5913L35.229 56.766L19.9678 72.1698L13.4069 65.181L3.1377 88.9999H85.862L76.4486 67.3205Z" fill="#39C9AD"/>
<path d="M76.4486 67.3205L66.7499 79.8717L60.7595 71.0288L55.0544 80.8701L35.229 56.766L19.9678 79.1586L13.4069 65.181L3.1377 88.9999H85.862L76.4486 67.3205Z" fill="#2ABA9E"/>
<path d="M61.7581 47.3526C61.4728 47.3526 61.1876 47.3526 60.9023 47.4952C60.3318 46.9247 59.6187 46.6395 58.7629 46.6395H58.6203C58.4776 45.0705 57.194 43.7869 55.6251 43.7869C54.3414 43.7869 53.343 44.6427 52.9151 45.6411C52.7725 45.6411 52.6299 45.6411 52.4873 45.6411C51.3462 45.6411 50.2052 46.3542 49.7773 47.3526C49.3494 47.21 49.0642 47.0673 48.6363 47.0673C46.9248 47.0673 45.6411 48.351 45.6411 50.0625C45.6411 51.7741 46.9248 53.0577 48.6363 53.0577C48.7789 53.0577 48.9216 53.0577 49.0642 53.0577C49.6347 53.9135 50.4905 54.6266 51.6315 54.6266C52.3446 54.6266 52.9151 54.3414 53.343 54.0561C53.9135 54.7693 54.7693 55.1972 55.6251 55.1972C56.4808 55.1972 57.194 54.9119 57.7645 54.3414C58.0498 54.484 58.335 54.484 58.6203 54.484C59.6187 54.484 60.4744 54.0561 61.0449 53.343C61.3302 53.343 61.4728 53.4856 61.7581 53.4856C63.4696 53.4856 64.7533 52.202 64.7533 50.4904C64.7533 48.7789 63.327 47.3526 61.7581 47.3526Z" fill="#39C9AD"/>
<path d="M61.6155 48.3509C61.3302 48.3509 61.0449 48.3509 60.9023 48.4936C60.3318 48.0657 59.6187 47.923 58.7629 47.923H58.6203C58.4776 46.9246 57.194 46.0689 55.6251 46.0689C54.3414 46.0689 53.343 46.6394 52.9151 47.3525C52.7725 47.3525 52.6299 47.3525 52.4873 47.3525C51.3462 47.3525 50.2052 47.7804 49.7773 48.4936C49.3494 48.3509 49.0642 48.3509 48.6363 48.3509C47.0674 48.3509 45.6411 49.2067 45.6411 50.3477C45.6411 51.4887 46.9248 52.3445 48.6363 52.3445C48.7789 52.3445 48.9216 52.3445 49.0642 52.3445C49.6347 52.915 50.4905 53.3429 51.6315 53.3429C52.3446 53.3429 52.9151 53.2003 53.343 52.915C53.9135 53.3429 54.7693 53.6282 55.6251 53.6282C56.4808 53.6282 57.194 53.3429 57.7645 53.0577C58.0498 53.0577 58.335 53.2003 58.6203 53.2003C59.6187 53.2003 60.4744 52.915 61.0449 52.3445C61.3302 52.3445 61.4728 52.3445 61.7581 52.3445C63.327 52.3445 64.7533 51.4887 64.7533 50.3477C64.468 49.3493 63.1844 48.3509 61.6155 48.3509Z" fill="#2ABA9E"/>
<path d="M29.2389 44.5C29.5241 44.5 29.6668 44.5 29.8094 44.6427C30.2373 44.2148 30.8078 43.9295 31.5209 43.9295H31.6636C31.6636 42.6459 32.8046 41.6475 34.0882 41.6475C35.0866 41.6475 35.9424 42.218 36.3703 43.2164C36.5129 43.2164 36.5129 43.2164 36.6556 43.2164C37.654 43.2164 38.5097 43.7869 38.795 44.6427C39.0802 44.5 39.3655 44.5 39.7934 44.5C41.077 44.5 42.2181 45.6411 42.2181 46.9247C42.2181 48.2084 41.2197 49.3494 39.7934 49.3494C39.6508 49.3494 39.6508 49.3494 39.5081 49.3494C39.0802 50.0625 38.3671 50.633 37.3687 50.633C36.7982 50.633 36.3703 50.4904 35.9424 50.2052C35.5145 50.7757 34.8014 51.0609 34.0882 51.0609C33.3751 51.0609 32.8046 50.7757 32.3767 50.3478C32.0915 50.3478 31.9488 50.4904 31.6636 50.4904C30.8078 50.4904 30.2373 50.0625 29.8094 49.492C29.6668 49.492 29.3815 49.6346 29.2389 49.6346C27.9552 49.6346 26.8142 48.4936 26.8142 47.21C26.8142 45.641 27.8126 44.5 29.2389 44.5Z" fill="#39C9AD"/>
<path d="M29.2389 45.3558C29.5241 45.3558 29.6668 45.3558 29.8094 45.3558C30.2373 45.0706 30.8078 44.9279 31.5209 44.9279H31.6636C31.6636 44.0722 32.8046 43.359 34.0882 43.359C35.0866 43.359 35.9424 43.7869 36.2277 44.3574C36.3703 44.3574 36.3703 44.3574 36.5129 44.3574C37.5113 44.3574 38.2245 44.7853 38.6524 45.3558C38.9376 45.2132 39.2229 45.2132 39.6507 45.2132C40.9344 45.2132 42.0754 45.9263 42.0754 46.7821C42.0754 47.6379 41.077 48.351 39.6507 48.351C39.5081 48.351 39.5081 48.351 39.3655 48.351C38.9376 48.7789 38.2245 49.2068 37.3687 49.2068C36.7982 49.2068 36.3703 49.0642 35.9424 48.9215C35.5145 49.3494 34.8014 49.492 34.0882 49.492C33.3751 49.492 32.8046 49.3494 32.3767 49.0642C32.0915 49.0642 31.9488 49.2068 31.6636 49.2068C30.9504 49.2068 30.2373 48.9215 29.8094 48.4936C29.6668 48.4936 29.3815 48.4936 29.2389 48.4936C27.9552 48.4936 26.8142 47.7805 26.8142 46.9247C26.9568 46.069 27.9552 45.3558 29.2389 45.3558Z" fill="#2ABA9E"/>
</svg>
