<svg width="88" height="88" viewBox="0 0 88 88" fill="none" xmlns="http://www.w3.org/2000/svg">
<path d="M88 44.0709C88 54.5742 82.0387 63.2322 74.5161 63.2322C67.1355 63.2322 57.4839 54.7161 57.4839 44.0709C57.4839 33.5677 66 22.7806 73.3807 22.7806C80.9032 22.7806 88 33.5677 88 44.0709Z" fill="#B4C1C1"/>
<path d="M57.4839 28.1742H55.9226H45.1355H8.94194C8.65806 28.1742 8.51613 28.1742 8.23226 28.1742C8.09032 28.1742 6.8129 28.1742 6.67097 28.1742C2.83871 28.1742 0 32.1484 0 40.9484C0 46.2 1.41935 51.8774 3.40645 55.5677C5.53548 61.2452 10.929 65.2193 17.3161 65.2193H31.6516C39.7419 65.2193 44.2839 60.9613 45.8452 55C47.4064 50.4581 53.0839 47.0516 60.0387 46.6258C64.1548 45.6322 67.1355 41.9419 67.1355 37.4C66.9935 32.4323 62.7355 28.1742 57.4839 28.1742Z" fill="#20E092"/>
<path d="M52.9419 29.7355H51.3806H40.5935H4.4C4.25806 29.7355 3.97419 29.7355 3.83226 29.7355C1.70323 31.7226 0 35.4129 0 40.9484C0 46.2 1.41935 51.8774 3.40645 55.5678C5.53548 61.2452 12.2065 65.0774 17.3161 65.2194H31.6516C32.929 65.2194 34.0645 65.0774 35.0581 64.9355C38.3226 63.0903 40.3097 60.2516 41.3032 56.7032C42.5806 53.0129 46.6968 49.8903 51.9484 48.7549C53.7935 47.7613 56.0645 47.1936 58.4774 46.9097C60.8903 45.2065 62.4516 42.3678 62.4516 39.2452C62.4516 33.9936 58.1935 29.7355 52.9419 29.7355Z" fill="#1AD3A2"/>
<path d="M49.6774 29.8774V48.0452C49.6774 48.471 50.387 48.8968 51.3806 49.1806C53.7935 47.9032 56.7741 47.0516 60.0387 46.7677C61.0322 46.4839 62.0258 46.0581 62.7354 45.4903V29.8774V29.7355C61.3161 28.742 59.4709 28.3162 57.6258 28.3162H56.0645H52.2322C51.0967 28.1742 49.6774 28.8839 49.6774 29.8774Z" fill="#15CCA0"/>
<path d="M52.9419 29.7355H51.3806H49.6774C49.6774 29.7355 49.6774 29.7355 49.6774 29.8774V48.0452C49.6774 48.471 50.387 48.8968 51.0967 49.1807C51.3806 49.1807 51.6645 49.0387 51.9483 48.8968C52.3741 48.7549 52.658 48.471 53.0838 48.329C53.0838 48.329 53.2258 48.3291 53.2258 48.1871C53.7935 47.9032 54.5032 47.7613 55.2129 47.4774C55.3548 47.4774 55.4967 47.3355 55.7806 47.3355C56.2064 47.1936 56.7741 47.0516 57.1999 47.0516C57.4838 47.0516 57.7677 46.9097 58.0516 46.9097C58.1935 46.9097 58.3354 46.9097 58.6193 46.7678C61.0322 45.0645 62.5935 42.2258 62.5935 39.1032C62.4516 33.9936 58.1935 29.7355 52.9419 29.7355Z" fill="#15BAA2"/>
<path d="M67.9871 48.0452C67.9871 49.0387 67.2775 49.7484 66.2839 49.7484H58.7613C57.7678 49.7484 54.9291 49.0387 54.9291 48.0452V29.8774C54.9291 28.8839 56.4904 28.1742 57.342 28.1742H66.2839C67.2775 28.1742 67.9871 28.8839 67.9871 29.8774V48.0452Z" fill="#B4C1C1"/>
<path d="M71.5355 48.0451C71.5355 49.0387 70.8258 49.7484 69.8323 49.7484H62.3097C61.3161 49.7484 58.4774 49.0387 58.4774 48.0451V29.8774C58.4774 28.8838 60.0387 28.1742 60.8903 28.1742H69.8323C70.6839 28.1742 71.5355 28.8838 71.5355 29.8774V48.0451Z" fill="#CADBD9"/>
<path d="M74.5161 63.2322C81.963 63.2322 88 54.6534 88 44.071C88 33.4885 81.963 24.9097 74.5161 24.9097C67.0692 24.9097 61.0322 33.4885 61.0322 44.071C61.0322 54.6534 67.0692 63.2322 74.5161 63.2322Z" fill="#CADBD9"/>
<path d="M74.5161 25.0516C81.8968 25.0516 88 33.5677 88 44.2129C88 54.7161 82.0387 63.3742 74.5161 63.3742" fill="#C2D3D2"/>
<path d="M34.6323 57.5548H24.9807C24.5549 57.5548 24.271 57.2709 24.271 56.8451V52.8709H18.3097C17.8839 52.8709 17.6 52.5871 17.6 52.1613V41.9419H11.6388C11.2129 41.9419 10.9291 41.658 10.9291 41.2322C10.9291 40.8064 11.2129 40.5226 11.6388 40.5226H18.3097C18.7355 40.5226 19.0194 40.8064 19.0194 41.2322V51.4516H24.9807C25.4065 51.4516 25.6904 51.7355 25.6904 52.1613V56.1355H34.6323C35.0581 56.1355 35.342 56.4193 35.342 56.8451C35.342 57.2709 35.0581 57.5548 34.6323 57.5548Z" fill="#15CCA0"/>
<path d="M27.8194 41.3742C25.9743 41.3742 24.5549 39.9548 24.5549 38.1096C24.5549 36.2645 25.9743 34.8451 27.8194 34.8451C29.6646 34.8451 31.084 36.2645 31.084 38.1096C31.084 39.9548 29.6646 41.3742 27.8194 41.3742ZM27.8194 36.2645C26.8259 36.2645 25.9743 37.1161 25.9743 38.1096C25.9743 39.1032 26.8259 39.9548 27.8194 39.9548C28.813 39.9548 29.6646 39.1032 29.6646 38.1096C29.6646 37.1161 28.9549 36.2645 27.8194 36.2645Z" fill="#15CCA0"/>
<path d="M11.213 52.1613H7.3807C6.95489 52.1613 6.67102 51.8774 6.67102 51.4516V47.6193C6.67102 47.1935 6.95489 46.9096 7.3807 46.9096H11.213C11.6388 46.9096 11.9226 47.1935 11.9226 47.6193V51.4516C11.9226 51.8774 11.4968 52.1613 11.213 52.1613ZM8.09038 50.7419H10.5033V48.329H8.09038V50.7419Z" fill="#15CCA0"/>
<path d="M33.7806 56.8452H24.129C23.7032 56.8452 23.4194 56.5614 23.4194 56.1356V52.1614H17.4581C17.0323 52.1614 16.7484 51.8775 16.7484 51.4517V41.2323H10.929C10.5032 41.2323 10.2194 40.9485 10.2194 40.5227C10.2194 40.0969 10.5032 39.813 10.929 39.813H17.6C18.0258 39.813 18.3097 40.0969 18.3097 40.5227V50.742H24.129C24.5548 50.742 24.8387 51.0259 24.8387 51.4517V55.4259H33.7806C34.2065 55.4259 34.4903 55.7098 34.4903 56.1356C34.4903 56.4194 34.2065 56.8452 33.7806 56.8452Z" fill="#2CFFA4"/>
<path d="M27.1096 40.5226C25.2644 40.5226 23.8451 39.1033 23.8451 37.2581C23.8451 35.4129 25.2644 33.9936 27.1096 33.9936C28.9548 33.9936 30.3741 35.4129 30.3741 37.2581C30.3741 39.1033 28.8128 40.5226 27.1096 40.5226ZM27.1096 35.4129C26.1161 35.4129 25.2644 36.2646 25.2644 37.2581C25.2644 38.2517 26.1161 39.1033 27.1096 39.1033C28.1032 39.1033 28.9548 38.2517 28.9548 37.2581C28.9548 36.2646 28.1032 35.4129 27.1096 35.4129Z" fill="#2CFFA4"/>
<path d="M10.3613 51.3098H6.52901C6.10321 51.3098 5.81934 51.0259 5.81934 50.6001V46.9098C5.81934 46.4839 6.10321 46.2001 6.52901 46.2001H10.3613C10.7871 46.2001 11.0709 46.4839 11.0709 46.9098V50.742C11.0709 51.0259 10.7871 51.3098 10.3613 51.3098ZM7.23869 49.8904H9.65159V47.4775H7.23869V49.8904Z" fill="#2CFFA4"/>
<path d="M67.5613 42.9355C67.5613 44.4968 66.2839 45.7742 64.7226 45.7742C63.1613 45.7742 61.8839 44.4968 61.8839 42.9355V35.129C61.8839 33.5677 63.1613 32.2903 64.7226 32.2903C66.2839 32.2903 67.5613 33.5677 67.5613 35.129V42.9355Z" fill="#D31160"/>
<path d="M83.8838 52.3032L77.7806 58.4064L63.1613 43.7871L66.4258 34.8451L83.8838 52.3032Z" fill="#C2D3D2"/>
<path d="M65.1484 32.2903C63.729 32.4322 62.7355 33.7097 62.7355 35.129V42.9355C62.7355 44.3548 63.729 45.4903 65.1484 45.7742C66.5677 45.4903 67.5613 44.3548 67.5613 42.9355V35.129C67.5613 33.5677 66.4258 32.4322 65.1484 32.2903Z" fill="#B20059"/>
<path d="M72.2451 42.2258C72.2451 42.5097 71.9612 42.6516 71.6774 42.6516C71.3935 42.6516 71.1096 42.3677 71.1096 42.2258V35.5548C71.1096 35.271 71.3935 35.129 71.6774 35.129C71.9612 35.129 72.2451 35.4129 72.2451 35.5548V42.2258Z" fill="#B4C1C1"/>
<path d="M75.0839 42.2258C75.0839 42.5097 74.8 42.6516 74.6581 42.6516C74.3742 42.6516 74.0903 42.3677 74.0903 42.2258V35.5548C74.0903 35.271 74.3742 35.129 74.6581 35.129C74.9419 35.129 75.0839 35.4129 75.0839 35.5548V42.2258Z" fill="#B4C1C1"/>
<path d="M77.7806 42.2258C77.7806 42.5097 77.4967 42.6516 77.3548 42.6516C77.0709 42.6516 76.929 42.3677 76.929 42.2258V35.5548C76.929 35.271 77.2128 35.129 77.3548 35.129C77.6386 35.129 77.7806 35.4129 77.7806 35.5548V42.2258Z" fill="#B4C1C1"/>
</svg>
