<svg width="90" height="89" viewBox="0 0 90 89" fill="none" xmlns="http://www.w3.org/2000/svg">
<path d="M90 69.1162C90 73.3543 69.8571 76.8861 45 76.8861C20.1429 76.8861 0 73.4956 0 69.1162C0 64.7369 20.1429 67.421 45 67.421C69.8571 67.421 90 64.8781 90 69.1162Z" fill="#8A5FC4"/>
<path d="M45 67.4211C69.8571 67.4211 90 64.8782 90 69.1163C90 73.3544 69.8571 76.8861 45 76.8861" fill="#704D96"/>
<path d="M45 62.6179C50.8572 62.6179 56.4286 62.4766 61.5715 62.3353L48.2857 13.7385C45.7143 11.1956 44.2857 11.1956 41.7143 13.7385L28.4286 62.3353C33.5714 62.4766 39.1429 62.6179 45 62.6179Z" fill="#8A5FC4"/>
<path d="M45 62.6178C50.8571 62.6178 56.4286 62.4766 61.5714 62.3353L48.2857 13.7385" fill="#704D96"/>
<path d="M9.00012 73.7781C16.0001 75.3321 30.2858 77.1686 45.0001 77.1686C59.7144 77.1686 72.7144 75.7559 80.8573 73.9194L9.00012 73.7781Z" fill="#704D96"/>
<path d="M44.9999 43.4051L46.8571 47.2194L51.1428 47.7845L48.1428 50.7512L48.8571 54.9893L44.9999 53.0115L41.1428 54.9893L41.8571 50.7512L38.8571 47.7845L43.1428 47.2194L44.9999 43.4051Z" fill="#FCC03A"/>
</svg>
